<?xml version="1.0" standalone="no"?>
<!DOCTYPE svg PUBLIC "-//W3C//DTD SVG 1.1//EN" "http://www.w3.org/Graphics/SVG/1.1/DTD/svg11.dtd">
<svg xmlns="http://www.w3.org/2000/svg">
<defs >
<font id="Gantari" horiz-adv-x="563" ><font-face
    font-family="Gantari Medium"
    units-per-em="1000"
    panose-1="0 0 0 0 0 0 0 0 0 0"
    ascent="950"
    descent="-250"
    alphabetic="0" />
<glyph unicode=" " horiz-adv-x="241" />
<glyph unicode="!" horiz-adv-x="258" d="M89 202L122 486L154 668H254L222 486L156 202H89ZM88 -6Q64 -6 51 7T37 41Q37 69 55 86T102 103Q127 103 140 90T153 56Q153 28 135 11T88 -6Z" />
<glyph unicode="&quot;" horiz-adv-x="436" d="M299 388L335 668H429L366 388H299ZM122 388L156 668H252L189 388H122Z" />
<glyph unicode="#" horiz-adv-x="635" d="M56 0L118 176H15L39 243H141L206 425H104L128 492H230L291 668H373L312 492H469L531 668H613L551 492H653L629 425H527L463 243H565L541 176H439L378 0H296L357 176H200L138 0H56ZM224 243H380L445 425H288L224 243Z" />
<glyph unicode="$" horiz-adv-x="592" d="M106 -100L149 6Q113 17 81 37T22 87L75 158Q103 133 130 116T183 90L269 303L250 308Q175 322 140 363T105 458Q105 521 135 571T223 649T362 678Q376 678 390 677T419 673L457 768H519L475 660Q506 649 533 634T585
596L533 524Q513 541 490 554T442 577L363 383L397 377Q446 368 477 344T523 288T538 218Q538 146 503 95T404 17T251 -10Q240 -10 229 -9T206 -6L168 -100H106ZM240 78Q246 77 251 77T262 77Q315 77 354 91T414 133T436 203Q436 236 416 257T355 287L327 292L240
78ZM306 394L385 590Q380 591 375 591T363 591Q290 591 249 561T208 474Q208 442 228 424T291 398L306 394Z" />
<glyph unicode="%" horiz-adv-x="946" d="M216 0L685 668H763L295 0H216ZM220 268Q153 268 119 312T85 423Q85 468 96 512T131 593T192 652T280 674Q346 674 380 630T415 519Q415 474 404 430T369 349T308 290T220 268ZM225 331Q265 331 289 360T326 432T338 518Q338
562 322 587T275 612Q235 612 210 583T174 510T162 425Q162 380 179 356T225 331ZM700 -6Q633 -6 599 38T564 149Q564 194 575 238T611 319T672 378T760 400Q826 400 860 356T895 245Q895 200 884 156T848 75T787 16T700 -6ZM705 57Q744 57 769 86T806 158T818
244Q818 288 801 313T755 338Q715 338 690 309T654 236T642 151Q642 106 658 82T705 57Z" />
<glyph unicode="&amp;" horiz-adv-x="672" d="M220 -10Q160 -10 119 12T56 70T34 150Q34 219 74 266T193 343L228 356Q201 390 190 422T178 487Q178 539 203 582T274 652T385 678Q439 678 476 657T532 601T552 527Q552 468 514 425T390 349L349 333L455 209L553
324H651L501 151L626 0H518L441 90Q385 36 335 13T220 -10ZM243 76Q281 76 320 94T395 150L271 298L232 284Q183 266 157 235T130 162Q130 120 160 98T243 76ZM309 386L360 405Q411 425 437 450T463 518Q463 553 440 575T378 598Q345 598 320 584T281 546T267 487Q267
466 275 443T309 386Z" />
<glyph unicode="&apos;" horiz-adv-x="258" d="M122 388L156 668H252L189 388H122Z" />
<glyph unicode="(" horiz-adv-x="344" d="M157 -252Q136 -227 117 -185T81 -91T56 18T47 127Q47 198 63 271T107 416T171 549T249 660T332 738H405Q366 709 328 661T256 550T196 417T155 272T139 127Q139 74 146 18T167 -90T197 -185T230 -252H157Z" />
<glyph unicode=")" horiz-adv-x="344" d="M-59 -252Q-20 -223 18 -175T90 -64T150 69T191 214T206 359Q206 413 199 468T179 576T150 670T116 738H189Q210 712 229 670T265 576T290 469T299 359Q299 288 283 215T239 70T175 -63T97 -174T14 -252H-59Z" />
<glyph unicode="*" horiz-adv-x="487" d="M173 296L117 339L237 460L95 499L129 570L264 514L281 668H356L321 514L474 570L484 499L327 460L404 339L338 296L279 425L173 296Z" />
<glyph unicode="+" horiz-adv-x="582" d="M227 118L257 295H84L98 374H271L303 551H389L358 374H531L517 295H344L312 118H227Z" />
<glyph unicode="," horiz-adv-x="258" d="M32 -154L-19 -130Q-2 -107 11 -84T33 -37T46 14L60 95H146L132 14Q122 -46 100 -85T32 -154Z" />
<glyph unicode="-" horiz-adv-x="368" d="M50 248L63 324H334L321 248H50Z" />
<glyph unicode="." horiz-adv-x="252" d="M88 -6Q64 -6 51 7T37 41Q37 69 55 86T102 103Q127 103 140 90T153 56Q153 28 135 11T88 -6Z" />
<glyph unicode="/" horiz-adv-x="338" d="M-25 0L306 668H396L65 0H-25Z" />
<glyph unicode="0" horiz-adv-x="642" d="M286 -10Q211 -10 160 24T83 117T57 252Q57 328 76 404T136 542T239 641T388 678Q463 678 514 644T592 551T618 416Q618 340 599 265T540 127T436 28T286 -10ZM294 73Q341 73 377 94T439 151T482 231T507 324T515 417Q515
508 479 552T381 596Q334 596 298 575T236 518T193 437T168 344T159 251Q159 160 196 117T294 73Z" />
<glyph unicode="1" horiz-adv-x="391" d="M170 0L269 560L110 481L85 558L313 668H387L270 0H170Z" />
<glyph unicode="2" horiz-adv-x="554" d="M7 0L21 83L353 350Q379 371 397 393T425 440T435 491Q435 521 421 544T380 582T319 596Q279 596 234 578T135 516L109 593Q164 639 220 658T330 678Q389 678 436 656T510 595T538 502Q538 465 524 428T482 356T411 287L156
83H477L464 0H7Z" />
<glyph unicode="3" horiz-adv-x="574" d="M243 -10Q171 -10 118 14T21 85L70 153Q114 113 159 93T251 73Q297 73 334 89T394 135T416 205Q416 254 381 279T287 305H207L221 384H306Q347 384 382 396T438 435T460 503Q460 550 425 573T338 596Q294 596 249 578T147
516L119 593Q174 640 230 659T345 678Q410 678 459 658T535 601T563 513Q563 449 521 405T409 342Q461 325 489 289T518 200Q518 138 483 91T387 17T243 -10Z" />
<glyph unicode="4" horiz-adv-x="622" d="M347 0L375 157H35L52 256L454 668H561L486 238H574L559 157H472L444 0H347ZM142 238H389L444 554L142 238Z" />
<glyph unicode="5" horiz-adv-x="582" d="M251 -10Q201 -10 163 -1T92 30T25 85L71 149Q117 107 160 90T257 73Q307 73 346 93T407 150T430 238Q430 296 394 325T293 355Q246 355 208 337T154 279L71 295L206 678H561L546 596H268L199 402Q223 417 254 425T319
433Q421 433 477 384T533 248Q533 174 499 116T401 24T251 -10Z" />
<glyph unicode="6" horiz-adv-x="612" d="M281 -10Q211 -10 159 18T79 100T50 226Q50 311 71 391T137 537T248 640T406 678Q446 678 484 666T554 633T605 583L559 523Q526 560 487 578T404 596Q352 596 303 572T217 495T163 355Q194 392 241 412T349 433Q451 433
507 384T563 248Q563 174 529 116T431 24T281 -10ZM288 73Q338 73 377 93T438 150T461 238Q461 296 425 325T324 355Q252 355 208 320T152 220Q152 149 183 111T288 73Z" />
<glyph unicode="7" horiz-adv-x="514" d="M76 0L442 586H90L104 668H561L547 596L179 0H76Z" />
<glyph unicode="8" horiz-adv-x="612" d="M271 -10Q159 -10 98 39T36 165Q36 233 79 279T204 344Q155 361 128 396T100 479Q100 539 134 584T230 653T373 678Q479 678 540 634T601 514Q601 451 560 407T444 344Q497 327 526 290T556 200Q556 139 522 92T423 17T271
-10ZM277 71Q359 71 406 107T454 205Q454 249 418 277T314 305Q234 305 186 270T138 174Q138 126 174 99T277 71ZM335 383Q409 383 453 413T498 505Q498 551 463 574T367 597Q293 597 249 567T204 476Q204 429 238 406T335 383Z" />
<glyph unicode="9" horiz-adv-x="612" d="M240 -10Q201 -10 162 2T92 35T40 85L86 146Q119 109 158 91T241 73Q295 73 343 97T429 174T482 313Q452 277 404 256T297 235Q195 235 139 284T82 420Q82 495 117 553T215 644T364 678Q435 678 486 650T567 568T596 443Q596
358 574 277T508 132T397 29T240 -10ZM321 313Q394 313 438 349T493 449Q493 519 463 557T358 596Q308 596 269 576T208 519T185 431Q185 372 221 343T321 313Z" />
<glyph unicode=":" horiz-adv-x="258" d="M156 383Q132 383 119 396T105 430Q105 459 123 476T171 493Q194 493 208 479T222 445Q222 417 204 400T156 383ZM88 -6Q64 -6 51 7T37 41Q37 69 55 86T102 103Q127 103 140 90T153 56Q153 28 135 11T88 -6Z" />
<glyph unicode=";" horiz-adv-x="258" d="M32 -154L-19 -130Q-2 -107 11 -84T33 -37T46 14L60 95H146L132 14Q122 -46 100 -85T32 -154ZM156 383Q132 383 119 396T105 430Q105 459 123 476T171 493Q194 493 208 479T222 445Q222 417 204 400T156 383Z" />
<glyph unicode="&lt;" horiz-adv-x="582" d="M488 126L84 292L99 376L561 543L545 452L189 330L502 208L488 126Z" />
<glyph unicode="=" horiz-adv-x="582" d="M104 405L118 484H551L537 405H104ZM65 184L78 263H512L498 184H65Z" />
<glyph unicode="&gt;" horiz-adv-x="582" d="M55 126L71 217L427 339L114 461L127 543L532 376L517 292L55 126Z" />
<glyph unicode="?" horiz-adv-x="473" d="M184 202L190 232Q197 273 218 304T267 359T321 404T365 449T383 500Q383 528 370 549T332 583T273 596Q236 596 199 579T108 521L84 592Q131 639 182 658T289 678Q344 678 389 658T460 602T486 517Q486 473 466 442T415
386T353 338T297 287T268 223L264 202H184ZM190 -6Q166 -6 153 7T139 41Q139 69 156 86T204 103Q228 103 241 90T255 56Q255 28 238 11T190 -6Z" />
<glyph unicode="@" horiz-adv-x="905" d="M409 -110Q333 -110 268 -86T155 -16T81 91T54 228Q54 365 111 466T273 622T519 678Q596 678 661 656T776 593T852 498T880 378Q880 325 866 275T825 184T759 119T669 94Q623 94 596 117T561 187Q538 143 501 119T409
94Q343 94 305 137T266 249Q266 316 289 366T356 445T461 474Q504 474 533 455T577 401L588 466H664L624 247Q620 224 624 204T644 172T683 160Q714 160 738 179T778 229T802 297T810 372Q810 442 772 496T667 583T512 615Q396 615 309 569T173 437T124 235Q124
152 161 89T265 -10T415 -46Q465 -46 510 -34T596 0L611 -53Q571 -79 518 -94T409 -110ZM434 160Q494 160 527 201T561 311Q561 358 538 383T472 408Q412 408 378 367T344 258Q344 210 368 185T434 160Z" />
<glyph unicode="A" horiz-adv-x="701" d="M-17 0L370 668H479L634 0H532L501 139H175L97 0H-17ZM221 223H485L412 561L221 223Z" />
<glyph unicode="B" horiz-adv-x="694" d="M37 0L154 668H452Q555 668 614 635T674 525Q674 472 658 436T610 377T534 344Q586 330 612 296T638 205Q638 130 606 85T511 20T357 0H37ZM152 85H352Q451 85 494 114T537 213Q537 257 500 280T377 304H190L152 85ZM205
385H408Q494 385 531 412T568 507Q568 548 536 566T429 584H239L205 385Z" />
<glyph unicode="C" horiz-adv-x="663" d="M357 -10Q271 -10 205 26T100 128T62 279Q62 401 112 491T251 629T456 678Q519 678 577 657T682 597L632 528Q593 557 547 573T446 590Q364 590 300 553T200 447T164 281Q164 218 189 173T261 103T367 79Q422 79 468 93T565
140L590 60Q539 24 481 7T357 -10Z" />
<glyph unicode="D" horiz-adv-x="710" d="M37 0L154 668H374Q525 668 603 598T681 390Q681 200 578 100T279 0H37ZM152 86H282Q432 86 505 161T579 387Q579 494 526 538T359 582H239L152 86Z" />
<glyph unicode="E" horiz-adv-x="595" d="M37 0L154 668H617L602 582H239L205 385H538L523 303H190L152 86H515L500 0H37Z" />
<glyph unicode="F" horiz-adv-x="585" d="M37 0L154 668H617L602 582H239L205 385H538L523 303H190L137 0H37Z" />
<glyph unicode="G" horiz-adv-x="730" d="M357 -10Q271 -10 205 26T100 128T62 279Q62 401 112 491T251 629T456 678Q502 678 546 669T630 641T698 595L647 526Q608 556 557 573T446 590Q364 590 300 553T200 447T164 281Q164 218 189 173T261 103T367 79Q428
79 474 97T555 148L579 283H388L403 368H694L647 105Q596 51 523 21T357 -10Z" />
<glyph unicode="H" horiz-adv-x="720" d="M37 0L154 668H254L205 388H567L616 668H717L600 0H499L552 300H190L137 0H37Z" />
<glyph unicode="I" horiz-adv-x="258" d="M37 0L154 668H254L137 0H37Z" />
<glyph unicode="J" horiz-adv-x="526" d="M188 -10Q134 -10 90 8T11 68L58 135Q88 108 121 94T188 79Q251 79 291 112T344 224L422 668H523L444 224Q423 104 363 47T188 -10Z" />
<glyph unicode="K" horiz-adv-x="639" d="M37 0L154 668H254L197 341L547 668H678L362 376L571 0H458L290 309L172 199L137 0H37Z" />
<glyph unicode="L" horiz-adv-x="535" d="M37 0L154 668H254L152 89H464L450 0H37Z" />
<glyph unicode="M" horiz-adv-x="905" d="M37 0L154 668H307L427 124L738 668H901L784 0H683L784 570L454 0H366L237 570L137 0H37Z" />
<glyph unicode="N" horiz-adv-x="720" d="M37 0L154 668H263L523 137L616 668H717L600 0H490L230 531L137 0H37Z" />
<glyph unicode="O" horiz-adv-x="780" d="M356 -10Q271 -10 204 26T100 128T62 278Q62 401 112 491T251 629T456 678Q542 678 608 642T712 541T751 390Q751 267 701 178T562 39T356 -10ZM367 79Q448 79 512 116T612 222T649 387Q649 451 623 496T552 565T446 590Q364
590 300 553T200 447T164 281Q164 218 189 173T261 103T367 79Z" />
<glyph unicode="P" horiz-adv-x="641" d="M37 0L154 668H409Q519 668 576 624T634 494Q634 408 601 354T505 275T356 249H180L137 0H37ZM196 333H348Q404 333 445 346T508 393T531 483Q531 538 493 561T381 584H239L196 333Z" />
<glyph unicode="Q" horiz-adv-x="780" d="M532 -192Q474 -192 430 -172T366 -110T357 -10Q271 -10 205 26T100 128T62 279Q62 401 112 491T251 629T456 678Q542 678 608 642T713 541T751 390Q751 283 712 200T603 66T438 -2Q434 -20 435 -39T447 -75T479 -101T538
-111Q576 -111 615 -99T682 -66L705 -139Q667 -165 622 -178T532 -192ZM367 79Q449 79 512 116T612 222T649 387Q649 451 623 496T552 565T446 590Q364 590 300 553T200 447T164 281Q164 218 189 173T261 103T367 79Z" />
<glyph unicode="R" horiz-adv-x="641" d="M37 0L154 668H407Q520 668 578 627T636 505Q636 430 609 382T534 310T427 277L584 0H472L325 271H184L137 0H37ZM200 354H350Q409 354 449 366T511 408T532 493Q532 545 495 564T380 584H239L200 354Z" />
<glyph unicode="S" horiz-adv-x="592" d="M251 -10Q188 -10 128 13T23 87L75 159Q123 116 167 97T262 77Q315 77 354 91T414 133T436 203Q436 236 416 257T355 287L250 308Q175 322 140 363T105 458Q105 521 135 571T223 649T362 678Q421 678 480 659T584 597L534
524Q499 554 455 572T363 591Q290 591 249 561T208 474Q208 442 228 424T291 398L397 377Q446 368 477 344T523 288T538 218Q538 146 503 95T404 17T251 -10Z" />
<glyph unicode="T" horiz-adv-x="600" d="M208 0L310 580H103L118 668H631L616 580H409L308 0H208Z" />
<glyph unicode="U" horiz-adv-x="720" d="M327 -10Q238 -10 179 25T95 125T86 278L154 668H254L185 274Q179 237 182 202T201 139T250 95T336 79Q391 79 433 97T505 155T545 262L616 668H717L645 258Q628 159 587 100T480 16T327 -10Z" />
<glyph unicode="V" horiz-adv-x="701" d="M254 0L100 668H205L323 115L635 668H751L363 0H254Z" />
<glyph unicode="W" horiz-adv-x="1005" d="M195 0L100 668H206L268 129L519 668H627L687 129L939 668H1055L727 0H617L554 535L303 0H195Z" />
<glyph unicode="X" horiz-adv-x="681" d="M-17 0L296 344L110 668H221L363 416L593 668H721L422 344L614 0H503L355 273L111 0H-17Z" />
<glyph unicode="Y" horiz-adv-x="681" d="M249 0L294 258L100 668H211L354 352L607 668H731L394 258L349 0H249Z" />
<glyph unicode="Z" horiz-adv-x="574" d="M-1 0L13 79L453 580H111L126 668H598L584 590L143 89H506L491 0H-1Z" />
<glyph unicode="[" horiz-adv-x="378" d="M-8 -252L167 738H412L398 661H240L93 -175H251L237 -252H-8Z" />
<glyph unicode="\" horiz-adv-x="338" d="M196 0L92 668H176L279 0H196Z" />
<glyph unicode="]" horiz-adv-x="378" d="M-31 -252L-19 -175H139L286 661H129L143 738H388L213 -252H-31Z" />
<glyph unicode="^" horiz-adv-x="582" d="M111 305L319 668H412L494 305H412L356 578L201 305H111Z" />
<glyph unicode="_" horiz-adv-x="475" d="M-61 -111L-50 -43H425L412 -111H-61Z" />
<glyph unicode="`" horiz-adv-x="600" d="M362 545L286 696H379L424 545H362Z" />
<glyph unicode="a" horiz-adv-x="560" d="M189 -10Q120 -10 75 25T29 123Q29 168 52 199T120 249T231 276L400 296Q402 323 396 342T376 373T341 392T293 399Q257 399 219 386T136 345L113 419Q157 451 204 465T299 480Q346 480 385 468T451 432T491 372T494 286L444
0H353L362 58Q335 26 294 8T189 -10ZM220 70Q267 70 301 86T355 130T382 188L388 224L245 206Q177 197 151 178T125 130Q125 103 150 87T220 70Z" />
<glyph unicode="b" horiz-adv-x="606" d="M297 -10Q238 -10 197 14T138 82L124 0H33L150 668H244L199 409Q226 443 269 461T367 480Q427 480 470 454T537 381T561 276Q561 190 528 126T435 26T297 -10ZM288 73Q340 73 380 97T442 165T464 271Q464 327 431 362T338
398Q286 398 247 374T185 305T163 200Q163 143 195 108T288 73Z" />
<glyph unicode="c" horiz-adv-x="506" d="M260 -10Q194 -10 146 17T72 90T46 195Q46 282 82 346T182 445T330 480Q383 480 424 466T495 422L447 352Q419 376 388 387T320 398Q268 398 228 374T166 305T143 200Q143 143 176 108T270 73Q307 73 338 83T407 119L430
48Q393 20 351 5T260 -10Z" />
<glyph unicode="d" horiz-adv-x="606" d="M239 -10Q180 -10 137 16T70 89T46 195Q46 281 79 345T171 444T309 480Q364 480 405 458T464 395L512 668H607L490 0H399L409 64Q383 28 339 9T239 -10ZM268 73Q320 73 359 97T421 165T444 271Q444 327 411 362T318 398Q266
398 227 374T165 305T143 200Q143 143 176 108T268 73Z" />
<glyph unicode="e" horiz-adv-x="560" d="M264 -10Q195 -10 146 17T72 90T46 195Q46 284 82 348T181 446T320 480Q410 480 463 429T516 293Q516 275 509 251T489 208H144Q140 178 147 153T171 110T215 81T279 71Q323 71 362 84T437 125L460 51Q417 21 370 6T264
-10ZM150 281H416Q419 290 419 302Q419 352 391 376T311 401Q275 401 242 387T185 346T150 281Z" />
<glyph unicode="f" horiz-adv-x="367" d="M85 0L153 390H50L64 470H167L178 533Q190 605 230 639T345 674Q366 674 386 672T418 666L404 590Q395 592 381 593T353 594Q317 594 298 578T271 527L261 470H383L369 390H248L179 0H85Z" />
<glyph unicode="g" horiz-adv-x="606" d="M214 -192Q158 -192 107 -171T13 -110L55 -46Q94 -78 134 -94T217 -110Q263 -110 301 -96T365 -49T401 35L410 85Q382 52 340 36T244 20Q188 20 144 44T75 111T50 210Q50 290 82 350T172 445T309 480Q367 480 408 458T469
394L482 470H572L499 54Q476 -75 407 -133T214 -192ZM271 101Q314 101 346 116T400 156T433 214T444 284Q444 319 428 344T384 384T319 399Q276 399 244 385T190 345T158 286T147 216Q147 182 162 156T206 116T271 101Z" />
<glyph unicode="h" horiz-adv-x="570" d="M33 0L150 668H244L200 418Q228 450 265 465T355 480Q409 480 441 466T490 425T509 364T505 290L454 0H359L408 278Q412 299 412 320T403 358T376 387T321 398Q260 398 222 362T171 252L127 0H33Z" />
<glyph unicode="i" horiz-adv-x="244" d="M33 0L115 470H209L127 0H33ZM181 567Q157 567 143 580T129 613Q129 642 147 658T195 675Q220 675 233 662T247 628Q247 600 229 584T181 567Z" />
<glyph unicode="j" horiz-adv-x="244" d="M-48 -188Q-64 -188 -82 -186T-112 -180L-100 -104Q-90 -105 -79 -106T-56 -107Q-19 -107 0 -91T26 -39L115 470H209L119 -47Q106 -120 66 -154T-48 -188ZM181 567Q157 567 143 580T129 613Q129 642 147 658T195 675Q220
675 233 662T247 628Q247 600 229 584T181 567Z" />
<glyph unicode="k" horiz-adv-x="540" d="M33 0L150 668H244L172 259L422 470H546L316 278L474 0H369L245 219L152 142L127 0H33Z" />
<glyph unicode="l" horiz-adv-x="244" d="M33 0L150 668H244L127 0H33Z" />
<glyph unicode="m" horiz-adv-x="848" d="M33 0L115 470H206L196 419Q224 452 260 466T343 480Q393 480 424 461T472 407Q503 448 543 464T640 480Q693 480 724 463T770 418T787 357T783 290L732 0H637L686 278Q691 304 688 331T668 378T612 398Q554 398 520 362T473
252L429 0H334L383 278Q387 303 385 330T366 378T309 398Q250 398 217 362T171 252L127 0H33Z" />
<glyph unicode="n" horiz-adv-x="570" d="M33 0L115 470H206L195 411Q224 448 262 464T355 480Q409 480 441 466T490 425T508 364T505 290L454 0H359L407 272Q412 296 412 318T403 359T376 387T321 398Q260 398 222 362T171 252L127 0H33Z" />
<glyph unicode="o" horiz-adv-x="590" d="M260 -10Q194 -10 146 17T72 90T46 195Q46 282 82 346T182 445T330 480Q397 480 445 453T519 380T545 276Q545 189 509 125T409 25T260 -10ZM270 73Q323 73 363 97T425 165T448 271Q448 327 414 362T320 398Q268 398 228
374T165 305T143 200Q143 143 176 108T270 73Z" />
<glyph unicode="p" horiz-adv-x="606" d="M1 -182L116 470H207L195 404Q222 441 267 460T367 480Q427 480 470 454T537 381T561 276Q561 190 528 126T435 26T297 -10Q242 -10 201 12T142 77L95 -182H1ZM288 73Q340 73 380 97T442 165T464 271Q464 327 431 362T338
398Q286 398 247 374T185 305T163 200Q163 143 195 108T288 73Z" />
<glyph unicode="q" horiz-adv-x="606" d="M362 -182L406 59Q379 26 336 8T239 -10Q180 -10 137 16T70 89T46 195Q46 281 79 345T171 444T309 480Q368 480 409 457T468 390L482 470H572L457 -182H362ZM268 73Q320 73 359 97T421 165T444 271Q444 327 411 362T318
398Q266 398 227 374T165 305T143 200Q143 143 176 108T268 73Z" />
<glyph unicode="r" horiz-adv-x="372" d="M33 0L115 470H206L193 399Q220 444 254 460T335 476Q346 476 358 475T380 470L364 381Q351 384 338 385T311 387Q258 387 220 351T169 238L127 0H33Z" />
<glyph unicode="s" horiz-adv-x="490" d="M206 -10Q151 -10 105 7T19 58L68 128Q107 99 139 84T213 69Q269 69 299 87T330 139Q330 158 319 170T273 189L194 204Q132 216 106 248T79 322Q79 391 131 435T283 480Q336 480 380 465T456 420L409 353Q383 374 352
387T280 401Q231 401 204 385T176 336Q176 317 186 306T228 289L307 275Q370 263 398 230T426 151Q426 75 369 33T206 -10Z" />
<glyph unicode="t" horiz-adv-x="383" d="M226 -6Q193 -6 168 3T128 32T108 77T108 136L153 390H50L64 470H167L191 604H285L261 470H383L369 390H248L204 143Q201 120 205 105T224 83T261 75Q274 75 289 76T314 79L301 3Q287 -1 268 -3T226 -6Z" />
<glyph unicode="u" horiz-adv-x="570" d="M213 -10Q141 -10 106 16T63 86T63 180L115 470H209L161 192Q157 171 157 150T166 112T193 84T248 73Q308 73 346 109T397 219L441 470H536L454 0H363L374 59Q345 23 307 7T213 -10Z" />
<glyph unicode="v" horiz-adv-x="531" d="M171 0L65 470H161L236 98L439 470H546L275 0H171Z" />
<glyph unicode="w" horiz-adv-x="801" d="M148 0L65 470H161L213 118L392 470H480L535 118L709 470H816L568 0H475L420 350L241 0H148Z" />
<glyph unicode="x" horiz-adv-x="531" d="M-17 0L205 243L75 470H177L269 303L418 470H536L326 243L464 0H362L262 179L100 0H-17Z" />
<glyph unicode="y" horiz-adv-x="531" d="M39 -188Q11 -188 -17 -179T-65 -156L-27 -86Q-11 -94 8 -100T46 -107Q68 -107 87 -99T128 -70T174 -12L65 470H161L235 95L439 470H546L275 0Q233 -73 196 -114T121 -171T39 -188Z" />
<glyph unicode="z" horiz-adv-x="466" d="M-1 0L12 71L326 390H78L91 470H455L442 399L129 81H396L383 0H-1Z" />
<glyph unicode="{" horiz-adv-x="378" d="M171 -252Q134 -252 106 -237T63 -192T55 -121L101 135Q104 156 102 171T86 196T43 205L56 281Q94 281 112 297T138 351L184 610Q195 667 230 702T327 738H413L398 661H348Q314 661 295 644T269 592L221 323Q216 293 198
272T137 243Q175 236 186 216T192 163L146 -103Q143 -123 145 -139T161 -165T201 -175H251L237 -252H171Z" />
<glyph unicode="|" horiz-adv-x="237" d="M-8 -252L167 738H246L71 -252H-8Z" />
<glyph unicode="}" horiz-adv-x="378" d="M-33 -252L-18 -175H32Q66 -175 85 -158T111 -105L159 163Q164 193 182 214T243 243Q206 251 195 271T188 323L234 589Q238 610 235 626T219 651T179 661H129L143 738H209Q247 738 275 723T317 678T325 608L279 351Q276
331 278 315T294 291T337 281L324 205Q286 205 268 189T242 135L196 -123Q185 -180 150 -216T53 -252H-33Z" />
<glyph unicode="~" horiz-adv-x="582" d="M76 249Q87 334 121 376T217 419Q249 419 273 406T318 374T357 342T394 328Q422 328 438 350T466 419H540Q529 334 495 292T398 249Q366 249 342 263T297 295T258 326T221 340Q193 340 177 318T149 249H76Z" />
<glyph unicode="&#xa0;" horiz-adv-x="241" />
<glyph unicode="&#xa1;" horiz-adv-x="258" d="M5 -182L37 0L104 285H171L138 0L106 -182H5ZM158 383Q133 383 120 396T107 430Q107 459 124 476T172 493Q196 493 209 479T223 445Q223 417 205 400T158 383Z" />
<glyph unicode="&#xa2;" horiz-adv-x="506" d="M128 -100L170 5Q110 28 78 77T45 193Q45 282 81 346T181 445T330 480Q339 480 346 480T362 478L399 570H456L415 468Q438 461 458 450T495 422L447 352Q433 364 417 373T383 388L255 73Q259 73 262 73T270 73Q307
73 338 83T407 119L430 48Q393 20 351 5T260 -10Q251 -10 242 -9T223 -7L186 -100H128ZM204 88L329 398Q326 398 323 398T317 398Q267 398 228 374T165 306T142 200Q142 162 158 133T204 88Z" />
<glyph unicode="&#xa3;" horiz-adv-x="554" d="M7 0L19 73Q55 90 77 115T109 173T119 239Q119 247 119 255T117 272H34L44 330H107Q102 355 98 379T94 429Q94 506 129 562T225 648T358 678Q417 678 470 656T566 583L522 523Q476 564 438 580T356 596Q307 596 271
574T216 513T196 421Q196 398 198 376T204 330H390L380 272H210Q211 266 211 261T211 249Q211 230 208 208T196 162T170 118T127 83H477L464 0H7Z" />
<glyph unicode="&#xa4;" horiz-adv-x="742" d="M44 -10L-6 51L172 202Q155 241 155 288Q155 343 170 389T214 471L94 619L164 678L284 532Q314 550 348 559T422 568Q462 568 495 557T553 527L732 678L782 618L602 465Q620 427 620 380Q620 325 604 279T560 197L682
50L612 -10L490 136Q460 118 426 109T353 100Q312 100 279 110T221 141L44 -10ZM359 174Q409 174 448 200T509 271T532 375Q532 430 503 462T415 494Q367 494 328 468T265 397T242 293Q242 239 272 207T359 174Z" />
<glyph unicode="&#xa5;" horiz-adv-x="642" d="M229 0L244 86H81L91 144H254L272 242H109L119 300H258L120 668H224L336 356L558 668H673L405 300H544L534 242H371L354 144H516L506 86H344L330 0H229Z" />
<glyph unicode="&#xa6;" horiz-adv-x="237" d="M86 282L167 738H246L165 282H86ZM-8 -252L72 204H151L71 -252H-8Z" />
<glyph unicode="&#xa7;" horiz-adv-x="595" d="M226 -192Q171 -192 124 -175T38 -124L87 -54Q126 -83 159 -98T232 -113Q288 -113 318 -90T349 -30Q349 -7 335 13T291 51L165 127Q106 162 83 193T59 260Q59 302 80 332T137 382T220 407Q194 427 178 455T162 513Q162
563 187 599T258 657T367 678Q420 678 464 663T540 618L493 551Q466 572 435 585T364 599Q316 599 288 577T259 520Q259 498 273 478T313 441L439 365Q498 330 523 300T549 228Q549 185 530 154T475 105T394 79Q418 60 432 33T446 -23Q446 -99 388 -145T226 -192ZM335
119Q381 124 416 150T451 225Q451 246 439 262T395 297L280 367Q250 364 222 353T175 320T157 267Q157 246 169 230T209 196L335 119Z" />
<glyph unicode="&#xa8;" horiz-adv-x="600" d="M457 572Q435 572 423 584T411 615Q411 640 426 654T468 669Q491 669 502 657T514 626Q514 602 499 587T457 572ZM265 572Q243 572 232 584T220 615Q220 640 235 654T277 669Q300 669 311 657T323 626Q323 602 308
587T265 572Z" />
<glyph unicode="&#xa9;" horiz-adv-x="803" d="M418 -10Q313 -10 234 34T110 156T66 334Q66 434 110 511T233 633T418 678Q523 678 602 634T726 512T770 334Q770 234 726 157T603 35T418 -10ZM426 168Q350 168 308 214T265 334Q265 408 307 454T426 500Q458 500
486 491T537 462L510 412Q491 426 469 433T425 441Q383 441 359 412T335 334Q335 286 359 257T425 228Q448 228 469 235T510 256L537 207Q515 188 487 178T426 168ZM418 48Q506 48 571 84T672 185T708 334Q708 419 672 483T571 584T418 621Q331 621 266 585T164
484T128 334Q128 250 164 185T265 84T418 48Z" />
<glyph unicode="&#xaa;" horiz-adv-x="518" d="M214 232Q150 232 110 263T70 352Q70 393 90 421T150 466T251 490L402 508Q404 553 381 577T307 601Q278 601 242 589T166 552L145 619Q185 647 227 660T312 674Q354 674 389 664T450 633T486 578T488 499L442 241H359L368
294Q342 265 306 249T214 232ZM242 304Q285 304 315 319T363 359T386 411L391 442L264 426Q202 419 180 402T157 358Q157 332 180 318T242 304Z" />
<glyph unicode="&#xab;" horiz-adv-x="485" d="M326 113L257 286L388 461H476L345 286L414 113H326ZM126 113L57 286L188 461H275L144 286L213 113H126Z" />
<glyph unicode="&#xac;" horiz-adv-x="582" d="M415 206L446 382H100L113 462H547L502 206H415Z" />
<glyph unicode="&#xad;" horiz-adv-x="368" d="M50 248L63 324H334L321 248H50Z" />
<glyph unicode="&#xae;" horiz-adv-x="594" d="M330 190Q257 190 201 222T114 309T83 434Q83 504 114 559T201 646T330 678Q404 678 460 646T548 559T579 434Q579 365 548 310T461 222T330 190ZM330 231Q393 231 438 257T508 329T533 434Q533 494 508 539T438
611T330 638Q269 638 223 612T153 540T128 434Q128 375 153 329T223 257T330 231ZM243 314V556H338Q383 556 405 538T428 484Q428 454 412 437T366 415L441 314H383L312 412H289V314H243ZM289 451H333Q356 451 368 459T380 484Q380 500 368 508T333 517H289V451Z"
/>
<glyph unicode="&#xaf;" horiz-adv-x="600" d="M225 589L236 653H507L496 589H225Z" />
<glyph unicode="&#xb0;" horiz-adv-x="373" d="M224 423Q167 423 134 452T101 532Q101 575 121 607T176 659T257 678Q314 678 347 649T381 569Q381 503 337 463T224 423ZM230 476Q269 476 295 498T321 561Q321 590 303 608T252 626Q213 626 187 603T161 540Q161
510 179 493T230 476Z" />
<glyph unicode="&#xb1;" horiz-adv-x="582" d="M234 165L264 333H91L105 412H278L308 580H395L365 412H538L524 333H351L321 165H234ZM33 0L46 80H479L466 0H33Z" />
<glyph unicode="&#xb2;" horiz-adv-x="367" d="M79 408L89 471L264 613Q288 633 301 652T315 693Q315 719 299 732T257 746Q235 746 213 736T158 703L139 758Q172 787 205 797T270 808Q322 808 357 780T392 704Q392 670 375 640T314 575L185 471H359L349 408H79Z" />
<glyph unicode="&#xb3;" horiz-adv-x="380" d="M219 402Q177 402 145 417T88 459L123 508Q149 486 171 476T221 465Q261 465 283 483T305 530Q305 557 289 570T239 584H197L206 638H252Q288 638 309 654T330 699Q330 723 315 734T269 746Q246 746 223 736T166
702L146 758Q181 785 213 796T279 808Q336 808 371 782T407 710Q407 673 383 647T317 610Q348 599 364 578T380 526Q380 470 336 436T219 402Z" />
<glyph unicode="&#xb4;" horiz-adv-x="600" d="M278 545L378 696H476L347 545H278Z" />
<glyph unicode="&#xb5;" horiz-adv-x="570" d="M0 -182L115 470H209L161 192Q157 171 157 150T165 112T193 84T248 73Q308 73 346 109T397 219L441 470H536L454 0H363L374 61Q347 25 312 8T230 -10Q155 -10 134 40L94 -182H0Z" />
<glyph unicode="&#xb6;" horiz-adv-x="575" d="M160 -182L248 315Q173 317 131 359T89 468Q89 529 115 573T189 643T298 668H572L422 -182H348L486 598H370L233 -182H160Z" />
<glyph unicode="&#xb7;" horiz-adv-x="252" d="M129 232Q106 232 93 245T79 279Q79 307 96 324T143 341Q169 341 182 328T195 293Q195 265 177 249T129 232Z" />
<glyph unicode="&#xb8;" horiz-adv-x="600" d="M211 -191Q197 -191 175 -189T137 -181L146 -133Q159 -137 177 -138T210 -140Q236 -140 250 -130T265 -100Q265 -72 222 -72H200L204 -46L239 11H289L254 -46Q289 -46 308 -61T328 -102Q328 -143 297 -167T211 -191Z" />
<glyph unicode="&#xb9;" horiz-adv-x="292" d="M167 408L223 727L134 684L116 735L256 802H311L242 408H167Z" />
<glyph unicode="&#xba;" horiz-adv-x="543" d="M277 232Q217 232 173 256T106 323T83 416Q83 496 114 553T204 642T340 674Q401 674 444 650T510 584T533 490Q533 411 502 353T413 264T277 232ZM285 308Q356 308 400 355T444 485Q444 537 414 567T331 598Q261
598 217 551T172 421Q172 370 201 339T285 308Z" />
<glyph unicode="&#xbb;" horiz-adv-x="485" d="M226 113L357 286L288 461H376L445 286L314 113H226ZM26 113L157 286L88 461H175L244 286L113 113H26Z" />
<glyph unicode="&#xbc;" horiz-adv-x="809" d="M126 0L599 668H673L201 0H126ZM143 274L198 584L112 542L92 601L232 668H287L218 274H143ZM598 0L612 86H422L433 151L672 394H737L693 146H743L732 86H682L668 0H598ZM502 146H623L649 297L502 146Z" />
<glyph unicode="&#xbd;" horiz-adv-x="835" d="M126 0L599 668H673L201 0H126ZM143 274L200 593L110 550L92 601L232 668H287L218 274H143ZM474 0L484 63L659 205Q683 225 696 244T710 285Q710 311 694 324T653 338Q630 338 608 328T554 295L534 350Q567 379 600
389T665 400Q717 400 752 372T787 296Q787 262 770 232T710 167L581 63H754L744 0H474Z" />
<glyph unicode="&#xbe;" horiz-adv-x="884" d="M202 0L675 668H748L276 0H202ZM195 268Q153 268 121 283T64 325L99 374Q125 352 147 342T197 331Q237 331 259 349T281 396Q281 423 265 436T215 450H173L182 504H228Q264 504 285 520T306 565Q306 589 291 600T245
612Q222 612 199 602T142 568L122 624Q157 651 189 662T255 674Q312 674 347 648T383 576Q383 539 359 513T293 476Q324 465 340 444T356 392Q356 336 312 302T195 268ZM673 0L688 86H497L508 151L747 394H812L768 146H818L807 86H758L743 0H673ZM577 146H698L724
297L577 146Z" />
<glyph unicode="&#xbf;" horiz-adv-x="473" d="M185 -192Q130 -192 86 -172T15 -115T-11 -31Q-11 13 9 44T59 101T120 149T176 199T207 263L211 285H290L285 254Q278 213 256 183T207 128T153 82T109 37T91 -13Q91 -55 121 -82T202 -109Q238 -109 275 -92T366
-35L391 -105Q343 -152 292 -172T185 -192ZM270 383Q247 383 233 396T219 430Q219 459 236 476T284 493Q309 493 322 479T335 445Q335 417 318 400T270 383Z" />
<glyph unicode="&#xc0;" horiz-adv-x="701" d="M-17 0L370 668H479L634 0H532L501 139H175L97 0H-17ZM221 223H485L412 561L221 223ZM411 743L335 894H428L473 743H411Z" />
<glyph unicode="&#xc1;" horiz-adv-x="701" d="M-17 0L370 668H479L634 0H532L501 139H175L97 0H-17ZM221 223H485L412 561L221 223ZM409 743L509 894H607L478 743H409Z" />
<glyph unicode="&#xc2;" horiz-adv-x="701" d="M-17 0L370 668H479L634 0H532L501 139H175L97 0H-17ZM221 223H485L412 561L221 223ZM295 743L423 894H512L587 743H518L464 843L375 743H295Z" />
<glyph unicode="&#xc3;" horiz-adv-x="701" d="M-17 0L370 668H479L634 0H532L501 139H175L97 0H-17ZM221 223H485L412 561L221 223ZM287 755Q295 821 320 852T388 883Q412 883 430 873T463 850T490 827T517 817Q533 817 544 831T564 883H621Q613 816 588 786T520
755Q496 755 478 765T445 787T418 810T392 820Q375 820 364 806T344 755H287Z" />
<glyph unicode="&#xc4;" horiz-adv-x="701" d="M-17 0L370 668H479L634 0H532L501 139H175L97 0H-17ZM221 223H485L412 561L221 223ZM544 770Q522 770 510 782T498 813Q498 838 513 852T555 867Q578 867 589 855T601 824Q601 800 586 785T544 770ZM352 770Q330
770 319 782T307 813Q307 838 322 852T364 867Q387 867 398 855T410 824Q410 800 395 785T352 770Z" />
<glyph unicode="&#xc5;" horiz-adv-x="701" d="M-17 0L370 668H479L634 0H532L501 139H175L97 0H-17ZM221 223H485L412 561L221 223ZM441 713Q393 713 366 739T338 804Q338 856 372 890T467 924Q516 924 543 898T571 834Q571 782 536 748T441 713ZM447 757Q478
757 498 776T519 826Q519 848 504 864T461 880Q430 880 410 861T389 812Q389 790 404 774T447 757Z" />
<glyph unicode="&#xc6;" horiz-adv-x="996" d="M-17 0L523 668H1017L1003 582H640L606 385H939L924 303H591L553 86H915L900 0H437L462 139H213L102 0H-17ZM277 223H476L533 545L277 223Z" />
<glyph unicode="&#xc7;" horiz-adv-x="663" d="M357 -10Q271 -10 205 26T100 128T62 279Q62 401 112 491T251 629T456 678Q519 678 577 657T682 597L632 528Q593 557 547 573T446 590Q364 590 300 553T200 447T164 281Q164 218 189 173T261 103T367 79Q422 79
468 93T565 140L590 60Q539 24 481 7T357 -10ZM276 -191Q262 -191 240 -189T202 -181L211 -133Q224 -137 242 -138T275 -140Q301 -140 315 -130T330 -100Q330 -72 287 -72H265L269 -46L304 11H354L319 -46Q354 -46 373 -61T393 -102Q393 -143 362 -167T276 -191Z"
/>
<glyph unicode="&#xc8;" horiz-adv-x="595" d="M37 0L154 668H617L602 582H239L205 385H538L523 303H190L152 86H515L500 0H37ZM358 743L282 894H375L420 743H358Z" />
<glyph unicode="&#xc9;" horiz-adv-x="595" d="M37 0L154 668H617L602 582H239L205 385H538L523 303H190L152 86H515L500 0H37ZM356 743L456 894H554L425 743H356Z" />
<glyph unicode="&#xca;" horiz-adv-x="595" d="M37 0L154 668H617L602 582H239L205 385H538L523 303H190L152 86H515L500 0H37ZM242 743L370 894H459L534 743H465L411 843L322 743H242Z" />
<glyph unicode="&#xcb;" horiz-adv-x="595" d="M37 0L154 668H617L602 582H239L205 385H538L523 303H190L152 86H515L500 0H37ZM491 770Q469 770 457 782T445 813Q445 838 460 852T502 867Q525 867 536 855T548 824Q548 800 533 785T491 770ZM299 770Q277 770
266 782T254 813Q254 838 269 852T311 867Q334 867 345 855T357 824Q357 800 342 785T299 770Z" />
<glyph unicode="&#xcc;" horiz-adv-x="258" d="M37 0L154 668H254L137 0H37ZM189 743L113 894H206L251 743H189Z" />
<glyph unicode="&#xcd;" horiz-adv-x="258" d="M37 0L154 668H254L137 0H37ZM188 743L288 894H386L257 743H188Z" />
<glyph unicode="&#xce;" horiz-adv-x="258" d="M37 0L154 668H254L137 0H37ZM73 743L201 894H290L365 743H296L242 843L153 743H73Z" />
<glyph unicode="&#xcf;" horiz-adv-x="258" d="M37 0L154 668H254L137 0H37ZM323 770Q301 770 289 782T277 813Q277 838 292 852T334 867Q357 867 368 855T380 824Q380 800 365 785T323 770ZM131 770Q109 770 98 782T86 813Q86 838 101 852T143 867Q166 867 177
855T189 824Q189 800 174 785T131 770Z" />
<glyph unicode="&#xd0;" horiz-adv-x="710" d="M37 0L91 312H21L33 377H102L154 668H374Q525 668 603 598T681 390Q681 200 578 100T279 0H37ZM152 86H282Q432 86 505 161T579 387Q579 494 526 538T359 582H239L203 377H376L365 312H191L152 86Z" />
<glyph unicode="&#xd1;" horiz-adv-x="720" d="M37 0L154 668H263L523 137L616 668H717L600 0H490L230 531L137 0H37ZM296 755Q304 821 329 852T397 883Q421 883 439 873T472 850T499 827T526 817Q542 817 553 831T573 883H630Q622 816 597 786T529 755Q505 755
487 765T454 787T427 810T401 820Q384 820 373 806T353 755H296Z" />
<glyph unicode="&#xd2;" horiz-adv-x="780" d="M356 -10Q271 -10 204 26T100 128T62 278Q62 401 112 491T251 629T456 678Q542 678 608 642T712 541T751 390Q751 267 701 178T562 39T356 -10ZM367 79Q448 79 512 116T612 222T649 387Q649 451 623 496T552 565T446
590Q364 590 300 553T200 447T164 281Q164 218 189 173T261 103T367 79ZM450 743L374 894H467L512 743H450Z" />
<glyph unicode="&#xd3;" horiz-adv-x="780" d="M356 -10Q271 -10 204 26T100 128T62 278Q62 401 112 491T251 629T456 678Q542 678 608 642T712 541T751 390Q751 267 701 178T562 39T356 -10ZM367 79Q448 79 512 116T612 222T649 387Q649 451 623 496T552 565T446
590Q364 590 300 553T200 447T164 281Q164 218 189 173T261 103T367 79ZM448 743L548 894H646L517 743H448Z" />
<glyph unicode="&#xd4;" horiz-adv-x="780" d="M356 -10Q271 -10 204 26T100 128T62 278Q62 401 112 491T251 629T456 678Q542 678 608 642T712 541T751 390Q751 267 701 178T562 39T356 -10ZM367 79Q448 79 512 116T612 222T649 387Q649 451 623 496T552 565T446
590Q364 590 300 553T200 447T164 281Q164 218 189 173T261 103T367 79ZM334 743L462 894H551L626 743H557L503 843L414 743H334Z" />
<glyph unicode="&#xd5;" horiz-adv-x="780" d="M356 -10Q271 -10 204 26T100 128T62 278Q62 401 112 491T251 629T456 678Q542 678 608 642T712 541T751 390Q751 267 701 178T562 39T356 -10ZM367 79Q448 79 512 116T612 222T649 387Q649 451 623 496T552 565T446
590Q364 590 300 553T200 447T164 281Q164 218 189 173T261 103T367 79ZM326 755Q334 821 359 852T427 883Q451 883 469 873T502 850T529 827T556 817Q572 817 583 831T603 883H660Q652 816 627 786T559 755Q535 755 517 765T484 787T457 810T431 820Q414 820 403
806T383 755H326Z" />
<glyph unicode="&#xd6;" horiz-adv-x="780" d="M356 -10Q271 -10 204 26T100 128T62 278Q62 401 112 491T251 629T456 678Q542 678 608 642T712 541T751 390Q751 267 701 178T562 39T356 -10ZM367 79Q448 79 512 116T612 222T649 387Q649 451 623 496T552 565T446
590Q364 590 300 553T200 447T164 281Q164 218 189 173T261 103T367 79ZM583 770Q561 770 549 782T537 813Q537 838 552 852T594 867Q617 867 628 855T640 824Q640 800 625 785T583 770ZM391 770Q369 770 358 782T346 813Q346 838 361 852T403 867Q426 867 437
855T449 824Q449 800 434 785T391 770Z" />
<glyph unicode="&#xd7;" horiz-adv-x="582" d="M114 118L63 179L246 334L119 490L191 551L318 396L501 551L552 490L369 334L497 179L425 118L297 273L114 118Z" />
<glyph unicode="&#xd8;" horiz-adv-x="780" d="M44 -10L12 33L108 114Q85 149 74 190T62 279Q62 401 112 491T251 629T456 678Q522 678 576 657T671 595L769 678L801 635L705 553Q727 519 739 478T751 390Q751 267 701 178T562 39T357 -10Q291 -10 236 12T141
73L44 -10ZM367 79Q449 79 512 116T612 222T649 387Q649 416 644 440T627 487L215 137Q271 79 367 79ZM185 180L597 531Q570 560 532 575T446 590Q364 590 300 553T200 447T164 281Q164 223 185 180Z" />
<glyph unicode="&#xd9;" horiz-adv-x="720" d="M327 -10Q238 -10 179 25T95 125T86 278L154 668H254L185 274Q179 237 182 202T201 139T250 95T336 79Q391 79 433 97T505 155T545 262L616 668H717L645 258Q628 159 587 100T480 16T327 -10ZM420 743L344 894H437L482
743H420Z" />
<glyph unicode="&#xda;" horiz-adv-x="720" d="M327 -10Q238 -10 179 25T95 125T86 278L154 668H254L185 274Q179 237 182 202T201 139T250 95T336 79Q391 79 433 97T505 155T545 262L616 668H717L645 258Q628 159 587 100T480 16T327 -10ZM418 743L518 894H616L487
743H418Z" />
<glyph unicode="&#xdb;" horiz-adv-x="720" d="M327 -10Q238 -10 179 25T95 125T86 278L154 668H254L185 274Q179 237 182 202T201 139T250 95T336 79Q391 79 433 97T505 155T545 262L616 668H717L645 258Q628 159 587 100T480 16T327 -10ZM304 743L432 894H521L596
743H527L473 843L384 743H304Z" />
<glyph unicode="&#xdc;" horiz-adv-x="720" d="M327 -10Q238 -10 179 25T95 125T86 278L154 668H254L185 274Q179 237 182 202T201 139T250 95T336 79Q391 79 433 97T505 155T545 262L616 668H717L645 258Q628 159 587 100T480 16T327 -10ZM553 770Q531 770 519
782T507 813Q507 838 522 852T564 867Q587 867 598 855T610 824Q610 800 595 785T553 770ZM361 770Q339 770 328 782T316 813Q316 838 331 852T373 867Q396 867 407 855T419 824Q419 800 404 785T361 770Z" />
<glyph unicode="&#xdd;" horiz-adv-x="681" d="M249 0L294 258L100 668H211L354 352L607 668H731L394 258L349 0H249ZM399 743L499 894H597L468 743H399Z" />
<glyph unicode="&#xde;" horiz-adv-x="641" d="M37 0L154 668H254L235 561H390Q499 561 556 509T613 371Q613 283 579 225T481 137T332 107H155L137 0H37ZM171 192H323Q379 192 420 208T485 263T509 361Q509 417 473 447T362 477H220L171 192Z" />
<glyph unicode="&#xdf;" horiz-adv-x="606" d="M333 -10Q314 -10 291 -7T253 0L265 77Q275 75 289 73T318 70Q378 70 416 109T455 222Q455 272 416 292T307 313L320 384Q361 384 395 397T449 438T469 505Q469 547 439 572T357 598Q296 598 258 562T207 455L127
0H33L109 439Q129 553 191 615T362 678Q423 678 468 658T539 602T565 519Q565 455 531 414T438 352Q495 337 523 304T552 220Q552 152 526 100T450 19T333 -10Z" />
<glyph unicode="&#xe0;" horiz-adv-x="560" d="M189 -10Q120 -10 75 25T29 123Q29 168 52 199T120 249T231 276L400 296Q402 323 396 342T376 373T341 392T293 399Q257 399 219 386T136 345L113 419Q157 451 204 465T299 480Q346 480 385 468T451 432T491 372T494
286L444 0H353L362 58Q335 26 294 8T189 -10ZM220 70Q267 70 301 86T355 130T382 188L388 224L245 206Q177 197 151 178T125 130Q125 103 150 87T220 70ZM561 545L485 696H578L623 545H561Z" />
<glyph unicode="&#xe1;" horiz-adv-x="560" d="M189 -10Q120 -10 75 25T29 123Q29 168 52 199T120 249T231 276L400 296Q402 323 396 342T376 373T341 392T293 399Q257 399 219 386T136 345L113 419Q157 451 204 465T299 480Q346 480 385 468T451 432T491 372T494
286L444 0H353L362 58Q335 26 294 8T189 -10ZM220 70Q267 70 301 86T355 130T382 188L388 224L245 206Q177 197 151 178T125 130Q125 103 150 87T220 70ZM303 545L403 696H501L372 545H303Z" />
<glyph unicode="&#xe2;" horiz-adv-x="560" d="M189 -10Q120 -10 75 25T29 123Q29 168 52 199T120 249T231 276L400 296Q402 323 396 342T376 373T341 392T293 399Q257 399 219 386T136 345L113 419Q157 451 204 465T299 480Q346 480 385 468T451 432T491 372T494
286L444 0H353L362 58Q335 26 294 8T189 -10ZM220 70Q267 70 301 86T355 130T382 188L388 224L245 206Q177 197 151 178T125 130Q125 103 150 87T220 70ZM445 545L573 696H662L737 545H668L614 645L525 545H445Z" />
<glyph unicode="&#xe3;" horiz-adv-x="560" d="M189 -10Q120 -10 75 25T29 123Q29 168 52 199T120 249T231 276L400 296Q402 323 396 342T376 373T341 392T293 399Q257 399 219 386T136 345L113 419Q157 451 204 465T299 480Q346 480 385 468T451 432T491 372T494
286L444 0H353L362 58Q335 26 294 8T189 -10ZM220 70Q267 70 301 86T355 130T382 188L388 224L245 206Q177 197 151 178T125 130Q125 103 150 87T220 70ZM437 557Q445 623 470 654T538 685Q562 685 580 675T613 652T640 629T667 619Q683 619 694 633T714 685H771Q763
618 738 588T670 557Q646 557 628 567T595 589T568 612T542 622Q525 622 514 608T494 557H437Z" />
<glyph unicode="&#xe4;" horiz-adv-x="560" d="M189 -10Q120 -10 75 25T29 123Q29 168 52 199T120 249T231 276L400 296Q402 323 396 342T376 373T341 392T293 399Q257 399 219 386T136 345L113 419Q157 451 204 465T299 480Q346 480 385 468T451 432T491 372T494
286L444 0H353L362 58Q335 26 294 8T189 -10ZM220 70Q267 70 301 86T355 130T382 188L388 224L245 206Q177 197 151 178T125 130Q125 103 150 87T220 70ZM694 572Q672 572 660 584T648 615Q648 640 663 654T705 669Q728 669 739 657T751 626Q751 602 736 587T694
572ZM502 572Q480 572 469 584T457 615Q457 640 472 654T514 669Q537 669 548 657T560 626Q560 602 545 587T502 572Z" />
<glyph unicode="&#xe5;" horiz-adv-x="560" d="M189 -10Q120 -10 75 25T29 123Q29 168 52 199T120 249T231 276L400 296Q402 323 396 342T376 373T341 392T293 399Q257 399 219 386T136 345L113 419Q157 451 204 465T299 480Q346 480 385 468T451 432T491 372T494
286L444 0H353L362 58Q335 26 294 8T189 -10ZM220 70Q267 70 301 86T355 130T382 188L388 224L245 206Q177 197 151 178T125 130Q125 103 150 87T220 70ZM591 515Q543 515 516 541T488 606Q488 658 522 692T617 726Q666 726 693 700T721 636Q721 584 686 550T591
515ZM597 559Q628 559 648 578T669 628Q669 650 654 666T611 682Q580 682 560 663T539 614Q539 592 554 576T597 559Z" />
<glyph unicode="&#xe6;" horiz-adv-x="903" d="M189 -10Q120 -10 75 25T29 123Q29 168 52 199T120 249T231 276L400 296Q402 323 396 342T376 373T341 392T293 399Q257 399 219 386T136 345L113 419Q157 451 204 465T299 480Q358 480 403 460T470 401Q505 438
553 459T663 480Q753 480 805 429T857 293Q857 275 851 251T831 208H485Q481 178 488 153T512 110T557 81T621 71Q664 71 703 84T778 125L802 51Q760 21 712 6T606 -10Q533 -10 485 21T413 102Q382 45 324 18T189 -10ZM220 70Q267 70 301 86T355 130T382 188L388
224L245 206Q177 197 151 178T125 130Q125 103 150 87T220 70ZM492 281H758Q761 290 761 302Q761 352 733 376T652 401Q598 401 553 370T492 281Z" />
<glyph unicode="&#xe7;" horiz-adv-x="506" d="M260 -10Q194 -10 146 17T72 90T46 195Q46 282 82 346T182 445T330 480Q383 480 424 466T495 422L447 352Q419 376 388 387T320 398Q268 398 228 374T166 305T143 200Q143 143 176 108T270 73Q307 73 338 83T407
119L430 48Q393 20 351 5T260 -10ZM441 -191Q427 -191 405 -189T367 -181L376 -133Q389 -137 407 -138T440 -140Q466 -140 480 -130T495 -100Q495 -72 452 -72H430L434 -46L469 11H519L484 -46Q519 -46 538 -61T558 -102Q558 -143 527 -167T441 -191Z" />
<glyph unicode="&#xe8;" horiz-adv-x="560" d="M264 -10Q195 -10 146 17T72 90T46 195Q46 284 82 348T181 446T320 480Q410 480 463 429T516 293Q516 275 509 251T489 208H144Q140 178 147 153T171 110T215 81T279 71Q323 71 362 84T437 125L460 51Q417 21 370
6T264 -10ZM150 281H416Q419 290 419 302Q419 352 391 376T311 401Q275 401 242 387T185 346T150 281ZM560 545L484 696H577L622 545H560Z" />
<glyph unicode="&#xe9;" horiz-adv-x="560" d="M264 -10Q195 -10 146 17T72 90T46 195Q46 284 82 348T181 446T320 480Q410 480 463 429T516 293Q516 275 509 251T489 208H144Q140 178 147 153T171 110T215 81T279 71Q323 71 362 84T437 125L460 51Q417 21 370
6T264 -10ZM150 281H416Q419 290 419 302Q419 352 391 376T311 401Q275 401 242 387T185 346T150 281ZM303 545L403 696H501L372 545H303Z" />
<glyph unicode="&#xea;" horiz-adv-x="560" d="M264 -10Q195 -10 146 17T72 90T46 195Q46 284 82 348T181 446T320 480Q410 480 463 429T516 293Q516 275 509 251T489 208H144Q140 178 147 153T171 110T215 81T279 71Q323 71 362 84T437 125L460 51Q417 21 370
6T264 -10ZM150 281H416Q419 290 419 302Q419 352 391 376T311 401Q275 401 242 387T185 346T150 281ZM444 545L572 696H661L736 545H667L613 645L524 545H444Z" />
<glyph unicode="&#xeb;" horiz-adv-x="560" d="M264 -10Q195 -10 146 17T72 90T46 195Q46 284 82 348T181 446T320 480Q410 480 463 429T516 293Q516 275 509 251T489 208H144Q140 178 147 153T171 110T215 81T279 71Q323 71 362 84T437 125L460 51Q417 21 370
6T264 -10ZM150 281H416Q419 290 419 302Q419 352 391 376T311 401Q275 401 242 387T185 346T150 281ZM694 572Q672 572 660 584T648 615Q648 640 663 654T705 669Q728 669 739 657T751 626Q751 602 736 587T694 572ZM502 572Q480 572 469 584T457 615Q457 640
472 654T514 669Q537 669 548 657T560 626Q560 602 545 587T502 572Z" />
<glyph unicode="&#xec;" horiz-adv-x="244" d="M33 0L115 470H209L127 0H33ZM147 545L71 696H164L209 545H147Z" />
<glyph unicode="&#xed;" horiz-adv-x="244" d="M33 0L115 470H209L127 0H33ZM145 545L245 696H343L214 545H145Z" />
<glyph unicode="&#xee;" horiz-adv-x="244" d="M33 0L115 470H209L127 0H33ZM31 545L159 696H248L323 545H254L200 645L111 545H31Z" />
<glyph unicode="&#xef;" horiz-adv-x="244" d="M33 0L115 470H209L127 0H33ZM280 572Q258 572 246 584T234 615Q234 640 249 654T291 669Q314 669 325 657T337 626Q337 602 322 587T280 572ZM88 572Q66 572 55 584T43 615Q43 640 58 654T100 669Q123 669 134 657T146
626Q146 602 131 587T88 572Z" />
<glyph unicode="&#xf0;" horiz-adv-x="590" d="M260 -10Q194 -10 145 15T69 86T42 191Q42 271 74 326T164 409T299 438Q332 438 361 430T411 406L333 549L213 508L225 568L307 598L268 668H361L385 623L513 668L503 608L411 574L486 435Q515 382 528 339T542 254Q542
173 508 114T410 22T260 -10ZM270 73Q320 73 359 93T422 151T446 244Q446 297 411 332T315 368Q266 368 226 349T162 291T139 197Q139 162 155 134T200 89T270 73Z" />
<glyph unicode="&#xf1;" horiz-adv-x="570" d="M33 0L115 470H206L195 411Q224 448 262 464T355 480Q409 480 441 466T490 425T508 364T505 290L454 0H359L407 272Q412 296 412 318T403 359T376 387T321 398Q260 398 222 362T171 252L127 0H33ZM442 557Q450 623
475 654T543 685Q567 685 585 675T618 652T645 629T672 619Q688 619 699 633T719 685H776Q768 618 743 588T675 557Q651 557 633 567T600 589T573 612T547 622Q530 622 519 608T499 557H442Z" />
<glyph unicode="&#xf2;" horiz-adv-x="590" d="M260 -10Q194 -10 146 17T72 90T46 195Q46 282 82 346T182 445T330 480Q397 480 445 453T519 380T545 276Q545 189 509 125T409 25T260 -10ZM270 73Q323 73 363 97T425 165T448 271Q448 327 414 362T320 398Q268
398 228 374T165 305T143 200Q143 143 176 108T270 73ZM576 545L500 696H593L638 545H576Z" />
<glyph unicode="&#xf3;" horiz-adv-x="590" d="M260 -10Q194 -10 146 17T72 90T46 195Q46 282 82 346T182 445T330 480Q397 480 445 453T519 380T545 276Q545 189 509 125T409 25T260 -10ZM270 73Q323 73 363 97T425 165T448 271Q448 327 414 362T320 398Q268
398 228 374T165 305T143 200Q143 143 176 108T270 73ZM318 545L418 696H516L387 545H318Z" />
<glyph unicode="&#xf4;" horiz-adv-x="590" d="M260 -10Q194 -10 146 17T72 90T46 195Q46 282 82 346T182 445T330 480Q397 480 445 453T519 380T545 276Q545 189 509 125T409 25T260 -10ZM270 73Q323 73 363 97T425 165T448 271Q448 327 414 362T320 398Q268
398 228 374T165 305T143 200Q143 143 176 108T270 73ZM460 545L588 696H677L752 545H683L629 645L540 545H460Z" />
<glyph unicode="&#xf5;" horiz-adv-x="590" d="M260 -10Q194 -10 146 17T72 90T46 195Q46 282 82 346T182 445T330 480Q397 480 445 453T519 380T545 276Q545 189 509 125T409 25T260 -10ZM270 73Q323 73 363 97T425 165T448 271Q448 327 414 362T320 398Q268
398 228 374T165 305T143 200Q143 143 176 108T270 73ZM452 557Q460 623 485 654T553 685Q577 685 595 675T628 652T655 629T682 619Q698 619 709 633T729 685H786Q778 618 753 588T685 557Q661 557 643 567T610 589T583 612T557 622Q540 622 529 608T509 557H452Z"
/>
<glyph unicode="&#xf6;" horiz-adv-x="590" d="M260 -10Q194 -10 146 17T72 90T46 195Q46 282 82 346T182 445T330 480Q397 480 445 453T519 380T545 276Q545 189 509 125T409 25T260 -10ZM270 73Q323 73 363 97T425 165T448 271Q448 327 414 362T320 398Q268
398 228 374T165 305T143 200Q143 143 176 108T270 73ZM709 572Q687 572 675 584T663 615Q663 640 678 654T720 669Q743 669 754 657T766 626Q766 602 751 587T709 572ZM517 572Q495 572 484 584T472 615Q472 640 487 654T529 669Q552 669 563 657T575 626Q575
602 560 587T517 572Z" />
<glyph unicode="&#xf7;" horiz-adv-x="582" d="M84 295L98 374H531L517 295H84ZM269 104Q246 104 234 116T222 147Q222 173 238 188T281 204Q304 204 316 192T329 161Q329 135 313 120T269 104ZM333 464Q310 464 298 476T286 508Q286 534 302 549T345 565Q368
565 380 553T393 521Q393 496 377 480T333 464Z" />
<glyph unicode="&#xf8;" horiz-adv-x="590" d="M42 -10L11 27L547 480L577 444L42 -10ZM260 -10Q194 -10 146 17T72 90T46 195Q46 282 82 346T182 445T330 480Q397 480 445 453T519 380T545 276Q545 189 509 125T409 25T260 -10ZM270 73Q323 73 363 97T425 165T448
271Q448 327 414 362T320 398Q268 398 228 374T165 305T143 200Q143 143 176 108T270 73Z" />
<glyph unicode="&#xf9;" horiz-adv-x="570" d="M213 -10Q141 -10 106 16T63 86T63 180L115 470H209L161 192Q157 171 157 150T166 112T193 84T248 73Q308 73 346 109T397 219L441 470H536L454 0H363L374 59Q345 23 307 7T213 -10ZM566 545L490 696H583L628 545H566Z" />
<glyph unicode="&#xfa;" horiz-adv-x="570" d="M213 -10Q141 -10 106 16T63 86T63 180L115 470H209L161 192Q157 171 157 150T166 112T193 84T248 73Q308 73 346 109T397 219L441 470H536L454 0H363L374 59Q345 23 307 7T213 -10ZM308 545L408 696H506L377 545H308Z" />
<glyph unicode="&#xfb;" horiz-adv-x="570" d="M213 -10Q141 -10 106 16T63 86T63 180L115 470H209L161 192Q157 171 157 150T166 112T193 84T248 73Q308 73 346 109T397 219L441 470H536L454 0H363L374 59Q345 23 307 7T213 -10ZM450 545L578 696H667L742 545H673L619
645L530 545H450Z" />
<glyph unicode="&#xfc;" horiz-adv-x="570" d="M213 -10Q141 -10 106 16T63 86T63 180L115 470H209L161 192Q157 171 157 150T166 112T193 84T248 73Q308 73 346 109T397 219L441 470H536L454 0H363L374 59Q345 23 307 7T213 -10ZM699 572Q677 572 665 584T653
615Q653 640 668 654T710 669Q733 669 744 657T756 626Q756 602 741 587T699 572ZM507 572Q485 572 474 584T462 615Q462 640 477 654T519 669Q542 669 553 657T565 626Q565 602 550 587T507 572Z" />
<glyph unicode="&#xfd;" horiz-adv-x="531" d="M39 -188Q11 -188 -17 -179T-65 -156L-27 -86Q-11 -94 8 -100T46 -107Q68 -107 87 -99T128 -70T174 -12L65 470H161L235 95L439 470H546L275 0Q233 -73 196 -114T121 -171T39 -188ZM289 545L389 696H487L358 545H289Z" />
<glyph unicode="&#xfe;" horiz-adv-x="606" d="M1 -182L150 668H244L199 408Q227 444 270 462T368 480Q427 480 470 454T537 382T561 278Q561 191 528 127T436 26T298 -10Q240 -10 201 13T141 77L95 -182H1ZM288 73Q341 73 380 97T442 165T464 270Q464 327 431
362T338 398Q286 398 247 374T185 306T163 200Q163 144 195 109T288 73Z" />
<glyph unicode="&#xff;" horiz-adv-x="531" d="M39 -188Q11 -188 -17 -179T-65 -156L-27 -86Q-11 -94 8 -100T46 -107Q68 -107 87 -99T128 -70T174 -12L65 470H161L235 95L439 470H546L275 0Q233 -73 196 -114T121 -171T39 -188ZM680 572Q658 572 646 584T634
615Q634 640 649 654T691 669Q714 669 725 657T737 626Q737 602 722 587T680 572ZM488 572Q466 572 455 584T443 615Q443 640 458 654T500 669Q523 669 534 657T546 626Q546 602 531 587T488 572Z" />
<glyph unicode="&#x2013;" horiz-adv-x="568" d="M50 248L63 324H534L521 248H50Z" />
<glyph unicode="&#x2014;" horiz-adv-x="798" d="M50 248L63 324H764L751 248H50Z" />
<glyph unicode="&#x2018;" horiz-adv-x="258" d="M118 420L131 500Q142 560 164 599T232 668L283 644Q266 622 253 599T232 551T218 500L204 420H118Z" />
<glyph unicode="&#x2019;" horiz-adv-x="258" d="M132 420L81 444Q99 467 112 490T134 537T147 587L161 668H248L233 587Q223 528 201 489T132 420Z" />
<glyph unicode="&#x201a;" horiz-adv-x="258" d="M32 -154L-19 -130Q-2 -107 11 -84T33 -37T46 14L60 95H146L132 14Q122 -46 100 -85T32 -154Z" />
<glyph unicode="&#x201c;" horiz-adv-x="436" d="M295 420L310 500Q321 560 343 599T411 668L461 644Q444 622 431 599T409 551T395 500L382 420H295ZM118 420L131 500Q142 560 164 599T232 668L283 644Q266 622 253 599T232 551T218 500L204 420H118Z" />
<glyph unicode="&#x201d;" horiz-adv-x="436" d="M310 420L260 444Q277 467 289 490T311 537T324 587L339 668H425L411 587Q400 528 378 489T310 420ZM132 420L81 444Q99 467 112 490T134 537T147 587L161 668H248L233 587Q223 528 201 489T132 420Z" />
<glyph unicode="&#x201e;" horiz-adv-x="436" d="M209 -154L159 -130Q176 -107 189 -84T211 -37T224 14L238 95H324L310 14Q300 -45 278 -84T209 -154ZM32 -154L-19 -130Q-2 -107 11 -84T33 -37T46 14L60 95H146L132 14Q122 -46 100 -85T32 -154Z" />
<glyph unicode="&#x2022;" horiz-adv-x="370" d="M197 170Q145 170 117 198T88 271Q88 331 126 366T225 402Q277 402 306 374T335 301Q335 242 298 206T197 170Z" />
<glyph unicode="&#x2039;" horiz-adv-x="285" d="M126 113L57 286L188 461H275L144 286L213 113H126Z" />
<glyph unicode="&#x203a;" horiz-adv-x="285" d="M26 113L157 286L88 461H175L244 286L113 113H26Z" />
</font>
</defs>
</svg>
