<?xml version="1.0" standalone="no"?>
<!DOCTYPE svg PUBLIC "-//W3C//DTD SVG 1.1//EN" "http://www.w3.org/Graphics/SVG/1.1/DTD/svg11.dtd">
<svg xmlns="http://www.w3.org/2000/svg">
<defs >
<font id="Gantari" horiz-adv-x="563" ><font-face
    font-family="Gantari SemiBold"
    units-per-em="1000"
    panose-1="0 0 0 0 0 0 0 0 0 0"
    ascent="950"
    descent="-250"
    alphabetic="0" />
<glyph unicode=" " horiz-adv-x="236" />
<glyph unicode="!" horiz-adv-x="268" d="M88 210L116 486L148 668H270L238 486L169 210H88ZM94 -7Q66 -7 50 8T34 48Q34 81 55 101T110 121Q139 121 154 105T169 65Q169 32 148 13T94 -7Z" />
<glyph unicode="&quot;" horiz-adv-x="458" d="M308 377L342 668H457L389 377H308ZM118 377L151 668H267L199 377H118Z" />
<glyph unicode="#" horiz-adv-x="638" d="M49 0L109 171H9L37 250H137L196 418H97L125 497H224L284 668H382L322 497H464L524 668H622L562 497H661L633 418H533L475 250H574L545 171H447L387 0H289L348 171H207L147 0H49ZM236 250H376L435 418H294L236 250Z" />
<glyph unicode="$" horiz-adv-x="592" d="M101 -100L144 6Q107 17 75 37T16 87L77 171Q105 147 132 131T185 106L262 296L247 299Q170 314 134 355T98 452Q98 517 128 567T218 648T362 678Q375 678 388 677T415 674L453 768H524L479 659Q510 648 538 633T590 596L530
510Q509 527 487 539T439 561L370 390L399 385Q449 376 481 352T528 294T544 224Q544 149 509 97T407 17T248 -10Q239 -10 229 -9T209 -7L172 -100H101ZM250 93Q254 93 256 93T262 93Q311 93 346 105T401 142T421 203Q421 232 403 252T345 280L327 283L250 93ZM305
403L375 574Q373 575 370 575T363 575Q296 575 259 548T222 473Q222 445 240 429T296 405L305 403Z" />
<glyph unicode="%" horiz-adv-x="937" d="M206 0L675 668H765L295 0H206ZM217 268Q149 268 115 312T80 423Q80 468 91 512T127 594T188 652T277 674Q346 674 381 630T417 519Q417 474 405 430T369 348T308 290T217 268ZM225 341Q261 341 282 369T314 438T325 517Q325
556 312 578T271 601Q236 601 214 573T181 504T170 425Q170 386 184 364T225 341ZM693 -6Q624 -6 589 38T554 149Q554 194 565 238T601 319T664 378T753 400Q821 400 856 356T891 245Q891 200 880 156T844 74T782 16T693 -6ZM700 67Q735 67 757 95T790 164T801
243Q801 282 787 304T746 327Q710 327 688 299T655 230T645 151Q645 112 659 90T700 67Z" />
<glyph unicode="&amp;" horiz-adv-x="672" d="M217 -10Q157 -10 115 12T50 70T28 151Q28 222 69 270T189 346L218 358Q194 390 183 421T172 485Q172 537 197 581T270 651T385 678Q441 678 479 656T537 599T557 524Q557 468 520 423T394 345L361 332L454 221L542
324H656L507 153L631 0H502L435 80Q383 31 333 11T217 -10ZM248 88Q282 88 316 103T382 150L268 290L236 278Q193 262 169 234T145 166Q145 130 172 109T248 88ZM316 392L357 408Q404 425 427 449T450 514Q450 544 430 564T375 584Q347 584 326 572T292 537T279
485Q279 466 286 445T316 392Z" />
<glyph unicode="&apos;" horiz-adv-x="268" d="M118 377L151 668H267L199 377H118Z" />
<glyph unicode="(" horiz-adv-x="347" d="M151 -252Q130 -227 111 -185T75 -91T50 18T41 127Q41 198 57 271T101 416T165 549T243 660T326 738H413Q375 709 338 661T267 550T208 417T167 272T152 127Q152 74 159 18T179 -90T207 -185T238 -252H151Z" />
<glyph unicode=")" horiz-adv-x="347" d="M-64 -252Q-27 -223 11 -175T82 -64T141 69T181 214T196 359Q196 412 189 468T170 576T143 670T111 738H198Q219 712 238 670T274 576T299 469T308 359Q308 288 292 215T248 70T184 -63T106 -174T23 -252H-64Z" />
<glyph unicode="*" horiz-adv-x="485" d="M173 287L109 339L224 454L88 491L128 575L258 520L274 668H362L327 520L474 575L486 491L336 454L410 339L331 287L275 412L173 287Z" />
<glyph unicode="+" horiz-adv-x="582" d="M217 111L247 286H75L92 382H264L296 557H398L367 382H539L522 286H351L319 111H217Z" />
<glyph unicode="," horiz-adv-x="268" d="M35 -157L-25 -128Q-7 -104 7 -79T30 -28T44 25L59 110H162L148 25Q137 -40 112 -82T35 -157Z" />
<glyph unicode="-" horiz-adv-x="368" d="M43 241L59 331H340L325 241H43Z" />
<glyph unicode="." horiz-adv-x="261" d="M94 -7Q66 -7 50 8T34 48Q34 81 55 101T110 121Q139 121 154 105T169 65Q169 32 148 13T94 -7Z" />
<glyph unicode="/" horiz-adv-x="350" d="M-28 0L303 668H411L80 0H-28Z" />
<glyph unicode="0" horiz-adv-x="642" d="M286 -10Q209 -10 157 24T78 117T51 252Q51 329 71 404T132 542T237 641T388 678Q465 678 518 644T597 551T624 416Q624 339 604 264T543 126T438 27T286 -10ZM296 89Q340 89 373 110T430 165T470 243T492 331T499 417Q499
500 467 539T378 579Q334 579 301 558T244 503T204 425T182 337T175 251Q175 168 207 129T296 89Z" />
<glyph unicode="1" horiz-adv-x="394" d="M157 0L252 540L107 470L80 560L308 668H395L278 0H157Z" />
<glyph unicode="2" horiz-adv-x="554" d="M1 0L18 99L340 356Q363 374 381 394T409 438T419 487Q419 514 406 534T370 567T315 579Q277 579 232 561T132 503L103 595Q161 639 218 658T330 678Q391 678 438 657T514 596T543 502Q543 461 527 423T480 348T407 278L180
99H486L469 0H1Z" />
<glyph unicode="3" horiz-adv-x="574" d="M243 -10Q173 -10 117 14T15 85L71 165Q117 128 163 109T253 89Q294 89 327 103T380 145T400 208Q400 251 369 274T286 297H200L217 391H306Q343 391 374 402T425 437T444 498Q444 538 413 558T335 579Q293 579 248 562T144
503L113 595Q171 640 229 659T345 678Q410 678 460 658T539 600T567 510Q567 448 528 405T421 342Q470 324 497 289T524 203Q524 140 489 92T390 17T243 -10Z" />
<glyph unicode="4" horiz-adv-x="622" d="M332 0L359 150H28L48 266L439 668H566L492 245H580L563 150H475L449 0H332ZM152 245H376L426 532L152 245Z" />
<glyph unicode="5" horiz-adv-x="582" d="M251 -10Q201 -10 161 -1T88 30T20 84L73 162Q121 123 164 106T257 89Q303 89 337 107T392 158T413 237Q413 289 380 315T290 342Q248 342 214 325T164 273L64 292L200 678H566L548 579H275L212 405Q236 419 265 426T326
434Q427 434 483 386T539 251Q539 176 504 117T404 24T251 -10Z" />
<glyph unicode="6" horiz-adv-x="612" d="M281 -10Q210 -10 157 18T74 100T45 228Q45 313 67 393T135 538T249 640T408 678Q449 678 487 666T558 633T611 583L557 510Q523 546 485 562T406 579Q358 579 313 558T233 489T182 362Q211 396 256 415T356 434Q457 434
513 386T569 251Q569 176 534 117T434 24T281 -10ZM290 89Q335 89 370 107T425 158T445 237Q445 289 412 315T322 342Q258 342 219 310T168 220Q168 158 196 124T290 89Z" />
<glyph unicode="7" horiz-adv-x="514" d="M66 0L422 569H81L98 668H566L550 582L190 0H66Z" />
<glyph unicode="8" horiz-adv-x="612" d="M271 -10Q158 -10 95 39T31 167Q31 233 73 278T193 344Q145 361 120 394T94 476Q94 538 129 583T228 653T373 678Q480 678 542 634T605 511Q605 448 566 406T455 344Q506 326 534 290T562 202Q562 140 526 92T425 17T271
-10ZM279 86Q351 86 394 119T438 208Q438 248 406 273T313 299Q242 299 198 267T154 178Q154 135 186 111T279 86ZM335 389Q402 389 442 417T482 500Q482 540 451 561T365 582Q299 582 259 554T219 472Q219 431 249 410T335 389Z" />
<glyph unicode="9" horiz-adv-x="612" d="M237 -10Q197 -10 158 2T87 35T34 85L88 158Q122 122 160 106T239 89Q288 89 333 110T413 179T463 306Q434 272 389 253T289 234Q188 234 132 282T76 417Q76 492 111 551T211 644T364 678Q435 678 488 649T570 567T600
440Q600 355 578 275T510 130T397 28T237 -10ZM323 326Q387 326 426 358T477 448Q477 510 449 544T355 579Q311 579 276 561T220 510T200 431Q200 379 233 353T323 326Z" />
<glyph unicode=":" horiz-adv-x="268" d="M159 365Q131 365 115 381T99 421Q99 454 120 473T175 493Q203 493 219 478T235 438Q235 405 214 385T159 365ZM94 -7Q66 -7 50 8T34 48Q34 81 55 101T110 121Q139 121 154 105T169 65Q169 32 148 13T94 -7Z" />
<glyph unicode=";" horiz-adv-x="268" d="M35 -157L-25 -128Q-7 -104 7 -79T30 -28T44 25L59 110H162L148 25Q137 -40 112 -82T35 -157ZM159 365Q131 365 115 381T99 421Q99 454 120 473T175 493Q203 493 219 478T235 438Q235 405 214 385T159 365Z" />
<glyph unicode="&lt;" horiz-adv-x="582" d="M493 117L75 283L93 385L569 551L549 442L202 329L510 216L493 117Z" />
<glyph unicode="=" horiz-adv-x="582" d="M95 398L113 493H559L542 398H95ZM56 175L72 270H520L502 175H56Z" />
<glyph unicode="&gt;" horiz-adv-x="582" d="M46 117L65 226L413 339L105 452L121 551L540 385L521 283L46 117Z" />
<glyph unicode="?" horiz-adv-x="473" d="M177 210L183 241Q190 280 210 309T257 362T309 406T350 447T367 494Q367 519 355 538T321 568T268 579Q234 579 198 564T105 510L79 592Q127 638 179 658T289 678Q346 678 391 658T464 602T491 517Q491 472 471 441T421
385T360 338T306 290T277 229L273 210H177ZM190 -7Q162 -7 146 8T130 48Q130 81 151 101T207 121Q235 121 250 105T266 65Q266 32 246 13T190 -7Z" />
<glyph unicode="@" horiz-adv-x="900" d="M406 -110Q330 -110 265 -86T151 -16T75 91T48 228Q48 365 106 466T270 622T516 678Q593 678 659 656T775 593T852 498T880 378Q880 324 866 274T824 183T756 118T665 94Q617 94 589 116T551 184Q528 143 492 119T402
94Q336 94 298 137T260 249Q260 316 283 366T350 445T454 474Q495 474 522 457T566 408L575 466H666L627 252Q623 231 627 213T645 183T682 172Q711 172 733 189T769 236T791 300T799 369Q799 437 762 489T659 572T508 603Q395 603 310 559T177 432T130 237Q130
157 166 96T268 0T415 -35Q463 -35 507 -23T591 9L608 -53Q569 -79 516 -94T406 -110ZM434 172Q488 172 519 209T550 308Q550 351 528 373T468 396Q414 396 383 359T352 260Q352 217 374 195T434 172Z" />
<glyph unicode="A" horiz-adv-x="704" d="M-23 0L360 668H492L642 0H518L491 129H186L116 0H-23ZM239 229H473L411 539L239 229Z" />
<glyph unicode="B" horiz-adv-x="694" d="M31 0L148 668H452Q559 668 619 633T679 523Q679 472 663 436T615 377T540 343Q592 328 617 294T643 205Q643 131 611 86T516 20T359 0H31ZM170 100H355Q444 100 482 126T521 216Q521 257 487 277T376 297H205L170 100ZM221
391H408Q485 391 518 416T551 500Q551 537 522 552T426 568H252L221 391Z" />
<glyph unicode="C" horiz-adv-x="660" d="M357 -10Q269 -10 202 26T96 129T57 281Q57 402 107 491T247 629T455 678Q519 678 578 657T685 596L626 513Q585 541 540 556T442 572Q367 572 308 538T214 439T180 284Q180 225 204 183T270 119T370 96Q422 96 467 110T564
155L592 58Q541 23 482 7T357 -10Z" />
<glyph unicode="D" horiz-adv-x="710" d="M31 0L148 668H373Q527 668 606 596T685 387Q685 199 582 100T279 0H31ZM171 103H286Q427 103 494 172T562 384Q562 484 513 524T356 565H252L171 103Z" />
<glyph unicode="E" horiz-adv-x="598" d="M31 0L148 668H622L604 565H252L222 392H544L526 296H205L171 103H523L505 0H31Z" />
<glyph unicode="F" horiz-adv-x="588" d="M31 0L148 668H622L604 565H252L222 392H544L526 296H205L153 0H31Z" />
<glyph unicode="G" horiz-adv-x="730" d="M357 -10Q269 -10 202 26T96 129T57 281Q57 402 107 491T247 629T455 678Q499 678 543 669T628 641T700 595L640 511Q599 541 549 556T442 572Q367 572 308 538T214 439T180 284Q180 225 204 183T270 119T370 96Q425 96
467 113T541 157L562 276H386L403 374H700L653 106Q602 53 528 22T357 -10Z" />
<glyph unicode="H" horiz-adv-x="720" d="M31 0L148 668H270L223 397H553L600 668H722L605 0H483L534 291H204L153 0H31Z" />
<glyph unicode="I" horiz-adv-x="268" d="M31 0L148 668H270L153 0H31Z" />
<glyph unicode="J" horiz-adv-x="526" d="M186 -10Q131 -10 87 8T6 67L60 148Q89 124 121 110T185 96Q244 96 280 127T329 232L406 668H528L451 232Q429 110 368 50T186 -10Z" />
<glyph unicode="K" horiz-adv-x="648" d="M31 0L148 668H270L216 360L538 668H693L384 376L586 0H449L296 295L186 190L153 0H31Z" />
<glyph unicode="L" horiz-adv-x="538" d="M31 0L148 668H270L171 106H473L455 0H31Z" />
<glyph unicode="M" horiz-adv-x="908" d="M31 0L148 668H335L432 150L712 668H909L792 0H670L768 554L464 0H359L250 554L153 0H31Z" />
<glyph unicode="N" horiz-adv-x="720" d="M31 0L148 668H279L513 170L600 668H722L605 0H474L240 498L153 0H31Z" />
<glyph unicode="O" horiz-adv-x="780" d="M356 -10Q269 -10 201 26T95 129T57 280Q57 402 107 491T248 629T455 678Q543 678 610 642T716 539T755 388Q755 266 705 177T565 39T356 -10ZM370 96Q446 96 505 130T598 229T632 384Q632 443 608 485T542 549T442 572Q367
572 308 538T214 439T180 284Q180 225 204 183T270 119T370 96Z" />
<glyph unicode="P" horiz-adv-x="644" d="M31 0L148 668H412Q525 668 583 622T641 490Q641 404 607 349T511 267T359 240H195L153 0H31ZM212 340H351Q402 340 439 353T496 395T516 476Q516 527 481 547T379 568H252L212 340Z" />
<glyph unicode="Q" horiz-adv-x="780" d="M534 -192Q474 -192 430 -172T365 -110T357 -10Q269 -10 202 26T96 129T57 281Q57 402 107 491T247 629T455 678Q543 678 610 642T716 539T755 387Q755 283 718 203T613 72T454 1Q450 -20 452 -38T464 -69T495 -89T545
-96Q579 -96 616 -85T685 -54L710 -142Q668 -167 623 -179T534 -192ZM370 96Q446 96 505 130T598 229T632 384Q632 443 608 485T542 549T442 572Q367 572 308 538T214 439T180 284Q180 225 204 183T270 119T370 96Z" />
<glyph unicode="R" horiz-adv-x="644" d="M31 0L148 668H410Q526 668 584 625T643 501Q643 427 616 379T543 306T440 271L592 0H456L317 262H199L153 0H31ZM216 360H352Q406 360 443 371T498 410T517 486Q517 532 483 550T377 568H252L216 360Z" />
<glyph unicode="S" horiz-adv-x="592" d="M248 -10Q183 -10 123 13T18 86L77 172Q126 131 169 112T262 93Q311 93 346 105T401 142T421 203Q421 232 403 252T345 280L247 299Q170 314 134 355T98 452Q98 517 128 567T218 648T362 678Q423 678 482 659T589 597L531
510Q496 539 452 557T363 575Q296 575 259 548T222 473Q222 444 241 428T300 404L399 385Q449 376 481 352T528 294T544 224Q544 149 509 97T407 17T248 -10Z" />
<glyph unicode="T" horiz-adv-x="605" d="M199 0L298 562H97L115 668H639L620 562H419L321 0H199Z" />
<glyph unicode="U" horiz-adv-x="720" d="M327 -10Q236 -10 175 24T89 122T80 278L148 668H270L201 272Q195 240 197 209T214 153T259 112T339 96Q390 96 429 113T493 166T529 264L600 668H722L650 258Q633 158 592 99T485 15T327 -10Z" />
<glyph unicode="V" horiz-adv-x="704" d="M243 0L94 668H223L328 139L618 668H759L376 0H243Z" />
<glyph unicode="W" horiz-adv-x="1008" d="M186 0L94 668H223L277 154L508 668H638L687 154L922 668H1063L738 0H604L550 505L319 0H186Z" />
<glyph unicode="X" horiz-adv-x="684" d="M-23 0L283 344L104 668H239L366 431L576 668H729L435 344L622 0H487L354 258L130 0H-23Z" />
<glyph unicode="Y" horiz-adv-x="684" d="M239 0L284 255L94 668H229L357 370L589 668H739L405 255L361 0H239Z" />
<glyph unicode="Z" horiz-adv-x="582" d="M-4 0L13 94L431 562H105L123 668H608L592 574L172 106H519L501 0H-4Z" />
<glyph unicode="[" horiz-adv-x="380" d="M-14 -252L161 738H418L402 646H249L108 -160H260L243 -252H-14Z" />
<glyph unicode="\" horiz-adv-x="350" d="M193 0L89 668H189L294 0H193Z" />
<glyph unicode="]" horiz-adv-x="380" d="M-37 -252L-22 -160H131L273 646H120L137 738H394L219 -252H-37Z" />
<glyph unicode="^" horiz-adv-x="582" d="M100 292L309 668H422L500 292H402L353 561L207 292H100Z" />
<glyph unicode="_" horiz-adv-x="485" d="M-64 -122L-50 -43H435L421 -122H-64Z" />
<glyph unicode="`" horiz-adv-x="600" d="M355 542L277 696H388L430 542H355Z" />
<glyph unicode="a" horiz-adv-x="560" d="M182 -10Q113 -10 68 25T23 123Q23 170 47 201T116 250T224 276L386 296Q386 320 379 337T359 364T328 378T287 383Q253 383 216 371T133 333L108 421Q154 453 202 466T299 480Q348 480 388 468T457 432T497 372T500 286L450
0H340L349 53Q321 22 282 6T182 -10ZM223 82Q265 82 295 97T344 136T368 186L372 215L245 199Q185 191 163 175T140 133Q140 110 162 96T223 82Z" />
<glyph unicode="b" horiz-adv-x="604" d="M301 -10Q245 -10 206 12T148 73L136 0H26L143 668H257L214 415Q239 446 280 463T371 480Q430 480 473 454T540 381T564 273Q564 189 531 125T439 26T301 -10ZM289 89Q336 89 371 111T427 172T447 267Q447 318 417 349T333
381Q286 381 251 359T195 298T175 203Q175 152 205 121T289 89Z" />
<glyph unicode="c" horiz-adv-x="503" d="M260 -10Q193 -10 144 17T68 91T41 197Q41 283 77 346T179 445T330 480Q382 480 423 466T497 424L441 338Q412 360 382 370T317 381Q271 381 235 359T178 298T158 203Q158 152 188 121T273 89Q309 89 339 99T406 132L432
46Q395 19 352 5T260 -10Z" />
<glyph unicode="d" horiz-adv-x="604" d="M233 -10Q176 -10 133 16T65 90T41 197Q41 283 73 346T165 444T303 480Q355 480 393 461T451 404L497 668H612L495 0H386L395 60Q369 25 328 8T233 -10ZM271 89Q318 89 353 111T409 173T430 267Q430 318 399 349T315 381Q269
381 233 359T178 298T158 203Q158 152 188 121T271 89Z" />
<glyph unicode="e" horiz-adv-x="560" d="M265 -10Q195 -10 145 17T68 90T41 197Q41 285 78 348T178 446T320 480Q413 480 467 428T521 292Q521 272 514 248T493 204H159Q155 175 162 153T187 116T229 93T285 85Q327 85 366 98T440 135L464 48Q420 20 371 5T265
-10ZM164 284H401Q404 293 404 304Q404 346 380 367T308 388Q275 388 246 376T195 341T164 284Z" />
<glyph unicode="f" horiz-adv-x="376" d="M79 0L144 374H45L61 470H161L171 527Q184 602 227 638T349 674Q373 674 394 672T429 665L413 574Q403 576 388 577T360 578Q326 578 308 564T284 518L276 470H394L378 374H260L194 0H79Z" />
<glyph unicode="g" horiz-adv-x="604" d="M212 -192Q155 -192 102 -171T6 -111L55 -34Q94 -65 135 -79T216 -94Q259 -94 294 -81T354 -40T386 35L394 80Q368 50 329 35T238 20Q183 20 139 44T70 112T45 212Q45 293 77 353T168 447T303 480Q360 480 398 459T456
401L469 470H578L505 58Q482 -73 410 -132T212 -192ZM273 116Q311 116 340 129T389 164T419 216T430 280Q430 312 416 335T376 371T317 384Q279 384 250 371T201 336T172 284T162 220Q162 189 176 165T215 129T273 116Z" />
<glyph unicode="h" horiz-adv-x="570" d="M26 0L143 668H257L215 422Q241 452 276 466T362 480Q413 480 446 466T496 426T516 366T512 292L460 0H346L394 275Q396 293 396 311T389 345T365 371T317 381Q263 381 229 349T184 251L140 0H26Z" />
<glyph unicode="i" horiz-adv-x="250" d="M26 0L108 470H222L140 0H26ZM183 555Q154 555 138 570T122 610Q122 644 143 663T199 683Q229 683 244 668T260 628Q260 595 239 575T183 555Z" />
<glyph unicode="j" horiz-adv-x="250" d="M-45 -188Q-62 -188 -81 -186T-113 -180L-98 -89Q-87 -90 -76 -91T-55 -92Q-21 -92 -3 -77T20 -30L108 470H222L134 -41Q119 -117 77 -152T-45 -188ZM183 555Q154 555 138 570T122 610Q122 644 143 663T199 683Q229 683
244 668T260 628Q260 595 239 575T183 555Z" />
<glyph unicode="k" horiz-adv-x="546" d="M26 0L143 668H257L188 276L413 470H558L333 279L486 0H359L248 206L164 134L140 0H26Z" />
<glyph unicode="l" horiz-adv-x="250" d="M26 0L143 668H257L140 0H26Z" />
<glyph unicode="m" horiz-adv-x="848" d="M26 0L108 470H218L208 422Q235 452 270 466T352 480Q400 480 432 462T481 410Q510 448 549 464T643 480Q698 480 730 463T777 417T793 355T790 292L738 0H624L672 275Q675 297 673 322T656 364T606 381Q555 381 525 349T483
251L439 0H324L372 275Q376 297 374 321T357 363T306 381Q255 381 226 349T184 251L140 0H26Z" />
<glyph unicode="n" horiz-adv-x="570" d="M26 0L108 470H218L207 414Q235 448 271 464T362 480Q413 480 445 466T494 426T514 366T512 292L460 0H346L392 265Q396 289 396 310T389 347T365 372T317 381Q263 381 229 349T184 251L140 0H26Z" />
<glyph unicode="o" horiz-adv-x="590" d="M260 -10Q193 -10 144 17T68 91T41 196Q41 283 77 346T179 445T330 480Q398 480 447 453T522 380T549 274Q549 188 513 124T411 25T260 -10ZM273 89Q320 89 356 111T412 172T432 267Q432 318 402 349T317 381Q270 381
234 359T178 298T158 203Q158 152 188 121T273 89Z" />
<glyph unicode="p" horiz-adv-x="604" d="M-6 -182L109 470H219L208 409Q234 443 276 461T371 480Q430 480 473 454T540 381T564 273Q564 188 531 125T439 26T301 -10Q250 -10 211 10T154 67L108 -182H-6ZM289 89Q336 89 371 111T427 173T447 267Q447 318 417
349T333 381Q286 381 251 359T195 298T175 203Q175 152 205 121T289 89Z" />
<glyph unicode="q" horiz-adv-x="604" d="M347 -182L390 53Q364 22 324 6T233 -10Q176 -10 133 16T65 90T41 197Q41 283 73 346T165 444T303 480Q359 480 398 458T456 398L469 470H578L463 -182H347ZM271 89Q318 89 353 111T409 173T430 267Q430 318 399 349T315
381Q269 381 233 359T178 298T158 203Q158 152 188 121T271 89Z" />
<glyph unicode="r" horiz-adv-x="376" d="M26 0L108 470H218L205 402Q232 445 265 460T344 476Q355 476 366 475T386 470L367 361Q354 364 341 366T313 368Q264 368 229 336T182 235L140 0H26Z" />
<glyph unicode="s" horiz-adv-x="490" d="M205 -10Q151 -10 103 7T14 58L68 138Q109 109 143 95T213 80Q263 80 289 96T316 139Q316 155 305 165T263 183L191 196Q128 207 101 240T73 317Q73 388 127 434T285 480Q336 480 381 465T460 420L409 343Q382 363 350
376T280 390Q237 390 213 376T189 335Q189 319 199 310T238 295L309 282Q373 270 402 237T432 154Q432 77 373 34T205 -10Z" />
<glyph unicode="t" horiz-adv-x="392" d="M228 -6Q192 -6 166 4T124 33T103 80T104 142L144 374H45L61 470H161L185 604H300L276 470H394L378 374H260L220 150Q217 131 220 118T237 97T273 90Q286 90 301 91T328 94L313 3Q297 -1 276 -3T228 -6Z" />
<glyph unicode="u" horiz-adv-x="570" d="M206 -10Q137 -10 102 16T57 85T56 178L108 470H222L174 195Q172 176 172 157T179 123T204 99T251 89Q305 89 339 121T384 219L428 470H542L460 0H350L361 56Q333 22 297 6T206 -10Z" />
<glyph unicode="v" horiz-adv-x="534" d="M161 0L59 470H176L239 117L424 470H554L288 0H161Z" />
<glyph unicode="w" horiz-adv-x="804" d="M141 0L59 470H176L220 141L385 470H487L537 141L694 470H824L577 0H465L417 324L254 0H141Z" />
<glyph unicode="x" horiz-adv-x="534" d="M-23 0L194 243L69 470H192L271 313L405 470H544L339 243L472 0H350L262 167L116 0H-23Z" />
<glyph unicode="y" horiz-adv-x="534" d="M45 -188Q16 -188 -15 -179T-65 -156L-21 -73Q-4 -81 16 -86T53 -92Q74 -92 91 -86T127 -64T165 -19L59 470H176L237 109L424 470H554L288 0Q246 -73 208 -114T132 -171T45 -188Z" />
<glyph unicode="z" horiz-adv-x="474" d="M-4 0L11 84L306 374H72L88 470H465L451 386L156 96H409L393 0H-4Z" />
<glyph unicode="{" horiz-adv-x="380" d="M175 -252Q134 -252 104 -235T60 -187T51 -114L94 128Q97 147 95 163T80 188T36 198L52 288Q90 288 108 304T134 358L177 600Q188 661 226 699T331 738H419L402 646H357Q323 646 304 629T278 576L233 323Q228 293 210
272T149 243Q185 236 197 216T204 163L159 -91Q157 -109 159 -125T175 -150T216 -160H260L243 -252H175Z" />
<glyph unicode="|" horiz-adv-x="240" d="M-14 -252L161 738H255L80 -252H-14Z" />
<glyph unicode="}" horiz-adv-x="380" d="M-38 -252L-21 -160H24Q58 -160 78 -143T104 -90L149 163Q154 193 172 214T233 243Q197 251 185 271T178 323L222 577Q225 596 222 611T206 636T165 646H122L138 738H206Q248 738 278 721T322 673T331 600L287 358Q284
339 286 323T302 298T345 288L330 198Q292 198 274 182T248 128L204 -114Q194 -175 156 -213T50 -252H-38Z" />
<glyph unicode="~" horiz-adv-x="582" d="M68 243Q79 334 115 379T217 425Q249 425 273 412T318 382T357 351T393 338Q419 338 433 359T460 425H547Q537 334 500 289T398 243Q366 243 342 256T297 286T258 316T222 330Q196 330 182 309T155 243H68Z" />
<glyph unicode="&#xa0;" horiz-adv-x="236" />
<glyph unicode="&#xa1;" horiz-adv-x="268" d="M-1 -182L31 0L100 276H182L154 0L122 -182H-1ZM160 365Q131 365 116 381T100 421Q100 454 121 473T176 493Q205 493 220 478T236 438Q236 405 215 385T160 365Z" />
<glyph unicode="&#xa2;" horiz-adv-x="503" d="M124 -100L166 5Q106 28 73 76T39 192Q39 282 76 346T178 445T330 480Q338 480 344 480T358 478L395 570H460L418 467Q441 460 460 450T497 424L441 338Q427 349 412 357T380 371L266 89Q269 89 272 89T280 90Q312
91 341 101T406 132L432 46Q395 19 352 5T260 -10Q251 -10 243 -10T226 -8L189 -100H124ZM207 106L318 381Q315 381 311 381T301 379Q262 377 229 356T177 297T157 204Q157 171 170 146T207 106Z" />
<glyph unicode="&#xa3;" horiz-adv-x="554" d="M1 0L16 86Q52 103 73 127T105 182T115 247Q115 252 115 257T114 269H28L40 337H103Q97 362 93 386T89 435Q89 510 125 565T222 649T358 678Q419 678 472 656T572 583L519 510Q472 549 434 564T355 579Q310 579 278
560T229 505T212 424Q212 403 214 382T219 337H396L384 269H226Q226 262 226 255T223 241Q222 224 219 205T207 166T184 130T147 99H486L469 0H1Z" />
<glyph unicode="&#xa4;" horiz-adv-x="742" d="M56 -10L-4 63L166 207Q150 246 150 291Q150 343 164 387T205 466L91 606L176 678L291 538Q320 553 352 560T421 568Q459 568 490 559T547 533L719 678L779 605L608 460Q624 421 624 377Q624 324 610 280T569 202L684
62L599 -10L483 129Q453 114 421 107T353 100Q315 100 284 108T226 136L56 -10ZM362 189Q406 189 441 212T498 277T519 371Q519 420 492 449T412 479Q369 479 333 456T276 392T255 297Q255 248 282 219T362 189Z" />
<glyph unicode="&#xa5;" horiz-adv-x="642" d="M218 0L232 81H75L86 149H244L260 237H103L114 305H245L113 668H239L338 375L541 668H679L419 305H550L539 237H381L365 149H522L511 81H354L340 0H218Z" />
<glyph unicode="&#xa6;" horiz-adv-x="240" d="M80 282L161 738H255L174 282H80ZM-14 -252L66 204H160L80 -252H-14Z" />
<glyph unicode="&#xa7;" horiz-adv-x="595" d="M223 -192Q170 -192 121 -175T32 -124L86 -44Q126 -73 160 -87T231 -102Q281 -102 307 -81T333 -28Q333 -7 320 11T281 47L162 118Q100 155 76 187T52 256Q52 297 72 327T127 378T209 404Q184 424 170 452T155 508Q155
559 180 596T253 656T367 678Q418 678 464 663T543 618L491 541Q463 561 432 574T363 588Q321 588 296 568T271 517Q271 496 283 478T320 444L439 372Q501 335 527 304T554 231Q554 189 535 158T481 108T401 82Q424 63 437 36T450 -20Q450 -97 390 -144T223 -192ZM334
127Q374 133 404 158T435 227Q435 246 424 261T385 292L277 358Q250 354 226 343T186 312T170 264Q170 245 181 230T216 199L334 127Z" />
<glyph unicode="&#xa8;" horiz-adv-x="600" d="M457 563Q433 563 419 577T405 613Q405 640 423 657T471 675Q497 675 510 661T523 626Q523 598 506 581T457 563ZM262 563Q237 563 224 577T210 613Q210 640 227 657T276 675Q302 675 315 661T328 626Q328 598 310
581T262 563Z" />
<glyph unicode="&#xa9;" horiz-adv-x="797" d="M415 -10Q309 -10 229 34T105 156T60 334Q60 434 104 511T229 633T415 678Q522 678 602 634T726 512T770 334Q770 234 726 157T602 35T415 -10ZM424 168Q347 168 304 214T260 334Q260 408 303 454T424 500Q457 500
485 491T537 462L507 403Q486 417 466 424T423 431Q385 431 363 405T341 334Q341 290 363 264T423 237Q446 237 466 243T507 264L537 206Q514 187 486 178T424 168ZM415 57Q501 57 564 92T663 190T698 334Q698 416 663 478T565 576T416 611Q330 611 267 576T168
479T133 334Q133 253 167 190T266 92T415 57Z" />
<glyph unicode="&#xaa;" horiz-adv-x="516" d="M207 232Q144 232 104 263T64 352Q64 395 85 422T146 466T244 490L389 508Q389 549 367 568T301 587Q273 587 239 576T163 541L140 621Q181 648 224 661T312 674Q357 674 394 663T455 630T491 576T494 499L448 241H348L357
289Q330 261 295 247T207 232ZM245 315Q282 315 309 328T352 362T373 408L378 435L264 420Q209 414 190 399T170 361Q170 339 190 327T245 315Z" />
<glyph unicode="&#xab;" horiz-adv-x="498" d="M328 113L259 286L390 461H495L364 286L433 113H328ZM120 113L51 286L182 461H287L156 286L225 113H120Z" />
<glyph unicode="&#xac;" horiz-adv-x="582" d="M404 199L434 373H91L107 469H555L507 199H404Z" />
<glyph unicode="&#xad;" horiz-adv-x="368" d="M43 241L59 331H340L325 241H43Z" />
<glyph unicode="&#xae;" horiz-adv-x="585" d="M326 190Q252 190 196 222T108 309T77 434Q77 504 108 559T196 646T326 678Q401 678 457 646T544 559T576 434Q576 365 545 310T457 222T326 190ZM326 234Q388 234 432 260T501 331T526 434Q526 492 502 537T432
608T326 634Q265 634 220 608T151 537T126 434Q126 376 150 331T220 260T326 234ZM236 314V556H335Q381 556 403 538T426 482Q426 453 411 436T366 412L438 314H374L307 409H287V314H236ZM287 451H328Q351 451 362 459T373 482Q373 498 362 505T328 513H287V451Z"
/>
<glyph unicode="&#xaf;" horiz-adv-x="600" d="M217 582L230 657H514L502 582H217Z" />
<glyph unicode="&#xb0;" horiz-adv-x="370" d="M222 417Q163 417 129 447T95 529Q95 573 115 606T172 659T256 678Q315 678 349 648T384 566Q384 499 339 458T222 417ZM229 478Q266 478 290 499T314 557Q314 584 297 601T249 618Q212 618 188 597T164 538Q164
510 181 494T229 478Z" />
<glyph unicode="&#xb1;" horiz-adv-x="582" d="M227 172L256 336H85L102 431H273L302 596H406L377 431H548L531 336H360L330 172H227ZM26 0L42 96H488L472 0H26Z" />
<glyph unicode="&#xb2;" horiz-adv-x="362" d="M73 408L85 481L256 616Q278 634 290 651T302 690Q302 712 288 723T251 735Q231 735 209 726T154 695L134 759Q168 787 201 797T267 808Q321 808 356 780T392 704Q392 667 374 637T309 571L197 481H362L349 408H73Z" />
<glyph unicode="&#xb3;" horiz-adv-x="376" d="M216 402Q176 402 143 416T82 459L122 515Q149 495 171 485T219 475Q254 475 273 491T292 533Q292 556 278 568T235 580H191L201 642H249Q281 642 299 656T317 694Q317 714 304 724T264 735Q243 735 220 726T162
695L141 759Q177 785 209 796T276 808Q335 808 371 782T407 709Q407 672 384 647T321 610Q352 599 367 578T382 528Q382 470 337 436T216 402Z" />
<glyph unicode="&#xb4;" horiz-adv-x="600" d="M271 542L368 696H485L353 542H271Z" />
<glyph unicode="&#xb5;" horiz-adv-x="570" d="M-7 -182L108 470H222L174 195Q172 176 172 157T179 123T204 99T251 89Q305 89 339 121T384 219L428 470H542L460 0H350L361 61Q336 23 304 7T227 -10Q164 -10 146 30L107 -182H-7Z" />
<glyph unicode="&#xb6;" horiz-adv-x="584" d="M159 -182L245 306Q168 308 126 352T83 463Q83 525 110 571T185 642T297 668H587L437 -182H350L485 585H380L245 -182H159Z" />
<glyph unicode="&#xb7;" horiz-adv-x="261" d="M133 222Q105 222 90 237T74 277Q74 311 94 330T150 350Q179 350 194 335T210 295Q210 261 189 242T133 222Z" />
<glyph unicode="&#xb8;" horiz-adv-x="600" d="M208 -197Q194 -197 171 -194T130 -185L140 -130Q154 -134 173 -135T207 -137Q233 -137 247 -128T261 -99Q261 -73 219 -73H197L201 -44L236 11H292L258 -44Q294 -44 314 -59T334 -103Q334 -145 301 -171T208 -197Z" />
<glyph unicode="&#xb9;" horiz-adv-x="289" d="M157 408L210 713L130 674L110 735L252 802H314L245 408H157Z" />
<glyph unicode="&#xba;" horiz-adv-x="542" d="M276 232Q215 232 171 256T102 323T78 418Q78 496 110 553T201 642T339 674Q401 674 445 650T513 583T537 488Q537 411 505 353T415 264T276 232ZM287 323Q351 323 391 365T431 482Q431 528 403 555T328 583Q265
583 225 541T185 424Q185 378 211 351T287 323Z" />
<glyph unicode="&#xbb;" horiz-adv-x="498" d="M228 113L359 286L290 461H395L464 286L333 113H228ZM20 113L151 286L82 461H187L256 286L125 113H20Z" />
<glyph unicode="&#xbc;" horiz-adv-x="800" d="M116 0L589 668H675L201 0H116ZM133 274L185 572L108 535L87 601L228 668H290L221 274H133ZM584 0L598 82H412L424 157L657 394H734L691 150H740L729 82H679L665 0H584ZM500 150H610L633 287L500 150Z" />
<glyph unicode="&#xbd;" horiz-adv-x="825" d="M116 0L589 668H675L201 0H116ZM133 274L187 579L106 540L87 601L228 668H290L221 274H133ZM463 0L475 73L646 208Q668 226 680 243T692 282Q692 304 678 315T641 327Q621 327 599 318T544 287L524 351Q558 379 591
389T658 400Q711 400 747 372T783 296Q783 259 765 229T700 163L587 73H751L739 0H463Z" />
<glyph unicode="&#xbe;" horiz-adv-x="874" d="M191 0L664 668H748L275 0H191ZM192 268Q152 268 119 282T58 325L98 381Q125 361 147 351T195 341Q230 341 249 357T268 399Q268 422 254 434T211 446H167L177 508H225Q257 508 275 522T293 560Q293 580 280 590T240
601Q219 601 196 592T138 561L117 625Q153 651 185 662T252 674Q311 674 347 648T383 575Q383 538 360 513T297 476Q328 465 343 444T358 394Q358 336 313 302T192 268ZM658 0L672 82H485L498 157L731 394H809L765 150H815L802 82H754L740 0H658ZM574 150H684L708
287L574 150Z" />
<glyph unicode="&#xbf;" horiz-adv-x="473" d="M185 -192Q129 -192 83 -172T11 -116T-16 -31Q-16 14 3 46T53 102T113 148T167 196T197 257L201 276H297L292 245Q286 206 265 177T218 124T166 80T124 39T107 -8Q107 -45 133 -69T206 -93Q240 -93 276 -78T369 -24L396
-106Q347 -152 295 -172T185 -192ZM267 365Q240 365 224 381T208 421Q208 454 228 473T284 493Q313 493 328 478T344 438Q344 405 323 385T267 365Z" />
<glyph unicode="&#xc0;" horiz-adv-x="704" d="M-23 0L360 668H492L642 0H518L491 129H186L116 0H-23ZM239 229H473L411 539L239 229ZM404 740L326 894H437L479 740H404Z" />
<glyph unicode="&#xc1;" horiz-adv-x="704" d="M-23 0L360 668H492L642 0H518L491 129H186L116 0H-23ZM239 229H473L411 539L239 229ZM403 740L500 894H617L485 740H403Z" />
<glyph unicode="&#xc2;" horiz-adv-x="704" d="M-23 0L360 668H492L642 0H518L491 129H186L116 0H-23ZM239 229H473L411 539L239 229ZM288 740L414 894H521L593 740H512L463 833L382 740H288Z" />
<glyph unicode="&#xc3;" horiz-adv-x="704" d="M-23 0L360 668H492L642 0H518L491 129H186L116 0H-23ZM239 229H473L411 539L239 229ZM281 749Q287 817 314 851T387 886Q410 886 429 877T463 855T492 833T518 823Q534 823 544 837T562 886H629Q622 816 595 783T522
749Q499 749 480 758T446 780T417 802T392 811Q376 811 366 797T347 749H281Z" />
<glyph unicode="&#xc4;" horiz-adv-x="704" d="M-23 0L360 668H492L642 0H518L491 129H186L116 0H-23ZM239 229H473L411 539L239 229ZM545 761Q521 761 507 775T493 811Q493 838 511 855T559 873Q585 873 598 859T611 824Q611 796 594 779T545 761ZM350 761Q325
761 312 775T298 811Q298 838 315 855T364 873Q390 873 403 859T416 824Q416 796 398 779T350 761Z" />
<glyph unicode="&#xc5;" horiz-adv-x="704" d="M-23 0L360 668H492L642 0H518L491 129H186L116 0H-23ZM239 229H473L411 539L239 229ZM441 710Q392 710 364 736T335 802Q335 856 370 890T467 924Q516 924 544 898T573 833Q573 779 538 745T441 710ZM447 760Q477
760 495 778T514 823Q514 845 500 859T461 874Q431 874 413 857T394 811Q394 790 408 775T447 760Z" />
<glyph unicode="&#xc6;" horiz-adv-x="1001" d="M-23 0L512 668H1025L1007 565H655L625 392H948L930 296H608L574 103H926L908 0H434L457 129H221L120 0H-23ZM296 229H474L527 525L296 229Z" />
<glyph unicode="&#xc7;" horiz-adv-x="660" d="M357 -10Q269 -10 202 26T96 129T57 281Q57 402 107 491T247 629T455 678Q519 678 578 657T685 596L626 513Q585 541 540 556T442 572Q367 572 308 538T214 439T180 284Q180 225 204 183T270 119T370 96Q422 96 467
110T564 155L592 58Q541 23 482 7T357 -10ZM272 -197Q258 -197 235 -194T194 -185L204 -130Q218 -134 237 -135T271 -137Q297 -137 311 -128T325 -99Q325 -73 283 -73H261L265 -44L300 11H356L322 -44Q358 -44 378 -59T398 -103Q398 -145 365 -171T272 -197Z" />
<glyph unicode="&#xc8;" horiz-adv-x="598" d="M31 0L148 668H622L604 565H252L222 392H544L526 296H205L171 103H523L505 0H31ZM351 740L273 894H384L426 740H351Z" />
<glyph unicode="&#xc9;" horiz-adv-x="598" d="M31 0L148 668H622L604 565H252L222 392H544L526 296H205L171 103H523L505 0H31ZM350 740L447 894H564L432 740H350Z" />
<glyph unicode="&#xca;" horiz-adv-x="598" d="M31 0L148 668H622L604 565H252L222 392H544L526 296H205L171 103H523L505 0H31ZM235 740L361 894H468L540 740H459L410 833L329 740H235Z" />
<glyph unicode="&#xcb;" horiz-adv-x="598" d="M31 0L148 668H622L604 565H252L222 392H544L526 296H205L171 103H523L505 0H31ZM492 761Q468 761 454 775T440 811Q440 838 458 855T506 873Q532 873 545 859T558 824Q558 796 541 779T492 761ZM297 761Q272 761
259 775T245 811Q245 838 262 855T311 873Q337 873 350 859T363 824Q363 796 345 779T297 761Z" />
<glyph unicode="&#xcc;" horiz-adv-x="268" d="M31 0L148 668H270L153 0H31ZM186 740L108 894H219L261 740H186Z" />
<glyph unicode="&#xcd;" horiz-adv-x="268" d="M31 0L148 668H270L153 0H31ZM185 740L282 894H399L267 740H185Z" />
<glyph unicode="&#xce;" horiz-adv-x="268" d="M31 0L148 668H270L153 0H31ZM71 740L197 894H304L376 740H295L246 833L165 740H71Z" />
<glyph unicode="&#xcf;" horiz-adv-x="268" d="M31 0L148 668H270L153 0H31ZM327 761Q303 761 289 775T275 811Q275 838 293 855T341 873Q367 873 380 859T393 824Q393 796 376 779T327 761ZM132 761Q107 761 94 775T80 811Q80 838 97 855T146 873Q172 873 185
859T198 824Q198 796 180 779T132 761Z" />
<glyph unicode="&#xd0;" horiz-adv-x="710" d="M31 0L84 306H19L33 382H98L148 668H373Q527 668 606 596T685 387Q685 199 582 100T279 0H31ZM171 103H286Q427 103 494 172T562 384Q562 484 513 524T356 565H252L219 382H376L364 306H206L171 103Z" />
<glyph unicode="&#xd1;" horiz-adv-x="720" d="M31 0L148 668H279L513 170L600 668H722L605 0H474L240 498L153 0H31ZM289 749Q295 817 322 851T395 886Q418 886 437 877T471 855T500 833T526 823Q542 823 552 837T570 886H637Q630 816 603 783T530 749Q507 749
488 758T454 780T425 802T400 811Q384 811 374 797T355 749H289Z" />
<glyph unicode="&#xd2;" horiz-adv-x="780" d="M356 -10Q269 -10 201 26T95 129T57 280Q57 402 107 491T248 629T455 678Q543 678 610 642T716 539T755 388Q755 266 705 177T565 39T356 -10ZM370 96Q446 96 505 130T598 229T632 384Q632 443 608 485T542 549T442
572Q367 572 308 538T214 439T180 284Q180 225 204 183T270 119T370 96ZM441 740L363 894H474L516 740H441Z" />
<glyph unicode="&#xd3;" horiz-adv-x="780" d="M356 -10Q269 -10 201 26T95 129T57 280Q57 402 107 491T248 629T455 678Q543 678 610 642T716 539T755 388Q755 266 705 177T565 39T356 -10ZM370 96Q446 96 505 130T598 229T632 384Q632 443 608 485T542 549T442
572Q367 572 308 538T214 439T180 284Q180 225 204 183T270 119T370 96ZM441 740L538 894H655L523 740H441Z" />
<glyph unicode="&#xd4;" horiz-adv-x="780" d="M356 -10Q269 -10 201 26T95 129T57 280Q57 402 107 491T248 629T455 678Q543 678 610 642T716 539T755 388Q755 266 705 177T565 39T356 -10ZM370 96Q446 96 505 130T598 229T632 384Q632 443 608 485T542 549T442
572Q367 572 308 538T214 439T180 284Q180 225 204 183T270 119T370 96ZM326 740L452 894H559L631 740H550L501 833L420 740H326Z" />
<glyph unicode="&#xd5;" horiz-adv-x="780" d="M356 -10Q269 -10 201 26T95 129T57 280Q57 402 107 491T248 629T455 678Q543 678 610 642T716 539T755 388Q755 266 705 177T565 39T356 -10ZM370 96Q446 96 505 130T598 229T632 384Q632 443 608 485T542 549T442
572Q367 572 308 538T214 439T180 284Q180 225 204 183T270 119T370 96ZM319 749Q325 817 352 851T425 886Q448 886 467 877T501 855T530 833T556 823Q572 823 582 837T600 886H667Q660 816 633 783T560 749Q537 749 518 758T484 780T455 802T430 811Q414 811 404
797T385 749H319Z" />
<glyph unicode="&#xd6;" horiz-adv-x="780" d="M356 -10Q269 -10 201 26T95 129T57 280Q57 402 107 491T248 629T455 678Q543 678 610 642T716 539T755 388Q755 266 705 177T565 39T356 -10ZM370 96Q446 96 505 130T598 229T632 384Q632 443 608 485T542 549T442
572Q367 572 308 538T214 439T180 284Q180 225 204 183T270 119T370 96ZM583 761Q559 761 545 775T531 811Q531 838 549 855T597 873Q623 873 636 859T649 824Q649 796 632 779T583 761ZM388 761Q363 761 350 775T336 811Q336 838 353 855T402 873Q428 873 441
859T454 824Q454 796 436 779T388 761Z" />
<glyph unicode="&#xd7;" horiz-adv-x="582" d="M118 111L57 184L233 334L111 484L197 557L320 408L497 557L558 484L381 334L504 184L418 111L294 260L118 111Z" />
<glyph unicode="&#xd8;" horiz-adv-x="780" d="M44 -10L8 40L101 119Q79 153 68 193T57 281Q57 402 107 491T247 629T455 678Q521 678 576 657T671 597L769 678L805 628L711 548Q733 514 744 474T755 387Q755 266 705 177T565 39T357 -10Q291 -10 236 11T141 71L44
-10ZM370 96Q446 96 505 130T598 229T632 384Q632 408 628 429T616 469L231 147Q283 96 370 96ZM196 199L581 520Q555 546 521 559T442 572Q367 572 308 538T214 439T180 284Q180 236 196 199Z" />
<glyph unicode="&#xd9;" horiz-adv-x="720" d="M327 -10Q236 -10 175 24T89 122T80 278L148 668H270L201 272Q195 240 197 209T214 153T259 112T339 96Q390 96 429 113T493 166T529 264L600 668H722L650 258Q633 158 592 99T485 15T327 -10ZM411 740L333 894H444L486
740H411Z" />
<glyph unicode="&#xda;" horiz-adv-x="720" d="M327 -10Q236 -10 175 24T89 122T80 278L148 668H270L201 272Q195 240 197 209T214 153T259 112T339 96Q390 96 429 113T493 166T529 264L600 668H722L650 258Q633 158 592 99T485 15T327 -10ZM411 740L508 894H625L493
740H411Z" />
<glyph unicode="&#xdb;" horiz-adv-x="720" d="M327 -10Q236 -10 175 24T89 122T80 278L148 668H270L201 272Q195 240 197 209T214 153T259 112T339 96Q390 96 429 113T493 166T529 264L600 668H722L650 258Q633 158 592 99T485 15T327 -10ZM296 740L422 894H529L601
740H520L471 833L390 740H296Z" />
<glyph unicode="&#xdc;" horiz-adv-x="720" d="M327 -10Q236 -10 175 24T89 122T80 278L148 668H270L201 272Q195 240 197 209T214 153T259 112T339 96Q390 96 429 113T493 166T529 264L600 668H722L650 258Q633 158 592 99T485 15T327 -10ZM553 761Q529 761 515
775T501 811Q501 838 519 855T567 873Q593 873 606 859T619 824Q619 796 602 779T553 761ZM358 761Q333 761 320 775T306 811Q306 838 323 855T372 873Q398 873 411 859T424 824Q424 796 406 779T358 761Z" />
<glyph unicode="&#xdd;" horiz-adv-x="684" d="M239 0L284 255L94 668H229L357 370L589 668H739L405 255L361 0H239ZM393 740L490 894H607L475 740H393Z" />
<glyph unicode="&#xde;" horiz-adv-x="644" d="M31 0L148 668H270L251 561H393Q505 561 563 509T621 371Q621 283 587 225T488 137T336 107H171L153 0H31ZM189 207H327Q378 207 415 222T474 270T495 358Q495 410 462 435T360 461H233L189 207Z" />
<glyph unicode="&#xdf;" horiz-adv-x="604" d="M331 -10Q313 -10 290 -8T251 0L267 92Q275 90 287 88T312 86Q368 86 403 121T439 222Q439 268 403 286T304 305L319 390Q355 390 385 402T434 439T453 499Q453 537 426 559T354 582Q299 582 265 550T220 458L140
0H26L102 437Q122 551 184 614T360 678Q423 678 469 658T542 601T568 517Q568 455 536 414T448 351Q502 335 529 303T556 220Q556 151 529 99T451 19T331 -10Z" />
<glyph unicode="&#xe0;" horiz-adv-x="560" d="M182 -10Q113 -10 68 25T23 123Q23 170 47 201T116 250T224 276L386 296Q386 320 379 337T359 364T328 378T287 383Q253 383 216 371T133 333L108 421Q154 453 202 466T299 480Q348 480 388 468T457 432T497 372T500
286L450 0H340L349 53Q321 22 282 6T182 -10ZM223 82Q265 82 295 97T344 136T368 186L372 215L245 199Q185 191 163 175T140 133Q140 110 162 96T223 82ZM552 542L474 696H585L627 542H552Z" />
<glyph unicode="&#xe1;" horiz-adv-x="560" d="M182 -10Q113 -10 68 25T23 123Q23 170 47 201T116 250T224 276L386 296Q386 320 379 337T359 364T328 378T287 383Q253 383 216 371T133 333L108 421Q154 453 202 466T299 480Q348 480 388 468T457 432T497 372T500
286L450 0H340L349 53Q321 22 282 6T182 -10ZM223 82Q265 82 295 97T344 136T368 186L372 215L245 199Q185 191 163 175T140 133Q140 110 162 96T223 82ZM296 542L393 696H510L378 542H296Z" />
<glyph unicode="&#xe2;" horiz-adv-x="560" d="M182 -10Q113 -10 68 25T23 123Q23 170 47 201T116 250T224 276L386 296Q386 320 379 337T359 364T328 378T287 383Q253 383 216 371T133 333L108 421Q154 453 202 466T299 480Q348 480 388 468T457 432T497 372T500
286L450 0H340L349 53Q321 22 282 6T182 -10ZM223 82Q265 82 295 97T344 136T368 186L372 215L245 199Q185 191 163 175T140 133Q140 110 162 96T223 82ZM437 542L563 696H670L742 542H661L612 635L531 542H437Z" />
<glyph unicode="&#xe3;" horiz-adv-x="560" d="M182 -10Q113 -10 68 25T23 123Q23 170 47 201T116 250T224 276L386 296Q386 320 379 337T359 364T328 378T287 383Q253 383 216 371T133 333L108 421Q154 453 202 466T299 480Q348 480 388 468T457 432T497 372T500
286L450 0H340L349 53Q321 22 282 6T182 -10ZM223 82Q265 82 295 97T344 136T368 186L372 215L245 199Q185 191 163 175T140 133Q140 110 162 96T223 82ZM430 551Q436 619 463 653T536 688Q559 688 578 679T612 657T641 635T667 625Q683 625 693 639T711 688H778Q771
618 744 585T671 551Q648 551 629 560T595 582T566 604T541 613Q525 613 515 599T496 551H430Z" />
<glyph unicode="&#xe4;" horiz-adv-x="560" d="M182 -10Q113 -10 68 25T23 123Q23 170 47 201T116 250T224 276L386 296Q386 320 379 337T359 364T328 378T287 383Q253 383 216 371T133 333L108 421Q154 453 202 466T299 480Q348 480 388 468T457 432T497 372T500
286L450 0H340L349 53Q321 22 282 6T182 -10ZM223 82Q265 82 295 97T344 136T368 186L372 215L245 199Q185 191 163 175T140 133Q140 110 162 96T223 82ZM694 563Q670 563 656 577T642 613Q642 640 660 657T708 675Q734 675 747 661T760 626Q760 598 743 581T694
563ZM499 563Q474 563 461 577T447 613Q447 640 464 657T513 675Q539 675 552 661T565 626Q565 598 547 581T499 563Z" />
<glyph unicode="&#xe5;" horiz-adv-x="560" d="M182 -10Q113 -10 68 25T23 123Q23 170 47 201T116 250T224 276L386 296Q386 320 379 337T359 364T328 378T287 383Q253 383 216 371T133 333L108 421Q154 453 202 466T299 480Q348 480 388 468T457 432T497 372T500
286L450 0H340L349 53Q321 22 282 6T182 -10ZM223 82Q265 82 295 97T344 136T368 186L372 215L245 199Q185 191 163 175T140 133Q140 110 162 96T223 82ZM590 512Q541 512 513 538T484 604Q484 658 519 692T616 726Q665 726 693 700T722 635Q722 581 687 547T590
512ZM596 562Q626 562 644 580T663 625Q663 647 649 661T610 676Q580 676 562 659T543 613Q543 592 557 577T596 562Z" />
<glyph unicode="&#xe6;" horiz-adv-x="894" d="M182 -10Q113 -10 68 25T23 123Q23 170 47 201T116 250T224 276L386 296Q386 320 379 337T359 364T328 378T287 383Q253 383 216 371T133 333L108 421Q154 453 202 466T299 480Q356 480 400 462T467 409Q502 442
549 461T654 480Q748 480 801 428T854 292Q854 272 848 248T827 204H492Q488 175 495 153T520 116T563 93T618 85Q661 85 700 98T774 135L799 48Q755 20 706 5T599 -10Q527 -10 479 18T406 92Q375 41 317 16T182 -10ZM223 82Q265 82 295 97T344 136T368 186L372
215L245 199Q185 191 163 175T140 133Q140 110 162 96T223 82ZM498 284H735Q738 293 738 304Q738 346 714 367T642 388Q592 388 552 361T498 284Z" />
<glyph unicode="&#xe7;" horiz-adv-x="503" d="M260 -10Q193 -10 144 17T68 91T41 197Q41 283 77 346T179 445T330 480Q382 480 423 466T497 424L441 338Q412 360 382 370T317 381Q271 381 235 359T178 298T158 203Q158 152 188 121T273 89Q309 89 339 99T406
132L432 46Q395 19 352 5T260 -10ZM435 -197Q421 -197 398 -194T357 -185L367 -130Q381 -134 400 -135T434 -137Q460 -137 474 -128T488 -99Q488 -73 446 -73H424L428 -44L463 11H519L485 -44Q521 -44 541 -59T561 -103Q561 -145 528 -171T435 -197Z" />
<glyph unicode="&#xe8;" horiz-adv-x="560" d="M265 -10Q195 -10 145 17T68 90T41 197Q41 285 78 348T178 446T320 480Q413 480 467 428T521 292Q521 272 514 248T493 204H159Q155 175 162 153T187 116T229 93T285 85Q327 85 366 98T440 135L464 48Q420 20 371
5T265 -10ZM164 284H401Q404 293 404 304Q404 346 380 367T308 388Q275 388 246 376T195 341T164 284ZM554 542L476 696H587L629 542H554Z" />
<glyph unicode="&#xe9;" horiz-adv-x="560" d="M265 -10Q195 -10 145 17T68 90T41 197Q41 285 78 348T178 446T320 480Q413 480 467 428T521 292Q521 272 514 248T493 204H159Q155 175 162 153T187 116T229 93T285 85Q327 85 366 98T440 135L464 48Q420 20 371
5T265 -10ZM164 284H401Q404 293 404 304Q404 346 380 367T308 388Q275 388 246 376T195 341T164 284ZM298 542L395 696H512L380 542H298Z" />
<glyph unicode="&#xea;" horiz-adv-x="560" d="M265 -10Q195 -10 145 17T68 90T41 197Q41 285 78 348T178 446T320 480Q413 480 467 428T521 292Q521 272 514 248T493 204H159Q155 175 162 153T187 116T229 93T285 85Q327 85 366 98T440 135L464 48Q420 20 371
5T265 -10ZM164 284H401Q404 293 404 304Q404 346 380 367T308 388Q275 388 246 376T195 341T164 284ZM439 542L565 696H672L744 542H663L614 635L533 542H439Z" />
<glyph unicode="&#xeb;" horiz-adv-x="560" d="M265 -10Q195 -10 145 17T68 90T41 197Q41 285 78 348T178 446T320 480Q413 480 467 428T521 292Q521 272 514 248T493 204H159Q155 175 162 153T187 116T229 93T285 85Q327 85 366 98T440 135L464 48Q420 20 371
5T265 -10ZM164 284H401Q404 293 404 304Q404 346 380 367T308 388Q275 388 246 376T195 341T164 284ZM696 563Q672 563 658 577T644 613Q644 640 662 657T710 675Q736 675 749 661T762 626Q762 598 745 581T696 563ZM501 563Q476 563 463 577T449 613Q449 640
466 657T515 675Q541 675 554 661T567 626Q567 598 549 581T501 563Z" />
<glyph unicode="&#xec;" horiz-adv-x="250" d="M26 0L108 470H222L140 0H26ZM142 542L64 696H175L217 542H142Z" />
<glyph unicode="&#xed;" horiz-adv-x="250" d="M26 0L108 470H222L140 0H26ZM141 542L238 696H355L223 542H141Z" />
<glyph unicode="&#xee;" horiz-adv-x="250" d="M26 0L108 470H222L140 0H26ZM26 542L152 696H259L331 542H250L201 635L120 542H26Z" />
<glyph unicode="&#xef;" horiz-adv-x="250" d="M26 0L108 470H222L140 0H26ZM283 563Q259 563 245 577T231 613Q231 640 249 657T297 675Q323 675 336 661T349 626Q349 598 332 581T283 563ZM88 563Q63 563 50 577T36 613Q36 640 53 657T102 675Q128 675 141 661T154
626Q154 598 136 581T88 563Z" />
<glyph unicode="&#xf0;" horiz-adv-x="590" d="M260 -10Q192 -10 142 15T65 87T37 193Q37 273 69 327T158 409T292 438Q325 438 352 430T400 408L328 539L206 498L219 568L298 595L258 668H368L391 625L518 668L506 598L421 568L493 435Q522 382 535 341T548 257Q548
176 513 116T414 23T260 -10ZM273 89Q319 89 354 107T411 160T432 244Q432 291 400 323T312 355Q268 355 232 337T175 285T154 200Q154 169 168 144T209 104T273 89Z" />
<glyph unicode="&#xf1;" horiz-adv-x="570" d="M26 0L108 470H218L207 414Q235 448 271 464T362 480Q413 480 445 466T494 426T514 366T512 292L460 0H346L392 265Q396 289 396 310T389 347T365 372T317 381Q263 381 229 349T184 251L140 0H26ZM435 551Q441 619
468 653T541 688Q564 688 583 679T617 657T646 635T672 625Q688 625 698 639T716 688H783Q776 618 749 585T676 551Q653 551 634 560T600 582T571 604T546 613Q530 613 520 599T501 551H435Z" />
<glyph unicode="&#xf2;" horiz-adv-x="590" d="M260 -10Q193 -10 144 17T68 91T41 196Q41 283 77 346T179 445T330 480Q398 480 447 453T522 380T549 274Q549 188 513 124T411 25T260 -10ZM273 89Q320 89 356 111T412 172T432 267Q432 318 402 349T317 381Q270
381 234 359T178 298T158 203Q158 152 188 121T273 89ZM567 542L489 696H600L642 542H567Z" />
<glyph unicode="&#xf3;" horiz-adv-x="590" d="M260 -10Q193 -10 144 17T68 91T41 196Q41 283 77 346T179 445T330 480Q398 480 447 453T522 380T549 274Q549 188 513 124T411 25T260 -10ZM273 89Q320 89 356 111T412 172T432 267Q432 318 402 349T317 381Q270
381 234 359T178 298T158 203Q158 152 188 121T273 89ZM311 542L408 696H525L393 542H311Z" />
<glyph unicode="&#xf4;" horiz-adv-x="590" d="M260 -10Q193 -10 144 17T68 91T41 196Q41 283 77 346T179 445T330 480Q398 480 447 453T522 380T549 274Q549 188 513 124T411 25T260 -10ZM273 89Q320 89 356 111T412 172T432 267Q432 318 402 349T317 381Q270
381 234 359T178 298T158 203Q158 152 188 121T273 89ZM452 542L578 696H685L757 542H676L627 635L546 542H452Z" />
<glyph unicode="&#xf5;" horiz-adv-x="590" d="M260 -10Q193 -10 144 17T68 91T41 196Q41 283 77 346T179 445T330 480Q398 480 447 453T522 380T549 274Q549 188 513 124T411 25T260 -10ZM273 89Q320 89 356 111T412 172T432 267Q432 318 402 349T317 381Q270
381 234 359T178 298T158 203Q158 152 188 121T273 89ZM445 551Q451 619 478 653T551 688Q574 688 593 679T627 657T656 635T682 625Q698 625 708 639T726 688H793Q786 618 759 585T686 551Q663 551 644 560T610 582T581 604T556 613Q540 613 530 599T511 551H445Z"
/>
<glyph unicode="&#xf6;" horiz-adv-x="590" d="M260 -10Q193 -10 144 17T68 91T41 196Q41 283 77 346T179 445T330 480Q398 480 447 453T522 380T549 274Q549 188 513 124T411 25T260 -10ZM273 89Q320 89 356 111T412 172T432 267Q432 318 402 349T317 381Q270
381 234 359T178 298T158 203Q158 152 188 121T273 89ZM709 563Q685 563 671 577T657 613Q657 640 675 657T723 675Q749 675 762 661T775 626Q775 598 758 581T709 563ZM514 563Q489 563 476 577T462 613Q462 640 479 657T528 675Q554 675 567 661T580 626Q580
598 562 581T514 563Z" />
<glyph unicode="&#xf7;" horiz-adv-x="582" d="M75 286L92 382H539L522 286H75ZM267 92Q240 92 226 106T212 142Q212 172 231 190T282 209Q308 209 322 194T337 158Q337 128 318 110T267 92ZM332 459Q306 459 292 473T277 510Q277 540 296 558T347 576Q374 576
388 561T402 525Q402 496 383 478T332 459Z" />
<glyph unicode="&#xf8;" horiz-adv-x="590" d="M41 -10L6 32L547 480L582 438L41 -10ZM260 -10Q193 -10 144 17T68 91T41 196Q41 283 77 346T179 445T330 480Q398 480 447 453T522 380T549 274Q549 188 513 124T411 25T260 -10ZM273 89Q320 89 356 111T412 172T432
267Q432 318 402 349T317 381Q270 381 234 359T178 298T158 203Q158 152 188 121T273 89Z" />
<glyph unicode="&#xf9;" horiz-adv-x="570" d="M206 -10Q137 -10 102 16T57 85T56 178L108 470H222L174 195Q172 176 172 157T179 123T204 99T251 89Q305 89 339 121T384 219L428 470H542L460 0H350L361 56Q333 22 297 6T206 -10ZM557 542L479 696H590L632 542H557Z" />
<glyph unicode="&#xfa;" horiz-adv-x="570" d="M206 -10Q137 -10 102 16T57 85T56 178L108 470H222L174 195Q172 176 172 157T179 123T204 99T251 89Q305 89 339 121T384 219L428 470H542L460 0H350L361 56Q333 22 297 6T206 -10ZM301 542L398 696H515L383 542H301Z" />
<glyph unicode="&#xfb;" horiz-adv-x="570" d="M206 -10Q137 -10 102 16T57 85T56 178L108 470H222L174 195Q172 176 172 157T179 123T204 99T251 89Q305 89 339 121T384 219L428 470H542L460 0H350L361 56Q333 22 297 6T206 -10ZM442 542L568 696H675L747 542H666L617
635L536 542H442Z" />
<glyph unicode="&#xfc;" horiz-adv-x="570" d="M206 -10Q137 -10 102 16T57 85T56 178L108 470H222L174 195Q172 176 172 157T179 123T204 99T251 89Q305 89 339 121T384 219L428 470H542L460 0H350L361 56Q333 22 297 6T206 -10ZM699 563Q675 563 661 577T647
613Q647 640 665 657T713 675Q739 675 752 661T765 626Q765 598 748 581T699 563ZM504 563Q479 563 466 577T452 613Q452 640 469 657T518 675Q544 675 557 661T570 626Q570 598 552 581T504 563Z" />
<glyph unicode="&#xfd;" horiz-adv-x="534" d="M45 -188Q16 -188 -15 -179T-65 -156L-21 -73Q-4 -81 16 -86T53 -92Q74 -92 91 -86T127 -64T165 -19L59 470H176L237 109L424 470H554L288 0Q246 -73 208 -114T132 -171T45 -188ZM283 542L380 696H497L365 542H283Z" />
<glyph unicode="&#xfe;" horiz-adv-x="604" d="M-6 -182L143 668H257L213 412Q241 447 280 463T374 480Q431 480 474 454T541 383T565 278Q565 191 532 127T441 26T304 -10Q248 -10 211 11T153 70L108 -182H-6ZM288 89Q336 89 372 110T428 172T448 266Q448 317
418 349T334 381Q286 381 250 360T195 299T175 204Q175 153 204 121T288 89Z" />
<glyph unicode="&#xff;" horiz-adv-x="534" d="M45 -188Q16 -188 -15 -179T-65 -156L-21 -73Q-4 -81 16 -86T53 -92Q74 -92 91 -86T127 -64T165 -19L59 470H176L237 109L424 470H554L288 0Q246 -73 208 -114T132 -171T45 -188ZM681 563Q657 563 643 577T629 613Q629
640 647 657T695 675Q721 675 734 661T747 626Q747 598 730 581T681 563ZM486 563Q461 563 448 577T434 613Q434 640 451 657T500 675Q526 675 539 661T552 626Q552 598 534 581T486 563Z" />
<glyph unicode="&#x2013;" horiz-adv-x="568" d="M43 241L59 331H540L525 241H43Z" />
<glyph unicode="&#x2014;" horiz-adv-x="798" d="M43 241L59 331H770L755 241H43Z" />
<glyph unicode="&#x2018;" horiz-adv-x="268" d="M111 401L125 486Q137 550 162 592T238 668L299 639Q281 615 267 590T243 539T229 486L214 401H111Z" />
<glyph unicode="&#x2019;" horiz-adv-x="268" d="M133 401L72 431Q91 454 105 479T129 531T143 583L158 668H261L246 583Q235 519 210 476T133 401Z" />
<glyph unicode="&#x201a;" horiz-adv-x="268" d="M35 -157L-25 -128Q-7 -104 7 -79T30 -28T44 25L59 110H162L148 25Q137 -40 112 -82T35 -157Z" />
<glyph unicode="&#x201c;" horiz-adv-x="458" d="M301 401L316 486Q328 550 352 592T429 668L489 639Q471 615 457 590T433 538T418 486L404 401H301ZM111 401L125 486Q137 550 162 592T238 668L299 639Q281 615 267 590T243 539T229 486L214 401H111Z" />
<glyph unicode="&#x201d;" horiz-adv-x="458" d="M323 401L263 431Q281 454 295 479T319 531T333 583L348 668H451L436 583Q424 519 399 476T323 401ZM133 401L72 431Q91 454 105 479T129 531T143 583L158 668H261L246 583Q235 519 210 476T133 401Z" />
<glyph unicode="&#x201e;" horiz-adv-x="458" d="M225 -157L165 -128Q183 -104 197 -79T221 -28T235 25L249 110H352L338 25Q326 -39 301 -82T225 -157ZM35 -157L-25 -128Q-7 -104 7 -79T30 -28T44 25L59 110H162L148 25Q137 -40 112 -82T35 -157Z" />
<glyph unicode="&#x2022;" horiz-adv-x="384" d="M201 160Q146 160 115 191T83 269Q83 334 124 373T233 412Q289 412 320 381T352 303Q352 238 311 199T201 160Z" />
<glyph unicode="&#x2039;" horiz-adv-x="291" d="M120 113L51 286L182 461H287L156 286L225 113H120Z" />
<glyph unicode="&#x203a;" horiz-adv-x="291" d="M20 113L151 286L82 461H187L256 286L125 113H20Z" />
</font>
</defs>
</svg>
