<?xml version="1.0" standalone="no"?>
<!DOCTYPE svg PUBLIC "-//W3C//DTD SVG 1.1//EN" "http://www.w3.org/Graphics/SVG/1.1/DTD/svg11.dtd">
<svg xmlns="http://www.w3.org/2000/svg">
<defs >
<font id="Gantari" horiz-adv-x="563" ><font-face
    font-family="Gantari Thin"
    units-per-em="1000"
    panose-1="0 0 0 0 0 0 0 0 0 0"
    ascent="950"
    descent="-250"
    alphabetic="0" />
<glyph unicode=" " horiz-adv-x="256" />
<glyph unicode="!" horiz-adv-x="224" d="M91 176L139 486L171 668H203L171 486L111 176H91ZM70 -4Q59 -4 53 1T47 18Q47 31 55 38T76 46Q87 46 93 41T99 24Q99 11 91 4T70 -4Z" />
<glyph unicode="&quot;" horiz-adv-x="362" d="M272 422L309 668H341L292 422H272ZM134 422L171 668H203L154 422H134Z" />
<glyph unicode="#" horiz-adv-x="626" d="M77 0L144 191H33L43 219H154L236 449H125L135 477H246L312 668H342L276 477H485L552 668H582L515 477H626L616 449H505L423 219H534L524 191H413L347 0H317L383 191H174L107 0H77ZM184 219H393L475 449H266L184 219Z" />
<glyph unicode="$" horiz-adv-x="592" d="M121 -100L163 4Q129 15 98 36T38 88L62 109Q90 81 118 63T175 34L296 332L257 340Q191 353 160 389T128 478Q128 534 157 579T239 651T363 678Q380 678 397 676T434 670L474 768H504L461 663Q493 652 520 635T569 595L545
573Q525 593 502 608T449 634L335 355L390 344Q435 335 463 315T504 265T517 199Q517 137 485 90T396 16T261 -10Q243 -10 225 -8T190 -2L151 -100H121ZM202 26Q216 23 230 22T261 20Q326 20 376 40T454 101T483 199Q483 245 460 274T388 314L324 326L202 26ZM308
360L422 641Q408 644 394 646T363 648Q273 648 218 602T162 478Q162 434 186 407T260 370L308 360Z" />
<glyph unicode="%" horiz-adv-x="974" d="M249 0L724 668H758L283 0H249ZM226 268Q166 268 134 312T101 423Q101 467 112 511T145 592T203 651T286 674Q346 674 378 630T411 519Q411 476 400 432T367 350T309 291T226 268ZM226 296Q278 296 311 329T360 414T377
519Q377 581 353 613T286 646Q235 646 202 613T152 528T135 423Q135 361 159 329T226 296ZM721 -6Q661 -6 629 38T596 149Q596 193 607 237T640 318T698 377T781 400Q841 400 873 356T906 245Q906 202 895 158T862 76T804 17T721 -6ZM721 22Q773 22 806 55T855
140T872 245Q872 307 848 339T781 372Q730 372 697 339T647 254T630 149Q630 87 654 55T721 22Z" />
<glyph unicode="&amp;" horiz-adv-x="672" d="M226 -10Q168 -10 129 11T70 68T50 146Q50 209 89 255T210 329L260 346Q225 388 210 424T194 492Q194 544 218 586T285 653T385 678Q432 678 465 658T516 604T534 532Q534 469 496 428T377 359L311 336L462 165L599
324H633L479 146L608 0H566L458 122Q394 49 342 20T226 -10ZM226 18Q277 18 327 44T441 141L279 325L216 304Q150 281 116 243T82 146Q82 86 121 52T226 18ZM292 357L372 385Q441 409 471 445T502 532Q502 579 471 614T385 650Q340 650 304 629T247 573T226 492Q226
463 241 431T292 357Z" />
<glyph unicode="&apos;" horiz-adv-x="224" d="M134 422L171 668H203L154 422H134Z" />
<glyph unicode="(" horiz-adv-x="334" d="M174 -252Q153 -227 134 -185T98 -91T73 18T64 127Q64 198 80 271T124 416T188 549T266 660T349 738H378Q337 709 297 661T220 550T156 417T112 272T96 127Q96 74 105 18T129 -90T164 -185T203 -252H174Z" />
<glyph unicode=")" horiz-adv-x="334" d="M-43 -252Q-2 -223 38 -175T115 -64T179 69T223 214T239 359Q239 412 230 468T205 576T171 670T132 738H161Q182 712 201 670T237 576T262 469T271 359Q271 288 255 215T211 70T147 -63T69 -174T-14 -252H-43Z" />
<glyph unicode="*" horiz-adv-x="492" d="M165 322L141 340L276 478L116 524L130 555L283 494L305 668H337L299 494L472 555L476 524L300 478L385 340L355 322L287 467L165 322Z" />
<glyph unicode="+" horiz-adv-x="582" d="M257 139L289 320H110L115 348H294L326 529H358L326 348H505L500 320H321L289 139H257Z" />
<glyph unicode="," horiz-adv-x="224" d="M19 -144L0 -135Q14 -117 23 -102T39 -67T50 -22L62 46H94L82 -22Q74 -65 61 -94T19 -144Z" />
<glyph unicode="-" horiz-adv-x="368" d="M71 272L76 300H312L307 272H71Z" />
<glyph unicode="." horiz-adv-x="224" d="M70 -4Q59 -4 53 1T47 18Q47 31 55 38T76 46Q87 46 93 41T99 24Q99 11 91 4T70 -4Z" />
<glyph unicode="/" horiz-adv-x="298" d="M-18 0L316 668H349L15 0H-18Z" />
<glyph unicode="0" horiz-adv-x="642" d="M286 -10Q218 -10 171 24T99 117T74 252Q74 326 92 401T149 538T246 639T388 678Q456 678 503 644T575 551T600 416Q600 343 582 268T525 130T428 29T286 -10ZM286 18Q344 18 390 40T469 102T523 192T555 300T566 416Q566
533 516 591T388 650Q330 650 284 628T205 566T151 476T119 368T108 252Q108 135 158 77T286 18Z" />
<glyph unicode="1" horiz-adv-x="382" d="M212 0L324 637L115 531L101 554L329 668H361L244 0H212Z" />
<glyph unicode="2" horiz-adv-x="554" d="M24 0L28 28L396 332Q430 360 449 387T477 443T486 502Q486 544 467 577T412 630T330 650Q282 650 237 632T142 562L125 586Q171 638 225 658T330 678Q384 678 427 655T495 592T520 502Q520 477 513 446T484 380T422 312L77
28H450L446 0H24Z" />
<glyph unicode="3" horiz-adv-x="574" d="M243 -10Q166 -10 120 15T39 85L61 106Q96 61 138 40T243 18Q306 18 356 39T435 99T465 192Q465 259 418 294T289 330H229L234 358H303Q359 358 406 376T483 429T512 519Q512 585 466 617T345 650Q287 650 243 630T152
562L135 586Q181 637 234 657T345 678Q406 678 451 658T521 603T546 519Q546 454 498 405T371 342Q431 326 465 288T499 192Q499 131 466 86T376 15T243 -10Z" />
<glyph unicode="4" horiz-adv-x="622" d="M394 0L426 184H56L63 222L501 668H543L463 212H551L546 184H458L426 0H394ZM92 212H431L505 634L92 212Z" />
<glyph unicode="5" horiz-adv-x="582" d="M251 -10Q200 -10 163 -1T97 29T40 86L63 106Q103 57 145 38T251 18Q319 18 370 43T451 118T480 240Q480 322 432 361T299 400Q237 400 189 376T120 297L91 304L223 678H543L538 650H245L144 363Q182 404 225 416T309
428Q402 428 458 378T514 240Q514 166 482 110T390 22T251 -10Z" />
<glyph unicode="6" horiz-adv-x="612" d="M281 -10Q213 -10 165 16T92 94T66 219Q66 303 85 385T144 533T247 638T399 678Q441 678 477 667T541 634T587 582L564 562Q536 604 496 627T399 650Q328 650 270 616T170 507T106 307Q141 365 198 396T339 428Q432 428
488 378T544 240Q544 166 512 110T420 22T281 -10ZM281 18Q349 18 400 43T481 118T510 240Q510 322 462 361T329 400Q232 400 174 353T100 219Q100 127 141 73T281 18Z" />
<glyph unicode="7" horiz-adv-x="514" d="M108 0L504 640H116L121 668H543L538 640L142 0H108Z" />
<glyph unicode="8" horiz-adv-x="612" d="M271 -10Q164 -10 108 37T51 157Q51 232 101 283T250 344Q190 358 155 398T119 488Q119 544 149 586T237 653T373 678Q474 678 529 635T584 521Q584 455 537 405T398 344Q462 330 499 289T537 192Q537 134 506 88T415
16T271 -10ZM271 18Q379 18 441 64T503 192Q503 250 455 290T317 330Q209 330 147 284T85 157Q85 94 132 56T271 18ZM331 358Q430 358 490 398T550 521Q550 584 504 617T373 650Q275 650 215 610T154 488Q154 424 200 391T331 358Z" />
<glyph unicode="9" horiz-adv-x="612" d="M241 -10Q199 -10 163 1T100 34T53 86L76 106Q104 64 144 41T241 18Q314 18 371 52T470 161T534 361Q499 303 442 272T301 240Q208 240 152 290T96 428Q96 503 128 559T220 646T359 678Q427 678 475 652T548 574T574 449Q574
365 555 283T496 135T393 30T241 -10ZM311 268Q408 268 466 315T540 449Q540 541 499 595T359 650Q292 650 240 625T159 550T130 428Q130 346 178 307T311 268Z" />
<glyph unicode=":" horiz-adv-x="224" d="M148 440Q137 440 131 445T125 462Q125 475 133 482T154 490Q165 490 171 485T177 468Q177 455 169 448T148 440ZM70 -4Q59 -4 53 1T47 18Q47 31 55 38T76 46Q87 46 93 41T99 24Q99 11 91 4T70 -4Z" />
<glyph unicode=";" horiz-adv-x="224" d="M19 -144L0 -135Q14 -117 23 -102T39 -67T50 -22L62 46H94L82 -22Q74 -65 61 -94T19 -144ZM148 440Q137 440 131 445T125 462Q125 475 133 482T154 490Q165 490 171 485T177 468Q177 455 169 448T148 440Z" />
<glyph unicode="&lt;" horiz-adv-x="582" d="M470 152L110 320L115 348L534 516L528 482L144 332L475 182L470 152Z" />
<glyph unicode="=" horiz-adv-x="582" d="M129 428L134 456H524L519 428H129ZM91 212L96 240H486L481 212H91Z" />
<glyph unicode="&gt;" horiz-adv-x="582" d="M81 152L87 186L471 336L140 486L145 516L505 348L500 320L81 152Z" />
<glyph unicode="?" horiz-adv-x="472" d="M207 176L212 204Q220 249 245 283T302 346T364 399T414 453T434 516Q434 554 416 584T365 632T289 650Q244 650 202 630T114 562L101 587Q145 637 191 657T289 678Q339 678 379 657T444 599T468 516Q468 474 447 443T394
387T329 335T271 278T238 204L233 176H207ZM189 -4Q178 -4 172 1T166 18Q166 31 174 38T195 46Q206 46 212 41T218 24Q218 11 210 4T189 -4Z" />
<glyph unicode="@" horiz-adv-x="920" d="M416 -110Q343 -110 280 -86T170 -16T97 91T71 228Q71 363 127 464T285 621T526 678Q601 678 665 656T776 594T850 499T877 378Q877 328 865 278T829 186T768 119T681 94Q643 94 618 118T590 194Q566 144 527 119T432
94Q363 94 325 136T286 249Q286 313 308 363T374 444T484 474Q532 474 565 450T612 377L627 466H657L615 231Q612 206 616 181T637 139T686 122Q726 122 755 144T805 204T835 287T845 378Q845 457 806 518T696 614T526 650Q400 650 305 599T156 454T103 228Q103
136 143 66T255 -43T416 -82Q470 -82 517 -69T610 -28L617 -53Q575 -81 522 -95T416 -110ZM432 122Q512 122 555 176T598 317Q598 380 568 413T484 446Q404 446 361 392T318 251Q318 188 348 155T432 122Z" />
<glyph unicode="A" horiz-adv-x="692" d="M0 0L405 668H437L608 0H576L533 171H139L36 0H0ZM157 201H525L417 631L157 201Z" />
<glyph unicode="B" horiz-adv-x="694" d="M54 0L171 668H449Q543 668 600 638T657 529Q657 463 636 425T578 368T498 341Q551 325 585 294T620 203Q620 126 587 82T494 19T351 0H54ZM91 30H342Q473 30 529 69T586 203Q586 266 538 298T380 330H144L91 30ZM149
358H404Q519 358 570 395T622 529Q622 589 579 613T439 638H198L149 358Z" />
<glyph unicode="C" horiz-adv-x="672" d="M355 -10Q275 -10 212 24T113 122T77 272Q77 397 126 488T261 628T457 678Q520 678 575 657T673 599L651 576Q616 607 569 627T457 648Q357 648 279 603T156 474T111 272Q111 194 142 138T228 51T355 20Q419 20 470 38T566
92L582 65Q535 28 479 9T355 -10Z" />
<glyph unicode="D" horiz-adv-x="710" d="M54 0L171 668H375Q516 668 590 601T665 396Q665 203 564 102T277 0H54ZM91 30H268Q447 30 539 121T631 396Q631 527 564 582T365 638H198L91 30Z" />
<glyph unicode="E" horiz-adv-x="586" d="M54 0L171 668H599L594 638H198L149 359H515L510 329H144L91 30H487L482 0H54Z" />
<glyph unicode="F" horiz-adv-x="576" d="M54 0L171 668H599L594 638H198L149 359H515L510 329H144L86 0H54Z" />
<glyph unicode="G" horiz-adv-x="730" d="M355 -10Q275 -10 212 24T113 122T77 272Q77 397 126 488T261 628T457 678Q509 678 553 668T632 640T693 595L670 572Q636 605 583 626T457 648Q357 648 279 603T156 474T111 272Q111 194 142 138T228 51T355 20Q434 20
496 46T601 119L634 310H392L397 340H671L629 102Q575 45 506 18T355 -10Z" />
<glyph unicode="H" horiz-adv-x="720" d="M54 0L171 668H203L149 359H613L667 668H699L582 0H550L608 329H144L86 0H54Z" />
<glyph unicode="I" horiz-adv-x="224" d="M54 0L171 668H203L86 0H54Z" />
<glyph unicode="J" horiz-adv-x="526" d="M193 -10Q139 -10 99 9T27 69L50 92Q81 54 117 37T193 20Q271 20 322 61T390 197L473 668H505L422 197Q402 87 342 39T193 -10Z" />
<glyph unicode="K" horiz-adv-x="608" d="M54 0L171 668H203L133 272L588 668H631L292 373L524 0H487L268 352L126 228L86 0H54Z" />
<glyph unicode="L" horiz-adv-x="526" d="M54 0L171 668H203L91 30H437L432 0H54Z" />
<glyph unicode="M" horiz-adv-x="896" d="M54 0L171 668H219L411 39L825 668H875L758 0H726L837 632L422 0H390L197 632L86 0H54Z" />
<glyph unicode="N" horiz-adv-x="720" d="M54 0L171 668H211L556 36L667 668H699L582 0H542L197 632L86 0H54Z" />
<glyph unicode="O" horiz-adv-x="780" d="M355 -10Q275 -10 212 24T113 122T77 272Q77 397 126 488T261 628T457 678Q537 678 600 644T699 546T735 396Q735 271 686 180T551 40T355 -10ZM355 20Q455 20 533 65T656 194T701 396Q701 474 670 530T585 617T457 648Q357
648 279 603T156 474T111 272Q111 194 142 138T228 51T355 20Z" />
<glyph unicode="P" horiz-adv-x="632" d="M54 0L171 668H397Q498 668 554 629T611 505Q611 421 578 371T485 297T347 274H134L86 0H54ZM139 304H337Q408 304 462 322T546 383T577 505Q577 575 530 606T387 638H198L139 304Z" />
<glyph unicode="Q" horiz-adv-x="780" d="M515 -192Q454 -192 415 -171T360 -108T355 -10Q275 -10 212 24T113 122T77 272Q77 397 126 488T261 628T457 678Q537 678 600 644T699 546T735 396Q735 276 690 188T566 49T385 -9Q379 -39 381 -67T398 -116T441 -151T520
-164Q558 -164 594 -151T675 -108L688 -133Q643 -165 602 -178T515 -192ZM355 20Q455 20 533 65T656 194T701 396Q701 474 670 530T585 617T457 648Q357 648 279 603T156 474T111 272Q111 194 142 138T228 51T355 20Z" />
<glyph unicode="R" horiz-adv-x="632" d="M54 0L171 668H397Q497 668 555 634T613 516Q613 438 585 391T505 323T386 297L558 0H521L349 296H138L86 0H54ZM143 326H341Q412 326 465 341T549 397T579 516Q579 586 531 612T387 638H198L143 326Z" />
<glyph unicode="S" horiz-adv-x="592" d="M261 -10Q193 -10 139 14T38 88L62 109Q109 63 156 42T261 20Q326 20 376 40T454 101T483 199Q483 245 460 274T388 314L257 340Q191 353 160 389T128 478Q128 534 157 579T239 651T363 678Q424 678 478 658T569 595L545
573Q513 607 467 627T363 648Q273 648 218 602T162 478Q162 434 186 407T260 370L390 344Q435 335 463 315T504 265T517 199Q517 137 485 90T396 16T261 -10Z" />
<glyph unicode="T" horiz-adv-x="582" d="M233 0L345 638H122L127 668H605L600 638H377L265 0H233Z" />
<glyph unicode="U" horiz-adv-x="720" d="M325 -10Q238 -10 184 26T109 127T103 278L171 668H203L135 278Q127 230 130 185T154 102T216 42T325 20Q395 20 450 42T542 116T595 258L667 668H699L627 258Q610 162 570 103T469 17T325 -10Z" />
<glyph unicode="V" horiz-adv-x="692" d="M288 0L117 668H149L308 37L689 668H725L320 0H288Z" />
<glyph unicode="W" horiz-adv-x="996" d="M221 0L117 668H150L242 37L556 668H588L680 37L994 668H1029L691 0H659L567 631L253 0H221Z" />
<glyph unicode="X" horiz-adv-x="672" d="M0 0L334 344L127 668H164L355 367L652 668H695L375 344L588 0H551L353 320L43 0H0Z" />
<glyph unicode="Y" horiz-adv-x="672" d="M278 0L325 267L117 668H153L343 294L665 668H705L357 267L310 0H278Z" />
<glyph unicode="Z" horiz-adv-x="548" d="M8 0L13 30L520 638H130L135 668H563L558 638L51 30H461L456 0H8Z" />
<glyph unicode="[" horiz-adv-x="374" d="M9 -252L184 738H390L384 708H210L46 -222H220L215 -252H9Z" />
<glyph unicode="\" horiz-adv-x="298" d="M201 0L99 668H130L232 0H201Z" />
<glyph unicode="]" horiz-adv-x="374" d="M-15 -252L-10 -222H164L328 708H154L160 738H366L191 -252H-15Z" />
<glyph unicode="^" horiz-adv-x="582" d="M148 348L352 668H380L472 348H442L363 634L182 348H148Z" />
<glyph unicode="_" horiz-adv-x="440" d="M-55 -74L-50 -46H389L384 -74H-55Z" />
<glyph unicode="`" horiz-adv-x="600" d="M383 554L315 696H349L405 554H383Z" />
<glyph unicode="a" horiz-adv-x="560" d="M211 -10Q138 -10 92 24T46 120Q46 162 66 190T132 237T250 264L442 288Q448 314 447 342T431 396T384 436T297 452Q260 452 222 436T144 387L129 412Q166 444 209 462T297 480Q361 480 398 461T453 413T474 350T472 286L422
0H392L407 86Q381 42 331 16T211 -10ZM211 18Q274 18 318 41T390 103T425 192L437 260L245 236Q151 224 114 197T76 120Q76 70 113 44T211 18Z" />
<glyph unicode="b" horiz-adv-x="610" d="M284 -10Q216 -10 169 24T106 125L84 0H54L171 668H201L150 373Q180 427 235 453T354 480Q418 480 461 453T526 382T548 282Q548 193 515 127T422 26T284 -10ZM284 18Q355 18 407 50T487 142T516 282Q516 356 475 404T354
452Q284 452 232 420T151 328T122 188Q122 115 163 67T284 18Z" />
<glyph unicode="c" horiz-adv-x="516" d="M260 -10Q197 -10 153 17T85 89T62 188Q62 278 96 343T191 444T330 480Q385 480 423 464T487 418L466 396Q440 425 406 438T330 452Q260 452 207 420T124 328T94 188Q94 115 137 67T260 18Q302 18 338 31T410 74L423 52Q388
22 347 6T260 -10Z" />
<glyph unicode="d" horiz-adv-x="610" d="M256 -10Q193 -10 150 17T84 89T62 188Q62 278 95 343T188 444T326 480Q393 480 440 447T503 347L559 668H589L472 0H442L458 94Q428 42 374 16T256 -10ZM256 18Q327 18 379 50T459 142T488 282Q488 356 447 404T326 452Q256
452 204 420T123 328T94 188Q94 115 135 67T256 18Z" />
<glyph unicode="e" horiz-adv-x="560" d="M260 -10Q197 -10 153 17T85 89T62 188Q62 279 97 344T191 445T320 480Q402 480 450 430T498 294Q498 282 494 263T481 230H96Q91 193 97 156T122 87T175 37T260 18Q308 18 350 33T428 82L443 57Q408 24 364 7T260 -10ZM100
258H461Q466 276 466 294Q466 371 428 411T320 452Q268 452 223 429T145 363T100 258Z" />
<glyph unicode="f" horiz-adv-x="336" d="M101 0L179 442H65L70 470H184L198 552Q209 615 241 644T331 674Q343 674 358 673T381 668L377 642Q369 644 356 645T331 646Q286 646 261 624T228 552L214 470H346L341 442H209L131 0H101Z" />
<glyph unicode="g" horiz-adv-x="610" d="M218 -192Q164 -192 118 -171T33 -109L54 -90Q93 -129 132 -146T218 -164Q272 -164 319 -144T401 -80T447 34L463 124Q433 72 379 46T261 20Q205 20 161 42T91 106T66 203Q66 277 95 340T183 441T326 480Q393 480 440
447T503 347L524 470H554L478 40Q457 -80 389 -136T218 -192ZM261 48Q321 48 364 69T434 126T475 206T488 297Q488 340 468 375T412 431T326 452Q266 452 223 431T152 374T111 294T98 203Q98 160 118 125T174 69T261 48Z" />
<glyph unicode="h" horiz-adv-x="570" d="M54 0L171 668H201L151 385Q186 437 229 458T332 480Q388 480 421 465T469 422T486 360T482 286L432 0H402L452 286Q457 317 457 346T446 400T408 438T332 452Q251 452 198 402T128 255L84 0H54Z" />
<glyph unicode="i" horiz-adv-x="222" d="M54 0L136 470H166L84 0H54ZM175 602Q164 602 158 607T152 622Q152 634 160 641T181 648Q192 648 198 643T204 628Q204 616 196 609T175 602Z" />
<glyph unicode="j" horiz-adv-x="222" d="M-61 -188Q-73 -188 -88 -187T-111 -182L-107 -156Q-99 -158 -86 -159T-61 -160Q-16 -160 9 -138T42 -66L136 470H166L72 -66Q61 -131 29 -159T-61 -188ZM175 602Q164 602 158 607T152 622Q152 634 160 641T181 648Q192
648 198 643T204 628Q204 616 196 609T175 602Z" />
<glyph unicode="k" horiz-adv-x="518" d="M54 0L171 668H201L119 201L465 470H506L257 277L434 0H399L234 259L113 165L84 0H54Z" />
<glyph unicode="l" horiz-adv-x="222" d="M54 0L171 668H201L84 0H54Z" />
<glyph unicode="m" horiz-adv-x="848" d="M54 0L136 470H166L153 395Q179 437 220 458T315 480Q375 480 408 452T453 378Q482 435 529 457T628 480Q676 480 705 464T749 421T765 359T760 286L710 0H680L730 286Q738 329 734 367T705 428T628 452Q549 452 504 402T441
255L397 0H367L417 286Q425 329 421 367T392 428T315 452Q236 452 191 402T128 255L84 0H54Z" />
<glyph unicode="n" horiz-adv-x="570" d="M54 0L136 470H166L151 385Q186 437 229 458T332 480Q388 480 421 465T469 422T486 360T482 286L432 0H402L452 286Q457 317 457 346T446 400T408 438T332 452Q251 452 198 402T128 255L84 0H54Z" />
<glyph unicode="o" horiz-adv-x="590" d="M260 -10Q197 -10 153 17T85 89T62 188Q62 278 96 343T191 444T330 480Q394 480 438 453T505 382T528 282Q528 193 494 127T399 26T260 -10ZM260 18Q331 18 384 50T466 142T496 282Q496 356 453 404T330 452Q260 452 207
420T124 328T94 188Q94 115 137 67T260 18Z" />
<glyph unicode="p" horiz-adv-x="610" d="M22 -182L137 470H167L150 373Q180 427 235 453T354 480Q418 480 461 453T526 382T548 282Q548 193 515 127T422 26T284 -10Q216 -10 169 24T106 125L52 -182H22ZM284 18Q355 18 407 50T487 142T516 282Q516 356 475 404T354
452Q284 452 232 420T151 328T122 188Q122 115 163 67T284 18Z" />
<glyph unicode="q" horiz-adv-x="610" d="M409 -182L458 94Q428 42 374 16T256 -10Q193 -10 150 17T84 89T62 188Q62 278 95 343T188 444T326 480Q393 480 440 447T503 347L524 470H554L439 -182H409ZM256 18Q327 18 379 50T459 142T488 282Q488 356 447 404T326
452Q256 452 204 420T123 328T94 188Q94 115 135 67T256 18Z" />
<glyph unicode="r" horiz-adv-x="356" d="M54 0L136 470H166L149 375Q176 432 216 454T307 476Q326 476 338 475T358 470L354 444Q342 446 331 447T307 448Q240 448 192 398T126 245L84 0H54Z" />
<glyph unicode="s" horiz-adv-x="490" d="M210 -10Q150 -10 110 8T35 59L57 82Q91 50 124 34T210 18Q288 18 331 50T375 139Q375 168 359 187T300 214L198 234Q150 243 125 270T99 337Q99 399 145 439T278 480Q337 480 375 463T439 418L418 396Q394 422 362 437T278
452Q212 452 172 423T131 337Q131 308 147 290T202 264L304 244Q352 235 379 210T407 139Q407 70 355 30T210 -10Z" />
<glyph unicode="t" horiz-adv-x="352" d="M221 -6Q183 -6 161 4T130 33T119 72T121 116L178 442H65L70 470H183L207 604H237L213 470H346L341 442H208L151 116Q147 91 149 70T168 35T221 22Q233 22 246 23T268 26L264 0Q256 -3 243 -4T221 -6Z" />
<glyph unicode="u" horiz-adv-x="570" d="M236 -10Q161 -10 126 17T84 88T86 184L136 470H166L116 184Q111 153 111 124T122 70T160 32T236 18Q317 18 370 68T440 215L484 470H514L432 0H402L417 85Q382 33 339 12T236 -10Z" />
<glyph unicode="v" horiz-adv-x="522" d="M204 0L82 470H114L224 37L486 470H520L234 0H204Z" />
<glyph unicode="w" horiz-adv-x="792" d="M171 0L82 470H114L191 37L420 470H450L527 37L756 470H790L537 0H508L430 433L200 0H171Z" />
<glyph unicode="x" horiz-adv-x="522" d="M0 0L241 243L92 470H127L262 263L469 470H510L281 243L438 0H403L260 222L41 0H0Z" />
<glyph unicode="y" horiz-adv-x="522" d="M18 -188Q-7 -188 -28 -180T-67 -159L-52 -135Q-38 -144 -19 -152T23 -160Q48 -160 73 -148T130 -101T203 -1L82 470H114L223 32L486 470H520L234 0Q190 -72 153 -113T84 -171T18 -188Z" />
<glyph unicode="z" horiz-adv-x="440" d="M8 0L13 28L377 442H95L100 470H420L415 442L50 28H352L348 0H8Z" />
<glyph unicode="{" horiz-adv-x="374" d="M157 -252Q127 -252 106 -240T74 -206T67 -154L122 159Q125 180 123 196T107 220T64 229L69 257Q107 257 125 273T151 327L207 640Q215 684 242 711T313 738H391L385 708H317Q287 708 266 690T239 640L183 323Q178 293
162 272T99 243Q137 236 148 216T154 163L99 -154Q97 -173 100 -188T117 -213T153 -222H221L215 -252H157Z" />
<glyph unicode="|" horiz-adv-x="224" d="M9 -252L184 738H216L41 -252H9Z" />
<glyph unicode="}" horiz-adv-x="374" d="M-17 -252L-11 -222H57Q87 -222 108 -204T135 -154L191 163Q196 193 212 214T275 243Q238 251 227 271T220 323L275 640Q278 659 274 674T258 699T221 708H153L159 738H217Q247 738 268 726T300 692T307 640L252 327Q249
306 251 290T267 266T310 257L305 229Q267 229 249 213T223 159L167 -154Q159 -198 132 -225T61 -252H-17Z" />
<glyph unicode="~" horiz-adv-x="582" d="M101 268Q112 334 138 367T217 400Q247 400 270 385T313 348T353 312T398 296Q433 296 454 321T488 400H514Q503 334 477 301T398 268Q368 268 345 283T302 320T262 356T217 372Q182 372 161 347T127 268H101Z" />
<glyph unicode="&#xa0;" horiz-adv-x="256" />
<glyph unicode="&#xa1;" horiz-adv-x="224" d="M23 -182L55 0L115 310H135L87 0L55 -182H23ZM150 440Q139 440 133 445T127 462Q127 475 135 482T156 490Q167 490 173 485T179 468Q179 455 171 448T150 440Z" />
<glyph unicode="&#xa2;" horiz-adv-x="516" d="M141 -100L182 2Q123 23 93 73T62 188Q62 279 94 344T187 445T330 480Q342 480 353 480T375 477L413 570H443L403 471Q429 464 450 451T487 418L466 396Q450 413 432 425T391 443L220 21Q229 20 239 19T260 18Q302
18 338 31T410 74L423 52Q388 22 347 6T260 -10Q246 -10 234 -9T209 -5L171 -100H141ZM193 29L364 449Q356 451 347 451T330 452Q258 452 205 421T123 330T94 188Q94 131 118 89T193 29Z" />
<glyph unicode="&#xa3;" horiz-adv-x="554" d="M24 0L28 28Q64 46 87 77T120 144T131 212Q131 228 129 244T124 279H53L58 307H120Q116 331 113 356T110 408Q110 489 142 550T231 644T358 678Q409 678 460 656T548 584L528 562Q488 611 447 630T358 650Q295 650
247 619T170 534T142 408Q142 382 145 357T152 307H368L363 279H157Q159 262 161 245T163 212Q163 197 159 172T143 118T113 65T62 28H450L446 0H24Z" />
<glyph unicode="&#xa4;" horiz-adv-x="742" d="M5 -10L-13 12L190 185Q170 228 170 279Q170 342 189 395T242 486L101 658L124 678L264 508Q296 537 336 552T423 568Q473 568 509 552T568 506L770 678L788 656L584 482Q604 440 604 389Q604 326 585 273T532 182L674
10L651 -10L510 159Q478 131 438 116T351 100Q301 100 265 116T206 161L5 -10ZM351 128Q416 128 466 161T545 254T574 389Q574 459 536 499T423 540Q359 540 309 507T229 414T200 279Q200 209 238 169T351 128Z" />
<glyph unicode="&#xa5;" horiz-adv-x="642" d="M263 0L281 101H101L106 129H286L308 257H129L134 285H302L141 668H177L328 294L611 668H651L356 285H524L519 257H340L318 129H496L491 101H313L295 0H263Z" />
<glyph unicode="&#xa6;" horiz-adv-x="224" d="M103 282L184 738H216L135 282H103ZM9 -252L89 204H121L41 -252H9Z" />
<glyph unicode="&#xa7;" horiz-adv-x="595" d="M232 -192Q172 -192 132 -174T57 -123L79 -100Q113 -132 146 -148T232 -164Q310 -164 353 -128T397 -35Q397 -6 379 17T324 63L174 153Q126 182 105 210T83 273Q83 317 106 347T168 395T254 417Q224 438 205 467T186
527Q186 569 207 603T269 657T367 678Q426 678 464 661T528 616L507 594Q483 620 451 635T367 650Q301 650 260 617T218 527Q218 501 237 477T289 432L438 342Q486 313 510 286T534 219Q534 170 513 139T455 92T372 69Q398 51 413 24T429 -35Q429 -104 377 -148T232
-192ZM344 87Q412 89 457 122T502 219Q502 245 487 265T428 312L281 400Q240 400 202 386T139 344T115 273Q115 249 130 228T185 183L344 87Z" />
<glyph unicode="&#xa8;" horiz-adv-x="600" d="M454 603Q443 603 438 608T432 623Q432 635 438 641T458 647Q469 647 474 642T480 627Q480 615 474 609T454 603ZM276 603Q265 603 260 608T254 623Q254 635 260 641T280 647Q291 647 296 642T302 627Q302 615 296
609T276 603Z" />
<glyph unicode="&#xa9;" horiz-adv-x="820" d="M426 -10Q324 -10 247 34T126 156T82 334Q82 434 125 511T246 633T426 678Q528 678 605 634T726 512T770 334Q770 234 727 157T606 35T426 -10ZM431 168Q359 168 320 214T281 334Q281 408 320 454T431 500Q465 500
491 490T537 459L520 437Q501 455 478 463T430 472Q374 472 344 435T313 334Q313 271 343 234T430 196Q455 196 478 204T520 230L537 209Q518 189 492 179T431 168ZM426 18Q520 18 590 58T699 169T738 334Q738 428 699 499T590 610T426 650Q333 650 263 610T153
499T114 334Q114 241 153 170T262 58T426 18Z" />
<glyph unicode="&#xaa;" horiz-adv-x="522" d="M235 232Q169 232 128 262T86 349Q86 387 104 413T163 456T270 480L440 501Q456 569 423 607T312 646Q278 646 244 632T175 588L161 613Q194 642 233 658T312 674Q366 674 399 659T450 619T471 562T469 499L424 241H394L407
313Q382 276 339 254T235 232ZM235 260Q294 260 333 280T395 337T426 417L436 474L266 453Q181 443 149 419T116 349Q116 306 149 283T235 260Z" />
<glyph unicode="&#xab;" horiz-adv-x="442" d="M321 113L252 286L383 461H415L284 286L353 113H321ZM143 113L74 286L205 461H237L106 286L175 113H143Z" />
<glyph unicode="&#xac;" horiz-adv-x="582" d="M452 230L484 410H126L131 438H521L484 230H452Z" />
<glyph unicode="&#xad;" horiz-adv-x="368" d="M71 272L76 300H312L307 272H71Z" />
<glyph unicode="&#xae;" horiz-adv-x="620" d="M344 190Q272 190 217 221T131 308T100 434Q100 505 131 560T217 646T344 678Q417 678 471 647T557 560T588 434Q588 363 557 308T472 222T344 190ZM344 218Q408 218 455 245T529 321T556 434Q556 498 530 546T456
622T344 650Q280 650 233 623T159 547T132 434Q132 370 158 321T232 245T344 218ZM263 314V556H348Q390 556 411 540T433 489Q433 457 415 441T364 422L446 314H408L327 421H293V314H263ZM293 449H348Q375 449 388 457T401 489Q401 510 388 519T348 528H293V449Z"
/>
<glyph unicode="&#xaf;" horiz-adv-x="600" d="M250 611L255 639H483L478 611H250Z" />
<glyph unicode="&#xb0;" horiz-adv-x="380" d="M231 440Q180 440 150 467T120 542Q120 584 138 614T189 661T261 678Q312 678 342 651T372 576Q372 514 332 477T231 440ZM231 468Q278 468 309 495T341 573Q341 608 320 629T261 650Q214 650 183 623T151 545Q151
509 172 489T231 468Z" />
<glyph unicode="&#xb1;" horiz-adv-x="582" d="M257 139L289 320H110L115 348H294L326 529H358L326 348H505L500 320H321L289 139H257ZM54 0L58 28H448L444 0H54Z" />
<glyph unicode="&#xb2;" horiz-adv-x="382" d="M96 408L100 436L303 604Q332 629 343 653T355 704Q355 741 332 760T276 780Q246 780 222 770T169 730L156 753Q183 784 214 796T276 808Q325 808 357 778T389 704Q389 681 377 650T329 589L144 436H350L346 408H96Z" />
<glyph unicode="&#xb3;" horiz-adv-x="394" d="M225 402Q180 402 152 417T104 459L125 480Q146 454 169 442T225 430Q281 430 312 455T344 521Q344 556 322 577T251 598H216L221 624H261Q312 624 341 648T370 714Q370 746 350 763T285 780Q256 780 231 769T176
731L162 754Q193 783 222 795T285 808Q339 808 371 782T404 714Q404 675 376 647T301 610Q336 600 356 578T376 521Q376 467 334 435T225 402Z" />
<glyph unicode="&#xb4;" horiz-adv-x="600" d="M301 554L407 696H445L327 554H301Z" />
<glyph unicode="&#xb5;" horiz-adv-x="570" d="M21 -182L136 470H166L116 184Q111 153 111 124T122 70T160 32T236 18Q317 18 370 68T440 215L484 470H514L432 0H402L417 85Q382 33 339 12T236 -10Q122 -10 95 70L51 -182H21Z" />
<glyph unicode="&#xb6;" horiz-adv-x="544" d="M163 -182L255 340Q188 342 149 381T109 484Q109 540 133 581T201 645T299 668H523L373 -182H343L488 640H338L193 -182H163Z" />
<glyph unicode="&#xb7;" horiz-adv-x="224" d="M117 261Q106 261 100 266T94 283Q94 296 102 303T123 311Q134 311 140 306T146 289Q146 276 138 269T117 261Z" />
<glyph unicode="&#xb8;" horiz-adv-x="600" d="M218 -174Q205 -174 187 -172T161 -167L165 -145Q174 -147 189 -147T218 -148Q244 -148 260 -136T276 -100Q276 -68 233 -68H209L212 -51L250 11H278L240 -50Q273 -50 289 -64T306 -101Q306 -134 283 -154T218 -174Z" />
<glyph unicode="&#xb9;" horiz-adv-x="298" d="M200 408L264 771L146 713L133 735L269 802H301L232 408H200Z" />
<glyph unicode="&#xba;" horiz-adv-x="546" d="M278 232Q221 232 181 256T120 320T99 411Q99 493 128 552T212 642T341 674Q398 674 438 650T498 586T519 495Q519 413 490 354T407 264T278 232ZM278 260Q372 260 429 322T487 495Q487 562 449 604T341 646Q247
646 189 584T131 411Q131 344 168 302T278 260Z" />
<glyph unicode="&#xbb;" horiz-adv-x="442" d="M221 113L352 286L283 461H315L384 286L253 113H221ZM43 113L174 286L105 461H137L206 286L75 113H43Z" />
<glyph unicode="&#xbc;" horiz-adv-x="834" d="M159 0L634 668H668L193 0H159ZM176 274L240 637L123 579L109 601L245 668H277L208 274H176ZM642 0L659 102H453L459 131L719 394H743L696 130H748L743 102H691L674 0H642ZM495 130H664L701 339L495 130Z" />
<glyph unicode="&#xbd;" horiz-adv-x="866" d="M159 0L634 668H668L193 0H159ZM176 274L240 637L123 579L109 601L245 668H277L208 274H176ZM508 0L512 28L715 196Q744 221 755 245T767 296Q767 333 744 352T688 372Q658 372 634 362T581 322L568 345Q595 376
626 388T688 400Q737 400 769 370T801 296Q801 273 789 242T741 181L556 28H762L758 0H508Z" />
<glyph unicode="&#xbe;" horiz-adv-x="914" d="M239 0L714 668H748L273 0H239ZM201 268Q156 268 128 283T80 325L101 346Q122 320 145 308T201 296Q257 296 288 321T320 387Q320 422 298 443T227 464H192L197 490H237Q288 490 317 514T346 580Q346 612 326 629T261
646Q232 646 207 635T152 597L138 620Q169 649 198 661T261 674Q315 674 347 648T380 580Q380 541 352 513T277 476Q312 466 332 444T352 387Q352 333 310 301T201 268ZM722 0L739 102H533L539 131L799 394H823L776 130H828L823 102H771L754 0H722ZM575 130H744L781
339L575 130Z" />
<glyph unicode="&#xbf;" horiz-adv-x="472" d="M184 -192Q134 -192 94 -171T29 -113T5 -30Q5 11 26 42T79 98T144 150T202 207T235 282L240 310H266L261 282Q253 237 228 203T171 140T109 87T59 33T39 -30Q39 -88 79 -126T184 -164Q229 -164 271 -144T359 -76L372
-101Q328 -151 282 -171T184 -192ZM278 440Q267 440 261 445T255 462Q255 475 263 482T284 490Q295 490 301 485T307 468Q307 455 299 448T278 440Z" />
<glyph unicode="&#xc0;" horiz-adv-x="692" d="M0 0L405 668H437L608 0H576L533 171H139L36 0H0ZM157 201H525L417 631L157 201ZM422 752L354 894H388L444 752H422Z" />
<glyph unicode="&#xc1;" horiz-adv-x="692" d="M0 0L405 668H437L608 0H576L533 171H139L36 0H0ZM157 201H525L417 631L157 201ZM427 752L533 894H571L453 752H427Z" />
<glyph unicode="&#xc2;" horiz-adv-x="692" d="M0 0L405 668H437L608 0H576L533 171H139L36 0H0ZM157 201H525L417 631L157 201ZM313 752L444 894H480L561 752H532L461 873L348 752H313Z" />
<glyph unicode="&#xc3;" horiz-adv-x="692" d="M0 0L405 668H437L608 0H576L533 171H139L36 0H0ZM157 201H525L417 631L157 201ZM306 772Q315 832 336 853T388 874Q410 874 426 863T455 836T481 810T510 798Q528 798 542 812T568 874H592Q583 814 562 793T510
772Q488 772 472 783T443 810T417 836T388 848Q370 848 355 834T330 772H306Z" />
<glyph unicode="&#xc4;" horiz-adv-x="692" d="M0 0L405 668H437L608 0H576L533 171H139L36 0H0ZM157 201H525L417 631L157 201ZM536 801Q525 801 520 806T514 821Q514 833 520 839T540 845Q551 845 556 840T562 825Q562 813 556 807T536 801ZM358 801Q347 801
342 806T336 821Q336 833 342 839T362 845Q373 845 378 840T384 825Q384 813 378 807T358 801Z" />
<glyph unicode="&#xc5;" horiz-adv-x="692" d="M0 0L405 668H437L608 0H576L533 171H139L36 0H0ZM157 201H525L417 631L157 201ZM437 722Q391 722 366 748T340 809Q340 858 372 891T461 924Q507 924 532 898T558 837Q558 788 526 755T437 722ZM439 748Q478 748
503 772T528 832Q528 859 511 878T459 898Q420 898 395 874T370 814Q370 787 387 768T439 748Z" />
<glyph unicode="&#xc6;" horiz-adv-x="978" d="M0 0L557 668H991L986 638H590L541 359H907L902 329H536L483 30H879L874 0H446L476 171H181L39 0H0ZM206 201H481L556 622L206 201Z" />
<glyph unicode="&#xc7;" horiz-adv-x="672" d="M355 -10Q275 -10 212 24T113 122T77 272Q77 397 126 488T261 628T457 678Q520 678 575 657T673 599L651 576Q616 607 569 627T457 648Q357 648 279 603T156 474T111 272Q111 194 142 138T228 51T355 20Q419 20 470
38T566 92L582 65Q535 28 479 9T355 -10ZM287 -174Q274 -174 256 -172T230 -167L234 -145Q243 -147 258 -147T287 -148Q313 -148 329 -136T345 -100Q345 -68 302 -68H278L281 -51L319 11H347L309 -50Q342 -50 358 -64T375 -101Q375 -134 352 -154T287 -174Z" />
<glyph unicode="&#xc8;" horiz-adv-x="586" d="M54 0L171 668H599L594 638H198L149 359H515L510 329H144L91 30H487L482 0H54ZM369 752L301 894H335L391 752H369Z" />
<glyph unicode="&#xc9;" horiz-adv-x="586" d="M54 0L171 668H599L594 638H198L149 359H515L510 329H144L91 30H487L482 0H54ZM374 752L480 894H518L400 752H374Z" />
<glyph unicode="&#xca;" horiz-adv-x="586" d="M54 0L171 668H599L594 638H198L149 359H515L510 329H144L91 30H487L482 0H54ZM260 752L391 894H427L508 752H479L408 873L295 752H260Z" />
<glyph unicode="&#xcb;" horiz-adv-x="586" d="M54 0L171 668H599L594 638H198L149 359H515L510 329H144L91 30H487L482 0H54ZM483 801Q472 801 467 806T461 821Q461 833 467 839T487 845Q498 845 503 840T509 825Q509 813 503 807T483 801ZM305 801Q294 801 289
806T283 821Q283 833 289 839T309 845Q320 845 325 840T331 825Q331 813 325 807T305 801Z" />
<glyph unicode="&#xcc;" horiz-adv-x="224" d="M54 0L171 668H203L86 0H54ZM188 752L120 894H154L210 752H188Z" />
<glyph unicode="&#xcd;" horiz-adv-x="224" d="M54 0L171 668H203L86 0H54ZM193 752L299 894H337L219 752H193Z" />
<glyph unicode="&#xce;" horiz-adv-x="224" d="M54 0L171 668H203L86 0H54ZM79 752L210 894H246L327 752H298L227 873L114 752H79Z" />
<glyph unicode="&#xcf;" horiz-adv-x="224" d="M54 0L171 668H203L86 0H54ZM302 801Q291 801 286 806T280 821Q280 833 286 839T306 845Q317 845 322 840T328 825Q328 813 322 807T302 801ZM124 801Q113 801 108 806T102 821Q102 833 108 839T128 845Q139 845
144 840T150 825Q150 813 144 807T124 801Z" />
<glyph unicode="&#xd0;" horiz-adv-x="710" d="M54 0L111 329H26L31 359H117L171 668H375Q516 668 590 601T665 396Q665 203 564 102T277 0H54ZM91 30H268Q447 30 539 121T631 396Q631 527 564 582T365 638H198L149 359H373L368 329H143L91 30Z" />
<glyph unicode="&#xd1;" horiz-adv-x="720" d="M54 0L171 668H211L556 36L667 668H699L582 0H542L197 632L86 0H54ZM320 772Q329 832 350 853T402 874Q424 874 440 863T469 836T495 810T524 798Q542 798 556 812T582 874H606Q597 814 576 793T524 772Q502 772
486 783T457 810T431 836T402 848Q384 848 369 834T344 772H320Z" />
<glyph unicode="&#xd2;" horiz-adv-x="780" d="M355 -10Q275 -10 212 24T113 122T77 272Q77 397 126 488T261 628T457 678Q537 678 600 644T699 546T735 396Q735 271 686 180T551 40T355 -10ZM355 20Q455 20 533 65T656 194T701 396Q701 474 670 530T585 617T457
648Q357 648 279 603T156 474T111 272Q111 194 142 138T228 51T355 20ZM466 752L398 894H432L488 752H466Z" />
<glyph unicode="&#xd3;" horiz-adv-x="780" d="M355 -10Q275 -10 212 24T113 122T77 272Q77 397 126 488T261 628T457 678Q537 678 600 644T699 546T735 396Q735 271 686 180T551 40T355 -10ZM355 20Q455 20 533 65T656 194T701 396Q701 474 670 530T585 617T457
648Q357 648 279 603T156 474T111 272Q111 194 142 138T228 51T355 20ZM471 752L577 894H615L497 752H471Z" />
<glyph unicode="&#xd4;" horiz-adv-x="780" d="M355 -10Q275 -10 212 24T113 122T77 272Q77 397 126 488T261 628T457 678Q537 678 600 644T699 546T735 396Q735 271 686 180T551 40T355 -10ZM355 20Q455 20 533 65T656 194T701 396Q701 474 670 530T585 617T457
648Q357 648 279 603T156 474T111 272Q111 194 142 138T228 51T355 20ZM357 752L488 894H524L605 752H576L505 873L392 752H357Z" />
<glyph unicode="&#xd5;" horiz-adv-x="780" d="M355 -10Q275 -10 212 24T113 122T77 272Q77 397 126 488T261 628T457 678Q537 678 600 644T699 546T735 396Q735 271 686 180T551 40T355 -10ZM355 20Q455 20 533 65T656 194T701 396Q701 474 670 530T585 617T457
648Q357 648 279 603T156 474T111 272Q111 194 142 138T228 51T355 20ZM350 772Q359 832 380 853T432 874Q454 874 470 863T499 836T525 810T554 798Q572 798 586 812T612 874H636Q627 814 606 793T554 772Q532 772 516 783T487 810T461 836T432 848Q414 848 399
834T374 772H350Z" />
<glyph unicode="&#xd6;" horiz-adv-x="780" d="M355 -10Q275 -10 212 24T113 122T77 272Q77 397 126 488T261 628T457 678Q537 678 600 644T699 546T735 396Q735 271 686 180T551 40T355 -10ZM355 20Q455 20 533 65T656 194T701 396Q701 474 670 530T585 617T457
648Q357 648 279 603T156 474T111 272Q111 194 142 138T228 51T355 20ZM580 801Q569 801 564 806T558 821Q558 833 564 839T584 845Q595 845 600 840T606 825Q606 813 600 807T580 801ZM402 801Q391 801 386 806T380 821Q380 833 386 839T406 845Q417 845 422 840T428
825Q428 813 422 807T402 801Z" />
<glyph unicode="&#xd7;" horiz-adv-x="582" d="M100 139L82 161L284 334L143 507L169 529L311 357L515 529L533 507L330 334L472 161L446 139L303 311L100 139Z" />
<glyph unicode="&#xd8;" horiz-adv-x="780" d="M44 -10L25 10L126 101Q103 135 90 178T77 272Q77 397 126 488T261 628T457 678Q523 678 576 655T668 588L769 678L788 658L686 566Q709 532 722 490T735 396Q735 271 686 180T551 40T355 -10Q289 -10 235 13T143
79L44 -10ZM355 20Q455 20 533 65T656 194T701 396Q701 440 692 477T662 545L166 100Q232 20 355 20ZM150 122L645 567Q613 606 565 627T457 648Q357 648 279 603T156 474T111 272Q111 184 150 122Z" />
<glyph unicode="&#xd9;" horiz-adv-x="720" d="M325 -10Q238 -10 184 26T109 127T103 278L171 668H203L135 278Q127 230 130 185T154 102T216 42T325 20Q395 20 450 42T542 116T595 258L667 668H699L627 258Q610 162 570 103T469 17T325 -10ZM436 752L368 894H402L458
752H436Z" />
<glyph unicode="&#xda;" horiz-adv-x="720" d="M325 -10Q238 -10 184 26T109 127T103 278L171 668H203L135 278Q127 230 130 185T154 102T216 42T325 20Q395 20 450 42T542 116T595 258L667 668H699L627 258Q610 162 570 103T469 17T325 -10ZM441 752L547 894H585L467
752H441Z" />
<glyph unicode="&#xdb;" horiz-adv-x="720" d="M325 -10Q238 -10 184 26T109 127T103 278L171 668H203L135 278Q127 230 130 185T154 102T216 42T325 20Q395 20 450 42T542 116T595 258L667 668H699L627 258Q610 162 570 103T469 17T325 -10ZM327 752L458 894H494L575
752H546L475 873L362 752H327Z" />
<glyph unicode="&#xdc;" horiz-adv-x="720" d="M325 -10Q238 -10 184 26T109 127T103 278L171 668H203L135 278Q127 230 130 185T154 102T216 42T325 20Q395 20 450 42T542 116T595 258L667 668H699L627 258Q610 162 570 103T469 17T325 -10ZM550 801Q539 801
534 806T528 821Q528 833 534 839T554 845Q565 845 570 840T576 825Q576 813 570 807T550 801ZM372 801Q361 801 356 806T350 821Q350 833 356 839T376 845Q387 845 392 840T398 825Q398 813 392 807T372 801Z" />
<glyph unicode="&#xdd;" horiz-adv-x="672" d="M278 0L325 267L117 668H153L343 294L665 668H705L357 267L310 0H278ZM417 752L523 894H561L443 752H417Z" />
<glyph unicode="&#xde;" horiz-adv-x="632" d="M54 0L171 668H203L184 561H378Q478 561 532 508T587 371Q587 282 553 223T457 136T318 107H104L86 0H54ZM110 137H308Q379 137 434 161T521 236T553 371Q553 441 508 486T368 531H179L110 137Z" />
<glyph unicode="&#xdf;" horiz-adv-x="610" d="M337 -10Q318 -10 293 -7T257 0L261 28Q272 25 295 22T337 18Q412 18 459 68T507 220Q507 285 457 311T316 338L321 366Q377 366 422 383T494 436T521 523Q521 580 480 615T366 650Q285 650 233 598T162 444L84 0H54L132
444Q152 557 211 617T366 678Q422 678 464 658T529 603T553 523Q553 453 511 411T403 353Q471 342 505 309T539 220Q539 155 516 103T447 20T337 -10Z" />
<glyph unicode="&#xe0;" horiz-adv-x="560" d="M211 -10Q138 -10 92 24T46 120Q46 162 66 190T132 237T250 264L442 288Q448 314 447 342T431 396T384 436T297 452Q260 452 222 436T144 387L129 412Q166 444 209 462T297 480Q361 480 398 461T453 413T474 350T472
286L422 0H392L407 86Q381 42 331 16T211 -10ZM211 18Q274 18 318 41T390 103T425 192L437 260L245 236Q151 224 114 197T76 120Q76 70 113 44T211 18ZM577 554L509 696H543L599 554H577Z" />
<glyph unicode="&#xe1;" horiz-adv-x="560" d="M211 -10Q138 -10 92 24T46 120Q46 162 66 190T132 237T250 264L442 288Q448 314 447 342T431 396T384 436T297 452Q260 452 222 436T144 387L129 412Q166 444 209 462T297 480Q361 480 398 461T453 413T474 350T472
286L422 0H392L407 86Q381 42 331 16T211 -10ZM211 18Q274 18 318 41T390 103T425 192L437 260L245 236Q151 224 114 197T76 120Q76 70 113 44T211 18ZM326 554L432 696H470L352 554H326Z" />
<glyph unicode="&#xe2;" horiz-adv-x="560" d="M211 -10Q138 -10 92 24T46 120Q46 162 66 190T132 237T250 264L442 288Q448 314 447 342T431 396T384 436T297 452Q260 452 222 436T144 387L129 412Q166 444 209 462T297 480Q361 480 398 461T453 413T474 350T472
286L422 0H392L407 86Q381 42 331 16T211 -10ZM211 18Q274 18 318 41T390 103T425 192L437 260L245 236Q151 224 114 197T76 120Q76 70 113 44T211 18ZM468 554L599 696H635L716 554H687L616 675L503 554H468Z" />
<glyph unicode="&#xe3;" horiz-adv-x="560" d="M211 -10Q138 -10 92 24T46 120Q46 162 66 190T132 237T250 264L442 288Q448 314 447 342T431 396T384 436T297 452Q260 452 222 436T144 387L129 412Q166 444 209 462T297 480Q361 480 398 461T453 413T474 350T472
286L422 0H392L407 86Q381 42 331 16T211 -10ZM211 18Q274 18 318 41T390 103T425 192L437 260L245 236Q151 224 114 197T76 120Q76 70 113 44T211 18ZM461 574Q470 634 491 655T543 676Q565 676 581 665T610 638T636 612T665 600Q683 600 697 614T723 676H747Q738
616 717 595T665 574Q643 574 627 585T598 612T572 638T543 650Q525 650 510 636T485 574H461Z" />
<glyph unicode="&#xe4;" horiz-adv-x="560" d="M211 -10Q138 -10 92 24T46 120Q46 162 66 190T132 237T250 264L442 288Q448 314 447 342T431 396T384 436T297 452Q260 452 222 436T144 387L129 412Q166 444 209 462T297 480Q361 480 398 461T453 413T474 350T472
286L422 0H392L407 86Q381 42 331 16T211 -10ZM211 18Q274 18 318 41T390 103T425 192L437 260L245 236Q151 224 114 197T76 120Q76 70 113 44T211 18ZM691 603Q680 603 675 608T669 623Q669 635 675 641T695 647Q706 647 711 642T717 627Q717 615 711 609T691
603ZM513 603Q502 603 497 608T491 623Q491 635 497 641T517 647Q528 647 533 642T539 627Q539 615 533 609T513 603Z" />
<glyph unicode="&#xe5;" horiz-adv-x="560" d="M211 -10Q138 -10 92 24T46 120Q46 162 66 190T132 237T250 264L442 288Q448 314 447 342T431 396T384 436T297 452Q260 452 222 436T144 387L129 412Q166 444 209 462T297 480Q361 480 398 461T453 413T474 350T472
286L422 0H392L407 86Q381 42 331 16T211 -10ZM211 18Q274 18 318 41T390 103T425 192L437 260L245 236Q151 224 114 197T76 120Q76 70 113 44T211 18ZM592 524Q546 524 521 550T495 611Q495 660 527 693T616 726Q662 726 687 700T713 639Q713 590 681 557T592
524ZM594 550Q633 550 658 574T683 634Q683 661 666 680T614 700Q575 700 550 676T525 616Q525 589 542 570T594 550Z" />
<glyph unicode="&#xe6;" horiz-adv-x="928" d="M211 -10Q138 -10 92 24T46 120Q46 162 66 190T132 237T250 264L442 288Q448 314 447 342T431 396T384 436T297 452Q260 452 222 436T144 387L129 412Q166 444 209 462T297 480Q371 480 417 450T473 361Q505 418
560 449T688 480Q770 480 818 430T866 294Q866 282 862 263T849 230H464Q458 201 462 165T485 96T538 40T628 18Q676 18 718 33T796 82L811 57Q776 24 732 7T628 -10Q547 -10 500 31T439 138Q405 58 346 24T211 -10ZM211 18Q274 18 318 41T389 103T425 192L437
260L245 236Q151 224 114 197T76 120Q76 70 113 44T211 18ZM468 258H829Q834 276 834 294Q834 371 796 411T688 452Q604 452 545 401T468 258Z" />
<glyph unicode="&#xe7;" horiz-adv-x="516" d="M260 -10Q197 -10 153 17T85 89T62 188Q62 278 96 343T191 444T330 480Q385 480 423 464T487 418L466 396Q440 425 406 438T330 452Q260 452 207 420T124 328T94 188Q94 115 137 67T260 18Q302 18 338 31T410 74L423
52Q388 22 347 6T260 -10ZM452 -174Q439 -174 421 -172T395 -167L399 -145Q408 -147 423 -147T452 -148Q478 -148 494 -136T510 -100Q510 -68 467 -68H443L446 -51L484 11H512L474 -50Q507 -50 523 -64T540 -101Q540 -134 517 -154T452 -174Z" />
<glyph unicode="&#xe8;" horiz-adv-x="560" d="M260 -10Q197 -10 153 17T85 89T62 188Q62 279 97 344T191 445T320 480Q402 480 450 430T498 294Q498 282 494 263T481 230H96Q91 193 97 156T122 87T175 37T260 18Q308 18 350 33T428 82L443 57Q408 24 364 7T260
-10ZM100 258H461Q466 276 466 294Q466 371 428 411T320 452Q268 452 223 429T145 363T100 258ZM575 554L507 696H541L597 554H575Z" />
<glyph unicode="&#xe9;" horiz-adv-x="560" d="M260 -10Q197 -10 153 17T85 89T62 188Q62 279 97 344T191 445T320 480Q402 480 450 430T498 294Q498 282 494 263T481 230H96Q91 193 97 156T122 87T175 37T260 18Q308 18 350 33T428 82L443 57Q408 24 364 7T260
-10ZM100 258H461Q466 276 466 294Q466 371 428 411T320 452Q268 452 223 429T145 363T100 258ZM324 554L430 696H468L350 554H324Z" />
<glyph unicode="&#xea;" horiz-adv-x="560" d="M260 -10Q197 -10 153 17T85 89T62 188Q62 279 97 344T191 445T320 480Q402 480 450 430T498 294Q498 282 494 263T481 230H96Q91 193 97 156T122 87T175 37T260 18Q308 18 350 33T428 82L443 57Q408 24 364 7T260
-10ZM100 258H461Q466 276 466 294Q466 371 428 411T320 452Q268 452 223 429T145 363T100 258ZM466 554L597 696H633L714 554H685L614 675L501 554H466Z" />
<glyph unicode="&#xeb;" horiz-adv-x="560" d="M260 -10Q197 -10 153 17T85 89T62 188Q62 279 97 344T191 445T320 480Q402 480 450 430T498 294Q498 282 494 263T481 230H96Q91 193 97 156T122 87T175 37T260 18Q308 18 350 33T428 82L443 57Q408 24 364 7T260
-10ZM100 258H461Q466 276 466 294Q466 371 428 411T320 452Q268 452 223 429T145 363T100 258ZM689 603Q678 603 673 608T667 623Q667 635 673 641T693 647Q704 647 709 642T715 627Q715 615 709 609T689 603ZM511 603Q500 603 495 608T489 623Q489 635 495 641T515
647Q526 647 531 642T537 627Q537 615 531 609T511 603Z" />
<glyph unicode="&#xec;" horiz-adv-x="222" d="M54 0L136 470H166L84 0H54ZM152 554L84 696H118L174 554H152Z" />
<glyph unicode="&#xed;" horiz-adv-x="222" d="M54 0L136 470H166L84 0H54ZM157 554L263 696H301L183 554H157Z" />
<glyph unicode="&#xee;" horiz-adv-x="222" d="M54 0L136 470H166L84 0H54ZM43 554L174 696H210L291 554H262L191 675L78 554H43Z" />
<glyph unicode="&#xef;" horiz-adv-x="222" d="M54 0L136 470H166L84 0H54ZM266 603Q255 603 250 608T244 623Q244 635 250 641T270 647Q281 647 286 642T292 627Q292 615 286 609T266 603ZM88 603Q77 603 72 608T66 623Q66 635 72 641T92 647Q103 647 108 642T114
627Q114 615 108 609T88 603Z" />
<glyph unicode="&#xf0;" horiz-adv-x="590" d="M260 -10Q200 -10 154 15T83 84T57 184Q57 264 89 321T181 408T320 438Q370 438 406 419T464 367L347 582L236 538L242 568L335 605L301 668H335L363 616L495 668L490 638L375 593L460 435Q491 378 507 331T523 244Q523
164 491 107T399 20T260 -10ZM260 18Q323 18 375 43T459 118T491 244Q491 316 445 363T320 410Q258 410 205 385T121 310T89 184Q89 136 110 99T169 40T260 18Z" />
<glyph unicode="&#xf1;" horiz-adv-x="570" d="M54 0L136 470H166L151 385Q186 437 229 458T332 480Q388 480 421 465T469 422T486 360T482 286L432 0H402L452 286Q457 317 457 346T446 400T408 438T332 452Q251 452 198 402T128 255L84 0H54ZM466 574Q475 634
496 655T548 676Q570 676 586 665T615 638T641 612T670 600Q688 600 702 614T728 676H752Q743 616 722 595T670 574Q648 574 632 585T603 612T577 638T548 650Q530 650 515 636T490 574H466Z" />
<glyph unicode="&#xf2;" horiz-adv-x="590" d="M260 -10Q197 -10 153 17T85 89T62 188Q62 278 96 343T191 444T330 480Q394 480 438 453T505 382T528 282Q528 193 494 127T399 26T260 -10ZM260 18Q331 18 384 50T466 142T496 282Q496 356 453 404T330 452Q260
452 207 420T124 328T94 188Q94 115 137 67T260 18ZM592 554L524 696H558L614 554H592Z" />
<glyph unicode="&#xf3;" horiz-adv-x="590" d="M260 -10Q197 -10 153 17T85 89T62 188Q62 278 96 343T191 444T330 480Q394 480 438 453T505 382T528 282Q528 193 494 127T399 26T260 -10ZM260 18Q331 18 384 50T466 142T496 282Q496 356 453 404T330 452Q260
452 207 420T124 328T94 188Q94 115 137 67T260 18ZM341 554L447 696H485L367 554H341Z" />
<glyph unicode="&#xf4;" horiz-adv-x="590" d="M260 -10Q197 -10 153 17T85 89T62 188Q62 278 96 343T191 444T330 480Q394 480 438 453T505 382T528 282Q528 193 494 127T399 26T260 -10ZM260 18Q331 18 384 50T466 142T496 282Q496 356 453 404T330 452Q260
452 207 420T124 328T94 188Q94 115 137 67T260 18ZM483 554L614 696H650L731 554H702L631 675L518 554H483Z" />
<glyph unicode="&#xf5;" horiz-adv-x="590" d="M260 -10Q197 -10 153 17T85 89T62 188Q62 278 96 343T191 444T330 480Q394 480 438 453T505 382T528 282Q528 193 494 127T399 26T260 -10ZM260 18Q331 18 384 50T466 142T496 282Q496 356 453 404T330 452Q260
452 207 420T124 328T94 188Q94 115 137 67T260 18ZM476 574Q485 634 506 655T558 676Q580 676 596 665T625 638T651 612T680 600Q698 600 712 614T738 676H762Q753 616 732 595T680 574Q658 574 642 585T613 612T587 638T558 650Q540 650 525 636T500 574H476Z"
/>
<glyph unicode="&#xf6;" horiz-adv-x="590" d="M260 -10Q197 -10 153 17T85 89T62 188Q62 278 96 343T191 444T330 480Q394 480 438 453T505 382T528 282Q528 193 494 127T399 26T260 -10ZM260 18Q331 18 384 50T466 142T496 282Q496 356 453 404T330 452Q260
452 207 420T124 328T94 188Q94 115 137 67T260 18ZM706 603Q695 603 690 608T684 623Q684 635 690 641T710 647Q721 647 726 642T732 627Q732 615 726 609T706 603ZM528 603Q517 603 512 608T506 623Q506 635 512 641T532 647Q543 647 548 642T554 627Q554 615
548 609T528 603Z" />
<glyph unicode="&#xf7;" horiz-adv-x="582" d="M110 320L115 348H505L500 320H110ZM274 139Q263 139 257 144T251 161Q251 174 259 181T280 189Q291 189 297 184T303 167Q303 154 295 147T274 139ZM334 479Q323 479 317 484T311 501Q311 514 319 521T340 529Q351
529 357 524T363 507Q363 494 355 487T334 479Z" />
<glyph unicode="&#xf8;" horiz-adv-x="590" d="M44 -10L25 10L544 480L563 460L44 -10ZM260 -10Q197 -10 153 17T85 89T62 188Q62 278 96 343T191 444T330 480Q394 480 438 453T505 382T528 282Q528 193 494 127T399 26T260 -10ZM260 18Q331 18 384 50T466 142T496
282Q496 356 453 404T330 452Q260 452 207 420T124 328T94 188Q94 115 137 67T260 18Z" />
<glyph unicode="&#xf9;" horiz-adv-x="570" d="M236 -10Q161 -10 126 17T84 88T86 184L136 470H166L116 184Q111 153 111 124T122 70T160 32T236 18Q317 18 370 68T440 215L484 470H514L432 0H402L417 85Q382 33 339 12T236 -10ZM582 554L514 696H548L604 554H582Z" />
<glyph unicode="&#xfa;" horiz-adv-x="570" d="M236 -10Q161 -10 126 17T84 88T86 184L136 470H166L116 184Q111 153 111 124T122 70T160 32T236 18Q317 18 370 68T440 215L484 470H514L432 0H402L417 85Q382 33 339 12T236 -10ZM331 554L437 696H475L357 554H331Z" />
<glyph unicode="&#xfb;" horiz-adv-x="570" d="M236 -10Q161 -10 126 17T84 88T86 184L136 470H166L116 184Q111 153 111 124T122 70T160 32T236 18Q317 18 370 68T440 215L484 470H514L432 0H402L417 85Q382 33 339 12T236 -10ZM473 554L604 696H640L721 554H692L621
675L508 554H473Z" />
<glyph unicode="&#xfc;" horiz-adv-x="570" d="M236 -10Q161 -10 126 17T84 88T86 184L136 470H166L116 184Q111 153 111 124T122 70T160 32T236 18Q317 18 370 68T440 215L484 470H514L432 0H402L417 85Q382 33 339 12T236 -10ZM696 603Q685 603 680 608T674
623Q674 635 680 641T700 647Q711 647 716 642T722 627Q722 615 716 609T696 603ZM518 603Q507 603 502 608T496 623Q496 635 502 641T522 647Q533 647 538 642T544 627Q544 615 538 609T518 603Z" />
<glyph unicode="&#xfd;" horiz-adv-x="522" d="M18 -188Q-7 -188 -28 -180T-67 -159L-52 -135Q-38 -144 -19 -152T23 -160Q48 -160 73 -148T130 -101T203 -1L82 470H114L223 32L486 470H520L234 0Q190 -72 153 -113T84 -171T18 -188ZM307 554L413 696H451L333 554H307Z" />
<glyph unicode="&#xfe;" horiz-adv-x="610" d="M22 -182L171 668H201L150 376Q184 428 233 454T354 480Q416 480 459 453T525 382T548 282Q548 200 520 134T433 29T284 -10Q218 -10 169 25T107 130L52 -182H22ZM284 18Q359 18 411 51T489 145T516 282Q516 359
474 405T354 452Q279 452 227 419T149 326T122 188Q122 111 164 65T284 18Z" />
<glyph unicode="&#xff;" horiz-adv-x="522" d="M18 -188Q-7 -188 -28 -180T-67 -159L-52 -135Q-38 -144 -19 -152T23 -160Q48 -160 73 -148T130 -101T203 -1L82 470H114L223 32L486 470H520L234 0Q190 -72 153 -113T84 -171T18 -188ZM672 603Q661 603 656 608T650
623Q650 635 656 641T676 647Q687 647 692 642T698 627Q698 615 692 609T672 603ZM494 603Q483 603 478 608T472 623Q472 635 478 641T498 647Q509 647 514 642T520 627Q520 615 514 609T494 603Z" />
<glyph unicode="&#x2013;" horiz-adv-x="568" d="M71 272L76 300H512L507 272H71Z" />
<glyph unicode="&#x2014;" horiz-adv-x="798" d="M71 272L76 300H742L737 272H71Z" />
<glyph unicode="&#x2018;" horiz-adv-x="224" d="M138 478L150 546Q158 589 171 618T213 668L232 659Q218 642 209 626T193 591T182 546L170 478H138Z" />
<glyph unicode="&#x2019;" horiz-adv-x="224" d="M128 478L109 487Q123 505 132 520T148 555T159 600L171 668H203L191 600Q183 557 170 528T128 478Z" />
<glyph unicode="&#x201a;" horiz-adv-x="224" d="M19 -144L0 -135Q14 -117 23 -102T39 -67T50 -22L62 46H94L82 -22Q74 -65 61 -94T19 -144Z" />
<glyph unicode="&#x201c;" horiz-adv-x="362" d="M276 478L288 546Q296 589 309 618T351 668L370 659Q356 642 347 626T331 591T320 546L308 478H276ZM138 478L150 546Q158 589 171 618T213 668L232 659Q218 642 209 626T193 591T182 546L170 478H138Z" />
<glyph unicode="&#x201d;" horiz-adv-x="362" d="M266 478L247 487Q261 505 270 520T286 555T297 600L309 668H341L329 600Q321 557 308 528T266 478ZM128 478L109 487Q123 505 132 520T148 555T159 600L171 668H203L191 600Q183 557 170 528T128 478Z" />
<glyph unicode="&#x201e;" horiz-adv-x="362" d="M157 -144L138 -135Q152 -117 161 -102T177 -67T188 -22L200 46H232L220 -22Q212 -65 199 -94T157 -144ZM19 -144L0 -135Q14 -117 23 -102T39 -67T50 -22L62 46H94L82 -22Q74 -65 61 -94T19 -144Z" />
<glyph unicode="&#x2022;" horiz-adv-x="324" d="M180 204Q145 204 124 224T103 276Q103 318 129 343T200 368Q235 368 256 348T277 296Q277 254 251 229T180 204Z" />
<glyph unicode="&#x2039;" horiz-adv-x="264" d="M143 113L74 286L205 461H237L106 286L175 113H143Z" />
<glyph unicode="&#x203a;" horiz-adv-x="264" d="M43 113L174 286L105 461H137L206 286L75 113H43Z" />
</font>
</defs>
</svg>
