<?xml version="1.0" standalone="no"?>
<!DOCTYPE svg PUBLIC "-//W3C//DTD SVG 1.1//EN" "http://www.w3.org/Graphics/SVG/1.1/DTD/svg11.dtd">
<svg xmlns="http://www.w3.org/2000/svg">
<defs >
<font id="Gantari" horiz-adv-x="563" ><font-face
    font-family="Gantari ExtraLight"
    units-per-em="1000"
    panose-1="0 0 0 0 0 0 0 0 0 0"
    ascent="950"
    descent="-250"
    alphabetic="0" />
<glyph unicode=" " horiz-adv-x="253" />
<glyph unicode="!" horiz-adv-x="230" d="M91 181L136 486L168 668H213L181 486L119 181H91ZM73 -4Q60 -4 53 3T45 22Q45 38 54 47T81 57Q94 57 101 50T109 30Q109 14 100 5T73 -4Z" />
<glyph unicode="&quot;" horiz-adv-x="376" d="M277 415L314 668H358L306 415H277ZM132 415L168 668H212L160 415H132Z" />
<glyph unicode="#" horiz-adv-x="627" d="M73 0L139 188H30L42 223H152L230 444H121L134 480H243L308 668H348L283 480H482L548 668H588L522 480H631L618 444H509L430 223H540L527 188H418L353 0H313L378 188H179L113 0H73ZM191 223H391L469 444H270L191 223Z" />
<glyph unicode="$" horiz-adv-x="592" d="M118 -100L160 4Q126 15 95 36T35 88L64 119Q92 92 120 74T176 45L291 326L256 333Q188 347 156 384T124 474Q124 532 153 578T235 651T363 678Q380 678 397 676T431 670L471 768H507L464 662Q496 652 523 635T572 595L543
563Q523 583 500 598T448 623L341 360L391 350Q437 341 465 320T507 269T521 202Q521 138 489 90T397 16T259 -10Q242 -10 226 -8T193 -3L154 -100H118ZM209 36Q222 34 234 33T261 31Q324 31 371 50T446 107T474 199Q474 243 451 271T382 308L324 319L209 36ZM308
367L415 631Q403 634 391 635T363 637Q276 637 224 594T171 477Q171 436 194 411T266 375L308 367Z" />
<glyph unicode="%" horiz-adv-x="969" d="M243 0L716 668H759L285 0H243ZM225 268Q164 268 131 312T98 423Q98 467 109 511T142 592T200 651T285 674Q346 674 378 630T411 519Q411 476 400 432T367 350T309 291T225 268ZM226 302Q275 302 306 335T353 417T369
519Q369 577 346 608T284 639Q235 639 203 607T156 525T140 423Q140 364 163 333T226 302ZM717 -6Q656 -6 623 38T590 149Q590 193 601 237T634 318T692 377T777 400Q838 400 871 356T904 245Q904 202 893 158T859 76T801 17T717 -6ZM718 28Q767 28 798 61T845
143T861 245Q861 303 838 334T776 365Q727 365 695 333T648 251T632 149Q632 90 655 59T718 28Z" />
<glyph unicode="&amp;" horiz-adv-x="672" d="M225 -10Q166 -10 127 11T67 68T47 146Q47 210 86 256T207 331L254 348Q220 388 206 423T191 491Q191 543 215 585T283 653T385 678Q433 678 467 658T519 604T537 531Q537 469 499 428T379 357L318 336L460 173L590
324H636L483 147L611 0H557L455 116Q393 47 341 19T225 -10ZM229 30Q277 30 325 55T432 143L278 320L219 300Q155 278 123 241T91 149Q91 92 128 61T229 30ZM295 363L369 389Q435 413 464 446T494 529Q494 574 465 606T384 639Q341 639 307 620T254 567T234 491Q234
463 247 433T295 363Z" />
<glyph unicode="&apos;" horiz-adv-x="230" d="M132 415L168 668H212L160 415H132Z" />
<glyph unicode="(" horiz-adv-x="336" d="M171 -252Q150 -227 131 -185T95 -91T70 18T61 127Q61 198 77 271T121 416T185 549T263 660T346 738H383Q343 709 303 661T228 550T164 417T120 272T104 127Q104 74 113 18T136 -90T169 -185T208 -252H171Z" />
<glyph unicode=")" horiz-adv-x="336" d="M-46 -252Q-6 -223 34 -175T110 -64T173 69T217 214T233 359Q233 412 224 468T200 576T167 670T129 738H166Q187 712 206 670T242 576T267 469T276 359Q276 288 260 215T216 70T152 -63T74 -174T-9 -252H-46Z" />
<glyph unicode="*" horiz-adv-x="491" d="M166 317L136 340L268 475L112 519L130 558L279 498L300 668H340L303 498L472 558L477 519L305 475L388 340L352 317L286 459L166 317Z" />
<glyph unicode="+" horiz-adv-x="582" d="M251 135L283 315H105L112 353H290L322 533H364L332 353H510L503 315H325L293 135H251Z" />
<glyph unicode="," horiz-adv-x="230" d="M21 -146L-4 -134Q11 -115 21 -98T38 -61T49 -15L62 55H104L91 -15Q83 -62 68 -92T21 -146Z" />
<glyph unicode="-" horiz-adv-x="368" d="M67 267L74 304H316L309 267H67Z" />
<glyph unicode="." horiz-adv-x="229" d="M73 -4Q60 -4 53 3T45 22Q45 38 54 47T81 57Q94 57 101 50T109 30Q109 14 100 5T73 -4Z" />
<glyph unicode="/" horiz-adv-x="305" d="M-19 0L314 668H358L24 0H-19Z" />
<glyph unicode="0" horiz-adv-x="642" d="M286 -10Q217 -10 169 24T96 117T71 252Q71 326 89 401T146 538T245 639T388 678Q457 678 505 644T578 551T603 416Q603 342 585 267T528 129T429 29T286 -10ZM287 28Q344 28 387 50T463 111T515 199T546 304T556 416Q556
528 509 583T387 639Q330 639 287 617T211 557T159 469T128 363T118 252Q118 139 165 84T287 28Z" />
<glyph unicode="1" horiz-adv-x="383" d="M204 0L313 621L114 521L98 554L326 668H366L249 0H204Z" />
<glyph unicode="2" horiz-adv-x="554" d="M21 0L27 38L388 335Q420 361 439 388T467 443T476 500Q476 540 458 571T406 621T328 639Q281 639 236 621T141 553L122 587Q170 638 224 658T330 678Q385 678 428 655T497 592T523 502Q523 475 515 443T484 376T420 307L92
38H455L449 0H21Z" />
<glyph unicode="3" horiz-adv-x="574" d="M243 -10Q167 -10 120 15T36 85L63 115Q99 71 142 50T244 28Q304 28 351 48T427 106T455 194Q455 258 410 291T289 325H225L232 363H303Q357 363 402 380T474 431T502 516Q502 578 458 608T344 639Q288 639 244 619T151
553L132 587Q180 637 233 657T345 678Q406 678 452 658T523 603T549 518Q549 452 502 405T378 342Q437 326 469 288T502 193Q502 132 469 86T378 15T243 -10Z" />
<glyph unicode="4" horiz-adv-x="622" d="M385 0L416 179H52L61 228L492 668H546L467 217H555L548 179H460L429 0H385ZM102 217H423L493 618L102 217Z" />
<glyph unicode="5" horiz-adv-x="582" d="M251 -10Q200 -10 163 -1T97 29T37 86L64 114Q105 66 148 47T252 28Q316 28 365 52T442 124T470 240Q470 317 425 354T298 391Q239 391 192 368T126 294L87 302L220 678H546L539 639H249L155 372Q190 406 230 417T310
429Q405 429 461 379T517 241Q517 167 484 110T392 22T251 -10Z" />
<glyph unicode="6" horiz-adv-x="612" d="M281 -10Q213 -10 164 17T89 95T63 220Q63 304 82 386T143 533T247 638T400 678Q441 678 477 667T543 634T590 582L563 554Q534 595 494 617T400 639Q332 639 276 607T179 505T117 317Q151 370 206 399T340 429Q435 429
491 379T547 241Q547 167 514 110T422 22T281 -10ZM282 28Q346 28 395 52T472 124T500 240Q500 317 455 354T328 391Q235 391 180 346T110 219Q110 131 149 80T282 28Z" />
<glyph unicode="7" horiz-adv-x="514" d="M102 0L492 629H111L118 668H546L539 631L149 0H102Z" />
<glyph unicode="8" horiz-adv-x="612" d="M271 -10Q163 -10 106 38T48 158Q48 232 97 282T241 344Q183 359 149 397T115 486Q115 543 146 586T236 653T373 678Q474 678 530 635T587 520Q587 454 541 405T407 344Q469 329 504 289T540 193Q540 135 508 89T416 16T271
-10ZM272 28Q375 28 434 72T493 194Q493 250 448 287T316 325Q214 325 155 281T95 160Q95 100 140 64T272 28ZM331 363Q426 363 483 401T540 518Q540 578 496 608T372 639Q278 639 221 601T163 486Q163 425 207 394T331 363Z" />
<glyph unicode="9" horiz-adv-x="612" d="M241 -10Q200 -10 164 1T99 34T51 86L78 113Q107 73 147 51T241 28Q310 28 366 60T462 163T524 350Q490 297 435 268T301 239Q206 239 150 289T94 427Q94 502 127 558T219 646T360 678Q428 678 477 651T552 573T578 448Q578
364 559 282T498 135T394 30T241 -10ZM313 277Q406 277 461 322T531 449Q531 537 492 588T359 639Q295 639 246 615T169 544T141 428Q141 351 186 314T313 277Z" />
<glyph unicode=":" horiz-adv-x="230" d="M149 429Q136 429 129 436T121 455Q121 471 131 480T157 490Q170 490 177 483T185 464Q185 448 176 439T149 429ZM73 -4Q60 -4 53 3T45 22Q45 38 54 47T81 57Q94 57 101 50T109 30Q109 14 100 5T73 -4Z" />
<glyph unicode=";" horiz-adv-x="230" d="M21 -146L-4 -134Q11 -115 21 -98T38 -61T49 -15L62 55H104L91 -15Q83 -61 68 -92T21 -146ZM150 429Q136 429 129 436T121 455Q121 472 131 481T157 490Q170 490 177 483T185 464Q185 448 176 439T150 429Z" />
<glyph unicode="&lt;" horiz-adv-x="582" d="M473 147L105 315L112 353L539 521L531 476L152 332L480 187L473 147Z" />
<glyph unicode="=" horiz-adv-x="582" d="M105 315L112 353H510L503 315H105ZM105 315L111 353H510L503 315H105Z" />
<glyph unicode="&gt;" horiz-adv-x="582" d="M76 147L84 192L462 336L135 481L142 521L510 353L503 315L76 147Z" />
<glyph unicode="?" horiz-adv-x="472" d="M203 181L208 209Q215 254 239 287T295 348T355 400T404 452T424 513Q424 549 407 577T358 622T285 639Q242 639 201 620T113 554L98 588Q142 637 189 657T289 678Q340 678 381 657T446 599T471 516Q471 473 451 443T398
387T334 336T276 280T244 207L239 181H203ZM189 -4Q176 -4 169 3T161 22Q161 38 171 47T197 57Q210 57 217 50T225 30Q225 14 215 5T189 -4Z" />
<glyph unicode="@" horiz-adv-x="917" d="M415 -110Q341 -110 278 -86T167 -16T94 91T68 228Q68 363 124 464T283 621T525 678Q600 678 664 656T776 594T850 499T877 378Q877 328 865 278T829 186T767 119T679 94Q639 94 614 118T584 193Q561 144 522 119T428
94Q359 94 321 136T282 249Q282 313 304 363T371 444T480 474Q527 474 559 451T605 381L619 466H658L616 234Q613 210 617 186T638 146T685 129Q724 129 752 151T800 209T828 289T838 377Q838 454 799 514T690 608T523 643Q399 643 305 593T159 451T107 229Q107
139 146 71T256 -36T416 -75Q469 -75 516 -62T607 -23L616 -53Q574 -81 521 -95T415 -110ZM432 129Q508 129 549 180T591 316Q591 376 562 407T482 439Q405 439 364 388T323 252Q323 192 352 161T432 129Z" />
<glyph unicode="A" horiz-adv-x="693" d="M-3 0L398 668H445L613 0H567L527 165H146L48 0H-3ZM169 205H517L416 617L169 205Z" />
<glyph unicode="B" horiz-adv-x="694" d="M51 0L168 668H449Q545 668 602 637T660 528Q660 465 640 427T585 370T506 341Q559 326 591 294T623 203Q623 126 591 82T497 19T352 0H51ZM103 41H344Q469 41 522 78T576 205Q576 264 530 294T379 325H153L103 41ZM160
363H404Q514 363 562 398T611 525Q611 581 570 604T437 627H206L160 363Z" />
<glyph unicode="C" horiz-adv-x="670" d="M355 -10Q274 -10 211 24T111 123T74 273Q74 397 123 488T259 628T457 678Q520 678 575 657T674 599L647 567Q612 597 565 617T455 637Q358 637 283 594T164 469T121 273Q121 198 150 144T233 61T357 31Q419 31 470 48T566
101L583 64Q535 27 479 9T355 -10Z" />
<glyph unicode="D" horiz-adv-x="710" d="M51 0L168 668H375Q517 668 592 600T668 395Q668 202 567 101T277 0H51ZM103 41H270Q444 41 532 129T621 394Q621 521 556 574T364 627H206L103 41Z" />
<glyph unicode="E" horiz-adv-x="587" d="M51 0L168 668H602L595 627H206L160 364H519L512 324H153L103 41H492L485 0H51Z" />
<glyph unicode="F" horiz-adv-x="577" d="M51 0L168 668H602L595 627H206L160 364H519L512 324H153L96 0H51Z" />
<glyph unicode="G" horiz-adv-x="730" d="M355 -10Q274 -10 211 24T111 123T74 273Q74 397 123 488T259 628T457 678Q508 678 552 668T632 640T694 595L666 563Q631 596 578 616T455 637Q358 637 283 594T164 469T121 273Q121 198 150 144T233 61T357 31Q433 31
492 56T592 124L623 304H391L398 345H675L632 102Q579 45 509 18T355 -10Z" />
<glyph unicode="H" horiz-adv-x="720" d="M51 0L168 668H213L160 364H604L657 668H702L585 0H540L597 323H153L96 0H51Z" />
<glyph unicode="I" horiz-adv-x="230" d="M51 0L168 668H213L96 0H51Z" />
<glyph unicode="J" horiz-adv-x="526" d="M192 -10Q139 -10 98 9T24 69L51 100Q82 64 117 48T192 31Q267 31 316 71T381 202L463 668H508L426 202Q406 90 346 40T192 -10Z" />
<glyph unicode="K" horiz-adv-x="614" d="M51 0L168 668H213L145 285L579 668H640L305 373L533 0H481L272 344L135 223L96 0H51Z" />
<glyph unicode="L" horiz-adv-x="527" d="M51 0L168 668H213L103 41H442L435 0H51Z" />
<glyph unicode="M" horiz-adv-x="897" d="M51 0L168 668H236L413 54L808 668H880L763 0H718L826 619L428 0H385L204 620L96 0H51Z" />
<glyph unicode="N" horiz-adv-x="720" d="M51 0L168 668H221L550 55L657 668H702L585 0H532L203 613L96 0H51Z" />
<glyph unicode="O" horiz-adv-x="780" d="M355 -10Q274 -10 211 24T111 123T74 273Q74 397 123 488T259 628T456 678Q537 678 601 643T701 545T738 394Q738 270 689 180T554 40T355 -10ZM357 31Q454 31 529 74T647 199T691 394Q691 470 661 524T578 607T455 637Q358
637 283 594T164 469T121 273Q121 199 150 145T233 61T357 31Z" />
<glyph unicode="P" horiz-adv-x="633" d="M51 0L168 668H399Q502 668 558 628T615 503Q615 418 582 367T488 293T348 269H143L96 0H51ZM150 310H339Q407 310 458 327T539 385T568 501Q568 568 523 597T386 627H206L150 310Z" />
<glyph unicode="Q" horiz-adv-x="780" d="M519 -192Q457 -192 417 -171T360 -108T355 -10Q274 -10 211 24T111 123T74 273Q74 397 123 488T259 628T457 678Q537 678 601 643T701 545T738 395Q738 277 694 190T573 51T395 -8Q390 -31 391 -56T405 -104T445 -140T523
-154Q562 -154 599 -141T676 -100L691 -134Q648 -165 606 -178T519 -192ZM357 31Q454 31 529 74T647 199T691 394Q691 470 661 524T578 607T455 637Q358 637 283 594T164 469T121 273Q121 198 150 144T233 61T357 31Z" />
<glyph unicode="R" horiz-adv-x="633" d="M51 0L168 668H399Q502 668 559 633T617 514Q617 436 589 389T511 320T394 293L563 0H511L344 291H147L96 0H51ZM154 331H342Q411 331 462 345T541 399T570 512Q570 578 524 602T386 627H206L154 331Z" />
<glyph unicode="S" horiz-adv-x="592" d="M259 -10Q193 -10 138 14T35 88L64 119Q112 73 158 52T261 31Q324 31 371 50T446 107T474 199Q474 243 451 271T382 308L256 333Q188 347 156 384T124 474Q124 532 153 578T235 651T363 678Q423 678 478 658T572 595L543
563Q510 596 465 616T363 637Q276 637 224 594T171 477Q171 436 194 411T266 375L391 350Q437 341 465 320T507 269T521 202Q521 138 489 90T397 16T259 -10Z" />
<glyph unicode="T" horiz-adv-x="585" d="M228 0L338 627H118L125 668H610L603 627H383L273 0H228Z" />
<glyph unicode="U" horiz-adv-x="720" d="M325 -10Q238 -10 183 26T106 127T100 278L168 668H213L144 277Q137 230 140 187T163 108T223 52T327 31Q395 31 447 52T535 124T585 258L657 668H702L630 258Q613 162 573 103T470 17T325 -10Z" />
<glyph unicode="V" horiz-adv-x="693" d="M281 0L114 668H160L311 52L678 668H730L328 0H281Z" />
<glyph unicode="W" horiz-adv-x="997" d="M216 0L114 668H161L247 55L549 668H595L681 55L983 668H1034L698 0H651L565 612L262 0H216Z" />
<glyph unicode="X" horiz-adv-x="673" d="M-3 0L326 344L124 668H175L356 376L640 668H700L384 344L593 0H542L353 311L56 0H-3Z" />
<glyph unicode="Y" horiz-adv-x="673" d="M272 0L319 265L114 668H164L345 305L654 668H710L364 265L317 0H272Z" />
<glyph unicode="Z" horiz-adv-x="553" d="M6 0L13 39L507 627H126L133 668H569L563 629L68 41H469L462 0H6Z" />
<glyph unicode="[" horiz-adv-x="374" d="M6 -252L181 738H394L386 699H215L55 -213H226L219 -252H6Z" />
<glyph unicode="\" horiz-adv-x="305" d="M200 0L98 668H139L241 0H200Z" />
<glyph unicode="]" horiz-adv-x="374" d="M-18 -252L-12 -213H159L320 699H149L157 738H370L195 -252H-18Z" />
<glyph unicode="^" horiz-adv-x="582" d="M141 340L346 668H386L476 340H436L362 623L185 340H141Z" />
<glyph unicode="_" horiz-adv-x="446" d="M-56 -81L-50 -46H396L389 -81H-56Z" />
<glyph unicode="`" horiz-adv-x="600" d="M379 552L309 696H354L408 552H379Z" />
<glyph unicode="a" horiz-adv-x="560" d="M207 -10Q135 -10 89 24T43 120Q43 163 64 192T130 239T246 266L434 289Q439 308 438 334T425 384T382 425T297 441Q260 441 222 426T143 379L126 413Q164 445 208 462T297 480Q358 480 396 463T453 417T477 355T476 286L426
0H384L398 80Q372 39 324 15T207 -10ZM212 28Q273 28 315 50T383 109T417 191L427 252L245 230Q155 219 120 194T85 122Q85 77 120 53T212 28Z" />
<glyph unicode="b" horiz-adv-x="609" d="M286 -10Q220 -10 174 22T112 116L91 0H50L167 668H209L159 381Q189 430 242 455T356 480Q419 480 462 453T528 382T550 281Q550 192 517 127T424 26T286 -10ZM284 28Q352 28 401 59T478 146T506 280Q506 350 466 395T351
441Q284 441 234 411T157 324T130 190Q130 120 169 74T284 28Z" />
<glyph unicode="c" horiz-adv-x="514" d="M260 -10Q196 -10 151 17T83 89T59 189Q59 278 94 343T190 444T330 480Q385 480 423 464T488 418L462 387Q436 416 403 428T328 441Q261 441 211 411T132 324T103 190Q103 120 144 74T262 28Q302 28 337 41T409 82L424
51Q388 21 347 6T260 -10Z" />
<glyph unicode="d" horiz-adv-x="609" d="M253 -10Q190 -10 147 17T81 89T59 189Q59 278 92 343T185 444T323 480Q388 480 434 449T496 357L550 668H592L475 0H434L448 87Q419 39 367 15T253 -10ZM258 28Q326 28 375 59T452 146T479 280Q479 350 440 395T325 441Q258
441 208 411T131 324T103 190Q103 120 143 74T258 28Z" />
<glyph unicode="e" horiz-adv-x="560" d="M260 -10Q197 -10 152 17T83 89T59 189Q59 279 94 344T189 445T320 480Q403 480 452 430T501 294Q501 281 496 261T482 225H105Q100 187 107 152T133 89T184 45T263 28Q311 28 353 43T429 90L446 56Q409 23 364 7T260
-10ZM110 263H452Q457 276 457 295Q457 367 421 404T318 441Q269 441 226 420T152 360T110 263Z" />
<glyph unicode="f" horiz-adv-x="342" d="M98 0L174 432H62L69 470H181L194 548Q205 613 239 643T333 674Q347 674 363 673T388 668L382 632Q374 634 361 635T335 636Q291 636 268 615T236 547L223 470H353L346 432H216L140 0H98Z" />
<glyph unicode="g" horiz-adv-x="609" d="M217 -192Q163 -192 116 -171T29 -109L54 -82Q93 -119 132 -136T218 -154Q270 -154 315 -135T393 -75T438 34L452 115Q423 67 371 44T258 20Q202 20 158 42T88 107T63 204Q63 279 93 341T181 442T323 480Q388 480 434
449T497 357L516 470H557L482 42Q460 -80 392 -136T217 -192ZM263 58Q320 58 361 78T428 131T466 207T479 295Q479 336 460 369T407 421T325 441Q267 441 227 422T159 369T120 293T107 205Q107 164 126 131T180 78T263 58Z" />
<glyph unicode="h" horiz-adv-x="570" d="M50 0L167 668H209L160 392Q194 440 235 460T336 480Q392 480 424 465T472 422T490 360T486 286L436 0H394L443 285Q448 314 448 342T438 392T402 428T330 441Q252 441 202 394T136 254L92 0H50Z" />
<glyph unicode="i" horiz-adv-x="226" d="M50 0L132 470H174L92 0H50ZM176 595Q163 595 156 601T148 620Q148 636 158 644T184 653Q197 653 204 647T212 628Q212 612 202 604T176 595Z" />
<glyph unicode="j" horiz-adv-x="226" d="M-59 -188Q-72 -188 -88 -187T-111 -182L-106 -146Q-98 -148 -85 -149T-60 -150Q-16 -150 7 -129T39 -61L132 470H174L81 -63Q69 -129 36 -158T-59 -188ZM176 595Q163 595 156 601T148 620Q148 635 158 644T183 653Q197
653 204 647T212 628Q212 613 202 604T176 595Z" />
<glyph unicode="k" horiz-adv-x="522" d="M50 0L167 668H209L129 212L456 470H513L268 277L441 0H393L236 251L120 160L92 0H50Z" />
<glyph unicode="l" horiz-adv-x="226" d="M50 0L167 668H209L92 0H50Z" />
<glyph unicode="m" horiz-adv-x="848" d="M50 0L132 470H173L161 400Q187 440 227 460T320 480Q378 480 410 454T456 384Q486 438 531 459T630 480Q679 480 709 464T753 421T769 358T764 286L714 0H672L721 285Q729 325 725 360T698 418T625 441Q549 441 506 394T447
254L403 0H361L410 285Q418 325 414 360T387 418T314 441Q238 441 195 394T136 254L92 0H50Z" />
<glyph unicode="n" horiz-adv-x="570" d="M50 0L132 470H173L159 391Q193 439 235 459T336 480Q392 480 424 465T472 422T490 360T486 286L436 0H394L443 285Q448 314 448 342T438 392T402 428T330 441Q252 441 202 394T136 254L92 0H50Z" />
<glyph unicode="o" horiz-adv-x="590" d="M260 -10Q196 -10 151 17T83 89T59 189Q59 278 94 343T190 444T330 480Q394 480 439 453T507 381T531 281Q531 192 496 127T400 26T260 -10ZM262 28Q329 28 379 59T458 146T487 280Q487 350 446 395T328 441Q262 441 211
410T132 324T103 190Q103 120 144 74T262 28Z" />
<glyph unicode="p" horiz-adv-x="609" d="M18 -182L133 470H174L159 380Q188 430 241 455T356 480Q419 480 462 453T528 382T550 281Q550 192 517 127T424 26T286 -10Q221 -10 175 21T112 115L60 -182H18ZM284 28Q352 28 401 59T478 146T506 280Q506 350 466 395T351
441Q284 441 234 411T157 324T130 190Q130 120 169 74T284 28Z" />
<glyph unicode="q" horiz-adv-x="609" d="M400 -182L448 86Q418 38 366 14T253 -10Q190 -10 147 17T81 89T59 189Q59 278 92 343T185 444T323 480Q388 480 434 449T496 356L516 470H557L442 -182H400ZM258 28Q326 28 375 59T452 146T479 280Q479 350 440 395T325
441Q258 441 208 411T131 324T103 190Q103 120 143 74T258 28Z" />
<glyph unicode="r" horiz-adv-x="359" d="M50 0L132 470H173L157 380Q184 434 223 455T312 476Q330 476 342 475T362 470L356 432Q343 434 332 435T307 436Q243 436 198 389T134 244L92 0H50Z" />
<glyph unicode="s" horiz-adv-x="490" d="M209 -10Q150 -10 109 8T32 59L59 91Q94 60 127 44T210 28Q284 28 325 57T366 139Q366 166 351 183T295 209L197 228Q146 238 121 266T95 334Q95 398 143 439T279 480Q337 480 376 463T442 418L416 387Q391 412 359 426T278
441Q215 441 177 415T139 337Q139 309 154 293T206 269L304 250Q355 240 382 214T410 141Q410 71 357 31T209 -10Z" />
<glyph unicode="t" horiz-adv-x="358" d="M222 -6Q188 -6 166 3T132 30T117 70T119 120L173 432H62L69 470H180L204 604H246L222 470H353L346 432H215L161 121Q158 98 160 78T179 45T228 32Q241 32 255 33T277 36L271 0Q261 -3 247 -4T222 -6Z" />
<glyph unicode="u" horiz-adv-x="570" d="M232 -10Q158 -10 123 17T80 88T82 183L132 470H174L124 185Q119 156 119 128T130 78T166 42T238 28Q315 28 365 75T432 215L476 470H518L436 0H394L408 79Q375 31 333 11T232 -10Z" />
<glyph unicode="v" horiz-adv-x="523" d="M198 0L79 470H123L226 49L477 470H525L242 0H198Z" />
<glyph unicode="w" horiz-adv-x="793" d="M167 0L79 470H123L195 53L414 470H456L528 53L747 470H795L543 0H502L428 417L208 0H167Z" />
<glyph unicode="x" horiz-adv-x="523" d="M-3 0L234 243L89 470H137L263 271L459 470H515L289 243L443 0H395L260 214L53 0H-3Z" />
<glyph unicode="y" horiz-adv-x="523" d="M22 -188Q-4 -188 -27 -180T-67 -159L-47 -126Q-33 -134 -14 -142T27 -150Q52 -150 76 -138T129 -95T197 -2L79 470H123L225 44L477 470H525L242 0Q198 -72 161 -113T91 -171T22 -188Z" />
<glyph unicode="z" horiz-adv-x="445" d="M6 0L13 36L368 432H92L98 470H426L420 434L65 38H360L354 0H6Z" />
<glyph unicode="{" horiz-adv-x="374" d="M159 -252Q128 -252 106 -240T72 -204T65 -148L118 154Q121 175 119 191T103 215T60 224L67 261Q105 261 123 277T149 331L203 634Q211 681 239 709T315 738H395L387 699H323Q292 699 271 681T244 631L190 323Q185 293
168 272T106 243Q144 236 155 216T161 163L108 -145Q105 -165 109 -180T126 -204T162 -213H226L219 -252H159Z" />
<glyph unicode="|" horiz-adv-x="226" d="M6 -252L181 738H221L46 -252H6Z" />
<glyph unicode="}" horiz-adv-x="374" d="M-19 -252L-12 -213H53Q84 -213 105 -195T131 -145L185 163Q190 193 207 214T269 243Q232 251 221 271T214 323L268 631Q271 651 267 666T250 690T213 699H149L157 738H216Q247 738 270 726T304 690T311 634L258 332Q255
311 257 295T273 271T316 262L309 225Q271 225 253 209T227 155L173 -148Q165 -195 136 -223T60 -252H-19Z" />
<glyph unicode="~" horiz-adv-x="582" d="M96 264Q107 334 135 368T217 403Q247 403 270 388T314 353T354 317T397 302Q431 302 451 327T484 403H519Q508 334 480 299T398 264Q368 264 345 279T301 315T261 350T217 366Q184 366 164 341T131 264H96Z" />
<glyph unicode="&#xa0;" horiz-adv-x="253" />
<glyph unicode="&#xa1;" horiz-adv-x="230" d="M20 -182L52 0L113 305H142L97 0L65 -182H20ZM151 429Q138 429 131 436T123 455Q123 471 132 480T159 490Q172 490 179 483T187 464Q187 448 178 439T151 429Z" />
<glyph unicode="&#xa2;" horiz-adv-x="514" d="M139 -100L180 2Q121 24 90 74T59 189Q59 279 92 344T186 445T330 480Q342 480 352 480T372 477L410 570H445L405 471Q430 464 451 451T488 418L462 387Q447 403 429 414T390 432L227 31Q235 30 243 29T262 28Q302
28 337 41T409 82L424 51Q388 21 347 6T260 -10Q247 -10 235 -9T212 -5L174 -100H139ZM195 40L357 439Q350 441 343 441T328 441Q260 441 210 411T131 325T103 190Q103 136 126 97T195 40Z" />
<glyph unicode="&#xa3;" horiz-adv-x="554" d="M21 0L26 36Q62 54 85 84T118 149T129 217Q129 231 127 246T123 278H49L55 311H117Q113 335 110 360T107 412Q107 492 140 552T230 645T358 678Q410 678 462 656T551 584L527 554Q486 602 446 620T358 639Q297 639
251 610T179 530T152 410Q152 385 155 360T162 311H372L366 278H167Q169 262 170 248T172 219Q172 203 168 178T153 126T123 75T74 38H455L449 0H21Z" />
<glyph unicode="&#xa4;" horiz-adv-x="742" d="M12 -10L-12 19L187 188Q167 228 167 280Q167 342 185 393T236 483L100 650L131 678L267 513Q299 539 338 553T423 568Q471 568 506 553T566 510L763 678L787 649L587 479Q607 438 607 387Q607 326 589 275T537 185L675
17L643 -10L507 154Q475 128 436 114T351 100Q302 100 267 115T208 157L12 -10ZM352 137Q414 137 462 169T538 257T566 386Q566 453 530 492T422 531Q360 531 312 499T236 411T208 281Q208 214 244 176T352 137Z" />
<glyph unicode="&#xa5;" horiz-adv-x="642" d="M256 0L274 98H97L103 132H280L301 254H125L131 288H293L137 668H186L329 306L601 668H655L365 288H528L522 254H346L324 132H500L494 98H318L301 0H256Z" />
<glyph unicode="&#xa6;" horiz-adv-x="226" d="M100 282L181 738H221L140 282H100ZM6 -252L86 204H126L46 -252H6Z" />
<glyph unicode="&#xa7;" horiz-adv-x="595" d="M231 -192Q172 -192 131 -174T53 -123L81 -91Q115 -122 148 -138T232 -154Q306 -154 347 -121T388 -34Q388 -6 371 16T318 61L172 148Q122 178 100 207T78 271Q78 314 101 344T162 393T247 415Q218 436 200 465T181
524Q181 568 203 602T268 657T367 678Q425 678 464 661T530 616L504 585Q479 610 447 624T366 639Q303 639 265 608T226 526Q226 501 244 477T293 433L438 346Q488 316 512 289T537 220Q537 173 516 142T458 94T376 71Q401 52 416 26T432 -33Q432 -103 378 -147T231
-192ZM342 93Q406 95 449 127T492 220Q492 245 477 265T422 309L281 393Q242 393 206 380T146 340T123 272Q123 248 137 228T189 185L342 93Z" />
<glyph unicode="&#xa8;" horiz-adv-x="600" d="M455 597Q442 597 435 603T428 621Q428 636 436 643T460 651Q473 651 479 645T486 627Q486 613 478 605T455 597ZM274 597Q261 597 254 603T247 621Q247 636 255 643T279 651Q292 651 299 645T306 627Q306 613 298
605T274 597Z" />
<glyph unicode="&#xa9;" horiz-adv-x="817" d="M425 -10Q322 -10 244 34T123 156T79 334Q79 434 122 511T244 633T425 678Q527 678 605 634T726 512T770 334Q770 234 727 157T605 35T425 -10ZM430 168Q357 168 318 214T278 334Q278 408 317 454T430 500Q463 500
490 490T537 459L518 432Q499 449 477 457T429 466Q375 466 346 430T317 334Q317 274 346 238T429 202Q454 202 476 210T518 235L537 209Q518 189 491 179T430 168ZM425 23Q517 23 586 62T693 172T732 334Q732 426 694 496T586 605T425 644Q333 644 263 605T155
496T116 334Q116 242 154 172T263 63T425 23Z" />
<glyph unicode="&#xaa;" horiz-adv-x="521" d="M231 232Q165 232 124 262T83 349Q83 388 101 414T160 457T266 482L433 502Q446 570 413 603T312 637Q278 637 244 623T173 581L158 614Q192 643 231 658T312 674Q366 674 400 660T451 620T473 563T472 499L427 241H387L399
309Q374 274 332 253T231 232ZM236 269Q292 269 329 288T389 341T418 416L427 467L266 447Q185 437 155 415T124 350Q124 311 155 290T236 269Z" />
<glyph unicode="&#xab;" horiz-adv-x="450" d="M322 113L253 286L384 461H427L296 286L365 113H322ZM140 113L71 286L202 461H244L113 286L182 113H140Z" />
<glyph unicode="&#xac;" horiz-adv-x="582" d="M445 225L477 405H121L128 442H526L487 225H445Z" />
<glyph unicode="&#xad;" horiz-adv-x="368" d="M67 267L74 304H316L309 267H67Z" />
<glyph unicode="&#xae;" horiz-adv-x="615" d="M341 190Q269 190 214 221T128 308T97 434Q97 505 127 560T213 646T341 678Q415 678 469 647T555 560T586 434Q586 363 555 308T470 222T341 190ZM341 220Q405 220 452 247T525 322T552 434Q552 497 526 545T452
620T341 648Q278 648 231 621T158 545T131 434Q131 371 157 323T231 247T341 220ZM259 314V556H346Q388 556 410 540T432 488Q432 456 415 440T364 421L445 314H403L324 419H292V314H259ZM292 449H345Q371 449 384 457T397 488Q397 509 384 517T345 526H292V449Z"
/>
<glyph unicode="&#xaf;" horiz-adv-x="600" d="M245 607L251 641H487L481 607H245Z" />
<glyph unicode="&#xb0;" horiz-adv-x="379" d="M229 437Q178 437 147 465T116 540Q116 582 135 613T186 661T260 678Q312 678 342 650T373 574Q373 512 333 475T229 437ZM231 469Q276 469 306 496T337 570Q337 605 317 625T259 645Q214 645 184 619T153 544Q153
509 173 489T231 469Z" />
<glyph unicode="&#xb1;" horiz-adv-x="582" d="M253 144L284 322H106L113 360H291L323 539H365L333 360H511L504 322H326L295 144H253ZM50 0L56 38H454L448 0H50Z" />
<glyph unicode="&#xb2;" horiz-adv-x="379" d="M93 408L98 442L295 605Q322 629 334 653T347 702Q347 736 326 754T272 773Q244 773 220 763T167 725L153 754Q181 784 212 796T275 808Q325 808 357 778T389 704Q389 679 376 648T326 586L152 442H351L346 408H93Z" />
<glyph unicode="&#xb3;" horiz-adv-x="391" d="M224 402Q179 402 151 417T101 459L125 485Q146 460 169 448T224 436Q277 436 306 460T336 522Q336 556 315 575T249 595H212L218 626H259Q307 626 334 649T362 711Q362 742 343 757T282 773Q254 773 230 763T174
725L159 754Q190 783 220 795T284 808Q339 808 371 782T404 713Q404 675 377 647T304 610Q338 600 357 578T376 522Q376 467 334 435T224 402Z" />
<glyph unicode="&#xb4;" horiz-adv-x="600" d="M297 552L401 696H451L331 552H297Z" />
<glyph unicode="&#xb5;" horiz-adv-x="570" d="M17 -182L132 470H174L124 185Q119 156 119 128T130 78T166 42T238 28Q315 28 365 75T432 215L476 470H518L436 0H394L408 79Q375 31 334 11T235 -10Q128 -10 102 64L59 -182H17Z" />
<glyph unicode="&#xb6;" horiz-adv-x="550" d="M162 -182L254 335Q185 337 145 377T105 481Q105 538 130 580T198 645T299 668H532L382 -182H344L488 632H344L200 -182H162Z" />
<glyph unicode="&#xb7;" horiz-adv-x="229" d="M119 255Q106 255 99 262T91 282Q91 298 100 307T127 316Q140 316 147 309T155 290Q155 274 146 265T119 255Z" />
<glyph unicode="&#xb8;" horiz-adv-x="600" d="M217 -177Q204 -177 185 -175T156 -170L161 -143Q171 -145 187 -146T217 -147Q243 -147 258 -135T274 -100Q274 -69 231 -69H207L211 -50L248 11H280L242 -50Q276 -50 293 -63T310 -101Q310 -136 286 -156T217 -177Z" />
<glyph unicode="&#xb9;" horiz-adv-x="297" d="M194 408L256 762L144 707L130 735L267 802H303L234 408H194Z" />
<glyph unicode="&#xba;" horiz-adv-x="545" d="M277 232Q220 232 180 256T118 321T96 412Q96 493 126 552T210 642T341 674Q398 674 438 650T500 586T521 494Q521 413 492 354T408 264T277 232ZM279 269Q368 269 423 328T479 493Q479 557 443 597T339 637Q250
637 195 578T139 413Q139 349 175 309T279 269Z" />
<glyph unicode="&#xbb;" horiz-adv-x="450" d="M222 113L353 286L284 461H327L396 286L265 113H222ZM40 113L171 286L102 461H144L213 286L82 113H40Z" />
<glyph unicode="&#xbc;" horiz-adv-x="829" d="M153 0L627 668H669L194 0H153ZM170 274L232 626L121 571L106 601L243 668H279L210 274H170ZM633 0L650 99H447L454 135L710 394H742L696 133H747L741 99H689L673 0H633ZM497 133H656L691 330L497 133Z" />
<glyph unicode="&#xbd;" horiz-adv-x="860" d="M153 0L627 668H669L194 0H153ZM170 274L232 628L120 573L106 601L243 668H279L210 274H170ZM501 0L507 34L703 197Q731 221 743 245T756 294Q756 328 735 346T681 365Q653 365 629 355T576 317L561 346Q589 376
621 388T684 400Q733 400 765 370T798 296Q798 271 785 240T735 178L561 34H761L755 0H501Z" />
<glyph unicode="&#xbe;" horiz-adv-x="908" d="M232 0L706 668H748L273 0H232ZM200 268Q155 268 127 283T77 325L101 351Q122 326 145 314T200 302Q253 302 282 326T312 388Q312 422 291 441T225 461H188L194 492H235Q283 492 310 515T338 577Q338 608 319 623T258
639Q230 639 206 629T150 591L135 620Q166 649 196 661T260 674Q315 674 347 648T380 579Q380 541 353 513T280 476Q314 466 333 444T352 388Q352 333 310 301T200 268ZM712 0L729 99H526L533 135L789 394H821L775 133H826L820 99H768L752 0H712ZM576 133H735L770
330L576 133Z" />
<glyph unicode="&#xbf;" horiz-adv-x="472" d="M184 -192Q133 -192 92 -171T27 -113T2 -30Q2 11 22 42T75 98T139 149T197 205T230 278L234 305H270L265 277Q258 232 234 199T178 138T118 86T69 34T49 -27Q49 -82 87 -118T187 -154Q231 -154 272 -135T360 -68L375
-102Q331 -152 284 -172T184 -192ZM276 429Q263 429 256 436T248 455Q248 472 258 481T284 490Q297 490 304 483T312 464Q312 448 302 439T276 429Z" />
<glyph unicode="&#xc0;" horiz-adv-x="693" d="M-3 0L398 668H445L613 0H567L527 165H146L48 0H-3ZM169 205H517L416 617L169 205ZM420 750L350 894H395L449 750H420Z" />
<glyph unicode="&#xc1;" horiz-adv-x="693" d="M-3 0L398 668H445L613 0H567L527 165H146L48 0H-3ZM169 205H517L416 617L169 205ZM424 750L528 894H578L458 750H424Z" />
<glyph unicode="&#xc2;" horiz-adv-x="693" d="M-3 0L398 668H445L613 0H567L527 165H146L48 0H-3ZM169 205H517L416 617L169 205ZM310 750L440 894H486L566 750H529L462 867L353 750H310Z" />
<glyph unicode="&#xc3;" horiz-adv-x="693" d="M-3 0L398 668H445L613 0H567L527 165H146L48 0H-3ZM169 205H517L416 617L169 205ZM302 769Q311 830 333 852T388 875Q411 875 427 864T456 839T482 813T511 801Q529 801 542 815T567 875H597Q589 814 567 792T512
769Q489 769 473 780T444 805T417 831T389 843Q371 843 357 829T333 769H302Z" />
<glyph unicode="&#xc4;" horiz-adv-x="693" d="M-3 0L398 668H445L613 0H567L527 165H146L48 0H-3ZM169 205H517L416 617L169 205ZM538 795Q525 795 518 801T511 819Q511 834 519 841T543 849Q556 849 562 843T569 825Q569 811 561 803T538 795ZM357 795Q344 795
337 801T330 819Q330 834 338 841T362 849Q375 849 382 843T389 825Q389 811 381 803T357 795Z" />
<glyph unicode="&#xc5;" horiz-adv-x="693" d="M-3 0L398 668H445L613 0H567L527 165H146L48 0H-3ZM169 205H517L416 617L169 205ZM437 720Q391 720 366 746T340 808Q340 858 373 891T462 924Q508 924 534 898T560 836Q560 786 527 753T437 720ZM440 749Q478 749
502 772T526 831Q526 857 510 876T460 895Q422 895 398 872T373 813Q373 787 390 768T440 749Z" />
<glyph unicode="&#xc6;" horiz-adv-x="981" d="M-3 0L550 668H996L989 627H599L553 364H913L906 324H546L496 41H886L879 0H444L473 165H187L51 0H-3ZM220 205H480L551 606L220 205Z" />
<glyph unicode="&#xc7;" horiz-adv-x="670" d="M355 -10Q274 -10 211 24T111 123T74 273Q74 397 123 488T259 628T457 678Q520 678 575 657T674 599L647 567Q612 597 565 617T455 637Q358 637 283 594T164 469T121 273Q121 198 150 144T233 61T357 31Q419 31 470
48T566 101L583 64Q535 27 479 9T355 -10ZM286 -177Q273 -177 254 -175T225 -170L230 -143Q240 -145 256 -146T286 -147Q312 -147 327 -135T343 -100Q343 -69 300 -69H276L280 -50L317 11H349L311 -50Q345 -50 362 -63T379 -101Q379 -136 355 -156T286 -177Z" />
<glyph unicode="&#xc8;" horiz-adv-x="587" d="M51 0L168 668H602L595 627H206L160 364H519L512 324H153L103 41H492L485 0H51ZM367 750L297 894H342L396 750H367Z" />
<glyph unicode="&#xc9;" horiz-adv-x="587" d="M51 0L168 668H602L595 627H206L160 364H519L512 324H153L103 41H492L485 0H51ZM371 750L475 894H525L405 750H371Z" />
<glyph unicode="&#xca;" horiz-adv-x="587" d="M51 0L168 668H602L595 627H206L160 364H519L512 324H153L103 41H492L485 0H51ZM257 750L387 894H433L513 750H476L409 867L300 750H257Z" />
<glyph unicode="&#xcb;" horiz-adv-x="587" d="M51 0L168 668H602L595 627H206L160 364H519L512 324H153L103 41H492L485 0H51ZM485 795Q472 795 465 801T458 819Q458 834 466 841T490 849Q503 849 509 843T516 825Q516 811 508 803T485 795ZM304 795Q291 795
284 801T277 819Q277 834 285 841T309 849Q322 849 329 843T336 825Q336 811 328 803T304 795Z" />
<glyph unicode="&#xcc;" horiz-adv-x="230" d="M51 0L168 668H213L96 0H51ZM188 750L118 894H163L217 750H188Z" />
<glyph unicode="&#xcd;" horiz-adv-x="230" d="M51 0L168 668H213L96 0H51ZM192 750L296 894H346L226 750H192Z" />
<glyph unicode="&#xce;" horiz-adv-x="230" d="M51 0L168 668H213L96 0H51ZM78 750L208 894H254L334 750H297L230 867L121 750H78Z" />
<glyph unicode="&#xcf;" horiz-adv-x="230" d="M51 0L168 668H213L96 0H51ZM307 795Q294 795 287 801T280 819Q280 834 288 841T312 849Q325 849 331 843T338 825Q338 811 330 803T307 795ZM126 795Q113 795 106 801T99 819Q99 834 107 841T131 849Q144 849 151
843T158 825Q158 811 150 803T126 795Z" />
<glyph unicode="&#xd0;" horiz-adv-x="710" d="M51 0L107 326H25L31 362H114L168 668H375Q517 668 592 600T668 395Q668 202 567 101T277 0H51ZM103 41H270Q444 41 532 129T621 394Q621 521 556 574T364 627H206L159 362H373L367 326H152L103 41Z" />
<glyph unicode="&#xd1;" horiz-adv-x="720" d="M51 0L168 668H221L550 55L657 668H702L585 0H532L203 613L96 0H51ZM315 769Q324 830 346 852T401 875Q424 875 440 864T469 839T495 813T524 801Q542 801 555 815T580 875H610Q602 814 580 792T525 769Q502 769
486 780T457 805T430 831T402 843Q384 843 370 829T346 769H315Z" />
<glyph unicode="&#xd2;" horiz-adv-x="780" d="M355 -10Q274 -10 211 24T111 123T74 273Q74 397 123 488T259 628T456 678Q537 678 601 643T701 545T738 394Q738 270 689 180T554 40T355 -10ZM357 31Q454 31 529 74T647 199T691 394Q691 470 661 524T578 607T455
637Q358 637 283 594T164 469T121 273Q121 199 150 145T233 61T357 31ZM463 750L393 894H438L492 750H463Z" />
<glyph unicode="&#xd3;" horiz-adv-x="780" d="M355 -10Q274 -10 211 24T111 123T74 273Q74 397 123 488T259 628T456 678Q537 678 601 643T701 545T738 394Q738 270 689 180T554 40T355 -10ZM357 31Q454 31 529 74T647 199T691 394Q691 470 661 524T578 607T455
637Q358 637 283 594T164 469T121 273Q121 199 150 145T233 61T357 31ZM467 750L571 894H621L501 750H467Z" />
<glyph unicode="&#xd4;" horiz-adv-x="780" d="M355 -10Q274 -10 211 24T111 123T74 273Q74 397 123 488T259 628T456 678Q537 678 601 643T701 545T738 394Q738 270 689 180T554 40T355 -10ZM357 31Q454 31 529 74T647 199T691 394Q691 470 661 524T578 607T455
637Q358 637 283 594T164 469T121 273Q121 199 150 145T233 61T357 31ZM353 750L483 894H529L609 750H572L505 867L396 750H353Z" />
<glyph unicode="&#xd5;" horiz-adv-x="780" d="M355 -10Q274 -10 211 24T111 123T74 273Q74 397 123 488T259 628T456 678Q537 678 601 643T701 545T738 394Q738 270 689 180T554 40T355 -10ZM357 31Q454 31 529 74T647 199T691 394Q691 470 661 524T578 607T455
637Q358 637 283 594T164 469T121 273Q121 199 150 145T233 61T357 31ZM345 769Q354 830 376 852T431 875Q454 875 470 864T499 839T525 813T554 801Q572 801 585 815T610 875H640Q632 814 610 792T555 769Q532 769 516 780T487 805T460 831T432 843Q414 843 400
829T376 769H345Z" />
<glyph unicode="&#xd6;" horiz-adv-x="780" d="M355 -10Q274 -10 211 24T111 123T74 273Q74 397 123 488T259 628T456 678Q537 678 601 643T701 545T738 394Q738 270 689 180T554 40T355 -10ZM357 31Q454 31 529 74T647 199T691 394Q691 470 661 524T578 607T455
637Q358 637 283 594T164 469T121 273Q121 199 150 145T233 61T357 31ZM581 795Q568 795 561 801T554 819Q554 834 562 841T586 849Q599 849 605 843T612 825Q612 811 604 803T581 795ZM400 795Q387 795 380 801T373 819Q373 834 381 841T405 849Q418 849 425 843T432
825Q432 811 424 803T400 795Z" />
<glyph unicode="&#xd7;" horiz-adv-x="582" d="M102 135L78 164L277 334L138 504L173 533L312 364L512 533L536 504L337 334L476 164L442 135L302 304L102 135Z" />
<glyph unicode="&#xd8;" horiz-adv-x="780" d="M44 -10L23 14L123 103Q100 137 87 179T74 273Q74 397 123 488T259 628T457 678Q523 678 576 655T668 589L769 678L790 654L689 564Q712 529 725 487T738 395Q738 270 689 180T554 40T355 -10Q289 -10 235 12T143
78L44 -10ZM357 31Q454 31 529 74T647 199T691 394Q691 435 682 470T655 533L175 107Q239 31 357 31ZM156 133L636 560Q605 597 559 617T455 637Q358 637 283 594T164 469T121 273Q121 191 156 133Z" />
<glyph unicode="&#xd9;" horiz-adv-x="720" d="M325 -10Q238 -10 183 26T106 127T100 278L168 668H213L144 277Q137 230 140 187T163 108T223 52T327 31Q395 31 447 52T535 124T585 258L657 668H702L630 258Q613 162 573 103T470 17T325 -10ZM433 750L363 894H408L462
750H433Z" />
<glyph unicode="&#xda;" horiz-adv-x="720" d="M325 -10Q238 -10 183 26T106 127T100 278L168 668H213L144 277Q137 230 140 187T163 108T223 52T327 31Q395 31 447 52T535 124T585 258L657 668H702L630 258Q613 162 573 103T470 17T325 -10ZM437 750L541 894H591L471
750H437Z" />
<glyph unicode="&#xdb;" horiz-adv-x="720" d="M325 -10Q238 -10 183 26T106 127T100 278L168 668H213L144 277Q137 230 140 187T163 108T223 52T327 31Q395 31 447 52T535 124T585 258L657 668H702L630 258Q613 162 573 103T470 17T325 -10ZM323 750L453 894H499L579
750H542L475 867L366 750H323Z" />
<glyph unicode="&#xdc;" horiz-adv-x="720" d="M325 -10Q238 -10 183 26T106 127T100 278L168 668H213L144 277Q137 230 140 187T163 108T223 52T327 31Q395 31 447 52T535 124T585 258L657 668H702L630 258Q613 162 573 103T470 17T325 -10ZM551 795Q538 795
531 801T524 819Q524 834 532 841T556 849Q569 849 575 843T582 825Q582 811 574 803T551 795ZM370 795Q357 795 350 801T343 819Q343 834 351 841T375 849Q388 849 395 843T402 825Q402 811 394 803T370 795Z" />
<glyph unicode="&#xdd;" horiz-adv-x="673" d="M272 0L319 265L114 668H164L345 305L654 668H710L364 265L317 0H272ZM414 750L518 894H568L448 750H414Z" />
<glyph unicode="&#xde;" horiz-adv-x="633" d="M51 0L168 668H213L194 561H380Q482 561 537 508T592 371Q592 282 558 223T462 136T320 107H114L96 0H51ZM122 148H311Q379 148 431 170T514 241T544 369Q544 436 501 478T367 520H187L122 148Z" />
<glyph unicode="&#xdf;" horiz-adv-x="609" d="M336 -10Q317 -10 293 -7T256 0L261 37Q272 34 293 31T333 28Q405 28 451 76T497 220Q497 283 449 308T314 333L321 369Q374 369 417 386T485 436T511 520Q511 574 472 607T364 640Q287 640 237 591T170 446L92 0H50L128
443Q148 556 208 617T365 678Q422 678 464 658T531 603T555 522Q555 453 515 411T409 353Q475 341 508 308T541 220Q541 155 517 103T448 20T336 -10Z" />
<glyph unicode="&#xe0;" horiz-adv-x="560" d="M207 -10Q135 -10 89 24T43 120Q43 163 64 192T130 239T246 266L434 289Q439 308 438 334T425 384T382 425T297 441Q260 441 222 426T143 379L126 413Q164 445 208 462T297 480Q358 480 396 463T453 417T477 355T476
286L426 0H384L398 80Q372 39 324 15T207 -10ZM212 28Q273 28 315 50T383 109T417 191L427 252L245 230Q155 219 120 194T85 122Q85 77 120 53T212 28ZM574 552L504 696H549L603 552H574Z" />
<glyph unicode="&#xe1;" horiz-adv-x="560" d="M207 -10Q135 -10 89 24T43 120Q43 163 64 192T130 239T246 266L434 289Q439 308 438 334T425 384T382 425T297 441Q260 441 222 426T143 379L126 413Q164 445 208 462T297 480Q358 480 396 463T453 417T477 355T476
286L426 0H384L398 80Q372 39 324 15T207 -10ZM212 28Q273 28 315 50T383 109T417 191L427 252L245 230Q155 219 120 194T85 122Q85 77 120 53T212 28ZM322 552L426 696H476L356 552H322Z" />
<glyph unicode="&#xe2;" horiz-adv-x="560" d="M207 -10Q135 -10 89 24T43 120Q43 163 64 192T130 239T246 266L434 289Q439 308 438 334T425 384T382 425T297 441Q260 441 222 426T143 379L126 413Q164 445 208 462T297 480Q358 480 396 463T453 417T477 355T476
286L426 0H384L398 80Q372 39 324 15T207 -10ZM212 28Q273 28 315 50T383 109T417 191L427 252L245 230Q155 219 120 194T85 122Q85 77 120 53T212 28ZM464 552L594 696H640L720 552H683L616 669L507 552H464Z" />
<glyph unicode="&#xe3;" horiz-adv-x="560" d="M207 -10Q135 -10 89 24T43 120Q43 163 64 192T130 239T246 266L434 289Q439 308 438 334T425 384T382 425T297 441Q260 441 222 426T143 379L126 413Q164 445 208 462T297 480Q358 480 396 463T453 417T477 355T476
286L426 0H384L398 80Q372 39 324 15T207 -10ZM212 28Q273 28 315 50T383 109T417 191L427 252L245 230Q155 219 120 194T85 122Q85 77 120 53T212 28ZM456 571Q465 632 487 654T542 677Q565 677 581 666T610 641T636 615T665 603Q683 603 696 617T721 677H751Q743
616 721 594T666 571Q643 571 627 582T598 607T571 633T543 645Q525 645 511 631T487 571H456Z" />
<glyph unicode="&#xe4;" horiz-adv-x="560" d="M207 -10Q135 -10 89 24T43 120Q43 163 64 192T130 239T246 266L434 289Q439 308 438 334T425 384T382 425T297 441Q260 441 222 426T143 379L126 413Q164 445 208 462T297 480Q358 480 396 463T453 417T477 355T476
286L426 0H384L398 80Q372 39 324 15T207 -10ZM212 28Q273 28 315 50T383 109T417 191L427 252L245 230Q155 219 120 194T85 122Q85 77 120 53T212 28ZM692 597Q679 597 672 603T665 621Q665 636 673 643T697 651Q710 651 716 645T723 627Q723 613 715 605T692
597ZM511 597Q498 597 491 603T484 621Q484 636 492 643T516 651Q529 651 536 645T543 627Q543 613 535 605T511 597Z" />
<glyph unicode="&#xe5;" horiz-adv-x="560" d="M207 -10Q135 -10 89 24T43 120Q43 163 64 192T130 239T246 266L434 289Q439 308 438 334T425 384T382 425T297 441Q260 441 222 426T143 379L126 413Q164 445 208 462T297 480Q358 480 396 463T453 417T477 355T476
286L426 0H384L398 80Q372 39 324 15T207 -10ZM212 28Q273 28 315 50T383 109T417 191L427 252L245 230Q155 219 120 194T85 122Q85 77 120 53T212 28ZM591 522Q545 522 520 548T494 610Q494 660 527 693T616 726Q662 726 688 700T714 638Q714 588 681 555T591
522ZM594 551Q632 551 656 574T680 633Q680 659 664 678T614 697Q576 697 552 674T527 615Q527 589 544 570T594 551Z" />
<glyph unicode="&#xe6;" horiz-adv-x="923" d="M207 -10Q135 -10 89 24T43 120Q43 163 64 192T130 239T246 266L434 289Q439 308 438 334T425 384T382 425T297 441Q260 441 222 426T143 379L126 413Q164 445 208 462T297 480Q368 480 414 452T473 369Q505 422
559 451T683 480Q767 480 815 430T864 294Q864 281 860 261T845 225H468Q462 201 466 168T487 102T539 49T627 28Q674 28 716 43T792 90L809 56Q773 23 728 7T624 -10Q544 -10 497 29T434 131Q400 55 341 23T207 -10ZM212 28Q273 28 315 50T382 109T417 191L427
252L245 230Q155 218 120 193T85 122Q85 77 120 53T212 28ZM472 263H815Q820 277 820 295Q820 367 784 404T681 441Q604 441 547 394T472 263Z" />
<glyph unicode="&#xe7;" horiz-adv-x="514" d="M260 -10Q196 -10 151 17T83 89T59 189Q59 278 94 343T190 444T330 480Q385 480 423 464T488 418L462 387Q436 416 403 428T328 441Q261 441 211 411T132 324T103 190Q103 120 144 74T262 28Q302 28 337 41T409 82L424
51Q388 21 347 6T260 -10ZM451 -177Q438 -177 419 -175T390 -170L395 -143Q405 -145 421 -146T451 -147Q477 -147 492 -135T508 -100Q508 -69 465 -69H441L445 -50L482 11H514L476 -50Q510 -50 527 -63T544 -101Q544 -136 520 -156T451 -177Z" />
<glyph unicode="&#xe8;" horiz-adv-x="560" d="M260 -10Q197 -10 152 17T83 89T59 189Q59 279 94 344T189 445T320 480Q403 480 452 430T501 294Q501 281 496 261T482 225H105Q100 187 107 152T133 89T184 45T263 28Q311 28 353 43T429 90L446 56Q409 23 364 7T260
-10ZM110 263H452Q457 276 457 295Q457 367 421 404T318 441Q269 441 226 420T152 360T110 263ZM571 552L501 696H546L600 552H571Z" />
<glyph unicode="&#xe9;" horiz-adv-x="560" d="M260 -10Q197 -10 152 17T83 89T59 189Q59 279 94 344T189 445T320 480Q403 480 452 430T501 294Q501 281 496 261T482 225H105Q100 187 107 152T133 89T184 45T263 28Q311 28 353 43T429 90L446 56Q409 23 364 7T260
-10ZM110 263H452Q457 276 457 295Q457 367 421 404T318 441Q269 441 226 420T152 360T110 263ZM320 552L424 696H474L354 552H320Z" />
<glyph unicode="&#xea;" horiz-adv-x="560" d="M260 -10Q197 -10 152 17T83 89T59 189Q59 279 94 344T189 445T320 480Q403 480 452 430T501 294Q501 281 496 261T482 225H105Q100 187 107 152T133 89T184 45T263 28Q311 28 353 43T429 90L446 56Q409 23 364 7T260
-10ZM110 263H452Q457 276 457 295Q457 367 421 404T318 441Q269 441 226 420T152 360T110 263ZM462 552L592 696H638L718 552H681L614 669L505 552H462Z" />
<glyph unicode="&#xeb;" horiz-adv-x="560" d="M260 -10Q197 -10 152 17T83 89T59 189Q59 279 94 344T189 445T320 480Q403 480 452 430T501 294Q501 281 496 261T482 225H105Q100 187 107 152T133 89T184 45T263 28Q311 28 353 43T429 90L446 56Q409 23 364 7T260
-10ZM110 263H452Q457 276 457 295Q457 367 421 404T318 441Q269 441 226 420T152 360T110 263ZM690 597Q677 597 670 603T663 621Q663 636 671 643T695 651Q708 651 714 645T721 627Q721 613 713 605T690 597ZM509 597Q496 597 489 603T482 621Q482 636 490 643T514
651Q527 651 534 645T541 627Q541 613 533 605T509 597Z" />
<glyph unicode="&#xec;" horiz-adv-x="226" d="M50 0L132 470H174L92 0H50ZM151 552L81 696H126L180 552H151Z" />
<glyph unicode="&#xed;" horiz-adv-x="226" d="M50 0L132 470H174L92 0H50ZM155 552L259 696H309L189 552H155Z" />
<glyph unicode="&#xee;" horiz-adv-x="226" d="M50 0L132 470H174L92 0H50ZM41 552L171 696H217L297 552H260L193 669L84 552H41Z" />
<glyph unicode="&#xef;" horiz-adv-x="226" d="M50 0L132 470H174L92 0H50ZM269 597Q256 597 249 603T242 621Q242 636 250 643T274 651Q287 651 293 645T300 627Q300 613 292 605T269 597ZM88 597Q75 597 68 603T61 621Q61 636 69 643T93 651Q106 651 113 645T120
627Q120 613 112 605T88 597Z" />
<glyph unicode="&#xf0;" horiz-adv-x="590" d="M260 -10Q199 -10 153 15T80 84T54 185Q54 265 86 321T178 408T316 438Q362 438 396 421T453 376L344 576L232 532L239 568L330 604L295 668H340L367 617L498 668L492 632L382 589L465 435Q495 378 510 332T526 246Q526
166 493 109T401 21T260 -10ZM262 28Q323 28 372 52T452 124T482 244Q482 313 438 357T319 402Q259 402 209 378T128 307T98 186Q98 141 118 106T175 49T262 28Z" />
<glyph unicode="&#xf1;" horiz-adv-x="570" d="M50 0L132 470H173L159 391Q193 439 235 459T336 480Q392 480 424 465T472 422T490 360T486 286L436 0H394L443 285Q448 314 448 342T438 392T402 428T330 441Q252 441 202 394T136 254L92 0H50ZM461 571Q470 632
492 654T547 677Q570 677 586 666T615 641T641 615T670 603Q688 603 701 617T726 677H756Q748 616 726 594T671 571Q648 571 632 582T603 607T576 633T548 645Q530 645 516 631T492 571H461Z" />
<glyph unicode="&#xf2;" horiz-adv-x="590" d="M260 -10Q196 -10 151 17T83 89T59 189Q59 278 94 343T190 444T330 480Q394 480 439 453T507 381T531 281Q531 192 496 127T400 26T260 -10ZM262 28Q329 28 379 59T458 146T487 280Q487 350 446 395T328 441Q262
441 211 410T132 324T103 190Q103 120 144 74T262 28ZM589 552L519 696H564L618 552H589Z" />
<glyph unicode="&#xf3;" horiz-adv-x="590" d="M260 -10Q196 -10 151 17T83 89T59 189Q59 278 94 343T190 444T330 480Q394 480 439 453T507 381T531 281Q531 192 496 127T400 26T260 -10ZM262 28Q329 28 379 59T458 146T487 280Q487 350 446 395T328 441Q262
441 211 410T132 324T103 190Q103 120 144 74T262 28ZM337 552L441 696H491L371 552H337Z" />
<glyph unicode="&#xf4;" horiz-adv-x="590" d="M260 -10Q196 -10 151 17T83 89T59 189Q59 278 94 343T190 444T330 480Q394 480 439 453T507 381T531 281Q531 192 496 127T400 26T260 -10ZM262 28Q329 28 379 59T458 146T487 280Q487 350 446 395T328 441Q262
441 211 410T132 324T103 190Q103 120 144 74T262 28ZM479 552L609 696H655L735 552H698L631 669L522 552H479Z" />
<glyph unicode="&#xf5;" horiz-adv-x="590" d="M260 -10Q196 -10 151 17T83 89T59 189Q59 278 94 343T190 444T330 480Q394 480 439 453T507 381T531 281Q531 192 496 127T400 26T260 -10ZM262 28Q329 28 379 59T458 146T487 280Q487 350 446 395T328 441Q262
441 211 410T132 324T103 190Q103 120 144 74T262 28ZM471 571Q480 632 502 654T557 677Q580 677 596 666T625 641T651 615T680 603Q698 603 711 617T736 677H766Q758 616 736 594T681 571Q658 571 642 582T613 607T586 633T558 645Q540 645 526 631T502 571H471Z"
/>
<glyph unicode="&#xf6;" horiz-adv-x="590" d="M260 -10Q196 -10 151 17T83 89T59 189Q59 278 94 343T190 444T330 480Q394 480 439 453T507 381T531 281Q531 192 496 127T400 26T260 -10ZM262 28Q329 28 379 59T458 146T487 280Q487 350 446 395T328 441Q262
441 211 410T132 324T103 190Q103 120 144 74T262 28ZM707 597Q694 597 687 603T680 621Q680 636 688 643T712 651Q725 651 731 645T738 627Q738 613 730 605T707 597ZM526 597Q513 597 506 603T499 621Q499 636 507 643T531 651Q544 651 551 645T558 627Q558 613
550 605T526 597Z" />
<glyph unicode="&#xf7;" horiz-adv-x="582" d="M105 315L112 353H510L503 315H105ZM273 132Q260 132 253 139T245 158Q245 173 254 182T280 192Q293 192 300 185T308 166Q308 150 299 141T273 132ZM334 476Q321 476 314 483T306 502Q306 517 315 526T341 536Q354
536 361 529T368 509Q368 495 359 486T334 476Z" />
<glyph unicode="&#xf8;" horiz-adv-x="590" d="M44 -10L22 13L544 480L565 457L44 -10ZM260 -10Q196 -10 151 17T83 89T59 189Q59 278 94 343T190 444T330 480Q394 480 439 453T507 381T531 281Q531 192 496 127T400 26T260 -10ZM262 28Q329 28 379 59T458 146T487
280Q487 350 446 395T328 441Q262 441 211 410T132 324T103 190Q103 120 144 74T262 28Z" />
<glyph unicode="&#xf9;" horiz-adv-x="570" d="M232 -10Q158 -10 123 17T80 88T82 183L132 470H174L124 185Q119 156 119 128T130 78T166 42T238 28Q315 28 365 75T432 215L476 470H518L436 0H394L408 79Q375 31 333 11T232 -10ZM579 552L509 696H554L608 552H579Z" />
<glyph unicode="&#xfa;" horiz-adv-x="570" d="M232 -10Q158 -10 123 17T80 88T82 183L132 470H174L124 185Q119 156 119 128T130 78T166 42T238 28Q315 28 365 75T432 215L476 470H518L436 0H394L408 79Q375 31 333 11T232 -10ZM327 552L431 696H481L361 552H327Z" />
<glyph unicode="&#xfb;" horiz-adv-x="570" d="M232 -10Q158 -10 123 17T80 88T82 183L132 470H174L124 185Q119 156 119 128T130 78T166 42T238 28Q315 28 365 75T432 215L476 470H518L436 0H394L408 79Q375 31 333 11T232 -10ZM469 552L599 696H645L725 552H688L621
669L512 552H469Z" />
<glyph unicode="&#xfc;" horiz-adv-x="570" d="M232 -10Q158 -10 123 17T80 88T82 183L132 470H174L124 185Q119 156 119 128T130 78T166 42T238 28Q315 28 365 75T432 215L476 470H518L436 0H394L408 79Q375 31 333 11T232 -10ZM697 597Q684 597 677 603T670
621Q670 636 678 643T702 651Q715 651 721 645T728 627Q728 613 720 605T697 597ZM516 597Q503 597 496 603T489 621Q489 636 497 643T521 651Q534 651 541 645T548 627Q548 613 540 605T516 597Z" />
<glyph unicode="&#xfd;" horiz-adv-x="523" d="M22 -188Q-4 -188 -27 -180T-67 -159L-47 -126Q-33 -134 -14 -142T27 -150Q52 -150 76 -138T129 -95T197 -2L79 470H123L225 44L477 470H525L242 0Q198 -72 161 -113T91 -171T22 -188ZM304 552L408 696H458L338 552H304Z" />
<glyph unicode="&#xfe;" horiz-adv-x="609" d="M18 -182L167 668H209L159 383Q192 431 240 455T356 480Q418 480 461 453T527 382T550 281Q550 198 521 132T433 28T286 -10Q222 -10 175 22T113 118L60 -182H18ZM284 28Q355 28 404 60T480 148T506 280Q506 353
466 397T351 441Q280 441 231 410T156 322T130 190Q130 117 170 73T284 28Z" />
<glyph unicode="&#xff;" horiz-adv-x="523" d="M22 -188Q-4 -188 -27 -180T-67 -159L-47 -126Q-33 -134 -14 -142T27 -150Q52 -150 76 -138T129 -95T197 -2L79 470H123L225 44L477 470H525L242 0Q198 -72 161 -113T91 -171T22 -188ZM674 597Q661 597 654 603T647
621Q647 636 655 643T679 651Q692 651 698 645T705 627Q705 613 697 605T674 597ZM493 597Q480 597 473 603T466 621Q466 636 474 643T498 651Q511 651 518 645T525 627Q525 613 517 605T493 597Z" />
<glyph unicode="&#x2013;" horiz-adv-x="568" d="M67 267L74 304H516L509 267H67Z" />
<glyph unicode="&#x2014;" horiz-adv-x="798" d="M67 267L74 304H746L739 267H67Z" />
<glyph unicode="&#x2018;" horiz-adv-x="230" d="M134 467L146 537Q155 583 170 614T216 668L242 656Q227 638 217 621T201 583T189 537L176 467H134Z" />
<glyph unicode="&#x2019;" horiz-adv-x="230" d="M128 467L104 479Q119 498 129 515T146 552T157 598L169 668H211L199 598Q191 551 176 520T128 467Z" />
<glyph unicode="&#x201a;" horiz-adv-x="230" d="M21 -146L-4 -134Q11 -115 21 -98T38 -61T49 -15L62 55H104L91 -15Q83 -62 68 -92T21 -146Z" />
<glyph unicode="&#x201c;" horiz-adv-x="376" d="M279 467L292 537Q300 583 315 614T362 668L387 656Q373 638 363 621T346 583T334 537L322 467H279ZM134 467L146 537Q155 583 170 614T216 668L242 656Q227 638 217 621T201 583T189 537L176 467H134Z" />
<glyph unicode="&#x201d;" horiz-adv-x="376" d="M274 467L249 479Q264 498 274 515T291 552T302 598L314 668H357L345 598Q336 551 321 520T274 467ZM128 467L104 479Q119 498 129 515T146 552T157 598L169 668H211L199 598Q191 551 176 520T128 467Z" />
<glyph unicode="&#x201e;" horiz-adv-x="376" d="M167 -146L142 -134Q157 -115 167 -98T184 -61T195 -15L207 55H250L237 -15Q229 -62 214 -92T167 -146ZM21 -146L-4 -134Q11 -115 21 -98T38 -61T49 -15L62 55H104L91 -15Q83 -62 68 -92T21 -146Z" />
<glyph unicode="&#x2022;" horiz-adv-x="333" d="M183 197Q145 197 123 219T100 275Q100 320 129 347T205 374Q243 374 265 353T288 297Q288 252 259 225T183 197Z" />
<glyph unicode="&#x2039;" horiz-adv-x="268" d="M140 113L71 286L202 461H244L113 286L182 113H140Z" />
<glyph unicode="&#x203a;" horiz-adv-x="268" d="M40 113L171 286L102 461H144L213 286L82 113H40Z" />
</font>
</defs>
</svg>
