<?xml version="1.0" standalone="no"?>
<!DOCTYPE svg PUBLIC "-//W3C//DTD SVG 1.1//EN" "http://www.w3.org/Graphics/SVG/1.1/DTD/svg11.dtd">
<svg xmlns="http://www.w3.org/2000/svg">
<defs >
<font id="Gantari" horiz-adv-x="563" ><font-face
    font-family="Gantari Medium"
    units-per-em="1000"
    panose-1="0 0 0 0 0 0 0 0 0 0"
    ascent="950"
    descent="-250"
    alphabetic="0" />
<glyph unicode=" " horiz-adv-x="241" />
<glyph unicode="!" horiz-adv-x="258" d="M96 202L79 486V668H179V486L163 202H96ZM129 -6Q103 -6 87 9T71 48Q71 72 87 87T129 103Q155 103 171 88T187 48Q187 25 171 10T129 -6Z" />
<glyph unicode="&quot;" horiz-adv-x="436" d="M273 388L260 668H354L340 388H273ZM96 388L81 668H177L163 388H96Z" />
<glyph unicode="#" horiz-adv-x="635" d="M98 0L129 176H27L38 243H141L174 425H71L83 492H185L216 668H298L266 492H424L456 668H538L506 492H608L597 425H494L462 243H564L552 176H450L420 0H338L368 176H211L180 0H98ZM223 243H380L413 425H255L223 243Z" />
<glyph unicode="$" horiz-adv-x="592" d="M166 -100L189 2Q152 13 118 32T49 80L89 159Q121 133 151 117T210 90L258 302L237 306Q148 323 109 367T69 474Q69 530 94 576T171 650T302 678Q313 678 323 678T345 676L366 768H426L402 665Q434 657 464 641T524 602L483
524Q457 542 433 555T382 578L338 385L375 378Q463 362 503 312T544 199Q544 105 479 48T290 -10Q278 -10 268 -9T247 -7L226 -100H166ZM267 78Q273 77 278 77T290 77Q363 77 402 106T441 189Q441 226 417 251T347 285L316 291L267 78ZM280 396L325 590Q320 591
315 591T304 591Q238 591 205 563T171 487Q171 450 194 430T263 400L280 396Z" />
<glyph unicode="%" horiz-adv-x="946" d="M258 0L613 668H688L334 0H258ZM210 268Q158 268 122 294T68 366T49 471Q49 530 67 576T122 648T210 674Q262 674 297 648T351 576T370 471Q370 412 352 366T298 294T210 268ZM209 331Q246 331 269 364T293 471Q293 544
270 578T209 612Q172 612 149 578T126 471Q126 398 149 365T209 331ZM737 -6Q685 -6 649 20T595 92T576 197Q576 256 594 302T649 374T737 400Q790 400 825 374T879 302T898 197Q898 138 880 92T826 20T737 -6ZM737 57Q774 57 797 90T821 197Q821 270 798 304T737
338Q700 338 677 304T654 197Q654 124 677 91T737 57Z" />
<glyph unicode="&amp;" horiz-adv-x="672" d="M256 -10Q190 -10 144 14T73 79T49 167Q49 230 81 274T177 344L207 356Q166 401 151 437T135 508Q135 554 156 593T218 655T319 678Q379 678 420 655T482 593T504 508Q504 457 474 418T373 350L342 337L463 212L538
324H636L519 154L668 0H547L467 84Q423 34 374 12T256 -10ZM262 76Q300 76 337 90T411 143L262 299L223 282Q186 266 166 240T145 175Q145 132 177 104T262 76ZM292 389L335 407Q376 424 393 446T410 505Q410 546 387 572T319 598Q276 598 253 572T229 505Q229
477 244 451T292 389Z" />
<glyph unicode="&apos;" horiz-adv-x="258" d="M96 388L81 668H177L162 388H96Z" />
<glyph unicode="(" horiz-adv-x="344" d="M244 -252Q206 -222 173 -170T114 -50T74 93T59 243Q59 318 73 393T113 535T172 655T244 738H317Q283 705 253 652T201 532T165 392T151 243Q151 168 164 94T200 -46T253 -165T317 -252H244Z" />
<glyph unicode=")" horiz-adv-x="344" d="M28 -252Q61 -218 91 -165T144 -46T180 94T193 243Q193 318 180 392T144 532T91 652T28 738H101Q139 708 172 656T231 536T271 393T286 243Q286 168 272 93T231 -49T172 -169T101 -252H28Z" />
<glyph unicode="*" horiz-adv-x="487" d="M161 296L100 339L199 460L49 499L71 570L215 514L206 668H281L272 514L416 570L439 499L289 460L387 339L326 296L244 426L161 296Z" />
<glyph unicode="+" horiz-adv-x="582" d="M248 118V295H75V374H248V551H334V374H508V295H334V118H248Z" />
<glyph unicode="," horiz-adv-x="258" d="M96 -154L46 -130Q65 -96 75 -61T86 14V95H173V14Q173 -46 155 -85T96 -154Z" />
<glyph unicode="-" horiz-adv-x="368" d="M49 248V324H320V248H49Z" />
<glyph unicode="." horiz-adv-x="258" d="M129 -6Q103 -6 87 9T71 48Q71 72 87 87T129 103Q155 103 171 88T187 48Q187 25 171 10T129 -6Z" />
<glyph unicode="/" horiz-adv-x="338" d="M17 0L235 668H321L103 0H17Z" />
<glyph unicode="0" horiz-adv-x="642" d="M321 -10Q233 -10 172 34T80 156T49 334Q49 434 80 511T172 633T321 678Q410 678 470 634T562 512T594 334Q594 234 563 157T471 35T321 -10ZM321 73Q371 73 409 101T469 188T491 334Q491 423 470 481T410 567T321 596Q272
596 234 567T173 481T151 334Q151 246 173 188T233 102T321 73Z" />
<glyph unicode="1" horiz-adv-x="391" d="M212 0V560L68 481L29 558L238 668H312V0H212Z" />
<glyph unicode="2" horiz-adv-x="554" d="M49 0V83L334 350Q365 380 379 409T393 465Q393 505 376 534T330 579T259 596Q218 596 179 576T87 516L49 588Q101 635 153 656T263 678Q331 678 383 653T466 579T496 465Q496 423 473 381T394 287L177 83H506V0H49Z" />
<glyph unicode="3" horiz-adv-x="574" d="M278 -10Q210 -10 155 11T49 80L87 153Q137 111 185 92T278 73Q343 73 383 104T423 189Q423 243 383 274T278 305H196V384H278Q337 384 375 410T413 489Q413 541 375 568T278 596Q235 596 191 577T97 516L59 588Q109 635
162 656T278 678Q349 678 402 655T486 590T516 496Q516 442 482 403T389 344Q454 325 490 283T526 182Q526 127 496 84T410 15T278 -10Z" />
<glyph unicode="4" horiz-adv-x="622" d="M389 0V157H49V256L379 668H486V238H574V157H486V0H389ZM135 238H389V561L135 238Z" />
<glyph unicode="5" horiz-adv-x="582" d="M286 -10Q233 -10 192 -1T116 29T49 80L88 151Q138 109 183 91T276 73Q349 73 390 110T431 214Q431 280 390 317T276 355Q227 355 194 336T147 279L61 295L129 678H484V596H205L168 395Q192 414 225 423T295 433Q371 433
424 406T505 329T534 216Q534 152 504 101T419 20T286 -10Z" />
<glyph unicode="6" horiz-adv-x="612" d="M316 -10Q235 -10 175 23T82 124T49 294Q49 409 80 495T176 630T339 678Q403 678 455 655T546 588L508 523Q469 560 429 578T347 596Q294 596 251 572T182 494T151 355Q177 391 221 412T325 433Q401 433 454 406T535 329T564
216Q564 152 534 101T449 20T316 -10ZM306 73Q379 73 420 110T461 214Q461 280 420 317T306 355Q234 355 193 318T151 215Q162 151 198 112T306 73Z" />
<glyph unicode="7" horiz-adv-x="514" d="M118 0L388 586H29V668H486V596L215 0H118Z" />
<glyph unicode="8" horiz-adv-x="612" d="M306 -10Q225 -10 167 15T79 83T49 182Q49 238 81 281T182 344Q119 364 89 404T59 496Q59 549 88 590T173 654T306 678Q384 678 439 655T524 590T554 496Q554 444 523 404T430 344Q499 325 531 282T564 182Q564 126 534
83T446 15T306 -10ZM306 71Q381 71 421 104T461 188Q461 241 421 273T306 305Q231 305 191 273T151 188Q151 137 191 104T306 71ZM306 383Q375 383 413 411T451 490Q451 541 413 569T306 597Q238 597 200 569T161 490Q161 440 199 412T306 383Z" />
<glyph unicode="9" horiz-adv-x="612" d="M274 -10Q210 -10 158 13T67 80L105 146Q144 109 184 91T265 73Q318 73 361 97T431 175T461 313Q436 277 392 256T287 235Q212 235 159 263T77 340T49 453Q49 517 79 568T164 648T296 678Q379 678 438 645T531 545T564
374Q564 259 532 173T436 38T274 -10ZM306 313Q379 313 420 350T461 454Q451 517 414 556T306 596Q234 596 193 558T151 455Q151 388 192 351T306 313Z" />
<glyph unicode=":" horiz-adv-x="258" d="M129 383Q103 383 87 399T71 438Q71 461 87 477T129 493Q155 493 171 477T187 438Q187 415 171 399T129 383ZM129 -6Q103 -6 87 9T71 48Q71 72 87 87T129 103Q155 103 171 88T187 48Q187 25 171 10T129 -6Z" />
<glyph unicode=";" horiz-adv-x="258" d="M96 -154L46 -130Q65 -96 75 -61T86 14V95H173V14Q173 -46 155 -85T96 -154ZM129 383Q103 383 87 399T71 438Q71 461 87 477T129 493Q155 493 171 477T187 438Q187 415 171 399T129 383Z" />
<glyph unicode="&lt;" horiz-adv-x="582" d="M508 126L75 292V376L508 543V456L175 334L508 212V126Z" />
<glyph unicode="=" horiz-adv-x="582" d="M75 405V484H508V405H75ZM75 184V263H508V184H75Z" />
<glyph unicode="&gt;" horiz-adv-x="582" d="M75 126V214L405 334L75 455V543L508 376V292L75 126Z" />
<glyph unicode="?" horiz-adv-x="473" d="M192 202V230Q192 263 206 290T243 342T286 388T322 431T337 476Q337 513 321 539T277 581T213 596Q180 596 144 578T60 519L23 588Q67 635 116 656T222 678Q284 678 333 655T411 589T440 485Q440 453 423 426T381 373T331
324T288 275T271 222V202H192ZM231 -6Q205 -6 190 9T174 48Q174 72 189 87T231 103Q257 103 273 88T289 48Q289 25 273 10T231 -6Z" />
<glyph unicode="@" horiz-adv-x="905" d="M453 -110Q362 -110 288 -81T161 1T78 127T49 284Q49 370 78 441T160 566T288 649T453 678Q543 678 617 651T745 576T828 463T857 324Q857 249 835 198T774 121T685 94Q640 94 611 117T567 187Q548 146 515 120T426 94Q350
94 306 144T261 284Q261 374 305 424T426 474Q471 474 501 455T548 404V466H624V246Q624 205 643 183T691 160Q737 160 762 200T787 324Q787 408 745 473T628 577T453 615Q353 615 278 574T161 458T119 284Q119 185 160 111T277 -5T453 -46Q506 -46 552 -35T636
0L660 -53Q618 -82 566 -96T453 -110ZM444 160Q493 160 521 191T549 284Q549 346 521 377T444 408Q396 408 367 377T338 284Q338 223 367 192T444 160Z" />
<glyph unicode="A" horiz-adv-x="701" d="M25 0L295 668H405L676 0H567L513 139H187L133 0H25ZM218 223H482L350 562L218 223Z" />
<glyph unicode="B" horiz-adv-x="694" d="M79 0V668H388Q467 668 519 651T599 595T626 495Q626 436 602 399T520 345Q587 329 616 289T646 184Q646 85 583 43T388 0H79ZM179 85H374Q437 85 474 96T527 131T543 194Q543 234 527 258T474 293T374 304H179V85ZM179
385H374Q457 385 490 407T523 484Q523 540 490 562T374 584H179V385Z" />
<glyph unicode="C" horiz-adv-x="663" d="M390 -10Q285 -10 209 34T91 156T49 334Q49 434 90 511T208 633T390 678Q459 678 515 659T621 602L581 525Q538 557 491 573T390 590Q317 590 264 558T181 469T151 334Q151 258 180 201T263 111T390 79Q444 79 491 95T581
144L621 66Q571 28 515 9T390 -10Z" />
<glyph unicode="D" horiz-adv-x="710" d="M79 0V668H310Q482 668 572 584T662 334Q662 168 572 84T310 0H79ZM179 86H304Q439 86 499 147T559 334Q559 459 499 520T304 582H179V86Z" />
<glyph unicode="E" horiz-adv-x="595" d="M79 0V668H542V582H179V385H512V303H179V86H542V0H79Z" />
<glyph unicode="F" horiz-adv-x="585" d="M79 0V668H542V582H179V385H512V303H179V0H79Z" />
<glyph unicode="G" horiz-adv-x="730" d="M390 -10Q285 -10 208 34T90 156T49 334Q49 434 90 511T208 633T390 678Q460 678 523 659T636 601L597 525Q551 556 499 573T390 590Q317 590 264 558T181 468T151 334Q151 258 180 200T263 111T390 79Q449 79 495 99T571
158V283H380V368H672V126Q627 62 556 26T390 -10Z" />
<glyph unicode="H" horiz-adv-x="720" d="M79 0V668H179V388H541V668H642V0H541V300H179V0H79Z" />
<glyph unicode="I" horiz-adv-x="258" d="M79 0V668H179V0H79Z" />
<glyph unicode="J" horiz-adv-x="526" d="M222 -10Q165 -10 123 7T39 63L84 136Q117 108 151 94T219 79Q281 79 314 118T347 230V668H448V234Q448 114 389 52T222 -10Z" />
<glyph unicode="K" horiz-adv-x="639" d="M79 0V668H179V330L482 668H603L338 376L613 0H492L273 304L179 200V0H79Z" />
<glyph unicode="L" horiz-adv-x="535" d="M79 0V668H179V89H492V0H79Z" />
<glyph unicode="M" horiz-adv-x="905" d="M79 0V668H237L452 124L668 668H826V0H725V569L496 0H408L179 569V0H79Z" />
<glyph unicode="N" horiz-adv-x="720" d="M79 0V668H189L541 146V668H642V0H531L179 523V0H79Z" />
<glyph unicode="O" horiz-adv-x="780" d="M390 -10Q285 -10 208 34T90 156T49 334Q49 434 90 511T208 633T390 678Q496 678 572 634T690 512T732 334Q732 234 690 157T572 35T390 -10ZM390 79Q464 79 517 110T600 200T629 334Q629 410 600 468T518 558T390 590Q317
590 264 558T181 468T151 334Q151 258 180 200T263 111T390 79Z" />
<glyph unicode="P" horiz-adv-x="641" d="M79 0V668H345Q468 668 530 616T592 458Q592 352 530 301T345 249H179V0H79ZM179 333H326Q406 333 448 361T490 458Q490 528 450 556T326 584H179V333Z" />
<glyph unicode="Q" horiz-adv-x="780" d="M596 -192Q528 -192 482 -168T413 -102T390 -10Q285 -10 208 34T90 156T49 334Q49 434 90 511T208 633T390 678Q496 678 572 634T690 512T732 334Q732 249 701 179T613 63T475 0Q478 -55 511 -83T604 -111Q636 -111 668
-100T738 -66L772 -134Q726 -165 684 -178T596 -192ZM390 79Q464 79 517 110T600 200T629 334Q629 410 600 468T518 558T390 590Q317 590 264 558T181 468T151 334Q151 258 180 200T263 111T390 79Z" />
<glyph unicode="R" horiz-adv-x="641" d="M79 0V668H345Q465 668 528 619T592 469Q592 384 548 338T420 278L626 0H508L314 271H179V0H79ZM179 354H326Q409 354 449 380T490 468Q490 532 452 558T326 584H179V354Z" />
<glyph unicode="S" horiz-adv-x="592" d="M290 -10Q220 -10 163 11T49 80L89 159Q143 116 191 97T290 77Q363 77 402 106T441 189Q441 226 417 251T347 285L237 306Q148 323 109 367T69 474Q69 530 94 576T171 650T302 678Q361 678 416 661T524 602L483 524Q439
555 396 573T304 591Q238 591 205 563T171 487Q171 450 195 429T266 399L375 378Q463 362 503 312T544 199Q544 105 479 48T290 -10Z" />
<glyph unicode="T" horiz-adv-x="600" d="M250 0V580H43V668H556V580H350V0H250Z" />
<glyph unicode="U" horiz-adv-x="720" d="M360 -10Q230 -10 155 59T79 272V668H179V272Q179 205 200 162T262 99T360 79Q417 79 457 99T519 162T541 272V668H642V272Q642 128 567 59T360 -10Z" />
<glyph unicode="V" horiz-adv-x="701" d="M295 0L25 668H136L350 115L564 668H676L405 0H295Z" />
<glyph unicode="W" horiz-adv-x="1005" d="M236 0L25 668H136L293 128L449 668H556L711 128L869 668H980L769 0H659L502 535L345 0H236Z" />
<glyph unicode="X" horiz-adv-x="681" d="M25 0L276 344L35 668H153L340 415L527 668H646L403 344L656 0H537L340 273L143 0H25Z" />
<glyph unicode="Y" horiz-adv-x="681" d="M290 0V258L25 668H143L340 352L538 668H656L391 258V0H290Z" />
<glyph unicode="Z" horiz-adv-x="574" d="M41 0V79L400 580H51V668H523V590L163 89H533V0H41Z" />
<glyph unicode="[" horiz-adv-x="378" d="M79 -252V738H324V661H166V-175H324V-252H79Z" />
<glyph unicode="\" horiz-adv-x="338" d="M235 0L17 668H103L321 0H235Z" />
<glyph unicode="]" horiz-adv-x="378" d="M55 -252V-175H212V661H55V738H300V-252H55Z" />
<glyph unicode="^" horiz-adv-x="582" d="M100 305L244 668H337L483 305H396L291 578L187 305H100Z" />
<glyph unicode="_" horiz-adv-x="475" d="M0 -111V-43H475V-111H0Z" />
<glyph unicode="`" horiz-adv-x="600" d="M308 545L206 696H301L373 545H308Z" />
<glyph unicode="a" horiz-adv-x="560" d="M224 -10Q172 -10 133 6T71 54T49 131Q49 176 71 205T133 252T224 276L390 296Q384 349 350 374T266 399Q232 399 196 386T118 343L83 414Q122 445 169 462T268 480Q375 480 430 432T486 286V0H395V68Q369 29 326 10T224
-10ZM246 70Q293 70 325 88T374 138T391 203V224L251 206Q199 199 172 184T145 134Q145 103 172 87T246 70Z" />
<glyph unicode="b" horiz-adv-x="606" d="M332 -10Q274 -10 231 13T166 75V0H75V668H169V402Q192 437 234 458T332 480Q397 480 448 451T528 366T557 235Q557 160 528 105T448 20T332 -10ZM313 73Q356 73 389 92T441 148T460 235Q460 285 442 321T390 378T313
398Q270 398 237 378T185 322T166 235Q166 185 184 149T236 93T313 73Z" />
<glyph unicode="c" horiz-adv-x="506" d="M295 -10Q223 -10 167 20T80 106T49 235Q49 309 80 364T167 449T295 480Q346 480 388 466T463 423L428 352Q396 375 363 386T295 398Q250 398 217 378T164 322T145 235Q145 185 164 149T216 93T295 73Q329 73 362 84T428
119L463 47Q430 20 388 5T295 -10Z" />
<glyph unicode="d" horiz-adv-x="606" d="M274 -10Q210 -10 159 20T79 105T49 235Q49 311 78 366T159 450T274 480Q330 480 372 459T437 402V668H532V0H441V75Q419 37 376 14T274 -10ZM294 73Q337 73 370 92T422 148T441 235Q441 285 422 321T370 378T294 398Q251
398 218 378T165 322T146 235Q146 185 165 149T217 93T294 73Z" />
<glyph unicode="e" horiz-adv-x="560" d="M299 -10Q228 -10 172 18T82 101T49 235Q49 310 80 365T165 450T285 480Q355 480 405 454T484 381T512 277Q512 260 508 240T495 208H145Q150 164 171 133T227 87T308 71Q354 71 389 85T458 125L492 55Q453 23 405 7T299
-10ZM145 281H414Q415 283 415 285T415 291Q415 324 401 348T359 387T288 401Q254 401 225 387T175 346T145 281Z" />
<glyph unicode="f" horiz-adv-x="367" d="M127 0V390H24V470H127V532Q127 605 162 639T272 674Q291 674 311 672T343 666V590Q334 592 319 593T291 594Q255 594 238 577T221 525V470H343V390H221V0H127Z" />
<glyph unicode="g" horiz-adv-x="606" d="M280 -192Q222 -192 171 -174T73 -116L107 -46Q152 -82 193 -96T275 -110Q351 -110 394 -69T437 52V94Q414 62 373 41T274 20Q214 20 163 47T80 125T49 250Q49 324 80 375T162 453T274 480Q334 480 376 457T441 400V470H532V66Q532
-16 502 -74T415 -162T280 -192ZM294 101Q334 101 367 118T420 168T440 250Q440 299 420 332T367 382T294 399Q254 399 221 382T167 332T146 250Q146 202 166 169T220 118T294 101Z" />
<glyph unicode="h" horiz-adv-x="570" d="M75 0V668H169V406Q191 441 229 460T323 480Q404 480 450 434T496 290V0H401V278Q401 341 376 369T298 398Q237 398 203 356T169 241V0H75Z" />
<glyph unicode="i" horiz-adv-x="244" d="M75 0V470H169V0H75ZM122 567Q96 567 81 582T65 621Q65 645 80 660T122 675Q147 675 163 660T179 621Q179 597 163 582T122 567Z" />
<glyph unicode="j" horiz-adv-x="244" d="M24 -188Q7 -188 -9 -186T-39 -181V-104Q-29 -105 -18 -106T5 -107Q40 -107 57 -90T75 -38V470H169V-46Q169 -119 134 -153T24 -188ZM122 567Q96 567 81 582T65 621Q65 645 80 660T122 675Q147 675 163 660T179 621Q179
597 163 582T122 567Z" />
<glyph unicode="k" horiz-adv-x="540" d="M75 0V668H169V249L391 470H506L310 278L516 0H401L244 213L169 140V0H75Z" />
<glyph unicode="l" horiz-adv-x="244" d="M75 0V668H169V0H75Z" />
<glyph unicode="m" horiz-adv-x="848" d="M75 0V470H166V408Q186 442 221 461T306 480Q357 480 392 459T446 399Q468 439 508 459T603 480Q682 480 728 434T774 290V0H679V278Q679 341 655 369T583 398Q528 398 500 356T471 241V0H376V278Q376 341 352 369T281
398Q226 398 198 356T169 241V0H75Z" />
<glyph unicode="n" horiz-adv-x="570" d="M75 0V470H166V400Q187 437 226 458T323 480Q404 480 450 434T496 290V0H401V278Q401 341 376 369T298 398Q237 398 203 356T169 241V0H75Z" />
<glyph unicode="o" horiz-adv-x="590" d="M295 -10Q223 -10 167 20T80 106T49 235Q49 309 80 364T167 449T295 480Q368 480 423 450T510 364T542 235Q542 161 511 106T424 21T295 -10ZM295 73Q340 73 374 92T426 148T445 235Q445 285 427 321T374 378T295 398Q250
398 217 378T164 322T145 235Q145 185 164 149T216 93T295 73Z" />
<glyph unicode="p" horiz-adv-x="606" d="M75 -182V470H166V396Q188 434 231 457T332 480Q397 480 448 451T528 366T557 235Q557 160 528 105T448 20T332 -10Q276 -10 234 11T169 69V-182H75ZM313 73Q356 73 389 92T441 148T460 235Q460 285 442 321T390 378T313
398Q270 398 237 378T185 322T166 235Q166 185 184 149T236 93T313 73Z" />
<glyph unicode="q" horiz-adv-x="606" d="M437 -182V69Q414 33 372 12T274 -10Q210 -10 159 20T79 105T49 235Q49 311 78 366T159 450T274 480Q333 480 376 457T441 396V470H532V-182H437ZM294 73Q337 73 370 92T422 148T441 235Q441 285 422 321T370 378T294
398Q251 398 218 378T165 322T146 235Q146 185 165 149T217 93T294 73Z" />
<glyph unicode="r" horiz-adv-x="372" d="M75 0V470H166V388Q184 432 218 454T296 476Q310 476 321 475T340 470V381Q326 384 313 385T286 387Q236 387 203 346T169 227V0H75Z" />
<glyph unicode="s" horiz-adv-x="490" d="M241 -10Q187 -10 140 6T49 54L88 128Q132 99 169 84T243 69Q294 69 319 84T345 131Q345 157 330 169T275 189L195 204Q130 216 97 247T64 329Q64 370 84 404T146 459T249 480Q300 480 345 465T427 424L389 353Q358 374
324 387T253 401Q210 401 185 387T160 340Q160 320 175 308T226 290L305 275Q371 262 406 231T442 141Q442 75 391 33T241 -10Z" />
<glyph unicode="t" horiz-adv-x="383" d="M272 -6Q198 -6 163 28T127 136V390H24V470H127V604H221V470H343V390H221V144Q221 109 238 92T291 75Q303 75 318 76T343 79V3Q331 -1 311 -3T272 -6Z" />
<glyph unicode="u" horiz-adv-x="570" d="M247 -10Q166 -10 121 36T75 180V470H169V192Q169 130 194 102T273 73Q334 73 367 114T401 229V470H496V0H405V70Q384 33 344 12T247 -10Z" />
<glyph unicode="v" horiz-adv-x="531" d="M213 0L25 470H126L265 98L404 470H506L317 0H213Z" />
<glyph unicode="w" horiz-adv-x="801" d="M190 0L25 470H126L238 118L356 470H444L561 118L674 470H776L610 0H517L400 350L283 0H190Z" />
<glyph unicode="x" horiz-adv-x="531" d="M25 0L205 243L35 470H144L265 301L387 470H496L326 243L506 0H397L265 179L134 0H25Z" />
<glyph unicode="y" horiz-adv-x="531" d="M115 -188Q85 -188 55 -181T2 -160L29 -86Q50 -96 70 -101T108 -107Q130 -107 149 -99T185 -70T220 -17L25 470H126L265 94L404 470H506L317 0Q288 -73 256 -114T188 -171T115 -188Z" />
<glyph unicode="z" horiz-adv-x="466" d="M41 0V71L302 390H51V470H415V399L154 81H425V0H41Z" />
<glyph unicode="{" horiz-adv-x="378" d="M248 -252Q210 -252 181 -236T136 -190T119 -123V135Q119 173 103 189T49 205V281Q87 281 103 297T119 351V610Q119 648 135 676T181 721T248 738H324V661H274Q240 661 223 644T206 592V323Q206 293 190 272T136 243Q174
235 190 214T206 163V-105Q206 -140 223 -157T274 -175H324V-252H248Z" />
<glyph unicode="|" horiz-adv-x="237" d="M79 -252V738H158V-252H79Z" />
<glyph unicode="}" horiz-adv-x="378" d="M54 -252V-175H104Q138 -175 155 -158T172 -105V163Q172 193 188 214T242 243Q204 251 188 272T172 323V592Q172 627 155 644T104 661H54V738H130Q168 738 197 722T242 677T259 610V351Q259 313 275 297T329 281V205Q291
205 275 189T259 135V-123Q259 -161 243 -190T197 -235T130 -252H54Z" />
<glyph unicode="~" horiz-adv-x="582" d="M75 249Q75 331 103 375T194 419Q226 419 252 406T302 374T345 342T385 328Q410 328 420 350T435 419H508Q508 338 479 294T388 249Q356 249 330 263T280 295T237 326T197 340Q172 340 162 318T148 249H75Z" />
<glyph unicode="&#xa0;" horiz-adv-x="241" />
<glyph unicode="&#xa1;" horiz-adv-x="258" d="M79 -182V0L96 285H163L179 0V-182H79ZM129 383Q103 383 87 399T71 438Q71 461 87 477T129 493Q155 493 171 477T187 438Q187 415 171 399T129 383Z" />
<glyph unicode="&#xa2;" horiz-adv-x="506" d="M188 -100L211 2Q137 24 93 85T49 235Q49 309 80 364T167 449T295 480Q302 480 308 480T321 479L342 570H398L375 469Q400 462 422 451T463 423L428 352Q411 364 393 373T356 388L284 73Q287 73 290 73T295 73Q329
73 362 84T428 119L463 47Q430 20 388 5T295 -10Q288 -10 281 -10T265 -8L244 -100H188ZM231 85L302 397Q301 398 298 398T292 398Q250 398 217 379T164 323T145 235Q145 179 168 141T231 85Z" />
<glyph unicode="&#xa3;" horiz-adv-x="554" d="M49 0V73Q77 87 92 107T114 152T121 200Q121 215 117 233T107 272H29V330H91Q77 364 68 398T59 465Q59 531 89 579T171 652T291 678Q350 678 402 657T506 588L472 523Q419 564 379 580T295 596Q256 596 226 580T178
534T161 465Q161 432 169 399T188 330H374V272H202Q208 253 211 235T214 200Q214 179 209 157T192 115T156 83H506V0H49Z" />
<glyph unicode="&#xa4;" horiz-adv-x="742" d="M88 -11L26 51L176 200Q143 257 143 334Q143 410 176 468L26 618L88 679L236 530Q263 549 297 558T371 568Q411 568 444 559T506 530L655 679L716 618L566 468Q583 439 591 406T600 334Q600 295 592 262T565 200L716
51L655 -11L506 138Q479 119 445 110T371 100Q331 100 297 110T235 138L88 -11ZM371 174Q439 174 475 218T511 334Q511 407 475 450T371 494Q304 494 268 451T232 334Q232 262 268 218T371 174Z" />
<glyph unicode="&#xa5;" horiz-adv-x="642" d="M271 0V86H109V144H271V242H109V300H247L45 668H159L321 362L484 668H598L395 300H534V242H372V144H534V86H372V0H271Z" />
<glyph unicode="&#xa6;" horiz-adv-x="237" d="M79 282V738H158V282H79ZM79 -252V204H158V-252H79Z" />
<glyph unicode="&#xa7;" horiz-adv-x="595" d="M286 -192Q232 -192 185 -176T94 -128L133 -54Q177 -83 214 -98T288 -113Q334 -113 362 -94T390 -39Q390 -10 373 7T320 44L180 121Q130 148 102 173T61 224T49 280Q49 332 86 366T185 407Q150 431 130 458T109 523Q109
566 129 601T191 657T294 678Q345 678 390 663T472 622L434 551Q403 572 369 585T298 599Q256 599 231 583T205 528Q205 502 223 484T271 450L410 374Q461 347 491 322T534 270T547 206Q547 153 512 120T417 79Q448 56 467 30T487 -36Q487 -106 434 -149T286 -192ZM353
120Q395 125 422 145T450 205Q450 226 444 241T423 269T380 298L251 368Q223 366 199 356T160 328T145 283Q145 257 159 237T211 197L353 120Z" />
<glyph unicode="&#xa8;" horiz-adv-x="600" d="M396 572Q372 572 359 586T345 621Q345 642 358 655T396 669Q419 669 433 656T447 621Q447 600 433 586T396 572ZM205 572Q181 572 168 586T154 621Q154 642 167 655T205 669Q228 669 242 656T256 621Q256 600 242
586T205 572Z" />
<glyph unicode="&#xa9;" horiz-adv-x="803" d="M401 -10Q296 -10 217 34T93 156T49 334Q49 434 93 511T216 633T401 678Q507 678 586 634T710 512T754 334Q754 234 710 157T587 35T401 -10ZM410 168Q333 168 291 214T249 334Q249 408 291 454T410 500Q443 500
470 491T520 462L494 412Q475 426 454 433T409 441Q367 441 343 412T318 334Q318 286 342 257T409 228Q432 228 453 235T494 256L520 207Q498 188 471 178T410 168ZM401 48Q489 48 554 84T656 185T692 334Q692 419 656 483T555 584T401 621Q314 621 249 585T148
484T112 334Q112 250 148 185T249 84T401 48Z" />
<glyph unicode="&#xaa;" horiz-adv-x="518" d="M207 232Q160 232 125 247T69 290T49 359Q49 400 69 426T124 468T207 489L356 507Q350 556 320 578T244 601Q213 601 181 589T111 551L80 615Q115 643 157 658T246 674Q343 674 393 631T444 499V241H361V303Q336
267 297 250T207 232ZM226 304Q268 304 297 321T342 365T357 424V443L231 427Q184 421 161 405T138 364Q138 334 161 319T226 304Z" />
<glyph unicode="&#xab;" horiz-adv-x="485" d="M349 113L249 286L349 461H437L337 286L437 113H349ZM149 113L49 286L149 461H236L136 286L236 113H149Z" />
<glyph unicode="&#xac;" horiz-adv-x="582" d="M421 206V382H75V462H508V206H421Z" />
<glyph unicode="&#xad;" horiz-adv-x="368" d="M49 248V324H320V248H49Z" />
<glyph unicode="&#xae;" horiz-adv-x="594" d="M296 190Q223 190 167 222T80 309T49 434Q49 504 80 559T167 646T296 678Q370 678 426 646T514 559T545 434Q545 365 514 310T427 222T296 190ZM296 231Q359 231 404 257T474 329T499 434Q499 494 474 539T404 611T296
638Q235 638 189 612T119 540T94 434Q94 375 119 329T189 257T296 231ZM209 314V556H304Q349 556 371 538T394 484Q394 454 378 437T332 415L407 314H349L278 412H255V314H209ZM255 451H299Q322 451 334 459T346 484Q346 500 334 508T299 517H255V451Z" />
<glyph unicode="&#xaf;" horiz-adv-x="600" d="M165 589V653H436V589H165Z" />
<glyph unicode="&#xb0;" horiz-adv-x="373" d="M186 423Q124 423 87 458T49 550Q49 607 86 642T186 678Q248 678 285 643T323 550Q323 493 286 458T186 423ZM186 476Q221 476 242 496T263 550Q263 584 242 605T186 626Q151 626 131 605T110 550Q110 517 130 497T186 476Z" />
<glyph unicode="&#xb1;" horiz-adv-x="582" d="M248 165V333H75V412H248V580H334V412H508V333H334V165H248ZM75 0V80H508V0H75Z" />
<glyph unicode="&#xb2;" horiz-adv-x="367" d="M49 408V471L201 611Q220 627 228 642T236 677Q236 707 217 726T167 746Q145 746 125 735T76 703L49 756Q79 782 110 795T176 808Q236 808 274 775T313 682Q313 658 301 633T253 575L143 471H319V408H49Z" />
<glyph unicode="&#xb3;" horiz-adv-x="380" d="M185 402Q144 402 112 415T49 455L77 508Q107 485 130 475T180 465Q218 465 236 481T255 524Q255 550 237 567T180 584H136V638H180Q214 638 231 652T249 692Q249 717 232 731T179 746Q154 746 134 736T83 703L55
756Q85 782 116 795T185 808Q247 808 286 778T326 700Q326 668 307 644T251 611Q290 602 311 576T332 515Q332 466 292 434T185 402Z" />
<glyph unicode="&#xb4;" horiz-adv-x="600" d="M228 545L300 696H395L293 545H228Z" />
<glyph unicode="&#xb5;" horiz-adv-x="570" d="M75 -182V470H169V192Q169 130 194 102T273 73Q334 73 367 114T401 229V470H496V0H405V70Q386 27 356 9T276 -10Q239 -10 213 1T169 36V-182H75Z" />
<glyph unicode="&#xb6;" horiz-adv-x="575" d="M235 -182V315Q182 315 140 337T74 398T49 491Q49 545 73 584T140 646T235 668H497V-182H423V598H308V-182H235Z" />
<glyph unicode="&#xb7;" horiz-adv-x="258" d="M129 232Q103 232 87 247T71 286Q71 310 87 325T129 341Q155 341 171 326T187 286Q187 263 171 248T129 232Z" />
<glyph unicode="&#xb8;" horiz-adv-x="600" d="M282 -191Q268 -191 249 -189T212 -182V-133Q226 -137 245 -138T277 -140Q302 -140 314 -132T326 -105Q326 -89 314 -81T277 -72H254V-46L280 11H330L304 -46Q344 -46 366 -63T389 -112Q389 -148 362 -169T282 -191Z" />
<glyph unicode="&#xb9;" horiz-adv-x="292" d="M137 408V718L58 676L29 735L157 802H212V408H137Z" />
<glyph unicode="&#xba;" horiz-adv-x="543" d="M272 232Q207 232 156 259T77 337T49 453Q49 520 77 569T156 646T272 674Q338 674 387 647T465 570T494 453Q494 387 466 337T388 260T272 232ZM272 308Q332 308 368 347T405 453Q405 521 369 559T272 598Q212 598
175 559T138 453Q138 386 175 347T272 308Z" />
<glyph unicode="&#xbb;" horiz-adv-x="485" d="M249 113L349 286L249 461H337L437 286L337 113H249ZM49 113L149 286L49 461H136L236 286L136 113H49Z" />
<glyph unicode="&#xbc;" horiz-adv-x="809" d="M168 0L526 668H598L240 0H168ZM137 274V584L58 542L29 601L157 668H212V274H137ZM640 0V86H449V151L645 394H710V146H759V86H710V0H640ZM514 146H640V304L514 146Z" />
<glyph unicode="&#xbd;" horiz-adv-x="835" d="M168 0L526 668H598L240 0H168ZM137 274V584L58 542L29 601L157 668H212V274H137ZM516 0V63L668 203Q686 219 694 235T703 269Q703 299 684 318T635 338Q613 338 593 327T544 295L516 348Q546 374 577 387T643 400Q703
400 741 367T780 274Q780 250 768 225T720 167L610 63H786V0H516Z" />
<glyph unicode="&#xbe;" horiz-adv-x="884" d="M244 0L602 668H673L315 0H244ZM185 268Q144 268 112 281T49 321L77 374Q107 351 130 341T180 331Q218 331 236 347T255 390Q255 416 237 433T180 450H136V504H180Q214 504 231 518T249 558Q249 583 232 597T179
612Q154 612 134 602T83 569L55 622Q85 648 116 661T185 674Q247 674 286 644T326 566Q326 534 307 510T251 477Q290 468 311 442T332 381Q332 332 292 300T185 268ZM715 0V86H524V151L720 394H785V146H835V86H785V0H715ZM589 146H715V304L589 146Z" />
<glyph unicode="&#xbf;" horiz-adv-x="473" d="M251 -192Q190 -192 141 -169T63 -102T34 1Q34 34 51 61T93 113T143 162T185 211T203 264V285H282V256Q282 223 268 196T232 145T188 99T151 56T136 10Q136 -26 152 -53T197 -94T260 -109Q293 -109 329 -91T414 -32L451
-102Q407 -149 357 -170T251 -192ZM242 383Q216 383 201 399T185 438Q185 461 200 477T242 493Q268 493 284 477T300 438Q300 415 284 399T242 383Z" />
<glyph unicode="&#xc0;" horiz-adv-x="701" d="M25 0L295 668H405L676 0H567L513 139H187L133 0H25ZM218 223H482L350 562L218 223ZM324 743L222 894H317L389 743H324Z" />
<glyph unicode="&#xc1;" horiz-adv-x="701" d="M25 0L295 668H405L676 0H567L513 139H187L133 0H25ZM218 223H482L350 562L218 223ZM324 743L396 894H491L389 743H324Z" />
<glyph unicode="&#xc2;" horiz-adv-x="701" d="M25 0L295 668H405L676 0H567L513 139H187L133 0H25ZM218 223H482L350 562L218 223ZM206 743L307 894H396L497 743H423L351 843L280 743H206Z" />
<glyph unicode="&#xc3;" horiz-adv-x="701" d="M25 0L295 668H405L676 0H567L513 139H187L133 0H25ZM218 223H482L350 562L218 223ZM196 755Q196 798 205 826T235 868T285 883Q307 883 325 873T359 850T389 827T416 817Q431 817 439 831T450 883H507Q507 841 497
813T468 770T417 755Q396 755 378 765T343 787T313 810T286 820Q272 820 264 806T253 755H196Z" />
<glyph unicode="&#xc4;" horiz-adv-x="701" d="M25 0L295 668H405L676 0H567L513 139H187L133 0H25ZM218 223H482L350 562L218 223ZM447 770Q423 770 410 784T396 819Q396 840 409 853T447 867Q470 867 484 854T498 819Q498 798 484 784T447 770ZM256 770Q232
770 219 784T205 819Q205 840 218 853T256 867Q279 867 293 854T307 819Q307 798 293 784T256 770Z" />
<glyph unicode="&#xc5;" horiz-adv-x="701" d="M25 0L295 668H405L676 0H567L513 139H187L133 0H25ZM218 223H482L350 562L218 223ZM351 713Q299 713 268 743T237 819Q237 865 268 894T351 924Q403 924 434 895T466 819Q466 773 435 743T351 713ZM351 757Q380
757 397 774T414 819Q414 846 397 863T351 880Q323 880 306 863T288 819Q288 791 305 774T351 757Z" />
<glyph unicode="&#xc6;" horiz-adv-x="996" d="M25 0L448 668H943V582H580V385H913V303H580V86H943V0H479V139H224L139 0H25ZM275 223H479V554L275 223Z" />
<glyph unicode="&#xc7;" horiz-adv-x="663" d="M390 -10Q285 -10 209 34T91 156T49 334Q49 434 90 511T208 633T390 678Q459 678 515 659T621 602L581 525Q538 557 491 573T390 590Q317 590 264 558T181 469T151 334Q151 258 180 201T263 111T390 79Q444 79 491
95T581 144L621 66Q571 28 515 9T390 -10ZM349 -191Q335 -191 316 -189T279 -182V-133Q293 -137 312 -138T344 -140Q369 -140 381 -132T393 -105Q393 -89 381 -81T344 -72H321V-46L347 11H397L371 -46Q411 -46 433 -63T456 -112Q456 -148 429 -169T349 -191Z" />
<glyph unicode="&#xc8;" horiz-adv-x="595" d="M79 0V668H542V582H179V385H512V303H179V86H542V0H79ZM271 743L169 894H264L336 743H271Z" />
<glyph unicode="&#xc9;" horiz-adv-x="595" d="M79 0V668H542V582H179V385H512V303H179V86H542V0H79ZM271 743L343 894H438L336 743H271Z" />
<glyph unicode="&#xca;" horiz-adv-x="595" d="M79 0V668H542V582H179V385H512V303H179V86H542V0H79ZM153 743L254 894H343L444 743H370L298 843L227 743H153Z" />
<glyph unicode="&#xcb;" horiz-adv-x="595" d="M79 0V668H542V582H179V385H512V303H179V86H542V0H79ZM394 770Q370 770 357 784T343 819Q343 840 356 853T394 867Q417 867 431 854T445 819Q445 798 431 784T394 770ZM203 770Q179 770 166 784T152 819Q152 840
165 853T203 867Q226 867 240 854T254 819Q254 798 240 784T203 770Z" />
<glyph unicode="&#xcc;" horiz-adv-x="258" d="M79 0V668H179V0H79ZM103 743L1 894H96L168 743H103Z" />
<glyph unicode="&#xcd;" horiz-adv-x="258" d="M79 0V668H179V0H79ZM103 743L175 894H270L168 743H103Z" />
<glyph unicode="&#xce;" horiz-adv-x="258" d="M79 0V668H179V0H79ZM-15 743L86 894H175L276 743H202L130 843L59 743H-15Z" />
<glyph unicode="&#xcf;" horiz-adv-x="258" d="M79 0V668H179V0H79ZM226 770Q202 770 189 784T175 819Q175 840 188 853T226 867Q249 867 263 854T277 819Q277 798 263 784T226 770ZM35 770Q11 770 -2 784T-16 819Q-16 840 -3 853T35 867Q58 867 72 854T86 819Q86
798 72 784T35 770Z" />
<glyph unicode="&#xd0;" horiz-adv-x="710" d="M79 0V312H9V377H79V668H310Q482 668 572 584T662 334Q662 168 572 84T310 0H79ZM179 86H304Q439 86 499 147T559 334Q559 459 499 520T304 582H179V377H352V312H179V86Z" />
<glyph unicode="&#xd1;" horiz-adv-x="720" d="M79 0V668H189L541 146V668H642V0H531L179 523V0H79ZM205 755Q205 798 214 826T244 868T294 883Q316 883 334 873T368 850T398 827T425 817Q440 817 448 831T459 883H516Q516 841 506 813T477 770T426 755Q405 755
387 765T352 787T322 810T295 820Q281 820 273 806T262 755H205Z" />
<glyph unicode="&#xd2;" horiz-adv-x="780" d="M390 -10Q285 -10 208 34T90 156T49 334Q49 434 90 511T208 633T390 678Q496 678 572 634T690 512T732 334Q732 234 690 157T572 35T390 -10ZM390 79Q464 79 517 110T600 200T629 334Q629 410 600 468T518 558T390
590Q317 590 264 558T181 468T151 334Q151 258 180 200T263 111T390 79ZM363 743L261 894H356L428 743H363Z" />
<glyph unicode="&#xd3;" horiz-adv-x="780" d="M390 -10Q285 -10 208 34T90 156T49 334Q49 434 90 511T208 633T390 678Q496 678 572 634T690 512T732 334Q732 234 690 157T572 35T390 -10ZM390 79Q464 79 517 110T600 200T629 334Q629 410 600 468T518 558T390
590Q317 590 264 558T181 468T151 334Q151 258 180 200T263 111T390 79ZM363 743L435 894H530L428 743H363Z" />
<glyph unicode="&#xd4;" horiz-adv-x="780" d="M390 -10Q285 -10 208 34T90 156T49 334Q49 434 90 511T208 633T390 678Q496 678 572 634T690 512T732 334Q732 234 690 157T572 35T390 -10ZM390 79Q464 79 517 110T600 200T629 334Q629 410 600 468T518 558T390
590Q317 590 264 558T181 468T151 334Q151 258 180 200T263 111T390 79ZM245 743L346 894H435L536 743H462L390 843L319 743H245Z" />
<glyph unicode="&#xd5;" horiz-adv-x="780" d="M390 -10Q285 -10 208 34T90 156T49 334Q49 434 90 511T208 633T390 678Q496 678 572 634T690 512T732 334Q732 234 690 157T572 35T390 -10ZM390 79Q464 79 517 110T600 200T629 334Q629 410 600 468T518 558T390
590Q317 590 264 558T181 468T151 334Q151 258 180 200T263 111T390 79ZM235 755Q235 798 244 826T274 868T324 883Q346 883 364 873T398 850T428 827T455 817Q470 817 478 831T489 883H546Q546 841 536 813T507 770T456 755Q435 755 417 765T382 787T352 810T325
820Q311 820 303 806T292 755H235Z" />
<glyph unicode="&#xd6;" horiz-adv-x="780" d="M390 -10Q285 -10 208 34T90 156T49 334Q49 434 90 511T208 633T390 678Q496 678 572 634T690 512T732 334Q732 234 690 157T572 35T390 -10ZM390 79Q464 79 517 110T600 200T629 334Q629 410 600 468T518 558T390
590Q317 590 264 558T181 468T151 334Q151 258 180 200T263 111T390 79ZM486 770Q462 770 449 784T435 819Q435 840 448 853T486 867Q509 867 523 854T537 819Q537 798 523 784T486 770ZM295 770Q271 770 258 784T244 819Q244 840 257 853T295 867Q318 867 332
854T346 819Q346 798 332 784T295 770Z" />
<glyph unicode="&#xd7;" horiz-adv-x="582" d="M136 118L75 179L230 334L75 490L136 551L291 396L447 551L508 490L353 334L508 179L447 118L291 273L136 118Z" />
<glyph unicode="&#xd8;" horiz-adv-x="780" d="M88 -10L49 33L123 107Q87 152 68 209T49 334Q49 434 90 511T208 633T390 678Q459 678 516 658T617 602L692 678L732 635L658 561Q693 516 712 459T732 334Q732 234 691 157T573 35T390 -10Q321 -10 264 10T164 66L88
-10ZM390 79Q464 79 517 111T600 200T629 334Q629 380 618 419T587 490L232 133Q262 106 302 93T390 79ZM193 178L549 534Q518 562 479 576T390 590Q317 590 264 558T181 469T151 334Q151 241 193 178Z" />
<glyph unicode="&#xd9;" horiz-adv-x="720" d="M360 -10Q230 -10 155 59T79 272V668H179V272Q179 205 200 162T262 99T360 79Q417 79 457 99T519 162T541 272V668H642V272Q642 128 567 59T360 -10ZM333 743L231 894H326L398 743H333Z" />
<glyph unicode="&#xda;" horiz-adv-x="720" d="M360 -10Q230 -10 155 59T79 272V668H179V272Q179 205 200 162T262 99T360 79Q417 79 457 99T519 162T541 272V668H642V272Q642 128 567 59T360 -10ZM333 743L405 894H500L398 743H333Z" />
<glyph unicode="&#xdb;" horiz-adv-x="720" d="M360 -10Q230 -10 155 59T79 272V668H179V272Q179 205 200 162T262 99T360 79Q417 79 457 99T519 162T541 272V668H642V272Q642 128 567 59T360 -10ZM215 743L316 894H405L506 743H432L360 843L289 743H215Z" />
<glyph unicode="&#xdc;" horiz-adv-x="720" d="M360 -10Q230 -10 155 59T79 272V668H179V272Q179 205 200 162T262 99T360 79Q417 79 457 99T519 162T541 272V668H642V272Q642 128 567 59T360 -10ZM456 770Q432 770 419 784T405 819Q405 840 418 853T456 867Q479
867 493 854T507 819Q507 798 493 784T456 770ZM265 770Q241 770 228 784T214 819Q214 840 227 853T265 867Q288 867 302 854T316 819Q316 798 302 784T265 770Z" />
<glyph unicode="&#xdd;" horiz-adv-x="681" d="M290 0V258L25 668H143L340 352L538 668H656L391 258V0H290ZM314 743L386 894H481L379 743H314Z" />
<glyph unicode="&#xde;" horiz-adv-x="641" d="M79 0V668H179V561H328Q463 561 527 500T592 334Q592 229 528 168T328 107H179V0H79ZM179 192H310Q397 192 443 225T490 334Q490 410 446 443T310 477H179V192Z" />
<glyph unicode="&#xdf;" horiz-adv-x="606" d="M367 -10Q348 -10 329 -7T295 0V77Q305 75 318 73T345 70Q402 70 431 102T460 193Q460 258 417 285T295 313V384Q350 384 384 411T419 492Q419 545 386 571T295 598Q237 598 203 562T169 455V0H75V439Q75 513 100
566T174 649T295 678Q396 678 455 633T515 504Q515 448 489 411T415 354Q486 338 521 295T557 182Q557 127 536 84T473 15T367 -10Z" />
<glyph unicode="&#xe0;" horiz-adv-x="560" d="M224 -10Q172 -10 133 6T71 54T49 131Q49 176 71 205T133 252T224 276L390 296Q384 349 350 374T266 399Q232 399 196 386T118 343L83 414Q122 445 169 462T268 480Q375 480 430 432T486 286V0H395V68Q369 29 326
10T224 -10ZM246 70Q293 70 325 88T374 138T391 203V224L251 206Q199 199 172 184T145 134Q145 103 172 87T246 70ZM509 545L407 696H502L574 545H509Z" />
<glyph unicode="&#xe1;" horiz-adv-x="560" d="M224 -10Q172 -10 133 6T71 54T49 131Q49 176 71 205T133 252T224 276L390 296Q384 349 350 374T266 399Q232 399 196 386T118 343L83 414Q122 445 169 462T268 480Q375 480 430 432T486 286V0H395V68Q369 29 326
10T224 -10ZM246 70Q293 70 325 88T374 138T391 203V224L251 206Q199 199 172 184T145 134Q145 103 172 87T246 70ZM253 545L325 696H420L318 545H253Z" />
<glyph unicode="&#xe2;" horiz-adv-x="560" d="M224 -10Q172 -10 133 6T71 54T49 131Q49 176 71 205T133 252T224 276L390 296Q384 349 350 374T266 399Q232 399 196 386T118 343L83 414Q122 445 169 462T268 480Q375 480 430 432T486 286V0H395V68Q369 29 326
10T224 -10ZM246 70Q293 70 325 88T374 138T391 203V224L251 206Q199 199 172 184T145 134Q145 103 172 87T246 70ZM391 545L492 696H581L682 545H608L536 645L465 545H391Z" />
<glyph unicode="&#xe3;" horiz-adv-x="560" d="M224 -10Q172 -10 133 6T71 54T49 131Q49 176 71 205T133 252T224 276L390 296Q384 349 350 374T266 399Q232 399 196 386T118 343L83 414Q122 445 169 462T268 480Q375 480 430 432T486 286V0H395V68Q369 29 326
10T224 -10ZM246 70Q293 70 325 88T374 138T391 203V224L251 206Q199 199 172 184T145 134Q145 103 172 87T246 70ZM381 557Q381 600 390 628T420 670T470 685Q492 685 510 675T544 652T574 629T601 619Q616 619 624 633T635 685H692Q692 643 682 615T653 572T602
557Q581 557 563 567T528 589T498 612T471 622Q457 622 449 608T438 557H381Z" />
<glyph unicode="&#xe4;" horiz-adv-x="560" d="M224 -10Q172 -10 133 6T71 54T49 131Q49 176 71 205T133 252T224 276L390 296Q384 349 350 374T266 399Q232 399 196 386T118 343L83 414Q122 445 169 462T268 480Q375 480 430 432T486 286V0H395V68Q369 29 326
10T224 -10ZM246 70Q293 70 325 88T374 138T391 203V224L251 206Q199 199 172 184T145 134Q145 103 172 87T246 70ZM632 572Q608 572 595 586T581 621Q581 642 594 655T632 669Q655 669 669 656T683 621Q683 600 669 586T632 572ZM441 572Q417 572 404 586T390
621Q390 642 403 655T441 669Q464 669 478 656T492 621Q492 600 478 586T441 572Z" />
<glyph unicode="&#xe5;" horiz-adv-x="560" d="M224 -10Q172 -10 133 6T71 54T49 131Q49 176 71 205T133 252T224 276L390 296Q384 349 350 374T266 399Q232 399 196 386T118 343L83 414Q122 445 169 462T268 480Q375 480 430 432T486 286V0H395V68Q369 29 326
10T224 -10ZM246 70Q293 70 325 88T374 138T391 203V224L251 206Q199 199 172 184T145 134Q145 103 172 87T246 70ZM536 515Q484 515 453 545T422 621Q422 667 453 696T536 726Q588 726 619 697T651 621Q651 575 620 545T536 515ZM536 559Q565 559 582 576T599
621Q599 648 582 665T536 682Q508 682 491 665T473 621Q473 593 490 576T536 559Z" />
<glyph unicode="&#xe6;" horiz-adv-x="903" d="M224 -10Q172 -10 133 6T71 54T49 131Q49 176 71 205T133 252T224 276L390 296Q384 349 350 374T266 399Q232 399 196 386T118 343L83 414Q122 445 169 462T268 480Q335 480 380 459T450 396Q481 436 526 458T628
480Q697 480 748 454T826 381T854 277Q854 260 850 240T838 208H488Q493 164 513 133T569 87T650 71Q696 71 731 85T800 125L834 55Q795 23 747 7T641 -10Q574 -10 520 17T433 98Q403 47 349 19T224 -10ZM246 70Q293 70 325 88T374 138T391 203V224L251 206Q199
198 172 183T145 134Q145 103 172 87T246 70ZM488 281H756Q757 283 757 285T757 291Q757 324 743 348T701 387T631 401Q596 401 567 387T517 346T488 281Z" />
<glyph unicode="&#xe7;" horiz-adv-x="506" d="M295 -10Q223 -10 167 20T80 106T49 235Q49 309 80 364T167 449T295 480Q346 480 388 466T463 423L428 352Q396 375 363 386T295 398Q250 398 217 378T164 322T145 235Q145 185 164 149T216 93T295 73Q329 73 362
84T428 119L463 47Q430 20 388 5T295 -10ZM511 -191Q497 -191 478 -189T441 -182V-133Q455 -137 474 -138T506 -140Q531 -140 543 -132T555 -105Q555 -89 543 -81T506 -72H483V-46L509 11H559L533 -46Q573 -46 595 -63T618 -112Q618 -148 591 -169T511 -191Z" />
<glyph unicode="&#xe8;" horiz-adv-x="560" d="M299 -10Q228 -10 172 18T82 101T49 235Q49 310 80 365T165 450T285 480Q355 480 405 454T484 381T512 277Q512 260 508 240T495 208H145Q150 164 171 133T227 87T308 71Q354 71 389 85T458 125L492 55Q453 23 405
7T299 -10ZM145 281H414Q415 283 415 285T415 291Q415 324 401 348T359 387T288 401Q254 401 225 387T175 346T145 281ZM509 545L407 696H502L574 545H509Z" />
<glyph unicode="&#xe9;" horiz-adv-x="560" d="M299 -10Q228 -10 172 18T82 101T49 235Q49 310 80 365T165 450T285 480Q355 480 405 454T484 381T512 277Q512 260 508 240T495 208H145Q150 164 171 133T227 87T308 71Q354 71 389 85T458 125L492 55Q453 23 405
7T299 -10ZM145 281H414Q415 283 415 285T415 291Q415 324 401 348T359 387T288 401Q254 401 225 387T175 346T145 281ZM253 545L325 696H420L318 545H253Z" />
<glyph unicode="&#xea;" horiz-adv-x="560" d="M299 -10Q228 -10 172 18T82 101T49 235Q49 310 80 365T165 450T285 480Q355 480 405 454T484 381T512 277Q512 260 508 240T495 208H145Q150 164 171 133T227 87T308 71Q354 71 389 85T458 125L492 55Q453 23 405
7T299 -10ZM145 281H414Q415 283 415 285T415 291Q415 324 401 348T359 387T288 401Q254 401 225 387T175 346T145 281ZM391 545L492 696H581L682 545H608L536 645L465 545H391Z" />
<glyph unicode="&#xeb;" horiz-adv-x="560" d="M299 -10Q228 -10 172 18T82 101T49 235Q49 310 80 365T165 450T285 480Q355 480 405 454T484 381T512 277Q512 260 508 240T495 208H145Q150 164 171 133T227 87T308 71Q354 71 389 85T458 125L492 55Q453 23 405
7T299 -10ZM145 281H414Q415 283 415 285T415 291Q415 324 401 348T359 387T288 401Q254 401 225 387T175 346T145 281ZM632 572Q608 572 595 586T581 621Q581 642 594 655T632 669Q655 669 669 656T683 621Q683 600 669 586T632 572ZM441 572Q417 572 404 586T390
621Q390 642 403 655T441 669Q464 669 478 656T492 621Q492 600 478 586T441 572Z" />
<glyph unicode="&#xec;" horiz-adv-x="244" d="M75 0V470H169V0H75ZM95 545L-7 696H88L160 545H95Z" />
<glyph unicode="&#xed;" horiz-adv-x="244" d="M75 0V470H169V0H75ZM95 545L167 696H262L160 545H95Z" />
<glyph unicode="&#xee;" horiz-adv-x="244" d="M75 0V470H169V0H75ZM-23 545L78 696H167L268 545H194L122 645L51 545H-23Z" />
<glyph unicode="&#xef;" horiz-adv-x="244" d="M75 0V470H169V0H75ZM218 572Q194 572 181 586T167 621Q167 642 180 655T218 669Q241 669 255 656T269 621Q269 600 255 586T218 572ZM27 572Q3 572 -10 586T-24 621Q-24 642 -11 655T27 669Q50 669 64 656T78 621Q78
600 64 586T27 572Z" />
<glyph unicode="&#xf0;" horiz-adv-x="590" d="M295 -10Q223 -10 168 18T81 98T49 218Q49 285 77 334T158 410T279 438Q311 438 336 429T378 407L276 548L167 508V568L241 597L190 668H289L321 624L438 668V608L355 575L455 435Q486 391 505 358T533 292T542 218Q542
150 511 99T424 19T295 -10ZM295 73Q340 73 374 91T426 142T445 221Q445 265 427 298T374 350T295 368Q250 368 217 350T164 299T145 221Q145 176 164 143T216 91T295 73Z" />
<glyph unicode="&#xf1;" horiz-adv-x="570" d="M75 0V470H166V400Q187 437 226 458T323 480Q404 480 450 434T496 290V0H401V278Q401 341 376 369T298 398Q237 398 203 356T169 241V0H75ZM386 557Q386 600 395 628T425 670T475 685Q497 685 515 675T549 652T579
629T606 619Q621 619 629 633T640 685H697Q697 643 687 615T658 572T607 557Q586 557 568 567T533 589T503 612T476 622Q462 622 454 608T443 557H386Z" />
<glyph unicode="&#xf2;" horiz-adv-x="590" d="M295 -10Q223 -10 167 20T80 106T49 235Q49 309 80 364T167 449T295 480Q368 480 423 450T510 364T542 235Q542 161 511 106T424 21T295 -10ZM295 73Q340 73 374 92T426 148T445 235Q445 285 427 321T374 378T295
398Q250 398 217 378T164 322T145 235Q145 185 164 149T216 93T295 73ZM524 545L422 696H517L589 545H524Z" />
<glyph unicode="&#xf3;" horiz-adv-x="590" d="M295 -10Q223 -10 167 20T80 106T49 235Q49 309 80 364T167 449T295 480Q368 480 423 450T510 364T542 235Q542 161 511 106T424 21T295 -10ZM295 73Q340 73 374 92T426 148T445 235Q445 285 427 321T374 378T295
398Q250 398 217 378T164 322T145 235Q145 185 164 149T216 93T295 73ZM268 545L340 696H435L333 545H268Z" />
<glyph unicode="&#xf4;" horiz-adv-x="590" d="M295 -10Q223 -10 167 20T80 106T49 235Q49 309 80 364T167 449T295 480Q368 480 423 450T510 364T542 235Q542 161 511 106T424 21T295 -10ZM295 73Q340 73 374 92T426 148T445 235Q445 285 427 321T374 378T295
398Q250 398 217 378T164 322T145 235Q145 185 164 149T216 93T295 73ZM406 545L507 696H596L697 545H623L551 645L480 545H406Z" />
<glyph unicode="&#xf5;" horiz-adv-x="590" d="M295 -10Q223 -10 167 20T80 106T49 235Q49 309 80 364T167 449T295 480Q368 480 423 450T510 364T542 235Q542 161 511 106T424 21T295 -10ZM295 73Q340 73 374 92T426 148T445 235Q445 285 427 321T374 378T295
398Q250 398 217 378T164 322T145 235Q145 185 164 149T216 93T295 73ZM396 557Q396 600 405 628T435 670T485 685Q507 685 525 675T559 652T589 629T616 619Q631 619 639 633T650 685H707Q707 643 697 615T668 572T617 557Q596 557 578 567T543 589T513 612T486
622Q472 622 464 608T453 557H396Z" />
<glyph unicode="&#xf6;" horiz-adv-x="590" d="M295 -10Q223 -10 167 20T80 106T49 235Q49 309 80 364T167 449T295 480Q368 480 423 450T510 364T542 235Q542 161 511 106T424 21T295 -10ZM295 73Q340 73 374 92T426 148T445 235Q445 285 427 321T374 378T295
398Q250 398 217 378T164 322T145 235Q145 185 164 149T216 93T295 73ZM647 572Q623 572 610 586T596 621Q596 642 609 655T647 669Q670 669 684 656T698 621Q698 600 684 586T647 572ZM456 572Q432 572 419 586T405 621Q405 642 418 655T456 669Q479 669 493 656T507
621Q507 600 493 586T456 572Z" />
<glyph unicode="&#xf7;" horiz-adv-x="582" d="M75 295V374H508V295H75ZM291 104Q267 104 253 117T239 154Q239 175 252 189T291 204Q316 204 330 190T344 154Q344 132 330 118T291 104ZM291 464Q267 464 253 478T239 514Q239 537 252 551T291 565Q316 565 330
551T344 514Q344 493 330 479T291 464Z" />
<glyph unicode="&#xf8;" horiz-adv-x="590" d="M86 -10L49 27L505 480L542 444L86 -10ZM295 -10Q223 -10 167 20T80 106T49 235Q49 309 80 364T167 449T295 480Q368 480 423 450T510 364T542 235Q542 161 511 106T424 21T295 -10ZM295 73Q340 73 374 92T426 148T445
235Q445 285 427 321T374 378T295 398Q250 398 217 378T164 322T145 235Q145 185 164 149T216 93T295 73Z" />
<glyph unicode="&#xf9;" horiz-adv-x="570" d="M247 -10Q166 -10 121 36T75 180V470H169V192Q169 130 194 102T273 73Q334 73 367 114T401 229V470H496V0H405V70Q384 33 344 12T247 -10ZM514 545L412 696H507L579 545H514Z" />
<glyph unicode="&#xfa;" horiz-adv-x="570" d="M247 -10Q166 -10 121 36T75 180V470H169V192Q169 130 194 102T273 73Q334 73 367 114T401 229V470H496V0H405V70Q384 33 344 12T247 -10ZM258 545L330 696H425L323 545H258Z" />
<glyph unicode="&#xfb;" horiz-adv-x="570" d="M247 -10Q166 -10 121 36T75 180V470H169V192Q169 130 194 102T273 73Q334 73 367 114T401 229V470H496V0H405V70Q384 33 344 12T247 -10ZM396 545L497 696H586L687 545H613L541 645L470 545H396Z" />
<glyph unicode="&#xfc;" horiz-adv-x="570" d="M247 -10Q166 -10 121 36T75 180V470H169V192Q169 130 194 102T273 73Q334 73 367 114T401 229V470H496V0H405V70Q384 33 344 12T247 -10ZM637 572Q613 572 600 586T586 621Q586 642 599 655T637 669Q660 669 674
656T688 621Q688 600 674 586T637 572ZM446 572Q422 572 409 586T395 621Q395 642 408 655T446 669Q469 669 483 656T497 621Q497 600 483 586T446 572Z" />
<glyph unicode="&#xfd;" horiz-adv-x="531" d="M115 -188Q85 -188 55 -181T2 -160L29 -86Q50 -96 70 -101T108 -107Q130 -107 149 -99T185 -70T220 -17L25 470H126L265 94L404 470H506L317 0Q288 -73 256 -114T188 -171T115 -188ZM239 545L311 696H406L304 545H239Z" />
<glyph unicode="&#xfe;" horiz-adv-x="606" d="M75 -182V668H169V402Q192 437 234 458T332 480Q397 480 448 451T528 366T557 235Q557 160 528 105T448 20T332 -10Q276 -10 234 11T169 68V-182H75ZM313 73Q356 73 389 92T441 148T460 235Q460 285 442 321T390
378T313 398Q270 398 237 378T185 322T166 235Q166 185 184 149T236 93T313 73Z" />
<glyph unicode="&#xff;" horiz-adv-x="531" d="M115 -188Q85 -188 55 -181T2 -160L29 -86Q50 -96 70 -101T108 -107Q130 -107 149 -99T185 -70T220 -17L25 470H126L265 94L404 470H506L317 0Q288 -73 256 -114T188 -171T115 -188ZM618 572Q594 572 581 586T567
621Q567 642 580 655T618 669Q641 669 655 656T669 621Q669 600 655 586T618 572ZM427 572Q403 572 390 586T376 621Q376 642 389 655T427 669Q450 669 464 656T478 621Q478 600 464 586T427 572Z" />
<glyph unicode="&#x2013;" horiz-adv-x="568" d="M49 248V324H520V248H49Z" />
<glyph unicode="&#x2014;" horiz-adv-x="798" d="M49 248V324H750V248H49Z" />
<glyph unicode="&#x2018;" horiz-adv-x="258" d="M86 420V500Q86 560 104 599T163 668L213 644Q193 610 183 575T173 500V420H86Z" />
<glyph unicode="&#x2019;" horiz-adv-x="258" d="M96 420L46 444Q65 477 75 513T86 587V668H173V587Q173 528 155 489T96 420Z" />
<glyph unicode="&#x201a;" horiz-adv-x="258" d="M96 -154L46 -130Q65 -96 75 -61T86 14V95H173V14Q173 -46 155 -85T96 -154Z" />
<glyph unicode="&#x201c;" horiz-adv-x="436" d="M264 420V500Q264 560 281 599T340 668L390 644Q370 611 360 575T350 500V420H264ZM86 420V500Q86 560 104 599T162 668L213 644Q193 611 183 575T173 500V420H86Z" />
<glyph unicode="&#x201d;" horiz-adv-x="436" d="M274 420L223 444Q243 477 253 513T264 587V668H350V587Q350 528 333 489T274 420ZM96 420L46 444Q65 477 75 513T86 587V668H173V587Q173 528 155 489T96 420Z" />
<glyph unicode="&#x201e;" horiz-adv-x="436" d="M274 -154L223 -130Q244 -97 254 -61T264 14V95H350V14Q350 -46 333 -85T274 -154ZM96 -154L46 -130Q65 -96 75 -61T86 14V95H173V14Q173 -46 155 -85T96 -154Z" />
<glyph unicode="&#x2022;" horiz-adv-x="406" d="M204 170Q166 170 139 185T96 226T81 286Q81 320 96 346T138 387T204 402Q241 402 268 387T310 346T325 286Q325 253 310 227T268 185T204 170Z" />
<glyph unicode="&#x2039;" horiz-adv-x="285" d="M149 113L49 286L149 461H236L136 286L236 113H149Z" />
<glyph unicode="&#x203a;" horiz-adv-x="285" d="M49 113L149 286L49 461H136L236 286L136 113H49Z" />
</font>
</defs>
</svg>
