<?xml version="1.0" standalone="no"?>
<!DOCTYPE svg PUBLIC "-//W3C//DTD SVG 1.1//EN" "http://www.w3.org/Graphics/SVG/1.1/DTD/svg11.dtd">
<svg xmlns="http://www.w3.org/2000/svg">
<defs >
<font id="Gantari" horiz-adv-x="563" ><font-face
    font-family="Gantari Black"
    units-per-em="1000"
    panose-1="0 0 0 0 0 0 0 0 0 0"
    ascent="950"
    descent="-250"
    alphabetic="0" />
<glyph unicode=" " horiz-adv-x="220" />
<glyph unicode="!" horiz-adv-x="302" d="M86 236L56 486V668H246V486L216 236H86ZM151 -10Q106 -10 79 16T52 84Q52 125 79 151T151 178Q196 178 223 152T250 84Q250 43 223 17T151 -10Z" />
<glyph unicode="&quot;" horiz-adv-x="532" d="M317 342L292 668H470L445 342H317ZM87 342L62 668H240L215 342H87Z" />
<glyph unicode="#" horiz-adv-x="646" d="M69 0L97 156H6L27 274H118L139 394H48L69 512H159L187 668H337L309 512H399L427 668H577L549 512H640L619 394H528L507 274H598L577 156H487L459 0H309L337 156H247L219 0H69ZM268 274H357L378 394H289L268 274Z" />
<glyph unicode="$" horiz-adv-x="592" d="M146 -100L170 3Q133 13 97 30T26 74L89 216Q120 196 149 182T206 159L231 269L225 270Q129 290 88 333T46 445Q46 509 73 561T158 646T309 678Q313 678 317 678T325 678L346 768H446L422 664Q453 657 484 643T546 608L483
466Q457 479 433 490T386 509L365 418L375 416Q476 396 521 344T566 223Q566 114 494 52T282 -10Q278 -10 274 -10T266 -10L246 -100H146ZM302 145Q307 146 312 146T322 148Q350 156 362 168T374 200Q374 216 364 228T333 248L326 250L302 145ZM270 437L289 522Q289
522 285 522T275 519Q256 513 247 503T238 476Q238 465 243 456T260 441L270 437Z" />
<glyph unicode="%" horiz-adv-x="910" d="M216 0L574 668H694L336 0H216ZM201 268Q142 268 103 294T45 366T26 471Q26 530 45 576T103 648T201 674Q261 674 299 648T357 576T376 471Q376 412 357 366T300 294T201 268ZM201 375Q222 375 232 395T242 471Q242 527
232 547T201 567Q180 567 170 547T160 471Q160 415 170 395T201 375ZM709 -6Q650 -6 611 20T553 92T534 197Q534 256 553 302T611 374T709 400Q769 400 807 374T865 302T884 197Q884 138 865 92T808 20T709 -6ZM709 101Q730 101 740 121T750 197Q750 253 740 273T709
293Q688 293 678 273T668 197Q668 141 678 121T709 101Z" />
<glyph unicode="&amp;" horiz-adv-x="672" d="M245 -10Q175 -10 126 15T52 82T26 174Q26 242 58 289T154 359L166 363Q134 402 123 437T112 502Q112 548 135 588T205 653T319 678Q387 678 433 653T502 588T526 502Q526 456 497 412T394 333L388 330L449 264L489
324H658L545 158L690 0H487L446 46Q407 17 359 4T245 -10ZM282 128Q301 128 319 133T354 150L253 264L246 261Q229 253 219 235T208 194Q208 167 227 148T282 128ZM311 416L319 419Q340 427 351 449T362 495Q362 515 349 527T319 540Q302 540 289 528T276 495Q276
476 285 457T311 416Z" />
<glyph unicode="&apos;" horiz-adv-x="302" d="M87 342L62 668H240L215 342H87Z" />
<glyph unicode="(" horiz-adv-x="358" d="M221 -252Q183 -222 150 -170T91 -50T51 93T36 243Q36 318 50 393T90 535T149 655T221 738H352Q322 700 296 646T250 528T219 391T208 243Q208 168 219 96T249 -42T295 -161T352 -252H221Z" />
<glyph unicode=")" horiz-adv-x="358" d="M6 -252Q36 -215 62 -162T107 -42T138 96T150 244Q150 318 139 390T108 528T62 647T6 738H137Q175 708 208 656T267 536T307 393T322 243Q322 168 308 93T267 -49T208 -169T137 -252H6Z" />
<glyph unicode="*" horiz-adv-x="480" d="M173 261L67 338L151 436L26 466L66 589L185 540L175 668H305L295 540L414 589L454 466L329 436L413 338L307 261L240 370L173 261Z" />
<glyph unicode="+" horiz-adv-x="582" d="M212 89V260H46V408H212V579H370V408H536V260H370V89H212Z" />
<glyph unicode="," horiz-adv-x="302" d="M110 -168L18 -123Q42 -81 57 -29T72 60V158H230V60Q230 -20 201 -73T110 -168Z" />
<glyph unicode="-" horiz-adv-x="368" d="M26 217V355H342V217H26Z" />
<glyph unicode="." horiz-adv-x="302" d="M151 -10Q106 -10 79 16T52 84Q52 125 79 151T151 178Q196 178 223 152T250 84Q250 43 223 17T151 -10Z" />
<glyph unicode="/" horiz-adv-x="390" d="M6 0L224 668H384L166 0H6Z" />
<glyph unicode="0" horiz-adv-x="642" d="M321 -10Q221 -10 156 34T58 156T26 334Q26 434 58 511T155 633T321 678Q421 678 486 634T584 512T616 334Q616 234 584 157T487 35T321 -10ZM321 144Q354 144 377 163T412 224T424 334Q424 403 412 444T377 505T321 524Q289
524 266 505T230 445T218 334Q218 266 230 224T265 163T321 144Z" />
<glyph unicode="1" horiz-adv-x="402" d="M156 0V477L65 432L6 564L216 668H346V0H156Z" />
<glyph unicode="2" horiz-adv-x="554" d="M26 0V154L273 374Q300 398 313 421T326 465Q326 484 317 497T292 517T253 524Q216 524 179 508T85 462L26 594Q86 636 141 657T263 678Q339 678 396 654T486 582T518 465Q518 410 486 361T383 252L264 154H528V0H26Z" />
<glyph unicode="3" horiz-adv-x="574" d="M278 -10Q212 -10 149 11T26 74L85 206Q144 175 192 160T278 144Q311 144 333 160T356 208Q356 240 334 256T278 272H173V416H278Q307 416 326 429T346 470Q346 498 327 511T278 524Q248 524 202 509T95 462L36 594Q96
636 157 657T278 678Q354 678 412 654T504 587T538 485Q538 436 512 401T438 344Q492 321 520 283T548 193Q548 135 515 89T420 17T278 -10Z" />
<glyph unicode="4" horiz-adv-x="622" d="M328 0V126H26V300L318 668H508V270H596V126H508V0H328ZM181 270H328V464L181 270Z" />
<glyph unicode="5" horiz-adv-x="582" d="M286 -10Q227 -10 184 -1T104 27T26 74L86 206Q145 174 188 159T276 144Q317 144 340 166T364 222Q364 255 341 277T276 300Q244 300 225 287T195 255L36 282L106 678H506V524H248L225 413Q246 424 271 431T326 438Q397
438 448 411T528 336T556 224Q556 159 524 106T432 22T286 -10Z" />
<glyph unicode="6" horiz-adv-x="612" d="M316 -10Q231 -10 166 24T63 126T26 294Q26 409 62 495T170 630T346 678Q412 678 470 657T568 594L512 472Q467 502 432 513T366 524Q334 524 301 512T244 470T218 385Q240 408 276 423T356 438Q427 438 478 411T558 336T586
224Q586 159 554 106T462 22T316 -10ZM306 144Q347 144 370 166T394 222Q394 255 371 277T306 300Q265 300 242 278T218 222Q224 189 246 167T306 144Z" />
<glyph unicode="7" horiz-adv-x="514" d="M76 0L324 514H6V668H508V536L258 0H76Z" />
<glyph unicode="8" horiz-adv-x="612" d="M306 -10Q220 -10 157 16T60 89T26 193Q26 244 54 282T137 344Q87 366 62 401T36 485Q36 544 70 587T164 654T306 678Q387 678 448 654T542 587T576 485Q576 436 550 401T474 344Q530 321 558 283T586 193Q586 135 552
89T455 17T306 -10ZM306 134Q347 134 370 154T394 207Q394 239 371 259T306 280Q265 280 242 260T218 207Q218 175 241 155T306 134ZM306 408Q342 408 363 425T384 471Q384 499 363 516T306 534Q270 534 249 517T228 471Q228 443 249 426T306 408Z" />
<glyph unicode="9" horiz-adv-x="612" d="M266 -10Q200 -10 142 11T44 74L100 196Q145 166 180 155T246 144Q278 144 311 156T368 198T394 283Q372 260 336 245T256 230Q186 230 134 257T54 332T26 444Q26 509 58 562T150 646T296 678Q381 678 446 644T549 542T586
374Q586 259 550 173T443 38T266 -10ZM306 368Q347 368 370 390T394 446Q388 479 366 501T306 524Q265 524 242 502T218 446Q218 413 241 391T306 368Z" />
<glyph unicode=":" horiz-adv-x="302" d="M151 308Q106 308 79 334T52 402Q52 443 79 469T151 496Q196 496 223 470T250 402Q250 361 223 335T151 308ZM151 -10Q106 -10 79 16T52 84Q52 125 79 151T151 178Q196 178 223 152T250 84Q250 43 223 17T151 -10Z" />
<glyph unicode=";" horiz-adv-x="302" d="M110 -168L18 -123Q42 -81 57 -29T72 60V158H230V60Q230 -20 201 -73T110 -168ZM151 308Q106 308 79 334T52 402Q52 443 79 469T151 496Q196 496 223 470T250 402Q250 361 223 335T151 308Z" />
<glyph unicode="&lt;" horiz-adv-x="582" d="M536 91L46 255V413L536 577V419L231 334L536 249V91Z" />
<glyph unicode="=" horiz-adv-x="582" d="M46 374V522H536V374H46ZM46 146V294H536V146H46Z" />
<glyph unicode="&gt;" horiz-adv-x="582" d="M46 91V259L333 334L46 409V577L536 413V255L46 91Z" />
<glyph unicode="?" horiz-adv-x="474" d="M156 236V268Q156 298 167 321T196 362T230 397T258 430T270 465Q270 484 261 497T237 517T202 524Q176 524 145 513T55 472L0 594Q53 636 106 657T222 678Q292 678 346 656T431 590T462 485Q462 449 446 422T407 372T361
331T322 291T306 248V236H156ZM231 -10Q186 -10 159 16T132 84Q132 125 159 151T231 178Q276 178 303 152T330 84Q330 43 303 17T231 -10Z" />
<glyph unicode="@" horiz-adv-x="886" d="M443 -110Q349 -110 272 -81T140 1T56 127T26 284Q26 370 55 441T140 566T272 649T443 678Q538 678 614 651T746 576T830 463T860 324Q860 246 834 195T764 119T669 94Q623 94 589 114T532 176Q510 135 476 115T395 94Q325
94 279 145T233 284Q233 371 279 422T395 474Q430 474 453 464T496 433V466H631V280Q631 248 645 229T683 210Q710 210 725 236T741 324Q741 396 704 451T600 537T443 568Q353 568 286 533T182 435T145 284Q145 198 182 134T286 35T443 0Q490 0 532 10T610 38L650
-53Q608 -82 556 -96T443 -110ZM436 210Q466 210 483 230T500 284Q500 318 483 338T436 358Q406 358 388 338T370 284Q370 250 388 230T436 210Z" />
<glyph unicode="A" horiz-adv-x="712" d="M2 0L251 668H461L710 0H504L473 97H239L208 0H2ZM287 251H425L356 471L287 251Z" />
<glyph unicode="B" horiz-adv-x="694" d="M56 0V668H394Q478 668 534 651T619 596T648 497Q648 445 624 405T540 344Q606 324 637 284T668 181Q668 90 603 45T394 0H56ZM246 148H374Q412 148 434 154T466 175T476 212Q476 235 467 249T435 269T374 276H246V148ZM246
412H374Q423 412 439 426T456 466Q456 492 440 506T374 520H246V412Z" />
<glyph unicode="C" horiz-adv-x="652" d="M390 -10Q280 -10 198 34T71 156T26 334Q26 434 71 511T199 633T390 678Q455 678 513 662T632 607L569 465Q517 491 475 502T390 514Q340 514 301 492T240 429T218 334Q218 280 240 240T301 177T390 154Q432 154 474 165T569
203L632 61Q572 23 514 7T390 -10Z" />
<glyph unicode="D" horiz-adv-x="710" d="M56 0V668H310Q491 668 587 584T684 334Q684 168 588 84T310 0H56ZM246 158H310Q411 158 451 202T492 334Q492 422 452 466T310 510H246V158Z" />
<glyph unicode="E" horiz-adv-x="606" d="M56 0V668H564V510H246V417H534V271H246V158H564V0H56Z" />
<glyph unicode="F" horiz-adv-x="596" d="M56 0V668H564V510H246V417H534V271H246V0H56Z" />
<glyph unicode="G" horiz-adv-x="730" d="M390 -10Q280 -10 198 34T71 156T26 334Q26 434 71 511T199 633T390 678Q455 678 518 662T642 607L579 465Q527 491 480 502T390 514Q340 514 301 492T240 429T218 334Q218 280 240 240T301 177T390 154Q424 154 452 164T504
194V254H380V396H694V133Q647 66 570 28T390 -10Z" />
<glyph unicode="H" horiz-adv-x="720" d="M56 0V668H246V426H474V668H664V0H474V262H246V0H56Z" />
<glyph unicode="I" horiz-adv-x="302" d="M56 0V668H246V0H56Z" />
<glyph unicode="J" horiz-adv-x="526" d="M214 -10Q152 -10 108 6T16 57L76 192Q102 176 133 165T190 154Q232 154 256 177T280 258V668H470V268Q470 136 408 63T214 -10Z" />
<glyph unicode="K" horiz-adv-x="678" d="M56 0V668H246V418L444 668H666L427 380L676 0H454L309 239L246 163V0H56Z" />
<glyph unicode="L" horiz-adv-x="546" d="M56 0V668H246V164H514V0H56Z" />
<glyph unicode="M" horiz-adv-x="916" d="M56 0V668H356L458 278L560 668H860V0H670V478L539 0H377L246 478V0H56Z" />
<glyph unicode="N" horiz-adv-x="720" d="M56 0V668H256L474 290V668H664V0H464L246 378V0H56Z" />
<glyph unicode="O" horiz-adv-x="780" d="M390 -10Q280 -10 198 34T71 156T26 334Q26 434 71 511T199 633T390 678Q500 678 582 634T709 512T754 334Q754 234 709 157T582 35T390 -10ZM390 154Q440 154 479 176T540 239T562 334Q562 388 540 428T479 491T390 514Q340
514 301 492T240 429T218 334Q218 280 240 240T301 177T390 154Z" />
<glyph unicode="P" horiz-adv-x="652" d="M56 0V668H362Q497 668 561 607T626 441Q626 336 562 275T362 214H246V0H56ZM246 362H332Q381 362 407 380T434 441Q434 483 408 501T332 520H246V362Z" />
<glyph unicode="Q" horiz-adv-x="780" d="M604 -192Q531 -192 484 -166T413 -99T390 -10Q280 -10 198 34T71 156T26 334Q26 434 71 511T199 633T390 678Q500 678 582 634T709 512T754 334Q754 259 728 196T655 87T540 15Q543 -10 561 -29T619 -48Q641 -48 672
-40T739 -16L794 -140Q741 -167 695 -179T604 -192ZM390 154Q440 154 479 176T540 239T562 334Q562 388 540 428T479 491T390 514Q340 514 301 492T240 429T218 334Q218 280 240 240T301 177T390 154Z" />
<glyph unicode="R" horiz-adv-x="652" d="M56 0V668H362Q490 668 558 613T626 452Q626 371 588 323T479 251L660 0H438L283 236H246V0H56ZM246 382H332Q389 382 411 399T434 451Q434 485 412 502T332 520H246V382Z" />
<glyph unicode="S" horiz-adv-x="592" d="M282 -10Q210 -10 149 9T26 74L89 216Q146 181 196 163T282 144Q327 144 350 159T374 200Q374 220 358 234T312 254L237 268Q135 287 91 330T46 445Q46 509 73 561T158 646T309 678Q364 678 423 664T546 608L483 466Q432
492 388 508T314 524Q273 524 256 512T238 476Q238 456 254 446T300 430L375 416Q476 398 521 345T566 223Q566 114 494 52T282 -10Z" />
<glyph unicode="T" horiz-adv-x="622" d="M216 0V504H32V668H590V504H406V0H216Z" />
<glyph unicode="U" horiz-adv-x="720" d="M360 -10Q213 -10 135 60T56 278V668H246V278Q246 239 258 211T295 169T360 154Q400 154 425 168T462 211T474 278V668H664V278Q664 131 586 61T360 -10Z" />
<glyph unicode="V" horiz-adv-x="712" d="M251 0L2 668H214L356 217L498 668H710L461 0H251Z" />
<glyph unicode="W" horiz-adv-x="1016" d="M201 0L2 668H214L316 237L408 668H608L700 237L802 668H1014L815 0H605L508 408L411 0H201Z" />
<glyph unicode="X" horiz-adv-x="692" d="M2 0L228 344L12 668H234L346 487L458 668H680L464 344L690 0H468L346 202L224 0H2Z" />
<glyph unicode="Y" horiz-adv-x="692" d="M251 0V247L2 668H224L346 427L468 668H690L441 247V0H251Z" />
<glyph unicode="Z" horiz-adv-x="608" d="M30 0V142L322 504H40V668H568V526L276 164H578V0H30Z" />
<glyph unicode="[" horiz-adv-x="384" d="M56 -252V738H352V598H216V-112H352V-252H56Z" />
<glyph unicode="\" horiz-adv-x="390" d="M224 0L6 668H166L384 0H224Z" />
<glyph unicode="]" horiz-adv-x="384" d="M32 -252V-112H168V598H32V738H328V-252H32Z" />
<glyph unicode="^" horiz-adv-x="582" d="M61 248L202 668H380L521 248H363L291 506L219 248H61Z" />
<glyph unicode="_" horiz-adv-x="520" d="M0 -160V-40H520V-160H0Z" />
<glyph unicode="`" horiz-adv-x="600" d="M280 534L166 696H340L400 534H280Z" />
<glyph unicode="a" horiz-adv-x="560" d="M195 -10Q150 -10 112 5T50 53T26 134Q26 184 49 213T111 257T195 277L329 293Q321 316 300 325T255 335Q226 335 193 326T112 295L60 420Q113 452 166 466T270 480Q388 480 451 434T514 286V0H344V39Q314 11 282 1T195
-10ZM257 121Q279 121 296 129T324 150T334 180V189L257 178Q232 174 220 167T208 146Q208 133 220 127T257 121Z" />
<glyph unicode="b" horiz-adv-x="600" d="M349 -10Q304 -10 271 5T216 46V0H46V668H226V435Q247 456 278 468T349 480Q412 480 463 451T544 368T574 235Q574 158 544 103T463 19T349 -10ZM305 144Q331 144 350 155T381 186T392 235Q392 263 381 283T351 315T305
326Q280 326 260 315T229 284T218 235Q218 207 229 187T260 155T305 144Z" />
<glyph unicode="c" horiz-adv-x="492" d="M295 -10Q217 -10 157 20T61 106T26 235Q26 308 61 363T156 449T295 480Q346 480 388 468T472 428L413 294Q379 311 353 318T295 326Q270 326 250 315T219 284T208 235Q208 207 219 187T250 155T295 144Q326 144 352 151T413
176L472 42Q431 15 389 3T295 -10Z" />
<glyph unicode="d" horiz-adv-x="600" d="M251 -10Q189 -10 138 19T56 103T26 235Q26 313 56 367T137 451T251 480Q291 480 322 468T374 435V668H554V0H384V46Q362 20 329 5T251 -10ZM295 144Q321 144 340 155T371 186T382 235Q382 263 371 283T341 315T295 326Q270
326 250 315T219 284T208 235Q208 207 219 187T250 155T295 144Z" />
<glyph unicode="e" horiz-adv-x="560" d="M304 -10Q230 -10 167 16T65 96T26 235Q26 310 60 365T153 450T285 480Q358 480 414 454T502 382T534 274Q534 254 529 231T515 191H208Q213 171 227 158T266 138T324 131Q362 131 398 142T465 169L514 49Q469 20 415
5T304 -10ZM208 297H350Q351 300 351 302T352 307Q352 319 345 328T325 343T289 349Q266 349 249 342T222 323T208 297Z" />
<glyph unicode="f" horiz-adv-x="408" d="M104 0V326H16V470H104V507Q104 591 146 632T287 674Q316 674 344 671T392 662V526Q380 528 362 529T331 530Q305 530 295 519T284 489V470H392V326H284V0H104Z" />
<glyph unicode="g" horiz-adv-x="600" d="M274 -192Q209 -192 153 -175T44 -122L96 6Q144 -20 186 -32T264 -44Q314 -44 344 -23T374 42V65Q353 44 322 32T251 20Q193 20 142 46T58 124T26 250Q26 325 58 376T141 453T251 480Q296 480 329 465T384 424V470H554V72Q554
-14 519 -73T421 -162T274 -192ZM295 164Q322 164 341 174T371 204T382 250Q382 277 372 296T342 325T295 336Q269 336 249 326T219 296T208 250Q208 224 218 205T249 175T295 164Z" />
<glyph unicode="h" horiz-adv-x="570" d="M46 0V668H226V435Q248 456 279 468T354 480Q432 480 478 435T524 296V0H344V267Q344 295 332 310T295 326Q266 326 246 308T226 247V0H46Z" />
<glyph unicode="i" horiz-adv-x="272" d="M46 0V470H226V0H46ZM136 520Q90 520 63 546T36 615Q36 657 63 683T136 710Q182 710 209 684T236 615Q236 573 209 547T136 520Z" />
<glyph unicode="j" horiz-adv-x="272" d="M44 -188Q22 -188 0 -186T-42 -178V-42Q-29 -44 -20 -44T-1 -44Q25 -44 35 -33T46 -3V470H226V-21Q226 -106 184 -147T44 -188ZM136 520Q90 520 63 546T36 615Q36 657 63 683T136 710Q182 710 209 684T236 615Q236 573
209 547T136 520Z" />
<glyph unicode="k" horiz-adv-x="568" d="M46 0V668H226V327L354 470H556L384 283L566 0H360L265 154L226 111V0H46Z" />
<glyph unicode="l" horiz-adv-x="272" d="M46 0V668H226V0H46Z" />
<glyph unicode="m" horiz-adv-x="848" d="M46 0V470H216V429Q238 453 270 466T349 480Q389 480 423 466T478 422Q500 451 536 465T623 480Q712 480 757 434T802 296V0H622V267Q622 295 613 310T578 326Q549 326 532 308T514 247V0H334V267Q334 295 325 310T290
326Q261 326 244 308T226 247V0H46Z" />
<glyph unicode="n" horiz-adv-x="570" d="M46 0V470H216V424Q238 450 271 465T354 480Q432 480 478 435T524 296V0H344V267Q344 295 332 310T295 326Q266 326 246 308T226 247V0H46Z" />
<glyph unicode="o" horiz-adv-x="590" d="M295 -10Q217 -10 157 20T61 106T26 235Q26 308 61 363T156 449T295 480Q373 480 433 449T529 363T564 235Q564 162 529 107T434 21T295 -10ZM296 144Q321 144 340 155T371 186T382 235Q382 263 371 283T341 315T295 326Q270
326 250 315T219 284T208 235Q208 207 219 187T250 155T296 144Z" />
<glyph unicode="p" horiz-adv-x="600" d="M46 -182V470H216V424Q238 450 271 465T349 480Q412 480 463 451T544 368T574 235Q574 158 544 103T463 19T349 -10Q309 -10 278 2T226 35V-182H46ZM305 144Q331 144 350 155T381 186T392 235Q392 263 381 283T351 315T305
326Q280 326 260 315T229 284T218 235Q218 207 229 187T260 155T305 144Z" />
<glyph unicode="q" horiz-adv-x="600" d="M374 -182V35Q353 14 322 2T251 -10Q189 -10 138 19T56 103T26 235Q26 313 56 367T137 451T251 480Q296 480 329 465T384 424V470H554V-182H374ZM295 144Q321 144 340 155T371 186T382 235Q382 263 371 283T341 315T295
326Q270 326 250 315T219 284T208 235Q208 207 219 187T250 155T295 144Z" />
<glyph unicode="r" horiz-adv-x="392" d="M46 0V470H216V410Q237 448 266 462T331 476Q344 476 353 475T368 470V298Q353 301 338 303T306 306Q272 306 249 288T226 227V0H46Z" />
<glyph unicode="s" horiz-adv-x="490" d="M235 -10Q180 -10 128 4T26 48L82 171Q131 143 172 130T238 117Q261 117 271 123T282 138Q282 147 273 152T240 162L195 170Q117 184 79 217T41 309Q41 356 63 394T132 456T255 480Q306 480 355 467T449 430L396 313Q363
328 326 340T262 353Q243 353 233 349T223 335Q223 329 230 325T260 316L305 308Q383 294 423 257T464 161Q464 87 407 39T235 -10Z" />
<glyph unicode="t" horiz-adv-x="424" d="M287 -6Q189 -6 147 35T104 161V326H16V470H104V604H284V470H392V326H284V179Q284 161 294 150T331 138Q344 138 362 139T392 142V6Q372 1 344 -2T287 -6Z" />
<glyph unicode="u" horiz-adv-x="570" d="M216 -10Q138 -10 92 35T46 174V470H226V203Q226 175 238 160T275 144Q304 144 324 162T344 223V470H524V0H354V46Q332 20 299 5T216 -10Z" />
<glyph unicode="v" horiz-adv-x="542" d="M171 0L2 470H194L271 177L348 470H540L371 0H171Z" />
<glyph unicode="w" horiz-adv-x="812" d="M161 0L2 470H194L258 217L330 470H482L554 217L618 470H810L651 0H475L406 241L337 0H161Z" />
<glyph unicode="x" horiz-adv-x="542" d="M2 0L159 243L12 470H208L271 353L334 470H530L383 243L540 0H344L271 124L198 0H2Z" />
<glyph unicode="y" horiz-adv-x="542" d="M142 -188Q104 -188 65 -180T2 -160L48 -28Q65 -34 86 -39T127 -44Q138 -44 147 -43T166 -39T182 -32L2 470H194L271 172L348 470H540L371 0Q348 -64 314 -106T237 -168T142 -188Z" />
<glyph unicode="z" horiz-adv-x="500" d="M30 0V128L222 326H40V470H460V342L268 144H470V0H30Z" />
<glyph unicode="{" horiz-adv-x="384" d="M266 -252Q216 -252 178 -231T118 -171T96 -82V103Q96 141 80 157T26 173V313Q64 313 80 329T96 383V568Q96 618 117 656T177 716T266 738H352V598H326Q288 598 272 582T256 528V323Q256 293 240 272T186 243Q224 235
240 214T256 163V-42Q256 -80 272 -96T326 -112H352V-252H266Z" />
<glyph unicode="|" horiz-adv-x="252" d="M56 -252V738H196V-252H56Z" />
<glyph unicode="}" horiz-adv-x="384" d="M32 -252V-112H58Q96 -112 112 -96T128 -42V163Q128 193 144 214T198 243Q160 251 144 272T128 323V528Q128 566 112 582T58 598H32V738H118Q168 738 206 717T266 657T288 568V383Q288 345 304 329T358 313V173Q320 173
304 157T288 103V-82Q288 -132 267 -170T207 -230T118 -252H32Z" />
<glyph unicode="~" horiz-adv-x="582" d="M46 223Q46 326 82 385T194 445Q226 445 251 434T297 408T335 382T366 371Q386 371 393 389T406 445H536Q536 342 500 283T388 223Q356 223 331 234T285 260T247 286T216 297Q196 297 189 279T176 223H46Z" />
<glyph unicode="&#xa0;" horiz-adv-x="220" />
<glyph unicode="&#xa1;" horiz-adv-x="302" d="M56 -182V0L86 250H216L246 0V-182H56ZM151 308Q106 308 79 334T52 402Q52 443 79 469T151 496Q196 496 223 470T250 402Q250 361 223 335T151 308Z" />
<glyph unicode="&#xa2;" horiz-adv-x="492" d="M171 -100L195 5Q118 30 72 90T26 235Q26 308 61 363T156 449T295 480Q297 480 299 480T304 480L325 570H415L391 466Q411 460 431 451T472 428L413 294Q397 302 384 307T356 317L317 145Q325 146 333 147T349 151Q364
155 379 161T413 176L472 42Q431 15 389 3T295 -10Q291 -10 288 -10T281 -10L261 -100H171ZM232 168L268 322Q258 319 250 315T234 303Q226 296 220 286T211 263T208 235Q208 213 214 197T232 168Z" />
<glyph unicode="&#xa3;" horiz-adv-x="554" d="M26 0V132Q54 146 69 160T91 192T98 234Q98 241 98 248T96 262H6V360H69Q53 389 45 414T36 465Q36 534 68 581T157 653T291 678Q357 678 412 657T528 594L473 472Q414 502 376 513T301 524Q279 524 263 517T237 497T228
465Q228 443 234 417T249 360H396V262H269Q270 255 270 248T270 234Q270 218 266 204T253 178T230 154H528V0H26Z" />
<glyph unicode="&#xa4;" horiz-adv-x="742" d="M138 -11L26 101L146 221Q122 271 122 334Q122 398 146 446L26 567L138 679L266 550Q289 558 315 563T371 568Q400 568 426 563T475 550L604 679L716 567L595 446Q608 423 614 395T620 334Q620 302 614 274T595 221L716
101L604 -11L475 117Q452 109 426 105T371 100Q343 100 317 104T266 117L138 -11ZM371 235Q411 235 434 262T458 334Q458 379 435 406T371 433Q331 433 308 406T284 334Q284 289 307 262T371 235Z" />
<glyph unicode="&#xa5;" horiz-adv-x="642" d="M226 0V66H86V164H226V222H86V320H189L16 668H230L321 450L412 668H626L452 320H556V222H416V164H556V66H416V0H226Z" />
<glyph unicode="&#xa6;" horiz-adv-x="252" d="M56 282V738H196V282H56ZM56 -252V204H196V-252H56Z" />
<glyph unicode="&#xa7;" horiz-adv-x="595" d="M280 -192Q225 -192 173 -178T71 -134L127 -11Q176 -39 217 -52T283 -65Q303 -65 315 -56T327 -28Q327 -10 316 2T285 25L180 83Q118 118 85 146T39 202T26 263Q26 311 59 348T148 394Q119 417 103 444T86 507Q86
554 108 592T177 654T300 678Q351 678 400 665T494 628L441 511Q408 526 371 538T307 551Q290 551 279 542T268 518Q268 500 278 489T305 469L410 411Q472 376 506 346T555 287T569 223Q569 175 536 139T449 92Q477 68 493 41T509 -21Q509 -95 452 -143T280 -192ZM348
158Q365 167 376 183T387 220Q387 234 382 244T368 263T345 279L252 330Q240 325 230 316T214 296T208 270Q208 249 218 237T245 215L348 158Z" />
<glyph unicode="&#xa8;" horiz-adv-x="600" d="M405 536Q367 536 345 558T322 615Q322 649 344 671T405 694Q443 694 465 672T488 615Q488 581 466 559T405 536ZM195 536Q157 536 135 558T112 615Q112 649 134 671T195 694Q233 694 255 672T278 615Q278 581 256
559T195 536Z" />
<glyph unicode="&#xa9;" horiz-adv-x="780" d="M390 -10Q280 -10 198 34T71 156T26 334Q26 434 71 511T198 633T390 678Q500 678 582 634T709 512T754 334Q754 234 709 157T582 35T390 -10ZM402 168Q321 168 274 214T226 334Q226 408 273 454T402 500Q435 500
463 492T519 466L480 378Q457 389 440 394T402 399Q376 399 361 381T345 334Q345 305 360 287T402 269Q422 269 439 274T480 290L519 202Q492 184 464 176T402 168ZM390 86Q470 86 528 117T618 205T650 334Q650 408 618 463T528 550T390 582Q311 582 253 551T162
464T130 334Q130 261 162 205T252 118T390 86Z" />
<glyph unicode="&#xaa;" horiz-adv-x="512" d="M178 232Q137 232 102 246T47 289T26 362Q26 407 47 433T103 472T178 491L300 506Q292 526 274 534T233 543Q207 543 177 535T104 507L57 620Q105 649 153 661T246 674Q352 674 409 632T466 499V240H313V276Q286
250 256 241T178 232ZM234 350Q254 350 270 357T295 377T304 403V411L234 402Q212 399 201 392T190 373Q190 362 201 356T234 350Z" />
<glyph unicode="&#xab;" horiz-adv-x="542" d="M356 113L256 286L356 461H516L416 286L516 113H356ZM126 113L26 286L126 461H286L186 286L286 113H126Z" />
<glyph unicode="&#xac;" horiz-adv-x="582" d="M378 175V345H46V493H536V175H378Z" />
<glyph unicode="&#xad;" horiz-adv-x="368" d="M26 217V355H342V217H26Z" />
<glyph unicode="&#xae;" horiz-adv-x="558" d="M279 190Q203 190 146 222T58 310T26 433Q26 502 57 557T146 645T279 678Q355 678 412 646T500 558T532 433Q532 365 501 310T412 223T279 190ZM279 247Q339 247 381 271T447 337T470 433Q470 488 447 530T382 596T279
621Q220 621 177 597T111 530T88 433Q88 380 111 338T177 271T279 247ZM181 314V556H291Q338 556 362 536T387 478Q387 450 374 432T333 405L399 314H315L259 399H249V314H181ZM249 452H280Q300 452 308 458T317 477Q317 490 309 496T280 502H249V452Z" />
<glyph unicode="&#xaf;" horiz-adv-x="600" d="M136 560V670H464V560H136Z" />
<glyph unicode="&#xb0;" horiz-adv-x="362" d="M181 400Q109 400 68 438T26 539Q26 601 67 639T181 678Q253 678 294 640T336 539Q336 477 295 439T181 400ZM181 485Q205 485 221 500T237 539Q237 563 221 578T181 593Q157 593 141 578T125 539Q125 515 141 500T181 485Z" />
<glyph unicode="&#xb1;" horiz-adv-x="582" d="M212 197V348H46V496H212V647H370V496H536V348H370V197H212ZM46 0V148H536V0H46Z" />
<glyph unicode="&#xb2;" horiz-adv-x="348" d="M26 408V515L149 618Q166 632 174 644T182 670Q182 684 173 692T148 701Q134 701 117 695T65 670L26 758Q61 783 94 795T166 808Q234 808 275 776T316 682Q316 651 299 622T231 552L187 515H322V408H26Z" />
<glyph unicode="&#xb3;" horiz-adv-x="362" d="M175 402Q136 402 99 414T26 451L66 540Q101 521 123 515T165 509Q185 509 193 516T202 538Q202 552 194 559T165 567H113V655H165Q182 655 189 661T196 678Q196 689 189 695T165 701Q149 701 128 695T72 670L32
758Q69 783 104 795T175 808Q243 808 286 777T330 694Q330 665 316 642T271 611Q304 602 320 577T336 521Q336 470 292 436T175 402Z" />
<glyph unicode="&#xb4;" horiz-adv-x="600" d="M200 534L260 696H434L320 534H200Z" />
<glyph unicode="&#xb5;" horiz-adv-x="570" d="M46 -182V470H226V203Q226 175 238 160T275 144Q304 144 324 162T344 223V470H524V0H354V46Q346 19 323 5T270 -10Q258 -10 247 -8T226 0V-182H46Z" />
<glyph unicode="&#xb6;" horiz-adv-x="616" d="M230 -182V280Q172 280 126 304T53 372T26 474Q26 532 52 575T125 643T230 668H560V-182H430V542H360V-182H230Z" />
<glyph unicode="&#xb7;" horiz-adv-x="302" d="M151 192Q106 192 79 218T52 286Q52 327 79 353T151 380Q196 380 223 354T250 286Q250 245 223 219T151 192Z" />
<glyph unicode="&#xb8;" horiz-adv-x="600" d="M275 -214Q261 -214 236 -212T183 -201V-119Q203 -124 226 -126T264 -129Q287 -129 298 -123T310 -103Q310 -90 299 -84T264 -77H243V-40L266 11H344L321 -40Q363 -40 390 -57T417 -112Q417 -157 381 -185T275 -214Z" />
<glyph unicode="&#xb9;" horiz-adv-x="282" d="M94 408V668L47 645L6 736L140 802H226V408H94Z" />
<glyph unicode="&#xba;" horiz-adv-x="538" d="M269 232Q199 232 144 259T58 337T26 453Q26 519 57 569T144 646T269 674Q340 674 394 647T480 569T512 453Q512 387 481 337T395 260T269 232ZM269 371Q304 371 326 393T348 453Q348 491 326 513T269 535Q234 535
212 513T190 453Q190 415 212 393T269 371Z" />
<glyph unicode="&#xbb;" horiz-adv-x="542" d="M256 113L356 286L256 461H416L516 286L416 113H256ZM26 113L126 286L26 461H186L286 286L186 113H26Z" />
<glyph unicode="&#xbc;" horiz-adv-x="774" d="M126 0L484 668H604L246 0H126ZM94 274V534L47 511L6 602L140 668H226V274H94ZM582 0V70H410V177L582 394H701V163H748V70H701V0H582ZM510 163H582V256L510 163Z" />
<glyph unicode="&#xbd;" horiz-adv-x="793" d="M126 0L484 668H604L246 0H126ZM94 274V534L47 511L6 602L140 668H226V274H94ZM471 0V107L594 210Q611 224 619 236T627 262Q627 276 618 284T593 293Q579 293 562 287T510 262L471 350Q506 375 539 387T611 400Q679
400 720 368T761 274Q761 243 744 214T676 144L632 107H767V0H471Z" />
<glyph unicode="&#xbe;" horiz-adv-x="844" d="M196 0L554 668H674L316 0H196ZM175 268Q136 268 99 280T26 317L66 406Q101 387 123 381T165 375Q185 375 193 382T202 404Q202 418 194 425T165 433H113V521H165Q182 521 189 527T196 544Q196 555 189 561T165 567Q149
567 128 561T72 536L32 624Q69 649 104 661T175 674Q243 674 286 643T330 560Q330 531 316 508T271 477Q304 468 320 443T336 387Q336 336 292 302T175 268ZM652 0V70H480V177L652 394H771V163H818V70H771V0H652ZM580 163H652V256L580 163Z" />
<glyph unicode="&#xbf;" horiz-adv-x="474" d="M252 -192Q183 -192 129 -170T43 -104T12 1Q12 37 28 64T67 113T113 155T152 195T168 238V250H318V218Q318 188 307 165T278 123T244 88T216 56T204 21Q204 3 213 -10T237 -31T272 -38Q298 -38 329 -27T419 14L474
-108Q421 -150 368 -171T252 -192ZM243 308Q198 308 171 334T144 402Q144 443 171 469T243 496Q288 496 315 470T342 402Q342 361 315 335T243 308Z" />
<glyph unicode="&#xc0;" horiz-adv-x="712" d="M2 0L251 668H461L710 0H504L473 97H239L208 0H2ZM287 251H425L356 471L287 251ZM300 732L186 894H360L420 732H300Z" />
<glyph unicode="&#xc1;" horiz-adv-x="712" d="M2 0L251 668H461L710 0H504L473 97H239L208 0H2ZM287 251H425L356 471L287 251ZM301 732L361 894H535L421 732H301Z" />
<glyph unicode="&#xc2;" horiz-adv-x="712" d="M2 0L251 668H461L710 0H504L473 97H239L208 0H2ZM287 251H425L356 471L287 251ZM182 732L276 894H436L530 732H400L356 803L312 732H182Z" />
<glyph unicode="&#xc3;" horiz-adv-x="712" d="M2 0L251 668H461L710 0H504L473 97H239L208 0H2ZM287 251H425L356 471L287 251ZM172 732Q172 778 183 814T220 872T290 894Q313 894 331 886T365 868T393 850T416 842Q428 842 435 856T444 894H540Q540 849 529
812T492 754T422 732Q399 732 381 740T347 758T319 776T296 784Q284 784 277 770T268 732H172Z" />
<glyph unicode="&#xc4;" horiz-adv-x="712" d="M2 0L251 668H461L710 0H504L473 97H239L208 0H2ZM287 251H425L356 471L287 251ZM461 734Q423 734 401 756T378 813Q378 847 400 869T461 892Q499 892 521 870T544 813Q544 779 522 757T461 734ZM251 734Q213 734
191 756T168 813Q168 847 190 869T251 892Q289 892 311 870T334 813Q334 779 312 757T251 734Z" />
<glyph unicode="&#xc5;" horiz-adv-x="712" d="M2 0L251 668H461L710 0H504L473 97H239L208 0H2ZM287 251H425L356 471L287 251ZM356 702Q299 702 266 732T232 813Q232 863 265 893T356 924Q413 924 446 894T480 813Q480 763 447 733T356 702ZM356 770Q375 770
387 782T400 813Q400 832 388 844T356 856Q337 856 325 844T312 813Q312 794 324 782T356 770Z" />
<glyph unicode="&#xc6;" horiz-adv-x="1018" d="M2 0L403 668H976V510H658V417H946V271H658V158H976V0H468V97H261L208 0H2ZM344 251H468V480L344 251Z" />
<glyph unicode="&#xc7;" horiz-adv-x="652" d="M390 -10Q280 -10 198 34T71 156T26 334Q26 434 71 511T199 633T390 678Q455 678 513 662T632 607L569 465Q517 491 475 502T390 514Q340 514 301 492T240 429T218 334Q218 280 240 240T301 177T390 154Q432 154
474 165T569 203L632 61Q572 23 514 7T390 -10ZM334 -214Q320 -214 295 -212T242 -201V-119Q262 -124 285 -126T323 -129Q346 -129 357 -123T369 -103Q369 -90 358 -84T323 -77H302V-40L325 11H403L380 -40Q422 -40 449 -57T476 -112Q476 -157 440 -185T334 -214Z"
/>
<glyph unicode="&#xc8;" horiz-adv-x="606" d="M56 0V668H564V510H246V417H534V271H246V158H564V0H56ZM247 732L133 894H307L367 732H247Z" />
<glyph unicode="&#xc9;" horiz-adv-x="606" d="M56 0V668H564V510H246V417H534V271H246V158H564V0H56ZM248 732L308 894H482L368 732H248Z" />
<glyph unicode="&#xca;" horiz-adv-x="606" d="M56 0V668H564V510H246V417H534V271H246V158H564V0H56ZM129 732L223 894H383L477 732H347L303 803L259 732H129Z" />
<glyph unicode="&#xcb;" horiz-adv-x="606" d="M56 0V668H564V510H246V417H534V271H246V158H564V0H56ZM408 734Q370 734 348 756T325 813Q325 847 347 869T408 892Q446 892 468 870T491 813Q491 779 469 757T408 734ZM198 734Q160 734 138 756T115 813Q115 847
137 869T198 892Q236 892 258 870T281 813Q281 779 259 757T198 734Z" />
<glyph unicode="&#xcc;" horiz-adv-x="302" d="M56 0V668H246V0H56ZM95 732L-19 894H155L215 732H95Z" />
<glyph unicode="&#xcd;" horiz-adv-x="302" d="M56 0V668H246V0H56ZM96 732L156 894H330L216 732H96Z" />
<glyph unicode="&#xce;" horiz-adv-x="302" d="M56 0V668H246V0H56ZM-23 732L71 894H231L325 732H195L151 803L107 732H-23Z" />
<glyph unicode="&#xcf;" horiz-adv-x="302" d="M56 0V668H246V0H56ZM256 734Q218 734 196 756T173 813Q173 847 195 869T256 892Q294 892 316 870T339 813Q339 779 317 757T256 734ZM46 734Q8 734 -14 756T-37 813Q-37 847 -15 869T46 892Q84 892 106 870T129
813Q129 779 107 757T46 734Z" />
<glyph unicode="&#xd0;" horiz-adv-x="710" d="M56 0V289H6V399H56V668H310Q491 668 587 584T684 334Q684 168 588 84T310 0H56ZM246 158H310Q411 158 451 202T492 334Q492 422 452 466T310 510H246V399H352V289H246V158Z" />
<glyph unicode="&#xd1;" horiz-adv-x="720" d="M56 0V668H256L474 290V668H664V0H464L246 378V0H56ZM176 732Q176 778 187 814T224 872T294 894Q317 894 335 886T369 868T397 850T420 842Q432 842 439 856T448 894H544Q544 849 533 812T496 754T426 732Q403 732
385 740T351 758T323 776T300 784Q288 784 281 770T272 732H176Z" />
<glyph unicode="&#xd2;" horiz-adv-x="780" d="M390 -10Q280 -10 198 34T71 156T26 334Q26 434 71 511T199 633T390 678Q500 678 582 634T709 512T754 334Q754 234 709 157T582 35T390 -10ZM390 154Q440 154 479 176T540 239T562 334Q562 388 540 428T479 491T390
514Q340 514 301 492T240 429T218 334Q218 280 240 240T301 177T390 154ZM334 732L220 894H394L454 732H334Z" />
<glyph unicode="&#xd3;" horiz-adv-x="780" d="M390 -10Q280 -10 198 34T71 156T26 334Q26 434 71 511T199 633T390 678Q500 678 582 634T709 512T754 334Q754 234 709 157T582 35T390 -10ZM390 154Q440 154 479 176T540 239T562 334Q562 388 540 428T479 491T390
514Q340 514 301 492T240 429T218 334Q218 280 240 240T301 177T390 154ZM335 732L395 894H569L455 732H335Z" />
<glyph unicode="&#xd4;" horiz-adv-x="780" d="M390 -10Q280 -10 198 34T71 156T26 334Q26 434 71 511T199 633T390 678Q500 678 582 634T709 512T754 334Q754 234 709 157T582 35T390 -10ZM390 154Q440 154 479 176T540 239T562 334Q562 388 540 428T479 491T390
514Q340 514 301 492T240 429T218 334Q218 280 240 240T301 177T390 154ZM216 732L310 894H470L564 732H434L390 803L346 732H216Z" />
<glyph unicode="&#xd5;" horiz-adv-x="780" d="M390 -10Q280 -10 198 34T71 156T26 334Q26 434 71 511T199 633T390 678Q500 678 582 634T709 512T754 334Q754 234 709 157T582 35T390 -10ZM390 154Q440 154 479 176T540 239T562 334Q562 388 540 428T479 491T390
514Q340 514 301 492T240 429T218 334Q218 280 240 240T301 177T390 154ZM206 732Q206 778 217 814T254 872T324 894Q347 894 365 886T399 868T427 850T450 842Q462 842 469 856T478 894H574Q574 849 563 812T526 754T456 732Q433 732 415 740T381 758T353 776T330
784Q318 784 311 770T302 732H206Z" />
<glyph unicode="&#xd6;" horiz-adv-x="780" d="M390 -10Q280 -10 198 34T71 156T26 334Q26 434 71 511T199 633T390 678Q500 678 582 634T709 512T754 334Q754 234 709 157T582 35T390 -10ZM390 154Q440 154 479 176T540 239T562 334Q562 388 540 428T479 491T390
514Q340 514 301 492T240 429T218 334Q218 280 240 240T301 177T390 154ZM495 734Q457 734 435 756T412 813Q412 847 434 869T495 892Q533 892 555 870T578 813Q578 779 556 757T495 734ZM285 734Q247 734 225 756T202 813Q202 847 224 869T285 892Q323 892 345
870T368 813Q368 779 346 757T285 734Z" />
<glyph unicode="&#xd7;" horiz-adv-x="582" d="M158 89L46 201L179 334L46 467L158 579L291 446L424 579L536 467L403 334L536 201L424 89L291 222L158 89Z" />
<glyph unicode="&#xd8;" horiz-adv-x="780" d="M88 -10L26 63L92 124Q60 167 43 220T26 334Q26 434 71 511T199 633T390 678Q458 678 515 660T618 610L692 678L754 605L687 543Q719 500 736 448T754 334Q754 234 709 157T582 35T390 -10Q321 -10 264 7T161 57L88
-10ZM390 154Q440 154 479 176T540 239T562 334Q562 355 558 374T546 413L294 180Q314 167 338 161T390 154ZM233 254L485 487Q465 501 441 507T390 514Q340 514 301 492T240 429T218 334Q218 290 233 254Z" />
<glyph unicode="&#xd9;" horiz-adv-x="720" d="M360 -10Q213 -10 135 60T56 278V668H246V278Q246 239 258 211T295 169T360 154Q400 154 425 168T462 211T474 278V668H664V278Q664 131 586 61T360 -10ZM304 732L190 894H364L424 732H304Z" />
<glyph unicode="&#xda;" horiz-adv-x="720" d="M360 -10Q213 -10 135 60T56 278V668H246V278Q246 239 258 211T295 169T360 154Q400 154 425 168T462 211T474 278V668H664V278Q664 131 586 61T360 -10ZM305 732L365 894H539L425 732H305Z" />
<glyph unicode="&#xdb;" horiz-adv-x="720" d="M360 -10Q213 -10 135 60T56 278V668H246V278Q246 239 258 211T295 169T360 154Q400 154 425 168T462 211T474 278V668H664V278Q664 131 586 61T360 -10ZM186 732L280 894H440L534 732H404L360 803L316 732H186Z" />
<glyph unicode="&#xdc;" horiz-adv-x="720" d="M360 -10Q213 -10 135 60T56 278V668H246V278Q246 239 258 211T295 169T360 154Q400 154 425 168T462 211T474 278V668H664V278Q664 131 586 61T360 -10ZM465 734Q427 734 405 756T382 813Q382 847 404 869T465 892Q503
892 525 870T548 813Q548 779 526 757T465 734ZM255 734Q217 734 195 756T172 813Q172 847 194 869T255 892Q293 892 315 870T338 813Q338 779 316 757T255 734Z" />
<glyph unicode="&#xdd;" horiz-adv-x="692" d="M251 0V247L2 668H224L346 427L468 668H690L441 247V0H251ZM291 732L351 894H525L411 732H291Z" />
<glyph unicode="&#xde;" horiz-adv-x="652" d="M56 0V668H246V561H362Q497 561 561 500T626 334Q626 229 562 168T362 107H246V0H56ZM246 255H332Q381 255 407 273T434 334Q434 376 408 394T332 413H246V255Z" />
<glyph unicode="&#xdf;" horiz-adv-x="600" d="M361 -10Q343 -10 326 -8T289 0V140Q296 139 300 139T310 138Q347 138 369 158T392 210Q392 247 363 263T289 280V408Q311 408 331 424T352 469Q352 498 334 514T289 530Q261 530 244 514T226 469V0H46V433Q46 504
71 559T150 646T289 678Q399 678 465 629T532 494Q532 449 513 414T459 355Q516 334 545 294T574 189Q574 128 550 83T478 14T361 -10Z" />
<glyph unicode="&#xe0;" horiz-adv-x="560" d="M195 -10Q150 -10 112 5T50 53T26 134Q26 184 49 213T111 257T195 277L329 293Q321 316 300 325T255 335Q226 335 193 326T112 295L60 420Q113 452 166 466T270 480Q388 480 451 434T514 286V0H344V39Q314 11 282
1T195 -10ZM257 121Q279 121 296 129T324 150T334 180V189L257 178Q232 174 220 167T208 146Q208 133 220 127T257 121ZM480 534L366 696H540L600 534H480Z" />
<glyph unicode="&#xe1;" horiz-adv-x="560" d="M195 -10Q150 -10 112 5T50 53T26 134Q26 184 49 213T111 257T195 277L329 293Q321 316 300 325T255 335Q226 335 193 326T112 295L60 420Q113 452 166 466T270 480Q388 480 451 434T514 286V0H344V39Q314 11 282
1T195 -10ZM257 121Q279 121 296 129T324 150T334 180V189L257 178Q232 174 220 167T208 146Q208 133 220 127T257 121ZM225 534L285 696H459L345 534H225Z" />
<glyph unicode="&#xe2;" horiz-adv-x="560" d="M195 -10Q150 -10 112 5T50 53T26 134Q26 184 49 213T111 257T195 277L329 293Q321 316 300 325T255 335Q226 335 193 326T112 295L60 420Q113 452 166 466T270 480Q388 480 451 434T514 286V0H344V39Q314 11 282
1T195 -10ZM257 121Q279 121 296 129T324 150T334 180V189L257 178Q232 174 220 167T208 146Q208 133 220 127T257 121ZM362 534L456 696H616L710 534H580L536 605L492 534H362Z" />
<glyph unicode="&#xe3;" horiz-adv-x="560" d="M195 -10Q150 -10 112 5T50 53T26 134Q26 184 49 213T111 257T195 277L329 293Q321 316 300 325T255 335Q226 335 193 326T112 295L60 420Q113 452 166 466T270 480Q388 480 451 434T514 286V0H344V39Q314 11 282
1T195 -10ZM257 121Q279 121 296 129T324 150T334 180V189L257 178Q232 174 220 167T208 146Q208 133 220 127T257 121ZM352 534Q352 580 363 616T400 674T470 696Q493 696 511 688T545 670T573 652T596 644Q608 644 615 658T624 696H720Q720 651 709 614T672 556T602
534Q579 534 561 542T527 560T499 578T476 586Q464 586 457 572T448 534H352Z" />
<glyph unicode="&#xe4;" horiz-adv-x="560" d="M195 -10Q150 -10 112 5T50 53T26 134Q26 184 49 213T111 257T195 277L329 293Q321 316 300 325T255 335Q226 335 193 326T112 295L60 420Q113 452 166 466T270 480Q388 480 451 434T514 286V0H344V39Q314 11 282
1T195 -10ZM257 121Q279 121 296 129T324 150T334 180V189L257 178Q232 174 220 167T208 146Q208 133 220 127T257 121ZM641 536Q603 536 581 558T558 615Q558 649 580 671T641 694Q679 694 701 672T724 615Q724 581 702 559T641 536ZM431 536Q393 536 371 558T348
615Q348 649 370 671T431 694Q469 694 491 672T514 615Q514 581 492 559T431 536Z" />
<glyph unicode="&#xe5;" horiz-adv-x="560" d="M195 -10Q150 -10 112 5T50 53T26 134Q26 184 49 213T111 257T195 277L329 293Q321 316 300 325T255 335Q226 335 193 326T112 295L60 420Q113 452 166 466T270 480Q388 480 451 434T514 286V0H344V39Q314 11 282
1T195 -10ZM257 121Q279 121 296 129T324 150T334 180V189L257 178Q232 174 220 167T208 146Q208 133 220 127T257 121ZM536 504Q479 504 446 534T412 615Q412 665 445 695T536 726Q593 726 626 696T660 615Q660 565 627 535T536 504ZM536 572Q555 572 567 584T580
615Q580 634 568 646T536 658Q517 658 505 646T492 615Q492 596 504 584T536 572Z" />
<glyph unicode="&#xe6;" horiz-adv-x="868" d="M195 -10Q150 -10 112 5T50 53T26 134Q26 184 49 213T111 257T195 277L329 293Q321 316 300 325T255 335Q226 335 193 326T112 295L60 420Q113 452 166 466T270 480Q326 480 368 468T439 431Q471 456 509 468T593
480Q666 480 722 454T810 382T842 274Q842 254 837 231T823 191H516Q521 171 535 158T574 138T632 131Q670 131 706 142T773 169L822 49Q777 20 723 5T612 -10Q551 -10 498 8T408 67Q380 37 325 14T195 -10ZM257 121Q279 121 296 129T324 150T334 180V189L257 178Q232
174 220 167T208 146Q208 133 220 127T257 121ZM516 297H658Q659 300 659 302T660 307Q660 319 653 328T633 343T597 349Q574 349 557 342T530 323T516 297Z" />
<glyph unicode="&#xe7;" horiz-adv-x="492" d="M295 -10Q217 -10 157 20T61 106T26 235Q26 308 61 363T156 449T295 480Q346 480 388 468T472 428L413 294Q379 311 353 318T295 326Q270 326 250 315T219 284T208 235Q208 207 219 187T250 155T295 144Q326 144
352 151T413 176L472 42Q431 15 389 3T295 -10ZM497 -214Q483 -214 458 -212T405 -201V-119Q425 -124 448 -126T486 -129Q509 -129 520 -123T532 -103Q532 -90 521 -84T486 -77H465V-40L488 11H566L543 -40Q585 -40 612 -57T639 -112Q639 -157 603 -185T497 -214Z"
/>
<glyph unicode="&#xe8;" horiz-adv-x="560" d="M304 -10Q230 -10 167 16T65 96T26 235Q26 310 60 365T153 450T285 480Q358 480 414 454T502 382T534 274Q534 254 529 231T515 191H208Q213 171 227 158T266 138T324 131Q362 131 398 142T465 169L514 49Q469 20
415 5T304 -10ZM208 297H350Q351 300 351 302T352 307Q352 319 345 328T325 343T289 349Q266 349 249 342T222 323T208 297ZM480 534L366 696H540L600 534H480Z" />
<glyph unicode="&#xe9;" horiz-adv-x="560" d="M304 -10Q230 -10 167 16T65 96T26 235Q26 310 60 365T153 450T285 480Q358 480 414 454T502 382T534 274Q534 254 529 231T515 191H208Q213 171 227 158T266 138T324 131Q362 131 398 142T465 169L514 49Q469 20
415 5T304 -10ZM208 297H350Q351 300 351 302T352 307Q352 319 345 328T325 343T289 349Q266 349 249 342T222 323T208 297ZM225 534L285 696H459L345 534H225Z" />
<glyph unicode="&#xea;" horiz-adv-x="560" d="M304 -10Q230 -10 167 16T65 96T26 235Q26 310 60 365T153 450T285 480Q358 480 414 454T502 382T534 274Q534 254 529 231T515 191H208Q213 171 227 158T266 138T324 131Q362 131 398 142T465 169L514 49Q469 20
415 5T304 -10ZM208 297H350Q351 300 351 302T352 307Q352 319 345 328T325 343T289 349Q266 349 249 342T222 323T208 297ZM362 534L456 696H616L710 534H580L536 605L492 534H362Z" />
<glyph unicode="&#xeb;" horiz-adv-x="560" d="M304 -10Q230 -10 167 16T65 96T26 235Q26 310 60 365T153 450T285 480Q358 480 414 454T502 382T534 274Q534 254 529 231T515 191H208Q213 171 227 158T266 138T324 131Q362 131 398 142T465 169L514 49Q469 20
415 5T304 -10ZM208 297H350Q351 300 351 302T352 307Q352 319 345 328T325 343T289 349Q266 349 249 342T222 323T208 297ZM641 536Q603 536 581 558T558 615Q558 649 580 671T641 694Q679 694 701 672T724 615Q724 581 702 559T641 536ZM431 536Q393 536 371
558T348 615Q348 649 370 671T431 694Q469 694 491 672T514 615Q514 581 492 559T431 536Z" />
<glyph unicode="&#xec;" horiz-adv-x="272" d="M46 0V470H226V0H46ZM80 534L-34 696H140L200 534H80Z" />
<glyph unicode="&#xed;" horiz-adv-x="272" d="M46 0V470H226V0H46ZM337 534L397 696H571L457 534H337Z" />
<glyph unicode="&#xee;" horiz-adv-x="272" d="M46 0V470H226V0H46ZM-38 534L56 696H216L310 534H180L136 605L92 534H-38Z" />
<glyph unicode="&#xef;" horiz-adv-x="272" d="M46 0V470H226V0H46ZM241 536Q203 536 181 558T158 615Q158 649 180 671T241 694Q279 694 301 672T324 615Q324 581 302 559T241 536ZM31 536Q-7 536 -29 558T-52 615Q-52 649 -30 671T31 694Q69 694 91 672T114
615Q114 581 92 559T31 536Z" />
<glyph unicode="&#xf0;" horiz-adv-x="590" d="M295 -10Q217 -10 157 19T61 101T26 224Q26 291 54 339T134 412T256 438Q272 438 288 436T317 428L262 505L144 468V568L203 586L144 668H325L350 633L460 668V568L408 551L491 435Q517 399 533 368T556 303T564
224Q564 154 529 102T434 20T295 -10ZM295 144Q322 144 341 155T371 185T382 229Q382 254 372 273T342 303T295 314Q269 314 249 303T219 273T208 229Q208 205 218 186T249 155T295 144Z" />
<glyph unicode="&#xf1;" horiz-adv-x="570" d="M46 0V470H216V424Q238 450 271 465T354 480Q432 480 478 435T524 296V0H344V267Q344 295 332 310T295 326Q266 326 246 308T226 247V0H46ZM357 534Q357 580 368 616T405 674T475 696Q498 696 516 688T550 670T578
652T601 644Q613 644 620 658T629 696H725Q725 651 714 614T677 556T607 534Q584 534 566 542T532 560T504 578T481 586Q469 586 462 572T453 534H357Z" />
<glyph unicode="&#xf2;" horiz-adv-x="590" d="M295 -10Q217 -10 157 20T61 106T26 235Q26 308 61 363T156 449T295 480Q373 480 433 449T529 363T564 235Q564 162 529 107T434 21T295 -10ZM296 144Q321 144 340 155T371 186T382 235Q382 263 371 283T341 315T295
326Q270 326 250 315T219 284T208 235Q208 207 219 187T250 155T296 144ZM495 534L381 696H555L615 534H495Z" />
<glyph unicode="&#xf3;" horiz-adv-x="590" d="M295 -10Q217 -10 157 20T61 106T26 235Q26 308 61 363T156 449T295 480Q373 480 433 449T529 363T564 235Q564 162 529 107T434 21T295 -10ZM296 144Q321 144 340 155T371 186T382 235Q382 263 371 283T341 315T295
326Q270 326 250 315T219 284T208 235Q208 207 219 187T250 155T296 144ZM240 534L300 696H474L360 534H240Z" />
<glyph unicode="&#xf4;" horiz-adv-x="590" d="M295 -10Q217 -10 157 20T61 106T26 235Q26 308 61 363T156 449T295 480Q373 480 433 449T529 363T564 235Q564 162 529 107T434 21T295 -10ZM296 144Q321 144 340 155T371 186T382 235Q382 263 371 283T341 315T295
326Q270 326 250 315T219 284T208 235Q208 207 219 187T250 155T296 144ZM377 534L471 696H631L725 534H595L551 605L507 534H377Z" />
<glyph unicode="&#xf5;" horiz-adv-x="590" d="M295 -10Q217 -10 157 20T61 106T26 235Q26 308 61 363T156 449T295 480Q373 480 433 449T529 363T564 235Q564 162 529 107T434 21T295 -10ZM296 144Q321 144 340 155T371 186T382 235Q382 263 371 283T341 315T295
326Q270 326 250 315T219 284T208 235Q208 207 219 187T250 155T296 144ZM367 534Q367 580 378 616T415 674T485 696Q508 696 526 688T560 670T588 652T611 644Q623 644 630 658T639 696H735Q735 651 724 614T687 556T617 534Q594 534 576 542T542 560T514 578T491
586Q479 586 472 572T463 534H367Z" />
<glyph unicode="&#xf6;" horiz-adv-x="590" d="M295 -10Q217 -10 157 20T61 106T26 235Q26 308 61 363T156 449T295 480Q373 480 433 449T529 363T564 235Q564 162 529 107T434 21T295 -10ZM296 144Q321 144 340 155T371 186T382 235Q382 263 371 283T341 315T295
326Q270 326 250 315T219 284T208 235Q208 207 219 187T250 155T296 144ZM656 536Q618 536 596 558T573 615Q573 649 595 671T656 694Q694 694 716 672T739 615Q739 581 717 559T656 536ZM446 536Q408 536 386 558T363 615Q363 649 385 671T446 694Q484 694 506
672T529 615Q529 581 507 559T446 536Z" />
<glyph unicode="&#xf7;" horiz-adv-x="582" d="M46 260V408H536V260H46ZM291 56Q250 56 227 80T203 140Q203 176 226 200T291 224Q332 224 355 200T379 140Q379 104 356 80T291 56ZM291 444Q250 444 227 468T203 528Q203 564 226 588T291 612Q332 612 355 588T379
528Q379 492 356 468T291 444Z" />
<glyph unicode="&#xf8;" horiz-adv-x="590" d="M81 -10L26 49L509 480L564 421L81 -10ZM295 -10Q217 -10 157 20T61 106T26 235Q26 308 61 363T156 449T295 480Q373 480 433 449T529 363T564 235Q564 162 529 107T434 21T295 -10ZM296 144Q321 144 340 155T371
186T382 235Q382 263 371 283T341 315T295 326Q270 326 250 315T219 284T208 235Q208 207 219 187T250 155T296 144Z" />
<glyph unicode="&#xf9;" horiz-adv-x="570" d="M216 -10Q138 -10 92 35T46 174V470H226V203Q226 175 238 160T275 144Q304 144 324 162T344 223V470H524V0H354V46Q332 20 299 5T216 -10ZM485 534L371 696H545L605 534H485Z" />
<glyph unicode="&#xfa;" horiz-adv-x="570" d="M216 -10Q138 -10 92 35T46 174V470H226V203Q226 175 238 160T275 144Q304 144 324 162T344 223V470H524V0H354V46Q332 20 299 5T216 -10ZM230 534L290 696H464L350 534H230Z" />
<glyph unicode="&#xfb;" horiz-adv-x="570" d="M216 -10Q138 -10 92 35T46 174V470H226V203Q226 175 238 160T275 144Q304 144 324 162T344 223V470H524V0H354V46Q332 20 299 5T216 -10ZM367 534L461 696H621L715 534H585L541 605L497 534H367Z" />
<glyph unicode="&#xfc;" horiz-adv-x="570" d="M216 -10Q138 -10 92 35T46 174V470H226V203Q226 175 238 160T275 144Q304 144 324 162T344 223V470H524V0H354V46Q332 20 299 5T216 -10ZM646 536Q608 536 586 558T563 615Q563 649 585 671T646 694Q684 694 706
672T729 615Q729 581 707 559T646 536ZM436 536Q398 536 376 558T353 615Q353 649 375 671T436 694Q474 694 496 672T519 615Q519 581 497 559T436 536Z" />
<glyph unicode="&#xfd;" horiz-adv-x="542" d="M142 -188Q104 -188 65 -180T2 -160L48 -28Q65 -34 86 -39T127 -44Q138 -44 147 -43T166 -39T182 -32L2 470H194L271 172L348 470H540L371 0Q348 -64 314 -106T237 -168T142 -188ZM216 534L276 696H450L336 534H216Z" />
<glyph unicode="&#xfe;" horiz-adv-x="600" d="M46 -182V668H226V435Q247 456 278 468T349 480Q412 480 463 451T544 368T574 235Q574 158 544 103T463 19T349 -10Q308 -10 278 1T226 35V-182H46ZM305 144Q331 144 350 155T381 186T392 235Q392 263 381 283T351
315T305 326Q280 326 260 315T229 284T218 235Q218 207 229 187T260 155T305 144Z" />
<glyph unicode="&#xff;" horiz-adv-x="542" d="M142 -188Q104 -188 65 -180T2 -160L48 -28Q65 -34 86 -39T127 -44Q138 -44 147 -43T166 -39T182 -32L2 470H194L271 172L348 470H540L371 0Q348 -64 314 -106T237 -168T142 -188ZM632 536Q594 536 572 558T549 615Q549
649 571 671T632 694Q670 694 692 672T715 615Q715 581 693 559T632 536ZM422 536Q384 536 362 558T339 615Q339 649 361 671T422 694Q460 694 482 672T505 615Q505 581 483 559T422 536Z" />
<glyph unicode="&#x2013;" horiz-adv-x="568" d="M26 217V355H542V217H26Z" />
<glyph unicode="&#x2014;" horiz-adv-x="798" d="M26 217V355H772V217H26Z" />
<glyph unicode="&#x2018;" horiz-adv-x="302" d="M72 342V440Q72 520 101 573T192 668L284 623Q260 581 245 530T230 440V342H72Z" />
<glyph unicode="&#x2019;" horiz-adv-x="302" d="M110 342L18 387Q42 429 57 481T72 570V668H230V570Q230 490 201 437T110 342Z" />
<glyph unicode="&#x201a;" horiz-adv-x="302" d="M110 -168L18 -123Q42 -81 57 -29T72 60V158H230V60Q230 -20 201 -73T110 -168Z" />
<glyph unicode="&#x201c;" horiz-adv-x="532" d="M302 342V440Q302 520 331 573T422 668L514 623Q490 581 475 530T460 440V342H302ZM72 342V440Q72 520 101 573T192 668L284 623Q260 581 245 530T230 440V342H72Z" />
<glyph unicode="&#x201d;" horiz-adv-x="532" d="M340 342L248 387Q272 429 287 481T302 570V668H460V570Q460 490 431 437T340 342ZM110 342L18 387Q42 429 57 481T72 570V668H230V570Q230 490 201 437T110 342Z" />
<glyph unicode="&#x201e;" horiz-adv-x="532" d="M340 -168L248 -123Q272 -81 287 -29T302 60V158H460V60Q460 -20 431 -73T340 -168ZM110 -168L18 -123Q42 -81 57 -29T72 60V158H230V60Q230 -20 201 -73T110 -168Z" />
<glyph unicode="&#x2022;" horiz-adv-x="462" d="M231 126Q180 126 142 147T83 204T62 286Q62 332 83 368T142 425T231 446Q282 446 320 425T379 368T400 286Q400 240 379 204T320 147T231 126Z" />
<glyph unicode="&#x2039;" horiz-adv-x="312" d="M126 113L26 286L126 461H286L186 286L286 113H126Z" />
<glyph unicode="&#x203a;" horiz-adv-x="312" d="M26 113L126 286L26 461H186L286 286L186 113H26Z" />
</font>
</defs>
</svg>
