<?xml version="1.0" standalone="no"?>
<!DOCTYPE svg PUBLIC "-//W3C//DTD SVG 1.1//EN" "http://www.w3.org/Graphics/SVG/1.1/DTD/svg11.dtd">
<svg xmlns="http://www.w3.org/2000/svg">
<defs >
<font id="Gantari" horiz-adv-x="563" ><font-face
    font-family="Gantari ExtraBold"
    units-per-em="1000"
    panose-1="0 0 0 0 0 0 0 0 0 0"
    ascent="950"
    descent="-250"
    alphabetic="0" />
<glyph unicode=" " horiz-adv-x="224" />
<glyph unicode="!" horiz-adv-x="293" d="M88 229L61 486V668H233V486L205 229H88ZM146 -9Q105 -9 81 15T56 77Q56 114 80 138T146 163Q188 163 212 139T237 77Q237 40 213 16T146 -9Z" />
<glyph unicode="&quot;" horiz-adv-x="512" d="M308 352L286 668H446L424 352H308ZM88 352L66 668H227L205 352H88Z" />
<glyph unicode="#" horiz-adv-x="644" d="M74 0L104 160H10L29 268H123L146 400H53L72 508H164L192 668H329L300 508H404L432 668H569L540 508H633L614 400H521L497 268H591L572 160H479L451 0H314L343 160H240L211 0H74ZM258 268H362L385 400H282L258 268Z" />
<glyph unicode="$" horiz-adv-x="592" d="M150 -100L174 3Q136 13 101 31T31 75L89 204Q119 184 148 170T207 144L236 275L223 278Q134 296 93 339T51 450Q51 513 77 565T160 647T307 678Q313 678 318 678T329 677L350 768H442L418 664Q448 656 478 642T541 607L483
478Q457 491 433 502T385 522L359 411L375 408Q473 390 517 338T561 218Q561 111 491 51T284 -10Q278 -10 273 -10T263 -9L242 -100H150ZM295 131Q299 131 302 131T310 132Q346 138 366 154T387 198Q387 218 373 234T332 257L324 259L295 131ZM271 428L297 537Q293
537 288 537T279 535Q250 529 238 515T225 478Q225 462 233 451T259 432L271 428Z" />
<glyph unicode="%" horiz-adv-x="917" d="M225 0L582 668H693L335 0H225ZM202 268Q145 268 107 294T50 366T31 471Q31 530 50 576T107 648T202 674Q261 674 299 648T356 576T375 471Q375 412 356 366T299 294T202 268ZM202 366Q227 366 240 389T253 471Q253 530
240 553T202 576Q178 576 166 553T153 471Q153 412 165 389T202 366ZM715 -6Q657 -6 619 20T562 92T543 197Q543 256 562 302T619 374T715 400Q773 400 811 374T868 302T887 197Q887 138 868 92T811 20T715 -6ZM715 92Q740 92 752 115T765 197Q765 256 753 279T715
302Q690 302 678 279T665 197Q665 138 677 115T715 92Z" />
<glyph unicode="&amp;" horiz-adv-x="672" d="M247 -10Q178 -10 130 14T57 81T31 172Q31 239 63 286T159 356L175 361Q141 401 129 437T117 503Q117 549 140 589T207 653T319 678Q385 678 430 654T498 589T521 503Q521 457 492 413T389 336L379 331L452 253L500
324H653L540 157L685 0H499L451 53Q411 20 363 5T247 -10ZM278 118Q302 118 324 125T366 149L255 272L241 265Q220 256 208 236T195 190Q195 160 217 139T278 118ZM307 411L322 417Q347 426 359 448T372 497Q372 521 357 536T319 552Q296 552 281 537T266 497Q266
476 276 456T307 411Z" />
<glyph unicode="&apos;" horiz-adv-x="293" d="M88 352L66 668H227L205 352H88Z" />
<glyph unicode="(" horiz-adv-x="355" d="M226 -252Q188 -222 155 -170T96 -50T56 93T41 243Q41 318 55 393T95 535T154 655T226 738H345Q314 702 287 648T240 529T208 391T196 243Q196 168 207 95T240 -43T287 -162T345 -252H226Z" />
<glyph unicode=")" horiz-adv-x="355" d="M10 -252Q41 -216 68 -163T115 -43T147 95T159 243Q159 318 148 391T116 529T68 648T10 738H130Q168 708 201 656T260 536T300 393T315 243Q315 168 301 93T260 -49T201 -169T130 -252H10Z" />
<glyph unicode="*" horiz-adv-x="481" d="M171 268L73 338L161 441L31 472L67 585L191 535L181 668H300L290 535L414 585L451 472L321 441L408 338L311 268L241 381L171 268Z" />
<glyph unicode="+" horiz-adv-x="582" d="M219 94V267H51V401H219V574H363V401H531V267H363V94H219Z" />
<glyph unicode="," horiz-adv-x="293" d="M107 -165L24 -124Q47 -84 61 -36T75 51V145H218V51Q218 -25 191 -75T107 -165Z" />
<glyph unicode="-" horiz-adv-x="368" d="M31 223V349H337V223H31Z" />
<glyph unicode="." horiz-adv-x="293" d="M146 -9Q105 -9 81 15T56 77Q56 114 80 138T146 163Q188 163 212 139T237 77Q237 40 213 16T146 -9Z" />
<glyph unicode="/" horiz-adv-x="380" d="M8 0L226 668H371L153 0H8Z" />
<glyph unicode="0" horiz-adv-x="642" d="M321 -10Q224 -10 159 34T63 156T31 334Q31 434 62 511T159 633T321 678Q419 678 483 634T579 512T611 334Q611 234 580 157T484 35T321 -10ZM321 130Q358 130 383 151T422 217T437 334Q437 407 423 451T383 517T321 538Q285
538 259 517T219 452T205 334Q205 262 218 217T258 151T321 130Z" />
<glyph unicode="1" horiz-adv-x="400" d="M167 0V493L66 443L11 563L220 668H339V0H167Z" />
<glyph unicode="2" horiz-adv-x="554" d="M31 0V140L286 369Q313 395 326 419T339 465Q339 488 329 504T299 529T254 538Q216 538 178 522T85 473L31 593Q89 636 144 657T263 678Q337 678 393 653T481 581T513 465Q513 412 483 364T385 259L247 140H523V0H31Z" />
<glyph unicode="3" horiz-adv-x="574" d="M278 -10Q211 -10 149 11T31 75L85 195Q142 161 190 146T278 130Q318 130 343 149T369 204Q369 240 344 259T278 278H178V410H278Q313 410 336 425T359 474Q359 507 336 522T278 538Q245 538 199 523T95 473L41 593Q98
636 158 657T278 678Q353 678 410 655T500 589T533 487Q533 437 506 401T427 344Q484 322 513 283T543 191Q543 132 510 87T418 16T278 -10Z" />
<glyph unicode="4" horiz-adv-x="622" d="M341 0V132H31V291L331 668H503V263H591V132H503V0H341ZM172 263H341V484L172 263Z" />
<glyph unicode="5" horiz-adv-x="582" d="M286 -10Q228 -10 185 -1T106 28T31 75L86 195Q143 160 186 145T276 130Q323 130 350 155T377 221Q377 260 350 285T276 311Q240 311 218 297T185 260L41 285L111 678H501V538H239L213 409Q235 422 262 429T320 437Q392
437 443 410T523 335T551 223Q551 157 520 105T429 21T286 -10Z" />
<glyph unicode="6" horiz-adv-x="612" d="M316 -10Q232 -10 168 24T67 125T31 294Q31 409 66 495T172 630T344 678Q410 678 467 657T563 593L511 483Q468 514 432 526T362 538Q325 538 290 524T231 475T205 379Q227 404 264 420T350 437Q422 437 473 410T553 335T581
223Q581 157 550 105T459 21T316 -10ZM306 130Q353 130 380 155T407 221Q407 260 380 285T306 311Q259 311 232 286T205 220Q212 181 236 156T306 130Z" />
<glyph unicode="7" horiz-adv-x="514" d="M85 0L337 528H11V668H503V548L249 0H85Z" />
<glyph unicode="8" horiz-adv-x="612" d="M306 -10Q220 -10 159 16T64 87T31 191Q31 243 59 282T146 344Q94 365 68 401T41 487Q41 546 74 588T166 654T306 678Q386 678 445 655T538 589T571 487Q571 438 544 402T465 344Q524 321 552 282T581 191Q581 132 548
87T453 16T306 -10ZM306 121Q355 121 381 144T407 203Q407 239 381 262T306 285Q257 285 231 262T205 203Q205 167 231 144T306 121ZM306 403Q349 403 373 422T397 475Q397 508 373 527T306 547Q263 547 239 528T215 475Q215 442 239 423T306 403Z" />
<glyph unicode="9" horiz-adv-x="612" d="M268 -10Q202 -10 145 11T49 75L101 185Q144 154 181 142T250 130Q287 130 322 144T382 194T407 289Q385 264 348 248T262 231Q191 231 139 258T59 333T31 445Q31 511 62 563T154 647T296 678Q380 678 444 644T545 543T581
374Q581 259 546 173T441 38T268 -10ZM306 357Q353 357 380 382T407 448Q400 487 376 512T306 538Q259 538 232 513T205 447Q205 408 232 383T306 357Z" />
<glyph unicode=":" horiz-adv-x="293" d="M146 323Q105 323 81 347T56 409Q56 446 80 470T146 495Q188 495 212 471T237 409Q237 372 213 348T146 323ZM146 -9Q105 -9 81 15T56 77Q56 114 80 138T146 163Q188 163 212 139T237 77Q237 40 213 16T146 -9Z" />
<glyph unicode=";" horiz-adv-x="293" d="M107 -165L24 -124Q47 -84 61 -36T75 51V145H218V51Q218 -25 191 -75T107 -165ZM146 323Q105 323 81 347T56 409Q56 446 80 470T146 495Q188 495 212 471T237 409Q237 372 213 348T146 323Z" />
<glyph unicode="&lt;" horiz-adv-x="582" d="M531 98L51 263V405L531 570V427L220 334L531 241V98Z" />
<glyph unicode="=" horiz-adv-x="582" d="M51 380V514H531V380H51ZM51 154V288H531V154H51Z" />
<glyph unicode="&gt;" horiz-adv-x="582" d="M51 98V249L347 334L51 419V570L531 405V263L51 98Z" />
<glyph unicode="?" horiz-adv-x="474" d="M163 229V260Q163 291 175 315T205 358T241 395T271 430T283 467Q283 490 273 506T246 530T204 538Q177 538 145 526T56 481L5 593Q56 636 108 657T222 678Q290 678 343 655T426 590T457 485Q457 451 441 423T402 373T355
330T315 288T299 243V229H163ZM231 -9Q189 -9 165 15T141 77Q141 114 165 138T231 163Q273 163 297 139T321 77Q321 40 297 16T231 -9Z" />
<glyph unicode="@" horiz-adv-x="890" d="M445 -110Q352 -110 276 -81T145 1T61 127T31 284Q31 370 60 441T144 566T275 649T445 678Q539 678 615 651T746 576T830 463T859 324Q859 247 834 196T766 119T672 94Q626 94 593 115T539 178Q517 136 483 115T401 94Q330
94 285 145T239 284Q239 372 284 423T401 474Q438 474 463 462T506 427V466H629V273Q629 239 644 220T685 200Q716 200 733 229T751 324Q751 398 713 455T606 545T445 577Q353 577 284 541T177 439T139 284Q139 195 177 129T284 27T445 -9Q492 -9 536 1T615 30L652
-53Q610 -82 558 -96T445 -110ZM438 200Q472 200 491 222T511 284Q511 324 491 346T438 368Q404 368 384 346T364 284Q364 244 384 222T438 200Z" />
<glyph unicode="A" horiz-adv-x="710" d="M7 0L260 668H450L703 0H517L481 106H229L193 0H7ZM272 246H437L355 489L272 246Z" />
<glyph unicode="B" horiz-adv-x="694" d="M61 0V668H393Q475 668 531 650T615 595T643 496Q643 442 619 403T536 344Q602 326 632 286T663 182Q663 89 598 45T393 0H61ZM233 135H374Q417 135 442 142T478 166T489 208Q489 235 479 251T443 274T374 282H233V135ZM233
406H374Q430 406 449 421T469 470Q469 502 450 517T374 533H233V406Z" />
<glyph unicode="C" horiz-adv-x="654" d="M390 -10Q281 -10 200 34T75 156T31 334Q31 434 75 511T201 633T390 678Q456 678 514 661T630 606L571 477Q521 505 478 517T390 529Q335 529 293 505T228 437T205 334Q205 276 228 232T293 164T390 139Q435 139 478 151T571
191L630 62Q572 24 514 7T390 -10Z" />
<glyph unicode="D" horiz-adv-x="710" d="M61 0V668H310Q490 668 584 584T679 334Q679 168 585 84T310 0H61ZM233 144H309Q417 144 461 191T505 334Q505 429 461 476T309 524H233V144Z" />
<glyph unicode="E" horiz-adv-x="604" d="M61 0V668H559V524H233V410H529V278H233V144H559V0H61Z" />
<glyph unicode="F" horiz-adv-x="594" d="M61 0V668H559V524H233V410H529V278H233V0H61Z" />
<glyph unicode="G" horiz-adv-x="730" d="M390 -10Q281 -10 200 34T75 156T31 334Q31 434 75 511T201 633T390 678Q456 678 519 661T641 606L583 477Q532 505 484 517T390 529Q335 529 293 505T228 437T205 334Q205 276 228 232T293 164T390 139Q430 139 461 151T517
187V259H380V391H689V131Q643 65 567 28T390 -10Z" />
<glyph unicode="H" horiz-adv-x="720" d="M61 0V668H233V418H487V668H659V0H487V270H233V0H61Z" />
<glyph unicode="I" horiz-adv-x="293" d="M61 0V668H233V0H61Z" />
<glyph unicode="J" horiz-adv-x="526" d="M216 -10Q156 -10 112 6T21 58L78 181Q105 162 136 151T195 139Q242 139 267 165T293 253V668H465V261Q465 131 405 61T216 -10Z" />
<glyph unicode="K" horiz-adv-x="670" d="M61 0V668H233V399L452 668H653L409 379L663 0H462L302 254L233 170V0H61Z" />
<glyph unicode="L" horiz-adv-x="544" d="M61 0V668H233V149H509V0H61Z" />
<glyph unicode="M" horiz-adv-x="914" d="M61 0V668H331L456 237L581 668H853V0H681V503L530 0H383L233 503V0H61Z" />
<glyph unicode="N" horiz-adv-x="720" d="M61 0V668H243L487 260V668H659V0H477L233 408V0H61Z" />
<glyph unicode="O" horiz-adv-x="780" d="M390 -10Q281 -10 200 34T75 156T31 334Q31 434 75 511T200 633T390 678Q499 678 580 634T705 512T749 334Q749 234 705 157T580 35T390 -10ZM390 139Q445 139 486 163T551 232T575 334Q575 393 552 436T487 504T390 529Q335
529 293 505T228 437T205 334Q205 276 228 232T293 164T390 139Z" />
<glyph unicode="P" horiz-adv-x="650" d="M61 0V668H358Q491 668 555 609T619 445Q619 339 555 280T358 221H233V0H61ZM233 356H331Q386 356 415 376T445 445Q445 492 416 512T331 533H233V356Z" />
<glyph unicode="Q" horiz-adv-x="780" d="M602 -192Q530 -192 483 -166T413 -99T390 -10Q281 -10 200 34T75 156T31 334Q31 434 75 511T201 633T390 678Q499 678 580 634T705 512T749 334Q749 257 722 193T646 82T526 12Q529 -19 550 -40T616 -61Q641 -61 671
-52T739 -26L789 -139Q738 -167 693 -179T602 -192ZM390 139Q445 139 486 163T551 232T575 334Q575 393 552 436T487 504T390 529Q335 529 293 505T228 437T205 334Q205 276 228 232T293 164T390 139Z" />
<glyph unicode="R" horiz-adv-x="650" d="M61 0V668H358Q485 668 552 615T619 456Q619 374 580 326T467 257L653 0H453L289 243H233V0H61ZM233 377H331Q392 377 418 396T445 455Q445 495 420 514T331 533H233V377Z" />
<glyph unicode="S" horiz-adv-x="592" d="M284 -10Q211 -10 151 10T31 75L89 204Q146 169 196 150T284 131Q334 131 360 149T387 198Q387 221 370 238T319 260L237 276Q138 294 95 337T51 450Q51 513 77 565T160 647T307 678Q364 678 422 664T541 607L483 478Q433
505 389 521T312 537Q266 537 246 522T225 478Q225 455 242 442T293 424L375 408Q473 390 517 338T561 218Q561 111 491 51T284 -10Z" />
<glyph unicode="T" horiz-adv-x="617" d="M223 0V519H34V668H583V519H395V0H223Z" />
<glyph unicode="U" horiz-adv-x="720" d="M360 -10Q216 -10 139 59T61 277V668H233V277Q233 232 247 201T289 155T360 139Q403 139 431 154T473 201T487 277V668H659V277Q659 129 582 60T360 -10Z" />
<glyph unicode="V" horiz-adv-x="710" d="M260 0L7 668H198L355 197L511 668H703L450 0H260Z" />
<glyph unicode="W" horiz-adv-x="1014" d="M208 0L7 668H198L311 215L416 668H598L702 215L815 668H1007L806 0H617L507 433L398 0H208Z" />
<glyph unicode="X" horiz-adv-x="690" d="M7 0L238 344L17 668H217L344 471L473 668H673L451 344L683 0H483L344 218L207 0H7Z" />
<glyph unicode="Y" horiz-adv-x="690" d="M259 0V249L7 668H207L345 412L483 668H683L430 249V0H259Z" />
<glyph unicode="Z" horiz-adv-x="601" d="M32 0V129L339 519H42V668H558V539L251 149H568V0H32Z" />
<glyph unicode="[" horiz-adv-x="383" d="M61 -252V738H347V611H206V-125H347V-252H61Z" />
<glyph unicode="\" horiz-adv-x="380" d="M226 0L8 668H153L371 0H226Z" />
<glyph unicode="]" horiz-adv-x="383" d="M37 -252V-125H177V611H37V738H323V-252H37Z" />
<glyph unicode="^" horiz-adv-x="582" d="M69 260L211 668H371L513 260H369L291 520L213 260H69Z" />
<glyph unicode="_" horiz-adv-x="510" d="M0 -149V-41H510V-149H0Z" />
<glyph unicode="`" horiz-adv-x="600" d="M286 536L174 696H332L394 536H286Z" />
<glyph unicode="a" horiz-adv-x="560" d="M201 -10Q155 -10 116 6T54 53T31 133Q31 182 54 211T116 256T201 277L343 294Q334 323 311 335T257 348Q228 348 194 338T113 305L65 419Q114 451 166 465T269 480Q385 480 447 433T509 286V0H355V45Q325 14 290 2T201
-10ZM255 111Q282 111 302 121T334 148T346 185V196L256 184Q225 180 210 170T195 144Q195 127 210 119T255 111Z" />
<glyph unicode="b" horiz-adv-x="601" d="M345 -10Q298 -10 263 6T205 51V0H51V668H214V428Q236 452 269 466T345 480Q409 480 460 451T540 367T570 235Q570 159 541 104T460 20T345 -10ZM307 130Q336 130 358 142T393 178T406 235Q406 268 393 291T358 327T307
340Q278 340 256 328T221 292T208 235Q208 202 220 179T255 143T307 130Z" />
<glyph unicode="c" horiz-adv-x="495" d="M295 -10Q219 -10 159 20T65 106T31 235Q31 309 65 364T159 449T295 480Q344 480 388 467T470 427L416 306Q382 324 355 332T295 340Q266 340 243 328T208 292T195 235Q195 202 207 179T243 143T295 130Q327 130 354 138T416
164L470 43Q432 16 388 3T295 -10Z" />
<glyph unicode="d" horiz-adv-x="601" d="M256 -10Q193 -10 142 19T61 104T31 235Q31 311 61 366T142 450T256 480Q299 480 332 466T387 428V668H549V0H396V51Q374 23 339 7T256 -10ZM295 130Q324 130 346 142T381 178T394 235Q394 268 382 291T347 327T295 340Q266
340 243 328T208 292T195 235Q195 202 207 179T243 143T295 130Z" />
<glyph unicode="e" horiz-adv-x="560" d="M303 -10Q230 -10 168 17T68 98T31 235Q31 310 64 365T155 450T285 480Q357 480 412 454T498 382T529 275Q529 256 524 234T511 194H195Q200 169 215 152T258 127T321 119Q359 119 395 130T463 160L509 50Q465 21 413
6T303 -10ZM195 294H363Q364 297 364 299T365 304Q365 320 357 332T332 351T289 359Q264 359 244 351T212 328T195 294Z" />
<glyph unicode="f" horiz-adv-x="399" d="M109 0V339H18V470H109V512Q109 594 149 634T284 674Q311 674 337 671T381 663V539Q371 541 353 542T323 543Q295 543 283 531T271 496V470H381V339H271V0H109Z" />
<glyph unicode="g" horiz-adv-x="601" d="M275 -192Q212 -192 157 -175T49 -121L98 -4Q146 -33 188 -45T266 -57Q322 -57 354 -32T387 44V71Q366 48 333 34T256 20Q198 20 147 46T63 124T31 250Q31 324 63 375T146 453T256 480Q304 480 339 464T396 419V470H549V71Q549
-15 515 -73T420 -162T275 -192ZM295 151Q325 151 347 163T381 197T394 250Q394 281 382 303T347 337T295 349Q266 349 243 337T208 303T195 250Q195 219 207 197T243 163T295 151Z" />
<glyph unicode="h" horiz-adv-x="570" d="M51 0V668H214V429Q236 453 269 466T348 480Q426 480 472 435T519 295V0H356V269Q356 305 341 322T296 340Q260 340 237 317T214 246V0H51Z" />
<glyph unicode="i" horiz-adv-x="267" d="M51 0V470H214V0H51ZM133 529Q91 529 66 553T41 617Q41 655 66 679T132 703Q174 703 199 679T224 616Q224 578 199 554T133 529Z" />
<glyph unicode="j" horiz-adv-x="267" d="M40 -188Q20 -188 -2 -186T-41 -179V-55Q-29 -57 -20 -57T0 -57Q29 -57 40 -45T51 -10V470H214V-26Q214 -108 174 -148T40 -188ZM133 529Q91 529 66 553T41 617Q41 655 66 679T133 703Q174 703 199 679T224 616Q224 578
199 554T133 529Z" />
<glyph unicode="k" d="M51 0V668H214V309L362 470H545L369 282L555 0H368L261 167L214 117V0H51Z" />
<glyph unicode="l" horiz-adv-x="267" d="M51 0V668H214V0H51Z" />
<glyph unicode="m" horiz-adv-x="848" d="M51 0V470H205V424Q228 451 261 465T340 480Q383 480 417 464T472 417Q494 449 530 464T619 480Q707 480 752 435T797 295V0H634V269Q634 305 621 322T579 340Q545 340 525 317T505 246V0H343V269Q343 305 331 322T288
340Q254 340 234 317T214 246V0H51Z" />
<glyph unicode="n" horiz-adv-x="570" d="M51 0V470H205V419Q228 447 262 463T348 480Q426 480 472 435T519 295V0H356V269Q356 305 341 322T296 340Q260 340 237 317T214 246V0H51Z" />
<glyph unicode="o" horiz-adv-x="590" d="M295 -10Q219 -10 159 20T65 106T31 235Q31 309 65 364T158 449T295 480Q372 480 431 450T525 364T559 235Q559 162 525 107T432 21T295 -10ZM295 130Q325 130 347 142T382 178T395 235Q395 268 383 291T348 327T295 340Q266
340 243 328T208 292T195 235Q195 202 207 179T243 143T295 130Z" />
<glyph unicode="p" horiz-adv-x="601" d="M51 -182V470H205V419Q227 447 262 463T345 480Q409 480 460 451T540 367T570 235Q570 159 541 104T460 20T345 -10Q302 -10 269 4T214 42V-182H51ZM307 130Q336 130 358 142T393 178T406 235Q406 268 393 291T358 327T307
340Q278 340 256 328T221 292T208 235Q208 202 220 179T255 143T307 130Z" />
<glyph unicode="q" horiz-adv-x="601" d="M387 -182V42Q366 18 333 4T256 -10Q193 -10 142 19T61 104T31 235Q31 311 61 366T142 450T256 480Q303 480 338 464T396 419V470H549V-182H387ZM295 130Q324 130 346 142T381 178T394 235Q394 268 382 291T347 327T295
340Q266 340 243 328T208 292T195 235Q195 202 207 179T243 143T295 130Z" />
<glyph unicode="r" horiz-adv-x="388" d="M51 0V470H205V405Q226 445 256 460T323 476Q336 476 346 475T363 470V314Q348 317 333 320T302 323Q265 323 240 300T214 227V0H51Z" />
<glyph unicode="s" horiz-adv-x="490" d="M236 -10Q182 -10 130 5T31 49L83 162Q132 133 172 120T239 107Q266 107 280 114T295 137Q295 149 284 156T247 168L195 177Q121 191 84 224T46 313Q46 359 67 396T134 457T254 480Q305 480 353 467T444 429L394 321Q362
338 326 350T260 363Q236 363 223 356T210 336Q210 327 218 321T253 310L305 301Q380 287 419 251T459 157Q459 85 403 38T236 -10Z" />
<glyph unicode="t" horiz-adv-x="415" d="M284 -6Q190 -6 150 34T109 156V339H18V470H109V604H271V470H381V339H271V172Q271 150 283 138T323 125Q335 125 353 126T381 129V5Q364 0 338 -3T284 -6Z" />
<glyph unicode="u" horiz-adv-x="570" d="M222 -10Q144 -10 98 35T51 175V470H214V201Q214 165 229 148T274 130Q310 130 333 153T356 224V470H519V0H365V51Q342 23 308 7T222 -10Z" />
<glyph unicode="v" horiz-adv-x="540" d="M180 0L7 470H180L270 161L359 470H533L359 0H180Z" />
<glyph unicode="w" horiz-adv-x="810" d="M167 0L7 470H180L254 197L335 470H474L555 197L629 470H803L642 0H484L405 263L325 0H167Z" />
<glyph unicode="x" horiz-adv-x="540" d="M7 0L169 243L17 470H194L269 340L344 470H523L371 243L533 0H354L269 137L184 0H7Z" />
<glyph unicode="y" horiz-adv-x="540" d="M136 -188Q101 -188 63 -180T2 -160L44 -40Q61 -46 82 -51T123 -57Q137 -57 149 -55T173 -47T192 -35L7 470H180L269 152L359 470H533L359 0Q336 -67 302 -108T227 -168T136 -188Z" />
<glyph unicode="z" horiz-adv-x="493" d="M32 0V116L240 339H42V470H450V354L242 131H460V0H32Z" />
<glyph unicode="{" horiz-adv-x="383" d="M262 -252Q215 -252 179 -231T122 -174T101 -91V110Q101 148 85 164T31 180V306Q69 306 85 322T101 376V577Q101 624 121 660T178 717T262 738H347V611H316Q279 611 263 595T246 541V323Q246 293 230 272T176 243Q214
235 230 214T246 163V-55Q246 -92 262 -108T316 -125H347V-252H262Z" />
<glyph unicode="|" horiz-adv-x="249" d="M61 -252V738H188V-252H61Z" />
<glyph unicode="}" horiz-adv-x="383" d="M37 -252V-125H68Q105 -125 121 -109T137 -55V163Q137 193 153 214T207 243Q169 251 153 272T137 323V541Q137 578 121 594T68 611H37V738H121Q168 738 204 717T262 660T283 577V376Q283 338 299 322T353 306V180Q315
180 299 164T283 110V-91Q283 -137 262 -173T205 -231T121 -252H37Z" />
<glyph unicode="~" horiz-adv-x="582" d="M51 228Q51 327 86 383T194 440Q226 440 251 428T298 401T337 374T370 362Q391 362 399 381T411 440H531Q531 341 496 285T388 228Q356 228 331 240T284 267T245 294T212 306Q191 306 183 287T171 228H51Z" />
<glyph unicode="&#xa0;" horiz-adv-x="224" />
<glyph unicode="&#xa1;" horiz-adv-x="293" d="M61 -182V0L88 257H205L233 0V-182H61ZM146 323Q105 323 81 347T56 409Q56 446 80 470T146 495Q188 495 212 471T237 409Q237 372 213 348T146 323Z" />
<glyph unicode="&#xa2;" horiz-adv-x="495" d="M175 -100L198 4Q122 29 77 89T31 235Q31 309 65 364T158 449T295 480Q298 480 301 480T308 480L329 570H411L388 467Q409 461 430 451T470 427L416 306Q400 314 386 320T357 331L310 130Q317 130 324 131T345 135Q358
137 376 144T416 164L470 43Q432 16 388 3T295 -10Q290 -10 287 -10T278 -9L257 -100H175ZM231 149L276 339Q268 337 260 335T246 328Q230 320 219 307T201 275T195 235Q195 206 204 185T231 149Z" />
<glyph unicode="&#xa3;" horiz-adv-x="554" d="M31 0V120Q59 134 74 149T96 184T103 227Q103 236 102 245T98 264H11V354H73Q58 383 50 410T41 465Q41 533 72 580T160 653T291 678Q355 678 410 657T523 593L473 483Q415 514 376 526T300 538Q274 538 255 530T226
505T215 465Q215 441 221 413T236 354H391V264H256Q258 254 258 245T259 227Q259 210 255 195T241 166T215 140H523V0H31Z" />
<glyph unicode="&#xa4;" horiz-adv-x="742" d="M127 -11L26 90L153 216Q126 267 126 334Q126 401 152 451L26 578L127 679L259 547Q284 557 312 562T371 568Q402 568 430 563T482 547L615 679L716 578L589 451Q603 426 609 397T616 334Q616 301 610 272T589 216L716
90L615 -11L483 121Q458 110 430 105T371 100Q341 100 313 105T259 121L127 -11ZM371 222Q417 222 442 253T468 334Q468 383 443 414T371 446Q325 446 300 415T274 334Q274 285 299 254T371 222Z" />
<glyph unicode="&#xa5;" horiz-adv-x="642" d="M235 0V70H91V160H235V226H91V316H200L21 668H216L321 431L426 668H621L441 316H551V226H407V160H551V70H407V0H235Z" />
<glyph unicode="&#xa6;" horiz-adv-x="249" d="M61 282V738H188V282H61ZM61 -252V204H188V-252H61Z" />
<glyph unicode="&#xa7;" horiz-adv-x="595" d="M281 -192Q227 -192 175 -177T76 -133L128 -20Q177 -49 217 -62T284 -75Q309 -75 324 -64T340 -30Q340 -10 328 2T292 29L180 91Q120 125 88 152T43 206T31 267Q31 314 64 351T156 397Q125 420 108 447T91 510Q91
557 112 594T179 655T299 678Q350 678 398 665T489 627L439 519Q407 536 371 548T305 561Q283 561 269 550T255 520Q255 500 267 488T298 465L410 403Q470 371 503 342T550 283T564 219Q564 171 531 135T443 89Q471 65 487 38T504 -24Q504 -98 448 -145T281 -192ZM349
150Q372 158 386 175T400 217Q400 232 395 243T380 264T352 283L252 338Q236 333 223 324T203 302T195 273Q195 251 206 237T238 211L349 150Z" />
<glyph unicode="&#xa8;" horiz-adv-x="600" d="M403 543Q368 543 348 564T327 617Q327 648 348 668T404 689Q438 689 458 669T479 617Q479 585 459 564T403 543ZM196 543Q162 543 142 564T121 617Q121 648 141 668T197 689Q232 689 252 669T273 617Q273 585 252
564T196 543Z" />
<glyph unicode="&#xa9;" horiz-adv-x="785" d="M392 -10Q283 -10 202 34T76 156T31 334Q31 434 75 511T201 633T392 678Q501 678 582 634T709 512T754 334Q754 234 709 157T583 35T392 -10ZM404 168Q323 168 277 214T231 334Q231 408 277 454T404 500Q436 500
465 492T519 465L483 385Q460 396 442 402T403 408Q374 408 357 388T339 334Q339 301 356 281T403 260Q425 260 443 266T483 283L519 203Q494 186 465 177T404 168ZM392 78Q474 78 533 110T626 201T659 334Q659 409 626 467T534 557T392 590Q312 590 252 558T159
467T126 334Q126 258 159 201T252 111T392 78Z" />
<glyph unicode="&#xaa;" horiz-adv-x="513" d="M183 232Q142 232 107 246T52 289T31 361Q31 405 52 431T107 471T183 490L311 506Q304 532 283 543T235 555Q208 555 178 546T105 516L62 619Q107 648 154 661T246 674Q350 674 405 632T461 499V240H323V282Q296
253 265 243T183 232ZM233 341Q257 341 275 350T304 375T314 407V417L233 407Q206 403 193 395T180 371Q180 356 192 349T233 341Z" />
<glyph unicode="&#xab;" horiz-adv-x="530" d="M355 113L255 286L355 461H500L400 286L500 113H355ZM131 113L31 286L131 461H276L176 286L276 113H131Z" />
<glyph unicode="&#xac;" horiz-adv-x="582" d="M387 181V353H51V487H531V181H387Z" />
<glyph unicode="&#xad;" horiz-adv-x="368" d="M31 223V349H337V223H31Z" />
<glyph unicode="&#xae;" horiz-adv-x="565" d="M283 190Q207 190 150 222T62 309T31 433Q31 502 62 557T150 645T283 678Q358 678 415 646T503 558T535 433Q535 365 504 310T415 222T283 190ZM283 244Q342 244 385 269T452 336T476 433Q476 489 453 531T386 599T282
624Q223 624 180 600T113 532T89 433Q89 379 112 337T179 269T283 244ZM187 314V556H293Q340 556 364 537T388 479Q388 450 374 432T333 407L401 314H322L263 402H250V314H187ZM250 452H284Q305 452 313 458T322 478Q322 492 314 498T284 505H250V452Z" />
<glyph unicode="&#xaf;" horiz-adv-x="600" d="M141 566V666H459V566H141Z" />
<glyph unicode="&#xb0;" horiz-adv-x="364" d="M182 405Q112 405 72 443T31 542Q31 602 72 640T182 678Q251 678 292 640T333 541Q333 481 292 443T182 405ZM183 483Q208 483 225 499T242 541Q242 567 225 583T182 599Q156 599 139 583T122 541Q122 516 139 500T183 483Z" />
<glyph unicode="&#xb1;" horiz-adv-x="582" d="M219 191V345H51V478H219V634H363V478H531V345H363V191H219ZM51 0V134H531V0H51Z" />
<glyph unicode="&#xb2;" horiz-adv-x="352" d="M31 408V506L159 616Q177 631 185 644T193 671Q193 688 182 699T152 710Q135 710 118 703T67 676L31 757Q65 783 97 795T168 808Q234 808 274 775T315 682Q315 652 298 624T235 557L178 506H321V408H31Z" />
<glyph unicode="&#xb3;" horiz-adv-x="366" d="M177 402Q138 402 102 414T31 452L68 534Q102 514 124 507T168 500Q192 500 202 509T212 535Q212 552 202 561T168 571H118V651H168Q189 651 197 659T206 681Q206 695 198 702T168 710Q150 710 129 703T74 676L37
757Q72 783 107 795T177 808Q244 808 286 778T329 696Q329 666 314 643T267 611Q301 602 318 577T335 520Q335 468 292 435T177 402Z" />
<glyph unicode="&#xb4;" horiz-adv-x="600" d="M206 536L268 696H426L314 536H206Z" />
<glyph unicode="&#xb5;" horiz-adv-x="570" d="M51 -182V470H214V201Q214 165 229 148T274 130Q310 130 333 153T356 224V470H519V0H365V51Q354 21 330 6T271 -10Q255 -10 241 -6T214 7V-182H51Z" />
<glyph unicode="&#xb6;" horiz-adv-x="607" d="M231 -182V287Q174 287 129 310T57 377T31 477Q31 535 57 578T128 644T231 668H547V-182H429V553H350V-182H231Z" />
<glyph unicode="&#xb7;" horiz-adv-x="293" d="M146 200Q105 200 81 224T56 286Q56 323 80 347T146 372Q188 372 212 348T237 286Q237 249 213 225T146 200Z" />
<glyph unicode="&#xb8;" horiz-adv-x="600" d="M276 -209Q262 -209 239 -207T188 -197V-122Q208 -127 230 -129T266 -131Q290 -131 301 -125T313 -104Q313 -90 302 -83T266 -76H245V-41L269 11H341L317 -41Q360 -41 386 -58T412 -112Q412 -155 377 -182T276 -209Z" />
<glyph unicode="&#xb9;" horiz-adv-x="284" d="M103 408V678L49 651L11 736L144 802H223V408H103Z" />
<glyph unicode="&#xba;" horiz-adv-x="539" d="M270 232Q199 232 146 259T62 337T31 453Q31 519 61 569T145 646T270 674Q340 674 393 647T477 569T508 453Q508 387 477 337T393 260T270 232ZM270 358Q310 358 335 384T360 453Q360 497 335 522T270 548Q229 548
205 522T180 453Q180 409 204 384T270 358Z" />
<glyph unicode="&#xbb;" horiz-adv-x="530" d="M255 113L355 286L255 461H400L500 286L400 113H255ZM31 113L131 286L31 461H176L276 286L176 113H31Z" />
<glyph unicode="&#xbc;" horiz-adv-x="781" d="M135 0L493 668H603L245 0H135ZM103 274V544L49 517L11 602L144 668H223V274H103ZM594 0V73H418V172L595 394H702V159H750V73H702V0H594ZM511 159H594V266L511 159Z" />
<glyph unicode="&#xbd;" horiz-adv-x="802" d="M135 0L493 668H603L245 0H135ZM103 274V544L49 517L11 602L144 668H223V274H103ZM480 0V98L609 208Q626 223 634 237T642 263Q642 280 631 291T602 302Q586 302 568 295T517 268L480 349Q515 375 547 387T618 400Q684
400 724 367T765 274Q765 244 748 216T685 149L627 98H771V0H480Z" />
<glyph unicode="&#xbe;" horiz-adv-x="852" d="M206 0L564 668H674L316 0H206ZM177 268Q138 268 102 280T31 318L68 400Q102 380 124 373T168 366Q192 366 202 375T212 401Q212 418 202 427T168 437H118V517H168Q189 517 197 525T206 547Q206 561 198 568T168
576Q150 576 129 569T74 542L37 623Q72 649 107 661T177 674Q244 674 286 644T329 562Q329 532 314 509T267 477Q301 468 318 443T335 386Q335 334 292 301T177 268ZM665 0V73H489V172L666 394H774V159H821V73H774V0H665ZM581 159H665V266L581 159Z" />
<glyph unicode="&#xbf;" horiz-adv-x="474" d="M252 -192Q185 -192 132 -170T47 -104T16 1Q16 36 32 63T71 113T119 157T159 198T175 243V257H311V226Q311 195 299 171T269 128T233 91T203 56T190 19Q190 -4 200 -20T229 -44T270 -52Q296 -52 328 -40T418 5L469
-107Q418 -150 366 -171T252 -192ZM244 323Q201 323 177 347T152 409Q152 446 176 470T244 495Q284 495 308 471T333 409Q333 372 309 348T244 323Z" />
<glyph unicode="&#xc0;" horiz-adv-x="710" d="M7 0L260 668H450L703 0H517L481 106H229L193 0H7ZM272 246H437L355 489L272 246ZM306 734L194 894H352L414 734H306Z" />
<glyph unicode="&#xc1;" horiz-adv-x="710" d="M7 0L260 668H450L703 0H517L481 106H229L193 0H7ZM272 246H437L355 489L272 246ZM305 734L367 894H525L413 734H305Z" />
<glyph unicode="&#xc2;" horiz-adv-x="710" d="M7 0L260 668H450L703 0H517L481 106H229L193 0H7ZM272 246H437L355 489L272 246ZM186 734L282 894H428L524 734H405L355 811L305 734H186Z" />
<glyph unicode="&#xc3;" horiz-adv-x="710" d="M7 0L260 668H450L703 0H517L481 106H229L193 0H7ZM272 246H437L355 489L272 246ZM176 737Q176 782 187 816T223 871T289 892Q312 892 330 884T364 865T393 846T416 837Q429 837 436 851T445 892H534Q534 848 523
813T487 757T421 737Q398 737 380 745T346 763T318 782T294 791Q281 791 274 778T265 737H176Z" />
<glyph unicode="&#xc4;" horiz-adv-x="710" d="M7 0L260 668H450L703 0H517L481 106H229L193 0H7ZM272 246H437L355 489L272 246ZM458 741Q423 741 403 762T382 815Q382 846 403 866T459 887Q493 887 513 867T534 815Q534 783 514 762T458 741ZM251 741Q217 741
197 762T176 815Q176 846 196 866T252 887Q287 887 307 867T328 815Q328 783 307 762T251 741Z" />
<glyph unicode="&#xc5;" horiz-adv-x="710" d="M7 0L260 668H450L703 0H517L481 106H229L193 0H7ZM272 246H437L355 489L272 246ZM355 704Q299 704 266 734T233 814Q233 863 266 893T355 924Q411 924 444 894T477 814Q477 765 444 735T355 704ZM355 767Q376 767
389 780T403 815Q403 834 390 847T355 861Q334 861 321 848T307 815Q307 794 320 781T355 767Z" />
<glyph unicode="&#xc6;" horiz-adv-x="1013" d="M7 0L412 668H969V524H642V410H939V278H642V144H969V0H470V106H253L193 0H7ZM329 246H470V495L329 246Z" />
<glyph unicode="&#xc7;" horiz-adv-x="654" d="M390 -10Q281 -10 200 34T75 156T31 334Q31 434 75 511T201 633T390 678Q456 678 514 661T630 606L571 477Q521 505 478 517T390 529Q335 529 293 505T228 437T205 334Q205 276 228 232T293 164T390 139Q435 139
478 151T571 191L630 62Q572 24 514 7T390 -10ZM337 -209Q323 -209 300 -207T249 -197V-122Q269 -127 291 -129T327 -131Q351 -131 362 -125T374 -104Q374 -90 363 -83T327 -76H306V-41L330 11H402L378 -41Q421 -41 447 -58T473 -112Q473 -155 438 -182T337 -209Z"
/>
<glyph unicode="&#xc8;" horiz-adv-x="604" d="M61 0V668H559V524H233V410H529V278H233V144H559V0H61ZM253 734L141 894H299L361 734H253Z" />
<glyph unicode="&#xc9;" horiz-adv-x="604" d="M61 0V668H559V524H233V410H529V278H233V144H559V0H61ZM252 734L314 894H472L360 734H252Z" />
<glyph unicode="&#xca;" horiz-adv-x="604" d="M61 0V668H559V524H233V410H529V278H233V144H559V0H61ZM133 734L229 894H375L471 734H352L302 811L252 734H133Z" />
<glyph unicode="&#xcb;" horiz-adv-x="604" d="M61 0V668H559V524H233V410H529V278H233V144H559V0H61ZM405 741Q370 741 350 762T329 815Q329 846 350 866T406 887Q440 887 460 867T481 815Q481 783 461 762T405 741ZM198 741Q164 741 144 762T123 815Q123 846
143 866T199 887Q234 887 254 867T275 815Q275 783 254 762T198 741Z" />
<glyph unicode="&#xcc;" horiz-adv-x="293" d="M61 0V668H233V0H61ZM97 734L-15 894H143L205 734H97Z" />
<glyph unicode="&#xcd;" horiz-adv-x="293" d="M61 0V668H233V0H61ZM96 734L158 894H316L204 734H96Z" />
<glyph unicode="&#xce;" horiz-adv-x="293" d="M61 0V668H233V0H61ZM-22 734L74 894H220L316 734H197L147 811L97 734H-22Z" />
<glyph unicode="&#xcf;" horiz-adv-x="293" d="M61 0V668H233V0H61ZM250 741Q215 741 195 762T174 815Q174 846 195 866T251 887Q285 887 305 867T326 815Q326 783 306 762T250 741ZM43 741Q9 741 -11 762T-32 815Q-32 846 -12 866T44 887Q79 887 99 867T120 815Q120
783 99 762T43 741Z" />
<glyph unicode="&#xd0;" horiz-adv-x="710" d="M61 0V294H7V394H61V668H310Q490 668 584 584T679 334Q679 168 585 84T310 0H61ZM233 144H309Q417 144 461 191T505 334Q505 429 461 476T309 524H233V394H352V294H233V144Z" />
<glyph unicode="&#xd1;" horiz-adv-x="720" d="M61 0V668H243L487 260V668H659V0H477L233 408V0H61ZM181 737Q181 782 192 816T228 871T294 892Q317 892 335 884T369 865T398 846T421 837Q434 837 441 851T450 892H539Q539 848 528 813T492 757T426 737Q403 737
385 745T351 763T323 782T299 791Q286 791 279 778T270 737H181Z" />
<glyph unicode="&#xd2;" horiz-adv-x="780" d="M390 -10Q281 -10 200 34T75 156T31 334Q31 434 75 511T200 633T390 678Q499 678 580 634T705 512T749 334Q749 234 705 157T580 35T390 -10ZM390 139Q445 139 486 163T551 232T575 334Q575 393 552 436T487 504T390
529Q335 529 293 505T228 437T205 334Q205 276 228 232T293 164T390 139ZM340 734L228 894H386L448 734H340Z" />
<glyph unicode="&#xd3;" horiz-adv-x="780" d="M390 -10Q281 -10 200 34T75 156T31 334Q31 434 75 511T200 633T390 678Q499 678 580 634T705 512T749 334Q749 234 705 157T580 35T390 -10ZM390 139Q445 139 486 163T551 232T575 334Q575 393 552 436T487 504T390
529Q335 529 293 505T228 437T205 334Q205 276 228 232T293 164T390 139ZM340 734L402 894H560L448 734H340Z" />
<glyph unicode="&#xd4;" horiz-adv-x="780" d="M390 -10Q281 -10 200 34T75 156T31 334Q31 434 75 511T200 633T390 678Q499 678 580 634T705 512T749 334Q749 234 705 157T580 35T390 -10ZM390 139Q445 139 486 163T551 232T575 334Q575 393 552 436T487 504T390
529Q335 529 293 505T228 437T205 334Q205 276 228 232T293 164T390 139ZM221 734L317 894H463L559 734H440L390 811L340 734H221Z" />
<glyph unicode="&#xd5;" horiz-adv-x="780" d="M390 -10Q281 -10 200 34T75 156T31 334Q31 434 75 511T200 633T390 678Q499 678 580 634T705 512T749 334Q749 234 705 157T580 35T390 -10ZM390 139Q445 139 486 163T551 232T575 334Q575 393 552 436T487 504T390
529Q335 529 293 505T228 437T205 334Q205 276 228 232T293 164T390 139ZM211 737Q211 782 222 816T258 871T324 892Q347 892 365 884T399 865T428 846T451 837Q464 837 471 851T480 892H569Q569 848 558 813T522 757T456 737Q433 737 415 745T381 763T353 782T329
791Q316 791 309 778T300 737H211Z" />
<glyph unicode="&#xd6;" horiz-adv-x="780" d="M390 -10Q281 -10 200 34T75 156T31 334Q31 434 75 511T200 633T390 678Q499 678 580 634T705 512T749 334Q749 234 705 157T580 35T390 -10ZM390 139Q445 139 486 163T551 232T575 334Q575 393 552 436T487 504T390
529Q335 529 293 505T228 437T205 334Q205 276 228 232T293 164T390 139ZM493 741Q458 741 438 762T417 815Q417 846 438 866T494 887Q528 887 548 867T569 815Q569 783 549 762T493 741ZM286 741Q252 741 232 762T211 815Q211 846 231 866T287 887Q322 887 342
867T363 815Q363 783 342 762T286 741Z" />
<glyph unicode="&#xd7;" horiz-adv-x="582" d="M153 94L51 196L190 334L51 472L153 574L291 435L429 574L531 472L392 334L531 196L429 94L291 233L153 94Z" />
<glyph unicode="&#xd8;" horiz-adv-x="780" d="M88 -10L31 57L98 120Q66 164 49 217T31 334Q31 434 75 511T201 633T390 678Q459 678 516 660T618 608L692 678L749 611L681 547Q713 504 731 450T749 334Q749 234 705 157T580 35T390 -10Q321 -10 264 8T161 59L88
-10ZM390 139Q445 139 486 163T551 232T575 334Q575 361 570 384T555 429L281 171Q304 155 331 147T390 139ZM225 238L498 496Q476 513 449 521T390 529Q335 529 293 505T228 437T205 334Q205 280 225 238Z" />
<glyph unicode="&#xd9;" horiz-adv-x="720" d="M360 -10Q216 -10 139 59T61 277V668H233V277Q233 232 247 201T289 155T360 139Q403 139 431 154T473 201T487 277V668H659V277Q659 129 582 60T360 -10ZM310 734L198 894H356L418 734H310Z" />
<glyph unicode="&#xda;" horiz-adv-x="720" d="M360 -10Q216 -10 139 59T61 277V668H233V277Q233 232 247 201T289 155T360 139Q403 139 431 154T473 201T487 277V668H659V277Q659 129 582 60T360 -10ZM310 734L372 894H530L418 734H310Z" />
<glyph unicode="&#xdb;" horiz-adv-x="720" d="M360 -10Q216 -10 139 59T61 277V668H233V277Q233 232 247 201T289 155T360 139Q403 139 431 154T473 201T487 277V668H659V277Q659 129 582 60T360 -10ZM191 734L287 894H433L529 734H410L360 811L310 734H191Z" />
<glyph unicode="&#xdc;" horiz-adv-x="720" d="M360 -10Q216 -10 139 59T61 277V668H233V277Q233 232 247 201T289 155T360 139Q403 139 431 154T473 201T487 277V668H659V277Q659 129 582 60T360 -10ZM463 741Q428 741 408 762T387 815Q387 846 408 866T464 887Q498
887 518 867T539 815Q539 783 519 762T463 741ZM256 741Q222 741 202 762T181 815Q181 846 201 866T257 887Q292 887 312 867T333 815Q333 783 312 762T256 741Z" />
<glyph unicode="&#xdd;" horiz-adv-x="690" d="M259 0V249L7 668H207L345 412L483 668H683L430 249V0H259ZM295 734L357 894H515L403 734H295Z" />
<glyph unicode="&#xde;" horiz-adv-x="650" d="M61 0V668H233V561H355Q490 561 554 500T619 334Q619 229 555 168T355 107H233V0H61ZM233 242H327Q384 242 414 263T445 334Q445 383 415 404T327 426H233V242Z" />
<glyph unicode="&#xdf;" horiz-adv-x="601" d="M362 -10Q345 -10 327 -8T290 0V127Q298 127 304 126T317 124Q358 124 382 147T406 206Q406 249 374 267T290 286V403Q319 403 342 421T365 474Q365 508 344 526T290 544Q256 544 235 524T214 466V0H51V434Q51 507
77 561T155 646T290 678Q398 678 463 630T528 496Q528 448 508 413T450 355Q509 335 539 294T570 188Q570 127 547 83T477 14T362 -10Z" />
<glyph unicode="&#xe0;" horiz-adv-x="560" d="M201 -10Q155 -10 116 6T54 53T31 133Q31 182 54 211T116 256T201 277L343 294Q334 323 311 335T257 348Q228 348 194 338T113 305L65 419Q114 451 166 465T269 480Q385 480 447 433T509 286V0H355V45Q325 14 290
2T201 -10ZM255 111Q282 111 302 121T334 148T346 185V196L256 184Q225 180 210 170T195 144Q195 127 210 119T255 111ZM486 536L374 696H532L594 536H486Z" />
<glyph unicode="&#xe1;" horiz-adv-x="560" d="M201 -10Q155 -10 116 6T54 53T31 133Q31 182 54 211T116 256T201 277L343 294Q334 323 311 335T257 348Q228 348 194 338T113 305L65 419Q114 451 166 465T269 480Q385 480 447 433T509 286V0H355V45Q325 14 290
2T201 -10ZM255 111Q282 111 302 121T334 148T346 185V196L256 184Q225 180 210 170T195 144Q195 127 210 119T255 111ZM230 536L292 696H450L338 536H230Z" />
<glyph unicode="&#xe2;" horiz-adv-x="560" d="M201 -10Q155 -10 116 6T54 53T31 133Q31 182 54 211T116 256T201 277L343 294Q334 323 311 335T257 348Q228 348 194 338T113 305L65 419Q114 451 166 465T269 480Q385 480 447 433T509 286V0H355V45Q325 14 290
2T201 -10ZM255 111Q282 111 302 121T334 148T346 185V196L256 184Q225 180 210 170T195 144Q195 127 210 119T255 111ZM367 536L463 696H609L705 536H586L536 613L486 536H367Z" />
<glyph unicode="&#xe3;" horiz-adv-x="560" d="M201 -10Q155 -10 116 6T54 53T31 133Q31 182 54 211T116 256T201 277L343 294Q334 323 311 335T257 348Q228 348 194 338T113 305L65 419Q114 451 166 465T269 480Q385 480 447 433T509 286V0H355V45Q325 14 290
2T201 -10ZM255 111Q282 111 302 121T334 148T346 185V196L256 184Q225 180 210 170T195 144Q195 127 210 119T255 111ZM357 539Q357 584 368 618T404 673T470 694Q493 694 511 686T545 667T574 648T597 639Q610 639 617 653T626 694H715Q715 650 704 615T668 559T602
539Q579 539 561 547T527 565T499 584T475 593Q462 593 455 580T446 539H357Z" />
<glyph unicode="&#xe4;" horiz-adv-x="560" d="M201 -10Q155 -10 116 6T54 53T31 133Q31 182 54 211T116 256T201 277L343 294Q334 323 311 335T257 348Q228 348 194 338T113 305L65 419Q114 451 166 465T269 480Q385 480 447 433T509 286V0H355V45Q325 14 290
2T201 -10ZM255 111Q282 111 302 121T334 148T346 185V196L256 184Q225 180 210 170T195 144Q195 127 210 119T255 111ZM639 543Q604 543 584 564T563 617Q563 648 584 668T640 689Q674 689 694 669T715 617Q715 585 695 564T639 543ZM432 543Q398 543 378 564T357
617Q357 648 377 668T433 689Q468 689 488 669T509 617Q509 585 488 564T432 543Z" />
<glyph unicode="&#xe5;" horiz-adv-x="560" d="M201 -10Q155 -10 116 6T54 53T31 133Q31 182 54 211T116 256T201 277L343 294Q334 323 311 335T257 348Q228 348 194 338T113 305L65 419Q114 451 166 465T269 480Q385 480 447 433T509 286V0H355V45Q325 14 290
2T201 -10ZM255 111Q282 111 302 121T334 148T346 185V196L256 184Q225 180 210 170T195 144Q195 127 210 119T255 111ZM536 506Q480 506 447 536T414 616Q414 665 447 695T536 726Q592 726 625 696T658 616Q658 567 625 537T536 506ZM536 569Q557 569 570 582T584
617Q584 636 571 649T536 663Q515 663 502 650T488 617Q488 596 501 583T536 569Z" />
<glyph unicode="&#xe6;" horiz-adv-x="875" d="M201 -10Q155 -10 116 6T54 53T31 133Q31 182 54 211T116 255T201 277L343 294Q334 323 311 335T257 348Q228 348 194 338T113 305L65 419Q114 451 166 465T269 480Q327 480 370 466T441 424Q472 452 512 466T600
480Q672 480 727 454T813 382T844 275Q844 256 839 234T826 194H511Q516 169 531 152T574 127T636 119Q675 119 711 130T779 160L824 50Q780 20 728 5T618 -10Q555 -10 502 10T413 73Q384 39 330 15T201 -10ZM255 111Q282 111 302 121T334 148T346 185V196L256
184Q225 179 210 170T195 144Q195 127 210 119T255 111ZM511 294H678Q679 297 679 299T680 304Q680 320 672 332T646 351T604 359Q579 359 559 351T527 328T511 294Z" />
<glyph unicode="&#xe7;" horiz-adv-x="495" d="M295 -10Q219 -10 159 20T65 106T31 235Q31 309 65 364T159 449T295 480Q344 480 388 467T470 427L416 306Q382 324 355 332T295 340Q266 340 243 328T208 292T195 235Q195 202 207 179T243 143T295 130Q327 130
354 138T416 164L470 43Q432 16 388 3T295 -10ZM499 -209Q485 -209 462 -207T411 -197V-122Q431 -127 453 -129T489 -131Q513 -131 524 -125T536 -104Q536 -90 525 -83T489 -76H468V-41L492 11H564L540 -41Q583 -41 609 -58T635 -112Q635 -155 600 -182T499 -209Z"
/>
<glyph unicode="&#xe8;" horiz-adv-x="560" d="M303 -10Q230 -10 168 17T68 98T31 235Q31 310 64 365T155 450T285 480Q357 480 412 454T498 382T529 275Q529 256 524 234T511 194H195Q200 169 215 152T258 127T321 119Q359 119 395 130T463 160L509 50Q465 21
413 6T303 -10ZM195 294H363Q364 297 364 299T365 304Q365 320 357 332T332 351T289 359Q264 359 244 351T212 328T195 294ZM486 536L374 696H532L594 536H486Z" />
<glyph unicode="&#xe9;" horiz-adv-x="560" d="M303 -10Q230 -10 168 17T68 98T31 235Q31 310 64 365T155 450T285 480Q357 480 412 454T498 382T529 275Q529 256 524 234T511 194H195Q200 169 215 152T258 127T321 119Q359 119 395 130T463 160L509 50Q465 21
413 6T303 -10ZM195 294H363Q364 297 364 299T365 304Q365 320 357 332T332 351T289 359Q264 359 244 351T212 328T195 294ZM230 536L292 696H450L338 536H230Z" />
<glyph unicode="&#xea;" horiz-adv-x="560" d="M303 -10Q230 -10 168 17T68 98T31 235Q31 310 64 365T155 450T285 480Q357 480 412 454T498 382T529 275Q529 256 524 234T511 194H195Q200 169 215 152T258 127T321 119Q359 119 395 130T463 160L509 50Q465 21
413 6T303 -10ZM195 294H363Q364 297 364 299T365 304Q365 320 357 332T332 351T289 359Q264 359 244 351T212 328T195 294ZM367 536L463 696H609L705 536H586L536 613L486 536H367Z" />
<glyph unicode="&#xeb;" horiz-adv-x="560" d="M303 -10Q230 -10 168 17T68 98T31 235Q31 310 64 365T155 450T285 480Q357 480 412 454T498 382T529 275Q529 256 524 234T511 194H195Q200 169 215 152T258 127T321 119Q359 119 395 130T463 160L509 50Q465 21
413 6T303 -10ZM195 294H363Q364 297 364 299T365 304Q365 320 357 332T332 351T289 359Q264 359 244 351T212 328T195 294ZM639 543Q604 543 584 564T563 617Q563 648 584 668T640 689Q674 689 694 669T715 617Q715 585 695 564T639 543ZM432 543Q398 543 378
564T357 617Q357 648 377 668T433 689Q468 689 488 669T509 617Q509 585 488 564T432 543Z" />
<glyph unicode="&#xec;" horiz-adv-x="267" d="M51 0V470H214V0H51ZM84 536L-28 696H130L192 536H84Z" />
<glyph unicode="&#xed;" horiz-adv-x="267" d="M51 0V470H214V0H51ZM339 536L401 696H559L447 536H339Z" />
<glyph unicode="&#xee;" horiz-adv-x="267" d="M51 0V470H214V0H51ZM-36 536L60 696H206L302 536H183L133 613L83 536H-36Z" />
<glyph unicode="&#xef;" horiz-adv-x="267" d="M51 0V470H214V0H51ZM236 543Q201 543 181 564T160 617Q160 648 181 668T237 689Q271 689 291 669T312 617Q312 585 292 564T236 543ZM29 543Q-5 543 -25 564T-46 617Q-46 648 -26 668T30 689Q65 689 85 669T106
617Q106 585 85 564T29 543Z" />
<glyph unicode="&#xf0;" horiz-adv-x="590" d="M295 -10Q218 -10 159 19T65 100T31 223Q31 290 59 337T139 411T261 438Q280 438 297 434T330 423L265 514L149 476V568L211 588L154 668H318L344 631L455 668V576L397 556L484 435Q511 398 527 366T551 300T559
222Q559 152 525 100T432 19T295 -10ZM295 130Q326 130 348 142T382 176T395 228Q395 257 383 279T348 313T295 326Q265 326 243 314T208 279T195 228Q195 199 207 177T242 143T295 130Z" />
<glyph unicode="&#xf1;" horiz-adv-x="570" d="M51 0V470H205V419Q228 447 262 463T348 480Q426 480 472 435T519 295V0H356V269Q356 305 341 322T296 340Q260 340 237 317T214 246V0H51ZM362 539Q362 584 373 618T409 673T475 694Q498 694 516 686T550 667T579
648T602 639Q615 639 622 653T631 694H720Q720 650 709 615T673 559T607 539Q584 539 566 547T532 565T504 584T480 593Q467 593 460 580T451 539H362Z" />
<glyph unicode="&#xf2;" horiz-adv-x="590" d="M295 -10Q219 -10 159 20T65 106T31 235Q31 309 65 364T158 449T295 480Q372 480 431 450T525 364T559 235Q559 162 525 107T432 21T295 -10ZM295 130Q325 130 347 142T382 178T395 235Q395 268 383 291T348 327T295
340Q266 340 243 328T208 292T195 235Q195 202 207 179T243 143T295 130ZM501 536L389 696H547L609 536H501Z" />
<glyph unicode="&#xf3;" horiz-adv-x="590" d="M295 -10Q219 -10 159 20T65 106T31 235Q31 309 65 364T158 449T295 480Q372 480 431 450T525 364T559 235Q559 162 525 107T432 21T295 -10ZM295 130Q325 130 347 142T382 178T395 235Q395 268 383 291T348 327T295
340Q266 340 243 328T208 292T195 235Q195 202 207 179T243 143T295 130ZM245 536L307 696H465L353 536H245Z" />
<glyph unicode="&#xf4;" horiz-adv-x="590" d="M295 -10Q219 -10 159 20T65 106T31 235Q31 309 65 364T158 449T295 480Q372 480 431 450T525 364T559 235Q559 162 525 107T432 21T295 -10ZM295 130Q325 130 347 142T382 178T395 235Q395 268 383 291T348 327T295
340Q266 340 243 328T208 292T195 235Q195 202 207 179T243 143T295 130ZM382 536L478 696H624L720 536H601L551 613L501 536H382Z" />
<glyph unicode="&#xf5;" horiz-adv-x="590" d="M295 -10Q219 -10 159 20T65 106T31 235Q31 309 65 364T158 449T295 480Q372 480 431 450T525 364T559 235Q559 162 525 107T432 21T295 -10ZM295 130Q325 130 347 142T382 178T395 235Q395 268 383 291T348 327T295
340Q266 340 243 328T208 292T195 235Q195 202 207 179T243 143T295 130ZM372 539Q372 584 383 618T419 673T485 694Q508 694 526 686T560 667T589 648T612 639Q625 639 632 653T641 694H730Q730 650 719 615T683 559T617 539Q594 539 576 547T542 565T514 584T490
593Q477 593 470 580T461 539H372Z" />
<glyph unicode="&#xf6;" horiz-adv-x="590" d="M295 -10Q219 -10 159 20T65 106T31 235Q31 309 65 364T158 449T295 480Q372 480 431 450T525 364T559 235Q559 162 525 107T432 21T295 -10ZM295 130Q325 130 347 142T382 178T395 235Q395 268 383 291T348 327T295
340Q266 340 243 328T208 292T195 235Q195 202 207 179T243 143T295 130ZM654 543Q619 543 599 564T578 617Q578 648 599 668T655 689Q689 689 709 669T730 617Q730 585 710 564T654 543ZM447 543Q413 543 393 564T372 617Q372 648 392 668T448 689Q483 689 503
669T524 617Q524 585 503 564T447 543Z" />
<glyph unicode="&#xf7;" horiz-adv-x="582" d="M51 267V401H531V267H51ZM291 66Q253 66 232 88T210 143Q210 176 231 198T291 220Q328 220 350 198T372 143Q372 110 350 88T291 66ZM291 448Q253 448 232 470T210 525Q210 558 231 580T291 602Q328 602 350 580T372
525Q372 492 350 470T291 448Z" />
<glyph unicode="&#xf8;" horiz-adv-x="590" d="M82 -10L31 44L508 480L559 426L82 -10ZM295 -10Q219 -10 159 20T65 106T31 235Q31 309 65 364T158 449T295 480Q372 480 431 450T525 364T559 235Q559 162 525 107T432 21T295 -10ZM295 130Q325 130 347 142T382
178T395 235Q395 268 383 291T348 327T295 340Q266 340 243 328T208 292T195 235Q195 202 207 179T243 143T295 130Z" />
<glyph unicode="&#xf9;" horiz-adv-x="570" d="M222 -10Q144 -10 98 35T51 175V470H214V201Q214 165 229 148T274 130Q310 130 333 153T356 224V470H519V0H365V51Q342 23 308 7T222 -10ZM491 536L379 696H537L599 536H491Z" />
<glyph unicode="&#xfa;" horiz-adv-x="570" d="M222 -10Q144 -10 98 35T51 175V470H214V201Q214 165 229 148T274 130Q310 130 333 153T356 224V470H519V0H365V51Q342 23 308 7T222 -10ZM235 536L297 696H455L343 536H235Z" />
<glyph unicode="&#xfb;" horiz-adv-x="570" d="M222 -10Q144 -10 98 35T51 175V470H214V201Q214 165 229 148T274 130Q310 130 333 153T356 224V470H519V0H365V51Q342 23 308 7T222 -10ZM372 536L468 696H614L710 536H591L541 613L491 536H372Z" />
<glyph unicode="&#xfc;" horiz-adv-x="570" d="M222 -10Q144 -10 98 35T51 175V470H214V201Q214 165 229 148T274 130Q310 130 333 153T356 224V470H519V0H365V51Q342 23 308 7T222 -10ZM644 543Q609 543 589 564T568 617Q568 648 589 668T645 689Q679 689 699
669T720 617Q720 585 700 564T644 543ZM437 543Q403 543 383 564T362 617Q362 648 382 668T438 689Q473 689 493 669T514 617Q514 585 493 564T437 543Z" />
<glyph unicode="&#xfd;" horiz-adv-x="540" d="M136 -188Q101 -188 63 -180T2 -160L44 -40Q61 -46 82 -51T123 -57Q137 -57 149 -55T173 -47T192 -35L7 470H180L269 152L359 470H533L359 0Q336 -67 302 -108T227 -168T136 -188ZM220 536L282 696H440L328 536H220Z" />
<glyph unicode="&#xfe;" horiz-adv-x="601" d="M51 -182V668H214V428Q236 452 269 466T345 480Q409 480 460 451T540 367T570 235Q570 159 541 104T460 20T345 -10Q301 -10 269 3T214 41V-182H51ZM307 130Q336 130 358 142T393 178T406 235Q406 268 393 291T358
327T307 340Q278 340 256 328T221 292T208 235Q208 202 220 179T255 143T307 130Z" />
<glyph unicode="&#xff;" horiz-adv-x="540" d="M136 -188Q101 -188 63 -180T2 -160L44 -40Q61 -46 82 -51T123 -57Q137 -57 149 -55T173 -47T192 -35L7 470H180L269 152L359 470H533L359 0Q336 -67 302 -108T227 -168T136 -188ZM629 543Q594 543 574 564T553 617Q553
648 574 668T630 689Q664 689 684 669T705 617Q705 585 685 564T629 543ZM422 543Q388 543 368 564T347 617Q347 648 367 668T423 689Q458 689 478 669T499 617Q499 585 478 564T422 543Z" />
<glyph unicode="&#x2013;" horiz-adv-x="568" d="M31 223V349H537V223H31Z" />
<glyph unicode="&#x2014;" horiz-adv-x="798" d="M31 223V349H767V223H31Z" />
<glyph unicode="&#x2018;" horiz-adv-x="293" d="M75 358V452Q75 528 101 578T186 668L270 627Q246 587 232 539T218 452V358H75Z" />
<glyph unicode="&#x2019;" horiz-adv-x="293" d="M107 358L24 399Q47 439 61 487T75 574V668H218V574Q218 498 191 447T107 358Z" />
<glyph unicode="&#x201a;" horiz-adv-x="293" d="M107 -165L24 -124Q47 -84 61 -36T75 51V145H218V51Q218 -25 191 -75T107 -165Z" />
<glyph unicode="&#x201c;" horiz-adv-x="512" d="M294 358V452Q294 528 320 578T406 668L488 627Q465 587 452 539T438 452V358H294ZM75 358V452Q75 528 102 578T186 668L270 627Q246 587 232 539T218 452V358H75Z" />
<glyph unicode="&#x201d;" horiz-adv-x="512" d="M327 358L243 399Q267 439 280 487T294 574V668H438V574Q438 498 411 447T327 358ZM107 358L24 399Q47 439 61 487T75 574V668H218V574Q218 498 191 447T107 358Z" />
<glyph unicode="&#x201e;" horiz-adv-x="512" d="M327 -165L243 -124Q266 -84 280 -36T294 51V145H438V51Q438 -25 411 -75T327 -165ZM107 -165L24 -124Q47 -84 61 -36T75 51V145H218V51Q218 -25 191 -75T107 -165Z" />
<glyph unicode="&#x2022;" horiz-adv-x="451" d="M225 135Q177 135 142 155T86 209T66 286Q66 329 86 363T141 417T225 437Q274 437 310 417T365 363T385 286Q385 243 366 209T310 155T225 135Z" />
<glyph unicode="&#x2039;" horiz-adv-x="306" d="M131 113L31 286L131 461H276L176 286L276 113H131Z" />
<glyph unicode="&#x203a;" horiz-adv-x="306" d="M31 113L131 286L31 461H176L276 286L176 113H31Z" />
</font>
</defs>
</svg>
