<?xml version="1.0" standalone="no"?>
<!DOCTYPE svg PUBLIC "-//W3C//DTD SVG 1.1//EN" "http://www.w3.org/Graphics/SVG/1.1/DTD/svg11.dtd">
<svg xmlns="http://www.w3.org/2000/svg">
<defs >
<font id="Gantari" horiz-adv-x="563" ><font-face
    font-family="Gantari Thin"
    units-per-em="1000"
    panose-1="0 0 0 0 0 0 0 0 0 0"
    ascent="950"
    descent="-250"
    alphabetic="0" />
<glyph unicode=" " horiz-adv-x="256" />
<glyph unicode="!" horiz-adv-x="224" d="M102 176L96 486V668H128V486L122 176H102ZM112 -4Q100 -4 93 3T86 21Q86 32 93 39T112 46Q124 46 131 39T138 21Q138 10 131 3T112 -4Z" />
<glyph unicode="&quot;" horiz-adv-x="362" d="M240 422L234 668H266L260 422H240ZM102 422L96 668H128L122 422H102Z" />
<glyph unicode="#" horiz-adv-x="626" d="M119 0L153 191H42L47 219H158L199 449H88L93 477H204L237 668H267L234 477H443L477 668H507L473 477H584L579 449H468L427 219H538L533 191H422L389 0H359L392 191H183L149 0H119ZM188 219H397L438 449H229L188 219Z" />
<glyph unicode="$" horiz-adv-x="592" d="M181 -100L204 1Q167 11 133 31T66 84L86 109Q118 79 148 60T211 31L280 331L237 340Q158 355 122 397T86 495Q86 546 110 587T181 653T296 678Q313 678 328 677T359 673L381 768H411L387 666Q421 657 450 641T506 598L486
573Q462 595 437 611T380 636L316 355L375 344Q453 328 489 283T526 181Q526 97 466 44T296 -10Q279 -10 264 -9T233 -5L211 -100H181ZM240 25Q254 23 268 22T296 20Q390 20 441 63T492 181Q492 231 462 267T372 314L309 326L240 25ZM287 361L352 643Q338 645 324
646T296 648Q210 648 165 606T120 495Q120 445 150 413T240 370L287 361Z" />
<glyph unicode="%" horiz-adv-x="974" d="M291 0L649 668H683L325 0H291ZM216 268Q169 268 136 294T84 366T66 471Q66 530 84 576T135 648T216 674Q263 674 296 648T348 576T366 471Q366 412 348 366T297 294T216 268ZM216 296Q265 296 298 340T332 471Q332 558
299 602T216 646Q167 646 134 602T100 471Q100 384 133 340T216 296ZM758 -6Q711 -6 678 20T626 92T608 197Q608 256 626 302T677 374T758 400Q805 400 838 374T890 302T908 197Q908 138 890 92T839 20T758 -6ZM758 22Q807 22 840 66T874 197Q874 284 841 328T758
372Q709 372 676 328T642 197Q642 110 675 66T758 22Z" />
<glyph unicode="&amp;" horiz-adv-x="672" d="M265 -10Q201 -10 157 14T89 78T66 161Q66 216 98 261T194 329L242 346Q190 396 171 434T152 512Q152 558 171 595T228 655T319 678Q373 678 410 656T466 596T486 512Q486 457 455 421T356 359L295 337L476 165L584
324H618L496 146L650 0H606L479 120Q427 48 378 19T265 -10ZM265 18Q315 18 361 44T458 140L264 325L205 304Q152 284 125 248T98 161Q98 98 145 58T265 18ZM273 358L347 385Q404 406 429 436T454 512Q454 570 418 610T319 650Q257 650 221 610T184 512Q184 476
202 442T273 358Z" />
<glyph unicode="&apos;" horiz-adv-x="224" d="M102 422L96 668H128L122 422H102Z" />
<glyph unicode="(" horiz-adv-x="334" d="M261 -252Q223 -222 190 -170T131 -50T91 93T76 243Q76 318 90 393T130 535T189 655T261 738H290Q254 708 222 656T163 536T123 393T108 243Q108 168 122 93T163 -49T221 -169T290 -252H261Z" />
<glyph unicode=")" horiz-adv-x="334" d="M44 -252Q80 -222 112 -170T171 -50T211 93T226 243Q226 318 212 393T171 535T113 655T44 738H73Q111 708 144 656T203 536T243 393T258 243Q258 168 244 93T203 -49T144 -169T73 -252H44Z" />
<glyph unicode="*" horiz-adv-x="492" d="M151 322L124 340L234 478L66 524L75 555L238 494L230 668H262L254 494L417 555L426 524L258 478L368 340L341 322L246 468L151 322Z" />
<glyph unicode="+" horiz-adv-x="582" d="M275 139V320H96V348H275V529H307V348H486V320H307V139H275Z" />
<glyph unicode="," horiz-adv-x="224" d="M85 -144L66 -135Q83 -109 89 -85T96 -22V46H128V-22Q128 -65 119 -94T85 -144Z" />
<glyph unicode="-" horiz-adv-x="368" d="M66 272V300H302V272H66Z" />
<glyph unicode="." horiz-adv-x="224" d="M112 -4Q100 -4 93 3T86 21Q86 32 93 39T112 46Q124 46 131 39T138 21Q138 10 131 3T112 -4Z" />
<glyph unicode="/" horiz-adv-x="298" d="M24 0L242 668H274L56 0H24Z" />
<glyph unicode="0" horiz-adv-x="642" d="M321 -10Q241 -10 184 34T97 156T66 334Q66 434 96 511T184 633T321 678Q401 678 458 634T545 512T576 334Q576 234 546 157T458 35T321 -10ZM321 18Q384 18 434 54T513 160T542 334Q542 438 513 508T434 614T321 650Q259
650 209 614T129 508T100 334Q100 231 129 161T208 54T321 18Z" />
<glyph unicode="1" horiz-adv-x="382" d="M254 0V637L64 531L46 554L254 668H286V0H254Z" />
<glyph unicode="2" horiz-adv-x="554" d="M66 0V28L380 332Q414 364 429 397T444 465Q444 520 421 561T357 626T263 650Q215 650 174 631T85 562L66 584Q111 634 161 656T263 678Q324 678 372 651T449 577T478 465Q478 433 464 395T403 312L109 28H488V0H66Z" />
<glyph unicode="3" horiz-adv-x="574" d="M278 -10Q209 -10 159 12T66 84L85 106Q128 56 176 37T278 18Q367 18 420 61T474 174Q474 243 421 286T278 330H213V358H278Q359 358 411 396T464 504Q464 574 412 612T278 650Q220 650 178 631T95 562L76 584Q119 634
165 656T278 678Q344 678 393 655T470 593T498 504Q498 447 459 404T351 344Q425 328 466 283T508 174Q508 120 480 79T401 14T278 -10Z" />
<glyph unicode="4" horiz-adv-x="622" d="M436 0V184H66V222L426 668H468V212H556V184H468V0H436ZM97 212H436V634L97 212Z" />
<glyph unicode="5" horiz-adv-x="582" d="M286 -10Q236 -10 197 -1T126 30T66 84L87 106Q130 56 175 37T276 18Q373 18 427 68T482 209Q482 300 428 350T276 400Q214 400 167 376T110 297L80 304L146 678H466V650H173L122 361Q154 403 200 415T286 428Q356 428
407 400T487 323T516 209Q516 145 488 96T408 18T286 -10Z" />
<glyph unicode="6" horiz-adv-x="612" d="M316 -10Q235 -10 180 22T95 121T66 294Q66 409 93 495T180 630T332 678Q395 678 443 653T528 584L507 562Q472 604 428 627T332 650Q260 650 208 613T128 500T100 304Q124 363 178 395T316 428Q386 428 437 400T517 323T546
209Q546 145 518 96T438 18T316 -10ZM306 18Q403 18 457 68T512 209Q512 300 458 350T306 400Q209 400 155 350T100 209Q114 122 162 70T306 18Z" />
<glyph unicode="7" horiz-adv-x="514" d="M151 0L436 640H46V668H468V640L183 0H151Z" />
<glyph unicode="8" horiz-adv-x="612" d="M306 -10Q227 -10 174 13T93 78T66 174Q66 238 106 283T232 344Q152 361 114 404T76 504Q76 553 102 592T180 655T306 678Q380 678 431 655T509 593T536 504Q536 447 498 404T380 344Q466 328 506 283T546 174Q546 120
519 79T439 14T306 -10ZM306 18Q407 18 459 61T512 174Q512 244 460 287T306 330Q205 330 153 287T100 174Q100 104 152 61T306 18ZM306 358Q400 358 451 396T502 504Q502 574 451 612T306 650Q212 650 161 612T110 504Q110 434 161 396T306 358Z" />
<glyph unicode="9" horiz-adv-x="612" d="M280 -10Q217 -10 169 15T84 84L105 106Q140 64 184 41T280 18Q352 18 404 55T484 168T512 364Q488 305 434 273T296 240Q226 240 174 268T94 345T66 459Q66 523 94 572T174 650T296 678Q377 678 432 646T517 547T546
374Q546 259 518 173T432 38T280 -10ZM306 268Q403 268 457 318T512 459Q498 546 450 598T306 650Q209 650 155 600T100 459Q100 368 154 318T306 268Z" />
<glyph unicode=":" horiz-adv-x="224" d="M112 440Q100 440 93 447T86 465Q86 476 93 483T112 490Q124 490 131 483T138 465Q138 454 131 447T112 440ZM112 -4Q100 -4 93 3T86 21Q86 32 93 39T112 46Q124 46 131 39T138 21Q138 10 131 3T112 -4Z" />
<glyph unicode=";" horiz-adv-x="224" d="M85 -144L66 -135Q83 -109 89 -85T96 -22V46H128V-22Q128 -65 119 -94T85 -144ZM112 440Q100 440 93 447T86 465Q86 476 93 483T112 490Q124 490 131 483T138 465Q138 454 131 447T112 440Z" />
<glyph unicode="&lt;" horiz-adv-x="582" d="M486 152L96 320V348L486 516V484L133 334L486 184V152Z" />
<glyph unicode="=" horiz-adv-x="582" d="M96 428V456H486V428H96ZM96 212V240H486V212H96Z" />
<glyph unicode="&gt;" horiz-adv-x="582" d="M96 152V184L449 334L96 484V516L486 348V320L96 152Z" />
<glyph unicode="?" horiz-adv-x="472" d="M218 176V202Q218 236 235 267T277 325T328 379T371 432T388 485Q388 535 367 572T308 629T222 650Q177 650 137 630T57 562L40 584Q78 634 124 656T222 678Q278 678 323 654T395 587T422 485Q422 455 404 427T360 372T307
318T262 263T244 202V176H218ZM231 -4Q219 -4 212 3T205 21Q205 32 212 39T231 46Q243 46 250 39T257 21Q257 10 250 3T231 -4Z" />
<glyph unicode="@" horiz-adv-x="920" d="M460 -110Q372 -110 300 -81T175 1T95 127T66 284Q66 370 94 441T175 566T299 649T460 678Q548 678 620 651T745 576T825 463T854 324Q854 252 835 201T781 122T697 94Q654 94 627 121T593 196Q577 156 544 125T450 94Q369
94 325 143T281 284Q281 375 325 424T450 474Q503 474 537 449T587 382V466H617V220Q617 172 641 147T697 122Q757 122 789 172T822 324Q822 418 777 491T650 607T460 650Q352 650 271 604T144 475T98 284Q98 176 143 94T270 -35T460 -82Q517 -82 567 -69T656 -28L667
-53Q625 -82 573 -96T460 -110ZM450 122Q513 122 550 162T587 284Q587 366 550 406T450 446Q387 446 350 406T313 284Q313 202 350 162T450 122Z" />
<glyph unicode="A" horiz-adv-x="692" d="M42 0L330 668H362L650 0H616L543 171H149L76 0H42ZM162 201H530L346 631L162 201Z" />
<glyph unicode="B" horiz-adv-x="694" d="M96 0V668H384Q454 668 504 654T581 604T608 502Q608 426 574 392T483 344Q551 331 589 293T628 176Q628 78 566 39T384 0H96ZM128 30H374Q457 30 505 45T573 94T594 180Q594 233 574 266T505 314T374 330H128V30ZM128
358H374Q482 358 528 388T574 498Q574 577 528 607T374 638H128V358Z" />
<glyph unicode="C" horiz-adv-x="672" d="M390 -10Q288 -10 216 34T105 156T66 334Q66 434 104 511T215 633T390 678Q461 678 515 657T612 598L592 573Q554 609 504 628T390 648Q299 648 234 609T135 499T100 334Q100 241 134 170T234 60T390 20Q453 20 503 39T592
95L612 70Q570 32 516 11T390 -10Z" />
<glyph unicode="D" horiz-adv-x="710" d="M96 0V668H310Q475 668 559 584T644 334Q644 168 560 84T310 0H96ZM128 30H300Q460 30 535 105T610 334Q610 487 535 562T300 638H128V30Z" />
<glyph unicode="E" horiz-adv-x="586" d="M96 0V668H524V638H128V359H494V329H128V30H524V0H96Z" />
<glyph unicode="F" horiz-adv-x="576" d="M96 0V668H524V638H128V359H494V329H128V0H96Z" />
<glyph unicode="G" horiz-adv-x="730" d="M390 -10Q288 -10 216 34T105 156T66 334Q66 434 104 511T215 633T390 678Q464 678 527 656T632 597L612 572Q571 607 515 627T390 648Q299 648 234 609T135 499T100 334Q100 241 134 170T234 60T390 20Q468 20 526 49T622
130V310H380V340H654V119Q612 58 546 24T390 -10Z" />
<glyph unicode="H" horiz-adv-x="720" d="M96 0V668H128V359H592V668H624V0H592V329H128V0H96Z" />
<glyph unicode="I" horiz-adv-x="224" d="M96 0V668H128V0H96Z" />
<glyph unicode="J" horiz-adv-x="526" d="M228 -10Q174 -10 135 8T56 67L76 92Q114 54 149 37T228 20Q306 20 352 67T398 208V668H430V208Q430 98 373 44T228 -10Z" />
<glyph unicode="K" horiz-adv-x="608" d="M96 0V668H128V268L516 668H556L269 373L566 0H526L247 351L128 228V0H96Z" />
<glyph unicode="L" horiz-adv-x="526" d="M96 0V668H128V30H474V0H96Z" />
<glyph unicode="M" horiz-adv-x="896" d="M96 0V668H145L448 39L751 668H800V0H768V632L464 0H432L128 632V0H96Z" />
<glyph unicode="N" horiz-adv-x="720" d="M96 0V668H138L592 36V668H624V0H582L128 632V0H96Z" />
<glyph unicode="O" horiz-adv-x="780" d="M390 -10Q288 -10 216 34T105 156T66 334Q66 434 104 511T215 633T390 678Q492 678 564 634T675 512T714 334Q714 234 676 157T565 35T390 -10ZM390 20Q481 20 546 59T645 170T680 334Q680 428 646 498T546 608T390 648Q299
648 234 609T135 499T100 334Q100 241 134 170T234 60T390 20Z" />
<glyph unicode="P" horiz-adv-x="632" d="M96 0V668H332Q444 668 505 622T566 471Q566 366 505 320T332 274H128V0H96ZM128 304H322Q423 304 477 340T532 471Q532 565 482 601T322 638H128V304Z" />
<glyph unicode="Q" horiz-adv-x="780" d="M591 -192Q525 -192 481 -169T413 -105T390 -10Q288 -10 216 34T105 156T66 334Q66 434 104 511T215 633T390 678Q492 678 564 634T675 512T714 334Q714 239 679 164T579 44T420 -9Q422 -92 468 -128T591 -164Q632 -164
665 -151T737 -108L754 -130Q715 -163 676 -177T591 -192ZM390 20Q481 20 546 59T645 170T680 334Q680 428 646 498T546 608T390 648Q299 648 234 609T135 499T100 334Q100 241 134 170T234 60T390 20Z" />
<glyph unicode="R" horiz-adv-x="632" d="M96 0V668H332Q445 668 505 624T566 482Q566 394 517 350T374 298L600 0H560L337 296H128V0H96ZM128 326H322Q423 326 477 361T532 482Q532 568 482 603T322 638H128V326Z" />
<glyph unicode="S" horiz-adv-x="592" d="M296 -10Q228 -10 174 11T66 84L86 109Q138 61 186 41T296 20Q390 20 441 63T492 181Q492 231 462 267T372 314L237 340Q158 355 122 397T86 495Q86 546 110 587T181 653T296 678Q359 678 411 659T506 598L486 573Q447
609 403 628T296 648Q210 648 165 606T120 495Q120 445 150 413T240 370L375 344Q453 328 489 283T526 181Q526 97 466 44T296 -10Z" />
<glyph unicode="T" horiz-adv-x="582" d="M275 0V638H52V668H530V638H307V0H275Z" />
<glyph unicode="U" horiz-adv-x="720" d="M360 -10Q237 -10 167 57T96 268V668H128V268Q128 179 156 124T237 45T360 20Q431 20 483 44T563 124T592 268V668H624V268Q624 124 554 57T360 -10Z" />
<glyph unicode="V" horiz-adv-x="692" d="M330 0L42 668H76L346 37L616 668H650L362 0H330Z" />
<glyph unicode="W" horiz-adv-x="996" d="M263 0L42 668H76L279 37L482 668H514L717 37L920 668H954L733 0H701L498 631L295 0H263Z" />
<glyph unicode="X" horiz-adv-x="672" d="M42 0L315 344L52 668H92L336 367L580 668H620L356 344L630 0H590L336 320L82 0H42Z" />
<glyph unicode="Y" horiz-adv-x="672" d="M320 0V267L42 668H80L336 294L592 668H630L352 267V0H320Z" />
<glyph unicode="Z" horiz-adv-x="548" d="M50 0V30L452 638H60V668H488V638L86 30H498V0H50Z" />
<glyph unicode="[" horiz-adv-x="374" d="M96 -252V738H302V708H128V-222H302V-252H96Z" />
<glyph unicode="\" horiz-adv-x="298" d="M242 0L24 668H56L274 0H242Z" />
<glyph unicode="]" horiz-adv-x="374" d="M72 -252V-222H246V708H72V738H278V-252H72Z" />
<glyph unicode="^" horiz-adv-x="582" d="M129 348L277 668H305L453 348H421L291 634L161 348H129Z" />
<glyph unicode="_" horiz-adv-x="440" d="M0 -74V-46H440V-74H0Z" />
<glyph unicode="`" horiz-adv-x="600" d="M328 554L235 696H271L352 554H328Z" />
<glyph unicode="a" horiz-adv-x="560" d="M246 -10Q188 -10 148 7T87 55T66 128Q66 170 87 197T148 240T246 264L434 288Q433 370 391 411T265 452Q222 452 189 437T118 387L100 410Q129 440 171 460T265 480Q365 480 414 430T464 286V0H434V96Q405 43 357 17T246
-10ZM246 18Q306 18 348 44T412 110T434 192V260L246 236Q175 227 137 203T98 128Q98 78 136 48T246 18Z" />
<glyph unicode="b" horiz-adv-x="610" d="M319 -10Q250 -10 199 23T126 113V0H96V668H126V357Q147 414 198 447T319 480Q385 480 436 450T515 365T544 235Q544 160 516 105T436 20T319 -10ZM319 18Q375 18 418 44T487 119T512 235Q512 303 487 351T419 426T319
452Q263 452 220 426T151 352T126 235Q126 168 151 119T219 44T319 18Z" />
<glyph unicode="c" horiz-adv-x="516" d="M295 -10Q227 -10 176 20T95 105T66 235Q66 310 95 365T175 450T295 480Q346 480 386 464T456 418L439 396Q409 424 373 438T295 452Q237 452 193 426T123 352T98 235Q98 168 123 119T192 44T295 18Q337 18 373 32T439
74L456 52Q427 23 387 7T295 -10Z" />
<glyph unicode="d" horiz-adv-x="610" d="M291 -10Q225 -10 175 20T95 105T66 235Q66 310 95 365T174 450T291 480Q360 480 411 447T484 357V668H514V0H484V113Q463 56 412 23T291 -10ZM291 18Q347 18 390 44T459 119T484 235Q484 303 459 351T391 426T291 452Q235
452 192 426T123 352T98 235Q98 168 123 119T191 44T291 18Z" />
<glyph unicode="e" horiz-adv-x="560" d="M295 -10Q227 -10 176 20T95 105T66 235Q66 310 95 365T173 450T285 480Q352 480 398 452T469 379T494 278Q494 264 491 251T483 230H98Q98 164 123 117T193 44T295 18Q346 18 384 34T456 82L474 59Q439 24 396 7T295
-10ZM98 258H459Q461 262 461 267T462 278Q462 327 441 366T381 429T285 452Q237 452 196 429T129 363T98 258Z" />
<glyph unicode="f" horiz-adv-x="336" d="M143 0V442H30V470H143V551Q143 614 173 644T260 674Q272 674 285 673T306 668V642Q298 644 285 645T260 646Q218 646 196 623T173 551V470H306V442H173V0H143Z" />
<glyph unicode="g" horiz-adv-x="610" d="M284 -192Q231 -192 184 -174T94 -112L112 -90Q157 -132 198 -148T284 -164Q379 -164 431 -108T484 56V131Q460 79 411 50T291 20Q225 20 175 47T95 126T66 250Q66 322 95 373T174 452T291 480Q361 480 410 451T484 369V470H514V62Q514
-18 488 -75T410 -162T284 -192ZM291 48Q345 48 388 70T458 137T484 250Q484 318 458 363T389 430T291 452Q238 452 194 430T124 363T98 250Q98 182 124 137T194 70T291 48Z" />
<glyph unicode="h" horiz-adv-x="570" d="M96 0V668H126V366Q147 419 192 449T300 480Q383 480 428 434T474 286V0H444V286Q444 375 408 413T300 452Q214 452 170 393T126 237V0H96Z" />
<glyph unicode="i" horiz-adv-x="222" d="M96 0V470H126V0H96ZM111 602Q100 602 93 608T86 625Q86 636 93 642T111 648Q122 648 129 642T136 625Q136 614 129 608T111 602Z" />
<glyph unicode="j" horiz-adv-x="222" d="M9 -188Q-3 -188 -16 -187T-37 -182V-156Q-29 -158 -16 -159T9 -160Q51 -160 73 -137T96 -65V470H126V-65Q126 -128 96 -158T9 -188ZM111 602Q100 602 93 608T86 625Q86 636 93 642T111 648Q122 648 129 642T136 625Q136
614 129 608T111 602Z" />
<glyph unicode="k" horiz-adv-x="518" d="M96 0V668H126V196L428 470H466L251 276L476 0H438L230 257L126 164V0H96Z" />
<glyph unicode="l" horiz-adv-x="222" d="M96 0V668H126V0H96Z" />
<glyph unicode="m" horiz-adv-x="848" d="M96 0V470H126V376Q146 424 182 452T273 480Q338 480 377 448T430 360Q452 422 493 451T586 480Q660 480 706 433T752 286V0H722V286Q722 375 686 413T586 452Q513 452 476 393T439 237V0H409V286Q409 375 373 413T273
452Q200 452 163 393T126 237V0H96Z" />
<glyph unicode="n" horiz-adv-x="570" d="M96 0V470H126V366Q147 419 192 449T300 480Q383 480 428 434T474 286V0H444V286Q444 375 408 413T300 452Q214 452 170 393T126 237V0H96Z" />
<glyph unicode="o" horiz-adv-x="590" d="M295 -10Q227 -10 176 20T95 105T66 235Q66 310 95 365T175 450T295 480Q363 480 414 450T495 365T524 235Q524 160 495 105T415 20T295 -10ZM295 18Q353 18 397 44T467 119T492 235Q492 303 467 351T398 426T295 452Q237
452 193 426T123 352T98 235Q98 168 123 119T192 44T295 18Z" />
<glyph unicode="p" horiz-adv-x="610" d="M96 -182V470H126V357Q147 414 198 447T319 480Q385 480 436 450T515 365T544 235Q544 160 516 105T436 20T319 -10Q250 -10 199 23T126 113V-182H96ZM319 18Q375 18 418 44T487 119T512 235Q512 303 487 351T419 426T319
452Q263 452 220 426T151 352T126 235Q126 168 151 119T219 44T319 18Z" />
<glyph unicode="q" horiz-adv-x="610" d="M484 -182V113Q463 56 412 23T291 -10Q225 -10 175 20T95 105T66 235Q66 310 95 365T174 450T291 480Q360 480 411 447T484 357V470H514V-182H484ZM291 18Q347 18 390 44T459 119T484 235Q484 303 459 351T391 426T291
452Q235 452 192 426T123 352T98 235Q98 168 123 119T191 44T291 18Z" />
<glyph unicode="r" horiz-adv-x="356" d="M96 0V470H126V356Q146 413 183 444T271 476Q285 476 297 475T318 470V444Q306 446 295 447T271 448Q209 448 168 389T126 227V0H96Z" />
<glyph unicode="s" horiz-adv-x="490" d="M245 -10Q193 -10 150 7T66 58L85 82Q125 50 162 34T245 18Q320 18 356 48T392 126Q392 164 373 184T300 214L195 234Q139 245 110 273T81 344Q81 381 100 411T156 461T245 480Q296 480 338 464T409 420L390 396Q361 422
325 437T245 452Q185 452 149 422T113 344Q113 313 133 293T200 264L305 244Q361 234 392 208T424 126Q424 66 378 28T245 -10Z" />
<glyph unicode="t" horiz-adv-x="352" d="M260 -6Q204 -6 174 24T143 117V442H30V470H143V604H173V470H306V442H173V117Q173 68 195 45T260 22Q272 22 285 23T306 26V0Q298 -3 285 -4T260 -6Z" />
<glyph unicode="u" horiz-adv-x="570" d="M270 -10Q187 -10 142 36T96 184V470H126V184Q126 95 162 57T270 18Q356 18 400 77T444 233V470H474V0H444V104Q423 51 378 21T270 -10Z" />
<glyph unicode="v" horiz-adv-x="522" d="M246 0L42 470H75L261 37L447 470H480L276 0H246Z" />
<glyph unicode="w" horiz-adv-x="792" d="M213 0L42 470H75L228 37L381 470H411L564 37L717 470H750L579 0H550L396 433L242 0H213Z" />
<glyph unicode="x" horiz-adv-x="522" d="M42 0L241 243L52 470H90L261 263L432 470H470L281 243L480 0H442L261 222L80 0H42Z" />
<glyph unicode="y" horiz-adv-x="522" d="M94 -188Q70 -188 47 -181T2 -160L13 -135Q36 -148 56 -154T94 -160Q119 -160 142 -148T190 -102T246 -1L42 470H75L261 32L447 470H480L276 0Q241 -80 210 -120T151 -174T94 -188Z" />
<glyph unicode="z" horiz-adv-x="440" d="M50 0V28L344 442H60V470H380V442L86 28H390V0H50Z" />
<glyph unicode="{" horiz-adv-x="374" d="M234 -252Q205 -252 183 -240T148 -206T136 -154V159Q136 197 120 213T66 229V257Q104 257 120 273T136 327V640Q136 670 148 692T182 726T234 738H302V708H234Q204 708 186 690T168 640V323Q168 293 152 272T98 243Q136
235 152 214T168 163V-154Q168 -186 186 -204T234 -222H302V-252H234Z" />
<glyph unicode="|" horiz-adv-x="224" d="M96 -252V738H128V-252H96Z" />
<glyph unicode="}" horiz-adv-x="374" d="M72 -252V-222H140Q170 -222 188 -204T206 -154V163Q206 193 222 214T276 243Q238 251 222 272T206 323V640Q206 672 188 690T140 708H72V738H140Q170 738 192 726T226 692T238 640V327Q238 289 254 273T308 257V229Q270
229 254 213T238 159V-154Q238 -183 226 -205T192 -240T140 -252H72Z" />
<glyph unicode="~" horiz-adv-x="582" d="M96 268Q96 334 119 367T194 400Q224 400 248 385T295 348T339 312T388 296Q423 296 440 321T460 400H486Q486 334 463 301T388 268Q358 268 333 283T286 320T242 356T194 372Q159 372 142 347T122 268H96Z" />
<glyph unicode="&#xa0;" horiz-adv-x="256" />
<glyph unicode="&#xa1;" horiz-adv-x="224" d="M96 -182V0L102 310H122L128 0V-182H96ZM112 440Q100 440 93 447T86 465Q86 476 93 483T112 490Q124 490 131 483T138 465Q138 454 131 447T112 440Z" />
<glyph unicode="&#xa2;" horiz-adv-x="516" d="M201 -100L224 0Q151 20 109 81T66 235Q66 310 95 365T175 450T295 480Q305 480 314 480T334 477L355 570H385L362 471Q390 464 413 451T456 418L439 396Q420 413 400 425T356 444L259 21Q267 20 276 19T295 18Q337
18 373 32T439 74L456 52Q427 23 387 7T295 -10Q284 -10 274 -9T252 -6L231 -100H201ZM230 27L327 450Q319 451 311 451T295 452Q237 452 193 426T123 352T98 235Q98 153 133 100T230 27Z" />
<glyph unicode="&#xa3;" horiz-adv-x="554" d="M66 0V28Q94 42 109 67T131 121T138 174Q138 196 131 222T115 279H46V307H107Q95 345 86 385T76 465Q76 529 104 576T181 651T291 678Q342 678 392 656T488 584L471 562Q423 611 381 630T291 650Q238 650 197 627T133
562T110 465Q110 424 120 385T142 307H356V279H151Q159 250 165 224T172 174Q172 150 166 121T144 67T100 28H488V0H66Z" />
<glyph unicode="&#xa4;" horiz-adv-x="742" d="M48 -11L26 11L199 184Q159 245 159 334Q159 424 199 483L26 657L48 679L219 508Q246 537 284 552T371 568Q419 568 457 553T523 508L694 679L716 657L542 483Q562 454 572 417T583 334Q583 290 573 253T542 184L716
11L694 -11L523 160Q496 131 458 116T371 100Q322 100 284 115T219 160L48 -11ZM371 128Q458 128 504 184T551 334Q551 427 505 483T371 540Q283 540 237 484T191 334Q191 241 237 185T371 128Z" />
<glyph unicode="&#xa5;" horiz-adv-x="642" d="M305 0V101H126V129H305V257H126V285H294L66 668H104L321 294L538 668H576L347 285H516V257H337V129H516V101H337V0H305Z" />
<glyph unicode="&#xa6;" horiz-adv-x="224" d="M96 282V738H128V282H96ZM96 -252V204H128V-252H96Z" />
<glyph unicode="&#xa7;" horiz-adv-x="595" d="M290 -192Q238 -192 195 -175T111 -124L130 -100Q170 -132 207 -148T290 -164Q357 -164 397 -133T437 -48Q437 -10 415 13T345 62L180 152Q139 174 114 195T77 241T66 293Q66 349 106 380T213 417Q174 441 150 469T126
534Q126 576 145 608T201 659T290 678Q341 678 383 662T454 618L435 594Q406 620 370 635T290 650Q230 650 194 620T158 534Q158 503 181 480T245 433L410 343Q452 321 478 301T516 256T529 193Q529 135 492 106T392 69Q426 48 447 22T469 -48Q469 -115 419 -153T290
-192ZM355 90Q417 92 457 116T497 193Q497 219 490 237T464 273T405 312L249 397Q210 397 176 386T120 352T98 293Q98 262 115 237T185 183L355 90Z" />
<glyph unicode="&#xa8;" horiz-adv-x="600" d="M389 603Q378 603 372 608T365 625Q365 636 371 641T389 647Q400 647 406 642T413 625Q413 614 407 609T389 603ZM211 603Q200 603 194 608T187 625Q187 636 193 641T211 647Q222 647 228 642T235 625Q235 614 229
609T211 603Z" />
<glyph unicode="&#xa9;" horiz-adv-x="820" d="M410 -10Q308 -10 231 34T110 156T66 334Q66 434 109 511T230 633T410 678Q512 678 589 634T710 512T754 334Q754 234 711 157T590 35T410 -10ZM415 168Q343 168 304 214T265 334Q265 408 304 454T415 500Q449 500
475 490T521 459L504 437Q485 455 462 463T414 472Q358 472 328 435T297 334Q297 271 327 234T414 196Q439 196 462 204T504 230L521 209Q502 189 476 179T415 168ZM410 18Q504 18 574 58T683 169T722 334Q722 428 683 499T574 610T410 650Q317 650 247 610T137
499T98 334Q98 241 137 170T246 58T410 18Z" />
<glyph unicode="&#xaa;" horiz-adv-x="522" d="M228 232Q176 232 140 248T85 292T66 356Q66 394 85 419T140 459T228 480L396 502Q395 574 358 610T246 646Q207 646 178 632T115 587L97 611Q123 638 160 656T246 674Q336 674 381 629T426 499V241H396V324Q370
278 326 255T228 232ZM228 260Q283 260 320 283T376 343T396 417V474L228 452Q165 444 132 422T98 356Q98 311 133 286T228 260Z" />
<glyph unicode="&#xab;" horiz-adv-x="442" d="M344 113L244 286L344 461H376L276 286L376 113H344ZM166 113L66 286L166 461H198L98 286L198 113H166Z" />
<glyph unicode="&#xac;" horiz-adv-x="582" d="M454 230V410H96V438H486V230H454Z" />
<glyph unicode="&#xad;" horiz-adv-x="368" d="M66 272V300H302V272H66Z" />
<glyph unicode="&#xae;" horiz-adv-x="620" d="M310 190Q238 190 183 221T97 308T66 434Q66 505 97 560T183 646T310 678Q383 678 437 647T523 560T554 434Q554 363 523 308T438 222T310 190ZM310 218Q374 218 421 245T495 321T522 434Q522 498 496 546T422 622T310
650Q246 650 199 623T125 547T98 434Q98 370 124 321T198 245T310 218ZM229 314V556H314Q356 556 377 540T399 489Q399 457 381 441T330 422L412 314H374L293 421H259V314H229ZM259 449H314Q341 449 354 457T367 489Q367 510 354 519T314 528H259V449Z" />
<glyph unicode="&#xaf;" horiz-adv-x="600" d="M186 611V639H414V611H186Z" />
<glyph unicode="&#xb0;" horiz-adv-x="380" d="M190 440Q135 440 101 473T66 559Q66 612 100 645T190 678Q245 678 279 645T314 559Q314 506 280 473T190 440ZM190 468Q233 468 258 492T283 559Q283 601 258 625T190 650Q147 650 122 626T97 559Q97 517 122 493T190 468Z" />
<glyph unicode="&#xb1;" horiz-adv-x="582" d="M275 139V320H96V348H275V529H307V348H486V320H307V139H275ZM96 0V28H486V0H96Z" />
<glyph unicode="&#xb2;" horiz-adv-x="382" d="M66 408V436L240 604Q260 624 268 641T276 682Q276 724 250 752T182 780Q151 780 129 767T83 730L66 753Q92 782 122 795T182 808Q236 808 273 774T310 682Q310 663 303 641T269 592L108 436H316V408H66Z" />
<glyph unicode="&#xb3;" horiz-adv-x="394" d="M191 402Q150 402 121 415T66 457L83 479Q109 453 134 442T191 430Q244 430 269 454T294 514Q294 549 269 573T191 598H153V624H191Q239 624 263 645T288 702Q288 737 264 758T191 780Q157 780 136 769T89 731L72
753Q98 782 125 795T191 808Q250 808 286 779T322 705Q322 671 299 646T235 611Q279 602 303 576T328 511Q328 463 291 433T191 402Z" />
<glyph unicode="&#xb4;" horiz-adv-x="600" d="M248 554L329 696H365L272 554H248Z" />
<glyph unicode="&#xb5;" horiz-adv-x="570" d="M96 -182V470H126V184Q126 95 162 57T270 18Q356 18 400 77T444 233V470H474V0H444V104Q423 51 378 21T270 -10Q220 -10 185 7T126 62V-182H96Z" />
<glyph unicode="&#xb6;" horiz-adv-x="544" d="M238 -182V340Q189 340 150 360T89 417T66 504Q66 554 88 591T150 648T238 668H448V-182H418V640H268V-182H238Z" />
<glyph unicode="&#xb7;" horiz-adv-x="224" d="M112 261Q100 261 93 268T86 286Q86 297 93 304T112 311Q124 311 131 304T138 286Q138 275 131 268T112 261Z" />
<glyph unicode="&#xb8;" horiz-adv-x="600" d="M287 -174Q274 -174 258 -172T233 -167V-145Q242 -147 258 -147T287 -148Q310 -148 323 -138T337 -108Q337 -89 324 -79T287 -68H263V-51L291 11H319L291 -50Q328 -50 347 -67T367 -112Q367 -141 347 -157T287 -174Z" />
<glyph unicode="&#xb9;" horiz-adv-x="298" d="M170 408V771L63 713L46 735L170 802H202V408H170Z" />
<glyph unicode="&#xba;" horiz-adv-x="546" d="M273 232Q212 232 165 259T92 336T66 453Q66 521 92 570T165 647T273 674Q335 674 381 647T454 571T480 453Q480 386 454 336T382 259T273 232ZM273 260Q352 260 400 311T448 453Q448 544 400 595T273 646Q194 646
146 595T98 453Q98 362 146 311T273 260Z" />
<glyph unicode="&#xbb;" horiz-adv-x="442" d="M244 113L344 286L244 461H276L376 286L276 113H244ZM66 113L166 286L66 461H98L198 286L98 113H66Z" />
<glyph unicode="&#xbc;" horiz-adv-x="834" d="M201 0L559 668H593L235 0H201ZM170 274V637L63 579L46 601L170 668H202V274H170ZM684 0V102H478V131L692 394H716V130H768V102H716V0H684ZM515 130H684V339L515 130Z" />
<glyph unicode="&#xbd;" horiz-adv-x="866" d="M201 0L559 668H593L235 0H201ZM170 274V637L63 579L46 601L170 668H202V274H170ZM550 0V28L724 196Q744 216 752 233T760 274Q760 316 734 344T666 372Q635 372 613 359T567 322L550 345Q576 374 606 387T666 400Q720
400 757 366T794 274Q794 255 787 233T753 184L592 28H800V0H550Z" />
<glyph unicode="&#xbe;" horiz-adv-x="914" d="M281 0L639 668H673L315 0H281ZM191 268Q150 268 121 281T66 323L83 345Q109 319 134 308T191 296Q244 296 269 320T294 380Q294 415 269 439T191 464H153V490H191Q239 490 263 511T288 568Q288 603 264 624T191
646Q157 646 136 635T89 597L72 619Q98 648 125 661T191 674Q250 674 286 645T322 571Q322 537 299 512T235 477Q279 468 303 442T328 377Q328 329 291 299T191 268ZM764 0V102H558V131L772 394H796V130H848V102H796V0H764ZM595 130H764V339L595 130Z" />
<glyph unicode="&#xbf;" horiz-adv-x="472" d="M250 -192Q194 -192 149 -168T77 -101T50 1Q50 31 68 59T112 114T165 168T210 223T228 284V310H254V284Q254 249 237 219T195 160T144 106T101 54T84 1Q84 -48 105 -85T164 -143T250 -164Q295 -164 335 -144T415
-76L432 -98Q394 -148 348 -170T250 -192ZM241 440Q229 440 222 447T215 465Q215 476 222 483T241 490Q253 490 260 483T267 465Q267 454 260 447T241 440Z" />
<glyph unicode="&#xc0;" horiz-adv-x="692" d="M42 0L330 668H362L650 0H616L543 171H149L76 0H42ZM162 201H530L346 631L162 201ZM340 752L247 894H283L364 752H340Z" />
<glyph unicode="&#xc1;" horiz-adv-x="692" d="M42 0L330 668H362L650 0H616L543 171H149L76 0H42ZM162 201H530L346 631L162 201ZM339 752L420 894H456L363 752H339Z" />
<glyph unicode="&#xc2;" horiz-adv-x="692" d="M42 0L330 668H362L650 0H616L543 171H149L76 0H42ZM162 201H530L346 631L162 201ZM222 752L328 894H364L470 752H438L346 873L254 752H222Z" />
<glyph unicode="&#xc3;" horiz-adv-x="692" d="M42 0L330 668H362L650 0H616L543 171H149L76 0H42ZM162 201H530L346 631L162 201ZM212 772Q212 812 220 834T244 865T280 874Q300 874 317 863T351 836T382 810T412 798Q430 798 442 812T456 874H480Q480 834 472
812T448 781T412 772Q391 772 374 783T341 810T310 836T280 848Q262 848 250 834T236 772H212Z" />
<glyph unicode="&#xc4;" horiz-adv-x="692" d="M42 0L330 668H362L650 0H616L543 171H149L76 0H42ZM162 201H530L346 631L162 201ZM435 801Q424 801 418 806T411 823Q411 834 417 839T435 845Q446 845 452 840T459 823Q459 812 453 807T435 801ZM257 801Q246 801
240 806T233 823Q233 834 239 839T257 845Q268 845 274 840T281 823Q281 812 275 807T257 801Z" />
<glyph unicode="&#xc5;" horiz-adv-x="692" d="M42 0L330 668H362L650 0H616L543 171H149L76 0H42ZM162 201H530L346 631L162 201ZM346 722Q298 722 269 750T239 824Q239 867 268 895T346 924Q394 924 423 896T453 823Q453 779 424 751T346 722ZM346 748Q381 748
402 769T423 823Q423 856 402 877T346 898Q311 898 290 877T269 823Q269 790 290 769T346 748Z" />
<glyph unicode="&#xc6;" horiz-adv-x="978" d="M42 0L482 668H916V638H520V359H886V329H520V30H916V0H488V171H191L79 0H42ZM211 201H488L489 625L211 201Z" />
<glyph unicode="&#xc7;" horiz-adv-x="672" d="M390 -10Q288 -10 216 34T105 156T66 334Q66 434 104 511T215 633T390 678Q461 678 515 657T612 598L592 573Q554 609 504 628T390 648Q299 648 234 609T135 499T100 334Q100 241 134 170T234 60T390 20Q453 20 503
39T592 95L612 70Q570 32 516 11T390 -10ZM357 -174Q344 -174 328 -172T303 -167V-145Q312 -147 328 -147T357 -148Q380 -148 393 -138T407 -108Q407 -89 394 -79T357 -68H333V-51L361 11H389L361 -50Q398 -50 417 -67T437 -112Q437 -141 417 -157T357 -174Z" />
<glyph unicode="&#xc8;" horiz-adv-x="586" d="M96 0V668H524V638H128V359H494V329H128V30H524V0H96ZM307 752L214 894H250L331 752H307Z" />
<glyph unicode="&#xc9;" horiz-adv-x="586" d="M96 0V668H524V638H128V359H494V329H128V30H524V0H96ZM306 752L387 894H423L330 752H306Z" />
<glyph unicode="&#xca;" horiz-adv-x="586" d="M96 0V668H524V638H128V359H494V329H128V30H524V0H96ZM189 752L295 894H331L437 752H405L313 873L221 752H189Z" />
<glyph unicode="&#xcb;" horiz-adv-x="586" d="M96 0V668H524V638H128V359H494V329H128V30H524V0H96ZM402 801Q391 801 385 806T378 823Q378 834 384 839T402 845Q413 845 419 840T426 823Q426 812 420 807T402 801ZM224 801Q213 801 207 806T200 823Q200 834
206 839T224 845Q235 845 241 840T248 823Q248 812 242 807T224 801Z" />
<glyph unicode="&#xcc;" horiz-adv-x="224" d="M96 0V668H128V0H96ZM106 752L13 894H49L130 752H106Z" />
<glyph unicode="&#xcd;" horiz-adv-x="224" d="M96 0V668H128V0H96ZM105 752L186 894H222L129 752H105Z" />
<glyph unicode="&#xce;" horiz-adv-x="224" d="M96 0V668H128V0H96ZM-12 752L94 894H130L236 752H204L112 873L20 752H-12Z" />
<glyph unicode="&#xcf;" horiz-adv-x="224" d="M96 0V668H128V0H96ZM201 801Q190 801 184 806T177 823Q177 834 183 839T201 845Q212 845 218 840T225 823Q225 812 219 807T201 801ZM23 801Q12 801 6 806T-1 823Q-1 834 5 839T23 845Q34 845 40 840T47 823Q47
812 41 807T23 801Z" />
<glyph unicode="&#xd0;" horiz-adv-x="710" d="M96 0V329H10V359H96V668H310Q475 668 559 584T644 334Q644 168 560 84T310 0H96ZM128 30H300Q460 30 535 105T610 334Q610 487 535 562T300 638H128V359H352V329H128V30Z" />
<glyph unicode="&#xd1;" horiz-adv-x="720" d="M96 0V668H138L592 36V668H624V0H582L128 632V0H96ZM226 772Q226 812 234 834T258 865T294 874Q314 874 331 863T365 836T396 810T426 798Q444 798 456 812T470 874H494Q494 834 486 812T462 781T426 772Q405 772
388 783T355 810T324 836T294 848Q276 848 264 834T250 772H226Z" />
<glyph unicode="&#xd2;" horiz-adv-x="780" d="M390 -10Q288 -10 216 34T105 156T66 334Q66 434 104 511T215 633T390 678Q492 678 564 634T675 512T714 334Q714 234 676 157T565 35T390 -10ZM390 20Q481 20 546 59T645 170T680 334Q680 428 646 498T546 608T390
648Q299 648 234 609T135 499T100 334Q100 241 134 170T234 60T390 20ZM384 752L291 894H327L408 752H384Z" />
<glyph unicode="&#xd3;" horiz-adv-x="780" d="M390 -10Q288 -10 216 34T105 156T66 334Q66 434 104 511T215 633T390 678Q492 678 564 634T675 512T714 334Q714 234 676 157T565 35T390 -10ZM390 20Q481 20 546 59T645 170T680 334Q680 428 646 498T546 608T390
648Q299 648 234 609T135 499T100 334Q100 241 134 170T234 60T390 20ZM383 752L464 894H500L407 752H383Z" />
<glyph unicode="&#xd4;" horiz-adv-x="780" d="M390 -10Q288 -10 216 34T105 156T66 334Q66 434 104 511T215 633T390 678Q492 678 564 634T675 512T714 334Q714 234 676 157T565 35T390 -10ZM390 20Q481 20 546 59T645 170T680 334Q680 428 646 498T546 608T390
648Q299 648 234 609T135 499T100 334Q100 241 134 170T234 60T390 20ZM266 752L372 894H408L514 752H482L390 873L298 752H266Z" />
<glyph unicode="&#xd5;" horiz-adv-x="780" d="M390 -10Q288 -10 216 34T105 156T66 334Q66 434 104 511T215 633T390 678Q492 678 564 634T675 512T714 334Q714 234 676 157T565 35T390 -10ZM390 20Q481 20 546 59T645 170T680 334Q680 428 646 498T546 608T390
648Q299 648 234 609T135 499T100 334Q100 241 134 170T234 60T390 20ZM256 772Q256 812 264 834T288 865T324 874Q344 874 361 863T395 836T426 810T456 798Q474 798 486 812T500 874H524Q524 834 516 812T492 781T456 772Q435 772 418 783T385 810T354 836T324
848Q306 848 294 834T280 772H256Z" />
<glyph unicode="&#xd6;" horiz-adv-x="780" d="M390 -10Q288 -10 216 34T105 156T66 334Q66 434 104 511T215 633T390 678Q492 678 564 634T675 512T714 334Q714 234 676 157T565 35T390 -10ZM390 20Q481 20 546 59T645 170T680 334Q680 428 646 498T546 608T390
648Q299 648 234 609T135 499T100 334Q100 241 134 170T234 60T390 20ZM479 801Q468 801 462 806T455 823Q455 834 461 839T479 845Q490 845 496 840T503 823Q503 812 497 807T479 801ZM301 801Q290 801 284 806T277 823Q277 834 283 839T301 845Q312 845 318 840T325
823Q325 812 319 807T301 801Z" />
<glyph unicode="&#xd7;" horiz-adv-x="582" d="M118 139L96 161L268 334L96 507L118 529L291 357L464 529L486 507L314 334L486 161L464 139L291 311L118 139Z" />
<glyph unicode="&#xd8;" horiz-adv-x="780" d="M88 -10L66 10L145 94Q106 140 86 201T66 334Q66 434 104 511T215 633T390 678Q460 678 516 656T614 595L692 678L714 658L634 573Q673 528 693 467T714 334Q714 234 676 157T565 35T390 -10Q319 -10 263 11T165
73L88 -10ZM390 20Q481 20 546 59T645 170T680 334Q680 400 663 454T612 550L187 96Q224 59 275 40T390 20ZM167 118L592 572Q555 608 504 628T390 648Q299 648 234 609T135 499T100 334Q100 200 167 118Z" />
<glyph unicode="&#xd9;" horiz-adv-x="720" d="M360 -10Q237 -10 167 57T96 268V668H128V268Q128 179 156 124T237 45T360 20Q431 20 483 44T563 124T592 268V668H624V268Q624 124 554 57T360 -10ZM354 752L261 894H297L378 752H354Z" />
<glyph unicode="&#xda;" horiz-adv-x="720" d="M360 -10Q237 -10 167 57T96 268V668H128V268Q128 179 156 124T237 45T360 20Q431 20 483 44T563 124T592 268V668H624V268Q624 124 554 57T360 -10ZM353 752L434 894H470L377 752H353Z" />
<glyph unicode="&#xdb;" horiz-adv-x="720" d="M360 -10Q237 -10 167 57T96 268V668H128V268Q128 179 156 124T237 45T360 20Q431 20 483 44T563 124T592 268V668H624V268Q624 124 554 57T360 -10ZM236 752L342 894H378L484 752H452L360 873L268 752H236Z" />
<glyph unicode="&#xdc;" horiz-adv-x="720" d="M360 -10Q237 -10 167 57T96 268V668H128V268Q128 179 156 124T237 45T360 20Q431 20 483 44T563 124T592 268V668H624V268Q624 124 554 57T360 -10ZM449 801Q438 801 432 806T425 823Q425 834 431 839T449 845Q460
845 466 840T473 823Q473 812 467 807T449 801ZM271 801Q260 801 254 806T247 823Q247 834 253 839T271 845Q282 845 288 840T295 823Q295 812 289 807T271 801Z" />
<glyph unicode="&#xdd;" horiz-adv-x="672" d="M320 0V267L42 668H80L336 294L592 668H630L352 267V0H320ZM329 752L410 894H446L353 752H329Z" />
<glyph unicode="&#xde;" horiz-adv-x="632" d="M96 0V668H128V561H302Q437 561 501 500T566 334Q566 229 502 168T302 107H128V0H96ZM128 137H292Q409 137 470 184T532 334Q532 435 474 483T292 531H128V137Z" />
<glyph unicode="&#xdf;" horiz-adv-x="610" d="M371 -10Q352 -10 331 -7T299 0V28Q310 25 331 22T371 18Q444 18 478 60T512 180Q512 265 457 301T299 338V366Q380 366 425 401T470 508Q470 580 425 615T299 650Q218 650 172 598T126 444V0H96V444Q96 520 120
572T190 651T299 678Q394 678 448 636T502 511Q502 448 470 409T380 353Q462 339 503 295T544 177Q544 125 526 83T470 15T371 -10Z" />
<glyph unicode="&#xe0;" horiz-adv-x="560" d="M246 -10Q188 -10 148 7T87 55T66 128Q66 170 87 197T148 240T246 264L434 288Q433 370 391 411T265 452Q222 452 189 437T118 387L100 410Q129 440 171 460T265 480Q365 480 414 430T464 286V0H434V96Q405 43 357
17T246 -10ZM246 18Q306 18 348 44T412 110T434 192V260L246 236Q175 227 137 203T98 128Q98 78 136 48T246 18ZM530 554L437 696H473L554 554H530Z" />
<glyph unicode="&#xe1;" horiz-adv-x="560" d="M246 -10Q188 -10 148 7T87 55T66 128Q66 170 87 197T148 240T246 264L434 288Q433 370 391 411T265 452Q222 452 189 437T118 387L100 410Q129 440 171 460T265 480Q365 480 414 430T464 286V0H434V96Q405 43 357
17T246 -10ZM246 18Q306 18 348 44T412 110T434 192V260L246 236Q175 227 137 203T98 128Q98 78 136 48T246 18ZM273 554L354 696H390L297 554H273Z" />
<glyph unicode="&#xe2;" horiz-adv-x="560" d="M246 -10Q188 -10 148 7T87 55T66 128Q66 170 87 197T148 240T246 264L434 288Q433 370 391 411T265 452Q222 452 189 437T118 387L100 410Q129 440 171 460T265 480Q365 480 414 430T464 286V0H434V96Q405 43 357
17T246 -10ZM246 18Q306 18 348 44T412 110T434 192V260L246 236Q175 227 137 203T98 128Q98 78 136 48T246 18ZM412 554L518 696H554L660 554H628L536 675L444 554H412Z" />
<glyph unicode="&#xe3;" horiz-adv-x="560" d="M246 -10Q188 -10 148 7T87 55T66 128Q66 170 87 197T148 240T246 264L434 288Q433 370 391 411T265 452Q222 452 189 437T118 387L100 410Q129 440 171 460T265 480Q365 480 414 430T464 286V0H434V96Q405 43 357
17T246 -10ZM246 18Q306 18 348 44T412 110T434 192V260L246 236Q175 227 137 203T98 128Q98 78 136 48T246 18ZM402 574Q402 614 410 636T434 667T470 676Q490 676 507 665T541 638T572 612T602 600Q620 600 632 614T646 676H670Q670 636 662 614T638 583T602
574Q581 574 564 585T531 612T500 638T470 650Q452 650 440 636T426 574H402Z" />
<glyph unicode="&#xe4;" horiz-adv-x="560" d="M246 -10Q188 -10 148 7T87 55T66 128Q66 170 87 197T148 240T246 264L434 288Q433 370 391 411T265 452Q222 452 189 437T118 387L100 410Q129 440 171 460T265 480Q365 480 414 430T464 286V0H434V96Q405 43 357
17T246 -10ZM246 18Q306 18 348 44T412 110T434 192V260L246 236Q175 227 137 203T98 128Q98 78 136 48T246 18ZM625 603Q614 603 608 608T601 625Q601 636 607 641T625 647Q636 647 642 642T649 625Q649 614 643 609T625 603ZM447 603Q436 603 430 608T423 625Q423
636 429 641T447 647Q458 647 464 642T471 625Q471 614 465 609T447 603Z" />
<glyph unicode="&#xe5;" horiz-adv-x="560" d="M246 -10Q188 -10 148 7T87 55T66 128Q66 170 87 197T148 240T246 264L434 288Q433 370 391 411T265 452Q222 452 189 437T118 387L100 410Q129 440 171 460T265 480Q365 480 414 430T464 286V0H434V96Q405 43 357
17T246 -10ZM246 18Q306 18 348 44T412 110T434 192V260L246 236Q175 227 137 203T98 128Q98 78 136 48T246 18ZM536 524Q488 524 459 552T429 626Q429 669 458 697T536 726Q584 726 613 698T643 625Q643 581 614 553T536 524ZM536 550Q571 550 592 571T613 625Q613
658 592 679T536 700Q501 700 480 679T459 625Q459 592 480 571T536 550Z" />
<glyph unicode="&#xe6;" horiz-adv-x="928" d="M246 -10Q188 -10 148 7T87 55T66 128Q66 170 87 197T148 240T246 264L434 288Q433 370 391 411T265 452Q222 452 189 437T118 387L100 410Q129 440 171 460T265 480Q348 480 395 444T455 338Q480 405 532 442T653
480Q720 480 766 452T837 379T862 278Q862 264 859 251T851 230H466Q466 164 491 117T561 44T663 18Q714 18 752 34T824 82L842 59Q807 24 764 7T663 -10Q586 -10 531 29T453 138Q431 65 374 28T246 -10ZM246 18Q306 18 348 44T412 110T434 192V260L246 236Q175
227 137 203T98 128Q98 78 136 48T246 18ZM466 258H827Q829 262 829 267T830 278Q830 327 809 366T749 429T653 452Q605 452 564 429T497 363T466 258Z" />
<glyph unicode="&#xe7;" horiz-adv-x="516" d="M295 -10Q227 -10 176 20T95 105T66 235Q66 310 95 365T175 450T295 480Q346 480 386 464T456 418L439 396Q409 424 373 438T295 452Q237 452 193 426T123 352T98 235Q98 168 123 119T192 44T295 18Q337 18 373 32T439
74L456 52Q427 23 387 7T295 -10ZM521 -174Q508 -174 492 -172T467 -167V-145Q476 -147 492 -147T521 -148Q544 -148 557 -138T571 -108Q571 -89 558 -79T521 -68H497V-51L525 11H553L525 -50Q562 -50 581 -67T601 -112Q601 -141 581 -157T521 -174Z" />
<glyph unicode="&#xe8;" horiz-adv-x="560" d="M295 -10Q227 -10 176 20T95 105T66 235Q66 310 95 365T173 450T285 480Q352 480 398 452T469 379T494 278Q494 264 491 251T483 230H98Q98 164 123 117T193 44T295 18Q346 18 384 34T456 82L474 59Q439 24 396 7T295
-10ZM98 258H459Q461 262 461 267T462 278Q462 327 441 366T381 429T285 452Q237 452 196 429T129 363T98 258ZM537 554L444 696H480L561 554H537Z" />
<glyph unicode="&#xe9;" horiz-adv-x="560" d="M295 -10Q227 -10 176 20T95 105T66 235Q66 310 95 365T173 450T285 480Q352 480 398 452T469 379T494 278Q494 264 491 251T483 230H98Q98 164 123 117T193 44T295 18Q346 18 384 34T456 82L474 59Q439 24 396 7T295
-10ZM98 258H459Q461 262 461 267T462 278Q462 327 441 366T381 429T285 452Q237 452 196 429T129 363T98 258ZM280 554L361 696H397L304 554H280Z" />
<glyph unicode="&#xea;" horiz-adv-x="560" d="M295 -10Q227 -10 176 20T95 105T66 235Q66 310 95 365T173 450T285 480Q352 480 398 452T469 379T494 278Q494 264 491 251T483 230H98Q98 164 123 117T193 44T295 18Q346 18 384 34T456 82L474 59Q439 24 396 7T295
-10ZM98 258H459Q461 262 461 267T462 278Q462 327 441 366T381 429T285 452Q237 452 196 429T129 363T98 258ZM419 554L525 696H561L667 554H635L543 675L451 554H419Z" />
<glyph unicode="&#xeb;" horiz-adv-x="560" d="M295 -10Q227 -10 176 20T95 105T66 235Q66 310 95 365T173 450T285 480Q352 480 398 452T469 379T494 278Q494 264 491 251T483 230H98Q98 164 123 117T193 44T295 18Q346 18 384 34T456 82L474 59Q439 24 396 7T295
-10ZM98 258H459Q461 262 461 267T462 278Q462 327 441 366T381 429T285 452Q237 452 196 429T129 363T98 258ZM632 603Q621 603 615 608T608 625Q608 636 614 641T632 647Q643 647 649 642T656 625Q656 614 650 609T632 603ZM454 603Q443 603 437 608T430 625Q430
636 436 641T454 647Q465 647 471 642T478 625Q478 614 472 609T454 603Z" />
<glyph unicode="&#xec;" horiz-adv-x="222" d="M96 0V470H126V0H96ZM105 554L12 696H48L129 554H105Z" />
<glyph unicode="&#xed;" horiz-adv-x="222" d="M96 0V470H126V0H96ZM104 554L185 696H221L128 554H104Z" />
<glyph unicode="&#xee;" horiz-adv-x="222" d="M96 0V470H126V0H96ZM-13 554L93 696H129L235 554H203L111 675L19 554H-13Z" />
<glyph unicode="&#xef;" horiz-adv-x="222" d="M96 0V470H126V0H96ZM200 603Q189 603 183 608T176 625Q176 636 182 641T200 647Q211 647 217 642T224 625Q224 614 218 609T200 603ZM22 603Q11 603 5 608T-2 625Q-2 636 4 641T22 647Q33 647 39 642T46 625Q46
614 40 609T22 603Z" />
<glyph unicode="&#xf0;" horiz-adv-x="590" d="M295 -10Q227 -10 176 18T95 96T66 214Q66 281 95 331T175 410T295 438Q341 438 372 424T424 390L287 581L184 538V568L270 604L225 668H261L298 616L420 668V638L314 593L427 435Q462 386 483 352T514 286T524 214Q524
147 495 97T415 18T295 -10ZM295 18Q353 18 397 42T467 110T492 214Q492 274 467 318T398 386T295 410Q237 410 193 386T123 318T98 214Q98 155 123 111T192 42T295 18Z" />
<glyph unicode="&#xf1;" horiz-adv-x="570" d="M96 0V470H126V366Q147 419 192 449T300 480Q383 480 428 434T474 286V0H444V286Q444 375 408 413T300 452Q214 452 170 393T126 237V0H96ZM407 574Q407 614 415 636T439 667T475 676Q495 676 512 665T546 638T577
612T607 600Q625 600 637 614T651 676H675Q675 636 667 614T643 583T607 574Q586 574 569 585T536 612T505 638T475 650Q457 650 445 636T431 574H407Z" />
<glyph unicode="&#xf2;" horiz-adv-x="590" d="M295 -10Q227 -10 176 20T95 105T66 235Q66 310 95 365T175 450T295 480Q363 480 414 450T495 365T524 235Q524 160 495 105T415 20T295 -10ZM295 18Q353 18 397 44T467 119T492 235Q492 303 467 351T398 426T295
452Q237 452 193 426T123 352T98 235Q98 168 123 119T192 44T295 18ZM545 554L452 696H488L569 554H545Z" />
<glyph unicode="&#xf3;" horiz-adv-x="590" d="M295 -10Q227 -10 176 20T95 105T66 235Q66 310 95 365T175 450T295 480Q363 480 414 450T495 365T524 235Q524 160 495 105T415 20T295 -10ZM295 18Q353 18 397 44T467 119T492 235Q492 303 467 351T398 426T295
452Q237 452 193 426T123 352T98 235Q98 168 123 119T192 44T295 18ZM288 554L369 696H405L312 554H288Z" />
<glyph unicode="&#xf4;" horiz-adv-x="590" d="M295 -10Q227 -10 176 20T95 105T66 235Q66 310 95 365T175 450T295 480Q363 480 414 450T495 365T524 235Q524 160 495 105T415 20T295 -10ZM295 18Q353 18 397 44T467 119T492 235Q492 303 467 351T398 426T295
452Q237 452 193 426T123 352T98 235Q98 168 123 119T192 44T295 18ZM427 554L533 696H569L675 554H643L551 675L459 554H427Z" />
<glyph unicode="&#xf5;" horiz-adv-x="590" d="M295 -10Q227 -10 176 20T95 105T66 235Q66 310 95 365T175 450T295 480Q363 480 414 450T495 365T524 235Q524 160 495 105T415 20T295 -10ZM295 18Q353 18 397 44T467 119T492 235Q492 303 467 351T398 426T295
452Q237 452 193 426T123 352T98 235Q98 168 123 119T192 44T295 18ZM417 574Q417 614 425 636T449 667T485 676Q505 676 522 665T556 638T587 612T617 600Q635 600 647 614T661 676H685Q685 636 677 614T653 583T617 574Q596 574 579 585T546 612T515 638T485
650Q467 650 455 636T441 574H417Z" />
<glyph unicode="&#xf6;" horiz-adv-x="590" d="M295 -10Q227 -10 176 20T95 105T66 235Q66 310 95 365T175 450T295 480Q363 480 414 450T495 365T524 235Q524 160 495 105T415 20T295 -10ZM295 18Q353 18 397 44T467 119T492 235Q492 303 467 351T398 426T295
452Q237 452 193 426T123 352T98 235Q98 168 123 119T192 44T295 18ZM640 603Q629 603 623 608T616 625Q616 636 622 641T640 647Q651 647 657 642T664 625Q664 614 658 609T640 603ZM462 603Q451 603 445 608T438 625Q438 636 444 641T462 647Q473 647 479 642T486
625Q486 614 480 609T462 603Z" />
<glyph unicode="&#xf7;" horiz-adv-x="582" d="M96 320V348H486V320H96ZM291 139Q279 139 272 146T265 164Q265 175 272 182T291 189Q303 189 310 182T317 164Q317 153 310 146T291 139ZM291 479Q279 479 272 486T265 504Q265 515 272 522T291 529Q303 529 310
522T317 504Q317 493 310 486T291 479Z" />
<glyph unicode="&#xf8;" horiz-adv-x="590" d="M88 -10L66 10L502 480L524 460L88 -10ZM295 -10Q227 -10 176 20T95 105T66 235Q66 310 95 365T175 450T295 480Q363 480 414 450T495 365T524 235Q524 160 495 105T415 20T295 -10ZM295 18Q353 18 397 44T467 119T492
235Q492 303 467 351T398 426T295 452Q237 452 193 426T123 352T98 235Q98 168 123 119T192 44T295 18Z" />
<glyph unicode="&#xf9;" horiz-adv-x="570" d="M270 -10Q187 -10 142 36T96 184V470H126V184Q126 95 162 57T270 18Q356 18 400 77T444 233V470H474V0H444V104Q423 51 378 21T270 -10ZM535 554L442 696H478L559 554H535Z" />
<glyph unicode="&#xfa;" horiz-adv-x="570" d="M270 -10Q187 -10 142 36T96 184V470H126V184Q126 95 162 57T270 18Q356 18 400 77T444 233V470H474V0H444V104Q423 51 378 21T270 -10ZM278 554L359 696H395L302 554H278Z" />
<glyph unicode="&#xfb;" horiz-adv-x="570" d="M270 -10Q187 -10 142 36T96 184V470H126V184Q126 95 162 57T270 18Q356 18 400 77T444 233V470H474V0H444V104Q423 51 378 21T270 -10ZM417 554L523 696H559L665 554H633L541 675L449 554H417Z" />
<glyph unicode="&#xfc;" horiz-adv-x="570" d="M270 -10Q187 -10 142 36T96 184V470H126V184Q126 95 162 57T270 18Q356 18 400 77T444 233V470H474V0H444V104Q423 51 378 21T270 -10ZM630 603Q619 603 613 608T606 625Q606 636 612 641T630 647Q641 647 647 642T654
625Q654 614 648 609T630 603ZM452 603Q441 603 435 608T428 625Q428 636 434 641T452 647Q463 647 469 642T476 625Q476 614 470 609T452 603Z" />
<glyph unicode="&#xfd;" horiz-adv-x="522" d="M94 -188Q70 -188 47 -181T2 -160L13 -135Q36 -148 56 -154T94 -160Q119 -160 142 -148T190 -102T246 -1L42 470H75L261 32L447 470H480L276 0Q241 -80 210 -120T151 -174T94 -188ZM254 554L335 696H371L278 554H254Z" />
<glyph unicode="&#xfe;" horiz-adv-x="610" d="M96 -182V668H126V357Q147 414 198 447T319 480Q385 480 436 450T515 365T544 235Q544 160 516 105T436 20T319 -10Q250 -10 199 23T126 113V-182H96ZM319 18Q375 18 418 44T487 119T512 235Q512 303 487 351T419
426T319 452Q263 452 220 426T151 352T126 235Q126 168 151 119T219 44T319 18Z" />
<glyph unicode="&#xff;" horiz-adv-x="522" d="M94 -188Q70 -188 47 -181T2 -160L13 -135Q36 -148 56 -154T94 -160Q119 -160 142 -148T190 -102T246 -1L42 470H75L261 32L447 470H480L276 0Q241 -80 210 -120T151 -174T94 -188ZM606 603Q595 603 589 608T582
625Q582 636 588 641T606 647Q617 647 623 642T630 625Q630 614 624 609T606 603ZM428 603Q417 603 411 608T404 625Q404 636 410 641T428 647Q439 647 445 642T452 625Q452 614 446 609T428 603Z" />
<glyph unicode="&#x2013;" horiz-adv-x="568" d="M66 272V300H502V272H66Z" />
<glyph unicode="&#x2014;" horiz-adv-x="798" d="M66 272V300H732V272H66Z" />
<glyph unicode="&#x2018;" horiz-adv-x="224" d="M96 478V546Q96 589 105 618T139 668L158 659Q141 633 135 609T128 546V478H96Z" />
<glyph unicode="&#x2019;" horiz-adv-x="224" d="M85 478L66 487Q83 513 89 537T96 600V668H128V600Q128 557 119 528T85 478Z" />
<glyph unicode="&#x201a;" horiz-adv-x="224" d="M85 -144L66 -135Q83 -109 89 -85T96 -22V46H128V-22Q128 -65 119 -94T85 -144Z" />
<glyph unicode="&#x201c;" horiz-adv-x="362" d="M234 478V546Q234 589 243 618T277 668L296 659Q279 633 273 609T266 546V478H234ZM96 478V546Q96 589 105 618T139 668L158 659Q141 633 135 609T128 546V478H96Z" />
<glyph unicode="&#x201d;" horiz-adv-x="362" d="M223 478L204 487Q221 513 227 537T234 600V668H266V600Q266 557 257 528T223 478ZM85 478L66 487Q83 513 89 537T96 600V668H128V600Q128 557 119 528T85 478Z" />
<glyph unicode="&#x201e;" horiz-adv-x="362" d="M223 -144L204 -135Q221 -109 227 -85T234 -22V46H266V-22Q266 -65 257 -94T223 -144ZM85 -144L66 -135Q83 -109 89 -85T96 -22V46H128V-22Q128 -65 119 -94T85 -144Z" />
<glyph unicode="&#x2022;" horiz-adv-x="364" d="M182 204Q156 204 137 214T107 244T96 286Q96 310 106 328T136 357T182 368Q209 368 228 358T257 329T268 286Q268 263 258 244T228 215T182 204Z" />
<glyph unicode="&#x2039;" horiz-adv-x="264" d="M166 113L66 286L166 461H198L98 286L198 113H166Z" />
<glyph unicode="&#x203a;" horiz-adv-x="264" d="M66 113L166 286L66 461H98L198 286L98 113H66Z" />
</font>
</defs>
</svg>
